<svg width="44" height="44" viewBox="0 0 44 44" fill="none" xmlns="http://www.w3.org/2000/svg">
<circle opacity="0.1" cx="22" cy="22" r="22" transform="matrix(-1 0 0 1 44 0)" fill="#E65C00"/>
<path d="M23.1283 28C23.0131 28.0006 22.8989 27.9789 22.7922 27.9361C22.6856 27.8933 22.5886 27.8301 22.5068 27.7504L17.2546 22.5855C17.0915 22.4243 17 22.2061 17 21.9787C17 21.7513 17.0915 21.5331 17.2546 21.3718L22.5068 16.207C22.6742 16.066 22.8897 15.9923 23.11 16.0006C23.3303 16.009 23.5393 16.0988 23.6952 16.2521C23.8511 16.4054 23.9424 16.6109 23.9509 16.8276C23.9594 17.0442 23.8845 17.256 23.7411 17.4207L19.1103 21.9744L23.7411 26.528C23.864 26.6479 23.948 26.8009 23.9825 26.9678C24.0169 27.1346 24.0003 27.3077 23.9348 27.4653C23.8692 27.6229 23.7575 27.7577 23.614 27.8529C23.4704 27.9481 23.3014 27.9993 23.1283 28Z" fill="#E65C00"/>
</svg>
