<svg width="30" height="34" viewBox="0 0 30 34" fill="none" xmlns="http://www.w3.org/2000/svg">
<path fill-rule="evenodd" clip-rule="evenodd" d="M29.4707 24.0967L28.2168 13.9879C27.4538 10.3846 25.2918 8.90088 23.2309 8.90088H6.67532C4.58508 8.90088 2.35134 10.2802 1.70405 13.9879L0.435531 24.0967C-0.601438 31.512 3.21715 33.3658 8.20307 33.3658H21.7179C26.6908 33.3658 30.3935 30.6821 29.4707 24.0967ZM10.2101 17.3042C9.91498 17.3127 9.62407 17.2329 9.37456 17.075C9.12505 16.9172 8.92834 16.6886 8.80951 16.4183C8.69069 16.148 8.65514 15.8485 8.70751 15.5579C8.75988 15.2674 8.89777 14.9991 9.10348 14.7873C9.30919 14.5755 9.57338 14.4299 9.86228 14.3692C10.1512 14.3084 10.4517 14.3352 10.7253 14.4462C10.9989 14.5571 11.2332 14.7472 11.3982 14.992C11.5632 15.2368 11.6513 15.5253 11.6515 15.8206C11.6558 16.2081 11.5067 16.5816 11.2367 16.8595C10.9667 17.1375 10.5976 17.2974 10.2101 17.3042ZM18.2075 15.8206C18.2158 16.1037 18.3074 16.378 18.4707 16.6094C18.6341 16.8408 18.862 17.0189 19.126 17.1215C19.39 17.2241 19.6784 17.2467 19.9551 17.1864C20.2318 17.1261 20.4847 16.9856 20.682 16.7824C20.8794 16.5793 21.0125 16.3225 21.0648 16.0441C21.117 15.7657 21.0861 15.4781 20.9759 15.2172C20.8657 14.9563 20.681 14.7337 20.445 14.5771C20.209 14.4205 19.932 14.337 19.6488 14.3368C19.2599 14.3416 18.8888 14.5005 18.617 14.7787C18.3452 15.0569 18.195 15.4316 18.1994 15.8206H18.2075Z" fill="white"/>
<path opacity="0.4" d="M23.0478 8.54043C23.0529 8.66716 23.0283 8.79336 22.9761 8.90893H20.6331C20.5878 8.7913 20.5641 8.66646 20.5631 8.54043C20.5631 7.03386 19.9646 5.58905 18.8993 4.52375C17.834 3.45845 16.3891 2.85996 14.8825 2.85996C13.376 2.85996 11.9311 3.45845 10.8658 4.52375C9.80051 5.58905 9.20202 7.03386 9.20202 8.54043C9.22321 8.66234 9.22321 8.78702 9.20202 8.90893H6.80202C6.78084 8.78702 6.78084 8.66234 6.80202 8.54043C6.89587 6.44351 7.79485 4.46363 9.31189 3.01297C10.8289 1.5623 12.8471 0.752686 14.9461 0.752686C17.0451 0.752686 19.0632 1.5623 20.5803 3.01297C22.0973 4.46363 22.9964 6.44351 23.0902 8.54043H23.0478Z" fill="white"/>
</svg>
