<svg width="26" height="30" viewBox="0 0 26 30" fill="none" xmlns="http://www.w3.org/2000/svg">
<path d="M23.9276 14.1789C23.3989 13.622 22.9879 12.9642 22.7194 12.2448C22.4509 11.5254 22.3304 10.7592 22.365 9.99209V9.36436C22.4694 7.37531 21.8419 5.41687 20.6009 3.85894C19.6341 2.65821 18.4114 1.68861 17.0219 1.02097C15.6324 0.353329 14.1114 0.0045062 12.5699 0H12.4405C10.9334 0.00574102 9.44561 0.339124 8.08019 0.977029C6.71478 1.61493 5.50441 2.5421 4.53296 3.6943C3.21831 5.28258 2.54504 7.30502 2.64539 9.36436V9.99209C2.6871 10.7599 2.56982 11.5281 2.30093 12.2485C2.03203 12.969 1.61733 13.6261 1.08271 14.1789C0.315829 15.1389 -0.0666903 16.3498 0.00954451 17.5762C-0.003054 18.8566 0.448123 20.0983 1.27971 21.072C2.39808 22.2637 3.91525 23.0029 5.54291 23.1492C7.85493 23.4018 10.1794 23.5225 12.5052 23.5109C14.8485 23.5109 17.158 23.3462 19.4689 23.1492C21.0966 23.0029 22.6138 22.2637 23.7321 21.072C24.5631 20.098 25.0142 18.8565 25.0023 17.5762C25.0781 16.3496 24.695 15.1387 23.9276 14.1789Z" fill="#E2E3E3"/>
<path d="M15.4584 25.3263C13.4789 25.1705 11.4901 25.1705 9.51054 25.3263C8.88134 25.4733 8.20215 25.81 8.20215 26.5494C8.23035 26.8966 8.33775 27.2327 8.51615 27.5319C8.69454 27.8311 8.93918 28.0854 9.23122 28.2753C9.96371 28.8462 10.832 29.2171 11.7509 29.3514C12.2427 29.4161 12.7409 29.4161 13.2327 29.3514C14.1516 29.2167 15.0198 28.8459 15.7525 28.2753C16.0444 28.0853 16.2888 27.8309 16.4672 27.5318C16.6456 27.2326 16.7531 26.8966 16.7815 26.5494C16.7683 25.81 16.0862 25.4719 15.4584 25.3263Z" fill="#C0C2C2"/>
</svg>
