<svg width="21" height="21" viewBox="0 0 21 21" fill="none" xmlns="http://www.w3.org/2000/svg">
<path d="M14.5746 0.777344H6.42639C3.47083 0.777344 1.75 2.50789 1.75 5.47316V15.5162C1.75 18.5301 3.47083 20.2218 6.42639 20.2218H14.5746C17.5778 20.2218 19.25 18.5301 19.25 15.5162V5.47316C19.25 2.50789 17.5778 0.777344 14.5746 0.777344Z" fill="#BCBDBD"/>
<path fill-rule="evenodd" clip-rule="evenodd" d="M6.68873 5.29883V5.30856C6.48761 5.30856 6.29472 5.38845 6.15251 5.53067C6.01029 5.67288 5.9304 5.86577 5.9304 6.06689C5.9304 6.26801 6.01029 6.4609 6.15251 6.60312C6.29472 6.74533 6.48761 6.82522 6.68873 6.82522H9.5947C9.79712 6.82522 9.99124 6.74482 10.1344 6.60169C10.2775 6.45856 10.3579 6.26444 10.3579 6.06203C10.3579 5.85961 10.2775 5.66549 10.1344 5.52236C9.99124 5.37923 9.79712 5.29883 9.5947 5.29883H6.68873ZM14.311 11.2197H6.68873C6.49218 11.2126 6.30603 11.1296 6.16947 10.9881C6.0329 10.8465 5.95658 10.6575 5.95658 10.4609C5.95658 10.2642 6.0329 10.0752 6.16947 9.93362C6.30603 9.79208 6.49218 9.70905 6.68873 9.70201H14.311C14.5075 9.70905 14.6937 9.79208 14.8302 9.93362C14.9668 10.0752 15.0431 10.2642 15.0431 10.4609C15.0431 10.6575 14.9668 10.8465 14.8302 10.9881C14.6937 11.1296 14.5075 11.2126 14.311 11.2197ZM14.311 15.6627H6.68873C6.54652 15.6795 6.40245 15.6555 6.27335 15.5935C6.14425 15.5316 6.03543 15.4342 5.95957 15.3127C5.88385 15.19 5.84375 15.0486 5.84375 14.9044C5.84375 14.7602 5.88385 14.6188 5.95957 14.496C6.03476 14.3734 6.14315 14.2745 6.27218 14.2109C6.40122 14.1472 6.54563 14.1214 6.68873 14.1363H14.311C14.4985 14.1575 14.6717 14.2471 14.7975 14.3878C14.9232 14.5286 14.9927 14.7108 14.9927 14.8995C14.9927 15.0883 14.9232 15.2704 14.7975 15.4112C14.6717 15.552 14.4985 15.6415 14.311 15.6627Z" fill="white"/>
</svg>
