<svg width="19" height="21" viewBox="0 0 19 21" fill="none" xmlns="http://www.w3.org/2000/svg">
<path fill-rule="evenodd" clip-rule="evenodd" d="M0.0141973 14.8601V7.24707H18.0142V14.9211C18.0142 18.0601 16.0382 19.9901 12.8772 19.9901H5.1412C4.45421 20.0428 3.76395 19.9462 3.1178 19.707C2.47166 19.4678 1.88492 19.0916 1.39786 18.6042C0.910806 18.1169 0.534973 17.5299 0.296134 16.8836C0.0572946 16.2374 -0.0388895 15.547 0.0141973 14.8601ZM4.9732 12.4001C4.86483 12.4037 4.75682 12.3858 4.65539 12.3475C4.55396 12.3091 4.46111 12.2511 4.38219 12.1768C4.30328 12.1024 4.23986 12.0132 4.19558 11.9142C4.1513 11.8152 4.12704 11.7085 4.1242 11.6001C4.12235 11.3799 4.20553 11.1674 4.35642 11.007C4.50732 10.8467 4.71428 10.7507 4.9342 10.7391C5.14835 10.7433 5.35263 10.83 5.50439 10.9812C5.65614 11.1323 5.74366 11.3363 5.74869 11.5504C5.75373 11.7646 5.67587 11.9724 5.53138 12.1305C5.38689 12.2886 5.18692 12.3848 4.9732 12.3991V12.4001ZM9.0342 12.4001C8.92575 12.4038 8.81763 12.386 8.71609 12.3478C8.61454 12.3095 8.52156 12.2515 8.44254 12.1772C8.36352 12.1028 8.30001 12.0135 8.25567 11.9145C8.21133 11.8154 8.18704 11.7085 8.1842 11.6001C8.18259 11.3799 8.26587 11.1677 8.41671 11.0073C8.56755 10.847 8.77437 10.7509 8.99419 10.7391C9.2084 10.7431 9.4128 10.8297 9.5647 10.9807C9.71661 11.1318 9.80429 11.3357 9.80945 11.5499C9.81462 11.7641 9.73685 11.972 9.5924 12.1302C9.44794 12.2884 9.24797 12.3848 9.0342 12.3991V12.4001ZM13.0642 16.0801C12.8438 16.073 12.6349 15.9803 12.482 15.8215C12.329 15.6627 12.244 15.4505 12.2452 15.2301C12.2404 15.0102 12.3229 14.7973 12.4747 14.6382C12.6266 14.479 12.8353 14.3866 13.0552 14.3811H13.0642C13.2896 14.3811 13.5058 14.4706 13.6652 14.63C13.8246 14.7894 13.9142 15.0056 13.9142 15.2311C13.9142 15.4565 13.8246 15.6727 13.6652 15.8321C13.5058 15.9915 13.2896 16.0811 13.0642 16.0811V16.0801ZM8.1842 15.2301C8.19281 15.3896 8.24804 15.543 8.34304 15.6714C8.43804 15.7998 8.56864 15.8975 8.71863 15.9524C8.86863 16.0073 9.03142 16.0169 9.18685 15.9802C9.34228 15.9434 9.48352 15.8618 9.59302 15.7455C9.70253 15.6293 9.77551 15.4834 9.80291 15.3261C9.83031 15.1687 9.81094 15.0068 9.74718 14.8604C9.68343 14.7139 9.5781 14.5894 9.44425 14.5022C9.3104 14.4151 9.15391 14.3691 8.99419 14.3701C8.77446 14.3817 8.56764 14.4775 8.41677 14.6377C8.2659 14.7979 8.1826 15.01 8.1842 15.2301ZM4.1142 15.2301C4.12282 15.3896 4.17805 15.543 4.27305 15.6714C4.36805 15.7998 4.49863 15.8975 4.64863 15.9524C4.79862 16.0073 4.96143 16.0169 5.11686 15.9802C5.27229 15.9434 5.41351 15.8618 5.52302 15.7455C5.63253 15.6293 5.70551 15.4834 5.73292 15.3261C5.76032 15.1687 5.74093 15.0068 5.67718 14.8604C5.61342 14.7139 5.50809 14.5894 5.37424 14.5022C5.24039 14.4151 5.08392 14.3691 4.9242 14.3701C4.70446 14.3817 4.49765 14.4775 4.34678 14.6377C4.19591 14.7979 4.11261 15.01 4.1142 15.2301ZM12.2542 11.5911C12.2555 11.3794 12.3407 11.1768 12.4912 11.0277C12.6416 10.8787 12.8449 10.7954 13.0567 10.7961C13.2684 10.7967 13.4713 10.8813 13.6207 11.0313C13.7702 11.1812 13.8542 11.3843 13.8542 11.5961C13.8542 11.8078 13.7702 12.0109 13.6207 12.1609C13.4713 12.3108 13.2684 12.3954 13.0567 12.3961C12.8449 12.3967 12.6416 12.3134 12.4912 12.1644C12.3407 12.0154 12.2555 11.8128 12.2542 11.6011V11.5911Z" fill="#BCBDBD"/>
<path opacity="0.4" d="M0.0141602 7.24698C0.0183349 6.53528 0.0704587 5.82469 0.170166 5.12C0.384026 4.10775 0.933591 3.19743 1.72972 2.53671C2.52585 1.87599 3.52185 1.50362 4.55617 1.47998H13.4672C14.499 1.51217 15.4907 1.88766 16.2851 2.54697C17.0795 3.20627 17.6313 4.11173 17.8532 5.12C17.9524 5.82472 18.0042 6.53531 18.0082 7.24698H0.0141602Z" fill="#BCBDBD"/>
<path d="M5.31409 4.57999C5.41533 4.58193 5.5159 4.56327 5.6097 4.52515C5.70351 4.48702 5.78857 4.43023 5.85975 4.35822C5.93092 4.2862 5.98672 4.20048 6.02374 4.10623C6.06075 4.01199 6.07823 3.9112 6.0751 3.81V0.760986C6.0751 0.559157 5.99491 0.365585 5.8522 0.22287C5.70948 0.0801547 5.51592 0 5.31409 0C5.11226 0 4.91869 0.0801547 4.77598 0.22287C4.63326 0.365585 4.55309 0.559157 4.55309 0.760986V3.81C4.54996 3.9112 4.56742 4.01199 4.60444 4.10623C4.64146 4.20048 4.69725 4.2862 4.76842 4.35822C4.8396 4.43023 4.92468 4.48702 5.01849 4.52515C5.11229 4.56327 5.21286 4.58193 5.31409 4.57999Z" fill="#BCBDBD"/>
<path d="M12.7142 4.57999C12.8152 4.58109 12.9154 4.56186 13.0089 4.52344C13.1023 4.48502 13.187 4.4282 13.258 4.35635C13.329 4.28451 13.3848 4.19912 13.4222 4.10526C13.4595 4.01139 13.4775 3.91098 13.4752 3.81V0.760986C13.4752 0.559157 13.3951 0.365585 13.2524 0.22287C13.1096 0.0801547 12.9161 0 12.7142 0C12.5124 0 12.3189 0.0801547 12.1761 0.22287C12.0334 0.365585 11.9532 0.559157 11.9532 0.760986V3.81C11.9501 3.9112 11.9676 4.01199 12.0046 4.10623C12.0416 4.20048 12.0974 4.2862 12.1686 4.35822C12.2398 4.43023 12.3248 4.48702 12.4186 4.52515C12.5124 4.56327 12.613 4.58193 12.7142 4.57999Z" fill="#BCBDBD"/>
</svg>
