<svg width="23" height="23" viewBox="0 0 23 23" fill="none" xmlns="http://www.w3.org/2000/svg">
<path opacity="0.4" d="M14.2232 4.68851C14.1054 4.66605 13.9842 4.66703 13.8668 4.69138C13.7494 4.71572 13.6379 4.76297 13.5388 4.83041C13.4396 4.89784 13.3547 4.98416 13.2889 5.08441C13.2231 5.18467 13.1777 5.29691 13.1552 5.41472C13.1093 5.65364 13.1597 5.90102 13.2953 6.10302C13.4309 6.30502 13.6408 6.44528 13.8793 6.49329C14.6052 6.63374 15.2723 6.98867 15.7945 7.51219C16.3167 8.0357 16.6699 8.70374 16.8085 9.43005C16.848 9.63963 16.9593 9.82892 17.1232 9.96535C17.2871 10.1018 17.4934 10.1768 17.7067 10.1776C17.7658 10.1776 17.8247 10.1722 17.8828 10.1616C18.1214 10.1133 18.3313 9.97281 18.4667 9.77059C18.6021 9.56837 18.6521 9.32086 18.6058 9.08193C18.3991 7.99499 17.8709 6.99514 17.0895 6.21184C16.3081 5.42854 15.3096 4.89784 14.2232 4.68851Z" fill="white"/>
<path opacity="0.4" d="M14.1567 0.970294C14.0386 0.954277 13.9183 0.9627 13.8035 0.99503C13.6887 1.02736 13.5818 1.0829 13.4893 1.15824C13.3927 1.23359 13.3124 1.32769 13.2532 1.43487C13.1939 1.54204 13.1569 1.66009 13.1444 1.78192C13.1173 2.0236 13.1872 2.26612 13.3388 2.45631C13.4903 2.6465 13.7111 2.7688 13.9527 2.79642C15.6275 2.9789 17.1895 3.72863 18.3795 4.92114C19.5695 6.11364 20.3159 7.67721 20.4948 9.35236C20.519 9.5763 20.625 9.78343 20.7926 9.934C20.9601 10.0846 21.1773 10.168 21.4025 10.1683C21.4382 10.1683 21.4739 10.1662 21.5094 10.1618C21.629 10.149 21.7448 10.1123 21.8501 10.054C21.9554 9.99567 22.0479 9.91687 22.1223 9.82224C22.1976 9.72809 22.2535 9.61999 22.2868 9.50416C22.3202 9.38834 22.3303 9.26709 22.3167 9.14734C22.0946 7.05753 21.1639 5.10668 19.6794 3.61909C18.1949 2.13151 16.2461 1.19677 14.1567 0.970294Z" fill="white"/>
<path fill-rule="evenodd" clip-rule="evenodd" d="M10.6065 12.6787C14.8665 16.9376 15.8329 12.0113 18.5454 14.7217C21.1597 17.3359 22.6633 17.8592 19.3496 21.1719C18.9352 21.5051 16.2985 25.5172 7.03224 16.2595C-2.23406 7.00173 1.77487 4.35436 2.10806 3.94001C5.42928 0.618792 5.94405 2.12454 8.55831 4.74414C11.2708 7.45024 6.34662 8.4199 10.6065 12.6787Z" fill="white"/>
</svg>
