<svg width="44" height="43" viewBox="0 0 44 43" fill="none" xmlns="http://www.w3.org/2000/svg">
<rect opacity="0.3" x="0.371094" width="42.7166" height="42.7166" rx="12" fill="white"/>
<path d="M21.649 10C20.169 9.99706 18.7029 10.286 17.3348 10.8503C15.9666 11.4146 14.7232 12.2432 13.6756 13.2887C12.6281 14.3341 11.7971 15.5759 11.23 16.9429C10.663 18.3099 10.3711 19.7754 10.3711 21.2554C10.4045 23.2245 10.9266 25.1544 11.8905 26.8718C11.9786 27.024 12.0313 27.194 12.045 27.3693C12.0586 27.5446 12.0328 27.7208 11.9693 27.8848L11.2152 30.406C11.1725 30.5328 11.1668 30.6692 11.199 30.7991C11.2311 30.929 11.2997 31.0471 11.3967 31.1393C11.4936 31.2315 11.615 31.2941 11.7463 31.3198C11.8777 31.3454 12.0137 31.3329 12.1382 31.2839L14.4118 30.6085C14.7037 30.5398 15.0076 30.5407 15.2992 30.6111C15.5907 30.6815 15.8615 30.8194 16.0899 31.0137C17.586 31.8639 19.2572 32.3592 20.9748 32.4615C22.6925 32.5639 24.4107 32.2705 25.9971 31.6041C27.5835 30.9376 28.9957 29.9159 30.125 28.6175C31.2542 27.3192 32.0703 25.779 32.5103 24.1155C32.9504 22.452 33.0027 20.7097 32.6632 19.0228C32.3237 17.3359 31.6014 15.7495 30.5521 14.3858C29.5028 13.0221 28.1543 11.9175 26.6108 11.1571C25.0672 10.3967 23.3697 10.0009 21.649 10Z" fill="white"/>
<path fill-rule="evenodd" clip-rule="evenodd" d="M21.603 22.707C21.3179 22.707 21.0392 22.6225 20.8022 22.464C20.5653 22.3056 20.3806 22.0804 20.2717 21.8169C20.1628 21.5535 20.1344 21.2636 20.1902 20.9841C20.2461 20.7045 20.3837 20.4478 20.5855 20.2465C20.7873 20.0451 21.0443 19.9082 21.324 19.853C21.6037 19.7977 21.8935 19.8268 22.1567 19.9363C22.4199 20.0459 22.6446 20.2311 22.8025 20.4684C22.9604 20.7058 23.0444 20.9847 23.0437 21.2697C23.0428 21.6513 22.8906 22.0168 22.6205 22.2863C22.3504 22.5557 21.9845 22.707 21.603 22.707ZM16.4143 22.707C16.1293 22.707 15.8508 22.6226 15.6139 22.4643C15.377 22.3059 15.1923 22.0809 15.0833 21.8177C14.9742 21.5544 14.9457 21.2648 15.0013 20.9853C15.0569 20.7058 15.1941 20.4491 15.3956 20.2477C15.5971 20.0462 15.8538 19.909 16.1332 19.8534C16.4127 19.7978 16.7024 19.8263 16.9656 19.9354C17.2289 20.0444 17.4539 20.2291 17.6122 20.466C17.7705 20.7029 17.855 20.9814 17.855 21.2664C17.855 21.6485 17.7032 22.0149 17.433 22.2851C17.1628 22.5553 16.7964 22.707 16.4143 22.707ZM25.351 21.2664C25.351 21.5513 25.4355 21.8299 25.5938 22.0668C25.7521 22.3037 25.9771 22.4883 26.2404 22.5974C26.5036 22.7064 26.7933 22.735 27.0728 22.6794C27.3522 22.6238 27.609 22.4866 27.8105 22.2851C28.0119 22.0836 28.1491 21.8269 28.2047 21.5474C28.2603 21.268 28.2318 20.9783 28.1227 20.7151C28.0137 20.4518 27.8291 20.2268 27.5921 20.0685C27.3552 19.9102 27.0767 19.8257 26.7917 19.8257C26.4096 19.8257 26.0431 19.9775 25.773 20.2477C25.5028 20.5178 25.351 20.8843 25.351 21.2664Z" fill="#E65C00"/>
</svg>
