<svg width="17" height="20" viewBox="0 0 17 20" fill="none" xmlns="http://www.w3.org/2000/svg">
<path d="M15.7164 7.18549C15.7164 7.24971 15.213 13.6162 14.9259 16.2956C14.9034 17.0251 14.5925 17.7159 14.0613 18.2164C13.5302 18.7169 12.8221 18.9863 12.0926 18.9655C10.8714 18.9929 9.67576 19.0023 8.49899 19.0023C7.24949 19.0023 6.02832 18.9929 4.84211 18.9655C4.12366 18.9693 3.43215 18.6923 2.91504 18.1935C2.39792 17.6947 2.09611 17.0137 2.07395 16.2956C1.77834 13.6067 1.28346 7.24971 1.27496 7.18549C1.26484 6.99329 1.3291 6.80456 1.45441 6.65848C1.51705 6.58932 1.59339 6.53397 1.67859 6.49592C1.76379 6.45787 1.85597 6.43799 1.94928 6.4375H15.0487C15.1417 6.43912 15.2333 6.45953 15.3182 6.49751C15.4031 6.53549 15.4794 6.59023 15.5426 6.65848C15.6059 6.72989 15.6539 6.81346 15.6838 6.90407C15.7137 6.99468 15.7248 7.09045 15.7164 7.18549Z" fill="#979999"/>
<path opacity="0.4" d="M16.9981 3.86926C16.9995 3.77955 16.9831 3.69047 16.95 3.60709C16.9169 3.52372 16.8676 3.44769 16.8051 3.38338C16.7425 3.31907 16.6679 3.26774 16.5855 3.23232C16.503 3.19691 16.4144 3.17809 16.3247 3.17698H13.5707C13.2952 3.17412 13.029 3.0774 12.8159 2.90277C12.6028 2.72814 12.4556 2.48605 12.3987 2.21649L12.2447 1.52799C12.1437 1.12702 11.913 0.770711 11.5885 0.514491C11.2639 0.25827 10.8638 0.11651 10.4503 0.111328H6.55071C6.1294 0.116686 5.72214 0.263605 5.39444 0.52844C5.06674 0.793276 4.83763 1.16065 4.74398 1.57145L4.60044 2.21557C4.543 2.48479 4.39567 2.72645 4.18266 2.90084C3.96966 3.07523 3.70366 3.17195 3.42839 3.17511H0.674401C0.584647 3.17622 0.495987 3.19502 0.413504 3.23042C0.331021 3.26582 0.256338 3.31712 0.193707 3.38142C0.131076 3.44572 0.0817269 3.52175 0.0485015 3.60513C0.015276 3.68852 -0.00118229 3.77763 6.60484e-05 3.86739V4.22628C-0.000964374 4.4071 0.0691889 4.58107 0.195364 4.7106C0.321539 4.84014 0.49361 4.91484 0.674401 4.91855H16.3266C16.5072 4.91459 16.6791 4.83979 16.805 4.71029C16.931 4.58078 17.001 4.40694 17 4.22628L16.9981 3.86926Z" fill="#979999"/>
</svg>
