<svg width="21" height="21" viewBox="0 0 21 21" fill="none" xmlns="http://www.w3.org/2000/svg">
<path opacity="0.4" d="M6.34497 14.6038C5.78966 14.2853 5.41443 13.6869 5.41443 13.002C5.41443 10.1749 7.71435 7.875 10.5414 7.875H12.6542L12.7537 6.23438H0.782227L1.64211 20.4219C1.66182 20.7467 1.93082 21 2.25623 21H6.03127C5.64418 20.4855 5.41443 19.8463 5.41443 19.1543C5.41443 18.3566 5.92328 17.6755 6.63336 17.4183C6.38166 17.0324 6.23474 16.5722 6.23474 16.0781C6.23474 15.5835 6.38198 15.1229 6.63416 14.7366C6.43357 14.6914 6.32222 14.6471 6.34497 14.6038Z" fill="#BCBDBD"/>
<path opacity="0.4" d="M6.76694 5.00407C6.76742 5.00407 6.7679 5.00391 6.76838 5.00391H12.9199C13.2597 5.00391 13.5352 4.72849 13.5352 4.38867C13.5352 4.04885 13.2597 3.77344 12.9199 3.77344H7.90336L9.56177 1.23047H11.6895C12.0293 1.23047 12.3047 0.955055 12.3047 0.615234C12.3047 0.275414 12.0293 0 11.6895 0H9.22852C9.02055 0 8.82669 0.104942 8.71326 0.279099L6.43433 3.77344H0.615234C0.275414 3.77344 0 4.04885 0 4.38867C0 4.72849 0.275414 5.00391 0.615234 5.00391H6.76469C6.7655 5.00391 6.7663 5.00407 6.76694 5.00407Z" fill="#BCBDBD"/>
<path d="M6.64453 13.002C6.64453 13.3418 6.91994 13.6172 7.25977 13.6172H20.3848C20.7246 13.6172 21 13.3418 21 13.002C21 10.8534 19.252 9.10547 17.1035 9.10547H10.541C8.3925 9.10547 6.64453 10.8534 6.64453 13.002Z" fill="#BCBDBD"/>
<path d="M8.69531 14.8477C8.01567 14.8477 7.46484 15.3985 7.46484 16.0781C7.46484 16.7578 8.01567 17.3086 8.69531 17.3086H18.9492C19.6289 17.3086 20.1797 16.7578 20.1797 16.0781C20.1797 15.3985 19.6289 14.8477 18.9492 14.8477H8.69531Z" fill="#BCBDBD"/>
<path d="M20.3848 18.5391H7.25977C6.91994 18.5391 6.64453 18.8145 6.64453 19.1543C6.64453 20.172 7.47253 21 8.49023 21H19.1543C20.172 21 21 20.172 21 19.1543C21 18.8145 20.7246 18.5391 20.3848 18.5391Z" fill="#BCBDBD"/>
</svg>
