<svg width="31" height="30" viewBox="0 0 31 30" fill="none" xmlns="http://www.w3.org/2000/svg">
<path d="M15.6434 0.383301C7.10388 0.383301 0.916016 7.35016 0.916016 15.0813C0.916016 17.5506 1.63622 20.0933 2.90025 22.4156C3.13541 22.7978 3.16481 23.2828 3.00313 23.7384L2.01837 27.0308C1.7979 27.8245 2.474 28.4124 3.2236 28.1772L6.1926 27.2953C7.00099 27.0308 7.633 27.3688 8.38407 27.8245C10.53 29.0885 13.2035 29.7352 15.614 29.7352C22.9042 29.7352 30.312 24.1059 30.312 15.0372C30.312 7.21787 23.9919 0.383301 15.6434 0.383301Z" fill="#E2E3E3"/>
<path fill-rule="evenodd" clip-rule="evenodd" d="M15.5854 17.1916C14.5418 17.1769 13.704 16.3391 13.704 15.2955C13.704 14.2667 14.5565 13.4142 15.5854 13.4289C16.629 13.4289 17.4667 14.2667 17.4667 15.3102C17.4667 16.3391 16.629 17.1916 15.5854 17.1916ZM8.80908 17.1915C7.78022 17.1915 6.92773 16.339 6.92773 15.3102C6.92773 14.2666 7.76552 13.4288 8.80908 13.4288C9.85264 13.4288 10.6904 14.2666 10.6904 15.3102C10.6904 16.339 9.85264 17.1768 8.80908 17.1915ZM20.4795 15.3103C20.4795 16.3391 21.3173 17.1916 22.3608 17.1916C23.4044 17.1916 24.2422 16.3391 24.2422 15.3103C24.2422 14.2667 23.4044 13.4289 22.3608 13.4289C21.3173 13.4289 20.4795 14.2667 20.4795 15.3103Z" fill="#C0C2C2"/>
</svg>
