<svg width="22" height="22" viewBox="0 0 22 22" fill="none" xmlns="http://www.w3.org/2000/svg">
<path d="M2.75 6.05C2.75 5.17479 3.09768 4.33542 3.71655 3.71655C4.33542 3.09768 5.17479 2.75 6.05 2.75H15.95C16.8252 2.75 17.6646 3.09768 18.2835 3.71655C18.9023 4.33542 19.25 5.17479 19.25 6.05V15.95C19.25 16.8252 18.9023 17.6646 18.2835 18.2835C17.6646 18.9023 16.8252 19.25 15.95 19.25H6.05C5.17479 19.25 4.33542 18.9023 3.71655 18.2835C3.09768 17.6646 2.75 16.8252 2.75 15.95V6.05Z" stroke="#ABADAD" stroke-width="1.2" stroke-linecap="round" stroke-linejoin="round"/>
<path d="M8.11255 10.1748C9.25164 10.1748 10.175 9.25139 10.175 8.1123C10.175 6.97322 9.25164 6.0498 8.11255 6.0498C6.97346 6.0498 6.05005 6.97322 6.05005 8.1123C6.05005 9.25139 6.97346 10.1748 8.11255 10.1748Z" stroke="#ABADAD" stroke-width="1.2" stroke-linecap="round" stroke-linejoin="round"/>
<path d="M13.084 11.5121L6.05005 19.2498H16.0598C16.9059 19.2498 17.7173 18.9137 18.3156 18.3154C18.9139 17.7171 19.25 16.9056 19.25 16.0595V15.9498C19.25 15.5654 19.1057 15.4177 18.8458 15.1331L15.521 11.5072C15.3661 11.3381 15.1776 11.2033 14.9676 11.1112C14.7576 11.019 14.5307 10.9717 14.3014 10.9722C14.0721 10.9726 13.8454 11.0209 13.6358 11.1139C13.4262 11.2068 13.2383 11.3425 13.084 11.5121Z" stroke="#ABADAD" stroke-width="1.2" stroke-linecap="round" stroke-linejoin="round"/>
</svg>
