<svg width="17" height="17" viewBox="0 0 17 17" fill="none" xmlns="http://www.w3.org/2000/svg">
<path d="M8.51612 1.69994e-05C7.39857 -0.0022181 6.29153 0.215973 5.2584 0.642092C4.22528 1.06821 3.28633 1.69389 2.49531 2.48332C1.7043 3.27276 1.07677 4.21045 0.648586 5.24272C0.220403 6.27498 -2.23508e-06 7.38157 0 8.49912C0.0251922 9.98603 0.419444 11.4434 1.14736 12.7402C1.21382 12.8551 1.25368 12.9835 1.26397 13.1159C1.27427 13.2483 1.25475 13.3813 1.20686 13.5051L0.637433 15.4089C0.605132 15.5047 0.600865 15.6076 0.625138 15.7058C0.649411 15.8039 0.701205 15.893 0.774433 15.9627C0.847661 16.0323 0.939276 16.0796 1.03847 16.0989C1.13767 16.1183 1.24033 16.1089 1.33437 16.0718L3.0512 15.5619C3.27163 15.51 3.50114 15.5107 3.72126 15.5638C3.94138 15.617 4.14592 15.7211 4.31839 15.8678C5.44807 16.5098 6.71004 16.8838 8.00707 16.9611C9.3041 17.0384 10.6016 16.8169 11.7995 16.3136C12.9974 15.8104 14.0638 15.0388 14.9165 14.0584C15.7692 13.078 16.3854 11.915 16.7177 10.6588C17.05 9.40272 17.0895 8.08708 16.8331 6.81329C16.5768 5.5395 16.0314 4.34157 15.239 3.31181C14.4467 2.28204 13.4284 1.44793 12.2628 0.873751C11.0973 0.299571 9.81545 0.000650327 8.51612 1.69994e-05Z" fill="#969898"/>
<path fill-rule="evenodd" clip-rule="evenodd" d="M8.48054 9.59569C8.26527 9.59569 8.05485 9.53182 7.8759 9.41217C7.69694 9.29252 7.55753 9.12247 7.47527 8.92354C7.39301 8.72461 7.37156 8.50574 7.41375 8.29464C7.45593 8.08354 7.55983 7.88969 7.71223 7.73765C7.86463 7.58561 8.05869 7.4822 8.26988 7.44052C8.48108 7.39883 8.69991 7.42074 8.89865 7.50347C9.09739 7.5862 9.26709 7.72603 9.38632 7.90527C9.50555 8.08451 9.56896 8.29509 9.56845 8.51036C9.56778 8.79844 9.45285 9.07449 9.24891 9.27796C9.04496 9.48143 8.76863 9.59569 8.48054 9.59569ZM4.56247 9.59569C4.34731 9.59569 4.13698 9.53189 3.95808 9.41235C3.77918 9.29281 3.63974 9.12291 3.5574 8.92412C3.47507 8.72534 3.45354 8.5066 3.49552 8.29557C3.53749 8.08455 3.64108 7.8907 3.79323 7.73856C3.94537 7.58642 4.13922 7.4828 4.35025 7.44083C4.56128 7.39885 4.78003 7.4204 4.97882 7.50274C5.1776 7.58508 5.34747 7.72452 5.46701 7.90342C5.58654 8.08232 5.65038 8.29264 5.65038 8.50781C5.65038 8.79633 5.53573 9.07305 5.33172 9.27706C5.1277 9.48108 4.851 9.59569 4.56247 9.59569ZM11.3108 8.50781C11.3108 8.72297 11.3745 8.93331 11.4941 9.11221C11.6136 9.29111 11.7835 9.43055 11.9823 9.51289C12.1811 9.59522 12.3999 9.61677 12.6109 9.5748C12.8219 9.53282 13.0158 9.42921 13.1679 9.27706C13.3201 9.12492 13.4236 8.93108 13.4656 8.72005C13.5076 8.50902 13.4861 8.29029 13.4037 8.0915C13.3214 7.89272 13.182 7.72281 13.0031 7.60327C12.8242 7.48373 12.6138 7.41992 12.3987 7.41992C12.1101 7.41992 11.8334 7.53454 11.6294 7.73856C11.4254 7.94258 11.3108 8.21928 11.3108 8.50781Z" fill="#D5D6D6"/>
</svg>
