<svg width="25" height="24" viewBox="0 0 25 24" fill="none" xmlns="http://www.w3.org/2000/svg">
<path d="M21.9977 2.5783C21.4977 2.0673 20.7577 1.8783 20.0677 2.0783L3.97773 6.7273C3.24973 6.9293 2.73373 7.5063 2.59473 8.2383C2.45273 8.9843 2.94873 9.9323 3.59673 10.3283L8.62773 13.4003C9.14373 13.7163 9.80973 13.6373 10.2367 13.2093L15.9977 7.4483C16.2877 7.1473 16.7677 7.1473 17.0577 7.4483C17.3477 7.7373 17.3477 8.2083 17.0577 8.5083L11.2867 14.2693C10.8587 14.6973 10.7787 15.3613 11.0937 15.8783L14.1677 20.9283C14.5277 21.5273 15.1477 21.8683 15.8277 21.8683C15.9077 21.8683 15.9977 21.8683 16.0777 21.8573C16.8577 21.7583 17.4777 21.2273 17.7077 20.4773L22.4777 4.5083C22.6877 3.8283 22.4977 3.0883 21.9977 2.5783Z" fill="white"/>
<path opacity="0.4" fill-rule="evenodd" clip-rule="evenodd" d="M3.5808 16.8079C3.3888 16.8079 3.1968 16.7349 3.0508 16.5879C2.7578 16.2949 2.7578 15.8209 3.0508 15.5279L4.4158 14.1619C4.7088 13.8699 5.1838 13.8699 5.4768 14.1619C5.7688 14.4549 5.7688 14.9299 5.4768 15.2229L4.1108 16.5879C3.9648 16.7349 3.7728 16.8079 3.5808 16.8079ZM7.342 18.0003C7.15 18.0003 6.958 17.9273 6.812 17.7803C6.519 17.4873 6.519 17.0133 6.812 16.7203L8.177 15.3543C8.47 15.0623 8.945 15.0623 9.238 15.3543C9.53 15.6473 9.53 16.1223 9.238 16.4153L7.872 17.7803C7.726 17.9273 7.534 18.0003 7.342 18.0003ZM7.5957 21.5683C7.7417 21.7153 7.9337 21.7883 8.1257 21.7883C8.3177 21.7883 8.5097 21.7153 8.6557 21.5683L10.0217 20.2033C10.3137 19.9103 10.3137 19.4353 10.0217 19.1423C9.7287 18.8503 9.2537 18.8503 8.9607 19.1423L7.5957 20.5083C7.3027 20.8013 7.3027 21.2753 7.5957 21.5683Z" fill="white"/>
</svg>
