<svg width="3" height="15" viewBox="0 0 3 15" fill="none" xmlns="http://www.w3.org/2000/svg">
<path d="M1.33333 2.66666C2.0697 2.66666 2.66666 2.0697 2.66666 1.33333C2.66666 0.596951 2.0697 0 1.33333 0C0.596951 0 0 0.596951 0 1.33333C0 2.0697 0.596951 2.66666 1.33333 2.66666Z" fill="#979999"/>
<path d="M1.33333 8.66666C2.0697 8.66666 2.66666 8.0697 2.66666 7.33333C2.66666 6.59695 2.0697 6 1.33333 6C0.596951 6 0 6.59695 0 7.33333C0 8.0697 0.596951 8.66666 1.33333 8.66666Z" fill="#979999"/>
<path d="M1.33333 14.6667C2.0697 14.6667 2.66666 14.0697 2.66666 13.3333C2.66666 12.597 2.0697 12 1.33333 12C0.596951 12 0 12.597 0 13.3333C0 14.0697 0.596951 14.6667 1.33333 14.6667Z" fill="#979999"/>
</svg>
