<svg width="24" height="24" viewBox="0 0 24 24" fill="none" xmlns="http://www.w3.org/2000/svg">
<path d="M4.42037 4.4131C4.09074 4.51384 4.16337 5 4.50805 5H17V2.53893C17 2 17 1 15.7312 1C15.5996 1 15.4651 1.02507 15.3311 1.07858L4.42037 4.4131Z" fill="#CD5403"/>
<path d="M18.5703 4.26074H4.89664C4.40142 4.26074 4 4.66217 4 5.15738V17.0526V22.1038C4 22.599 4.40142 23.0004 4.89664 23.0004H18.5703C19.0656 23.0004 19.467 22.599 19.467 22.1038V5.15738C19.467 4.66221 19.0655 4.26074 18.5703 4.26074ZM7.25031 12.345H7.4451C7.73498 10.489 9.20506 9.01897 11.061 8.72908V8.39213C11.061 8.02074 11.3621 7.71965 11.7335 7.71965C12.1049 7.71965 12.406 8.02074 12.406 8.39213V8.72908C14.2619 9.01897 15.732 10.489 16.0219 12.345H16.2167C16.5881 12.345 16.8891 12.6461 16.8891 13.0175C16.8891 13.3889 16.5881 13.69 16.2167 13.69H7.25031C6.87892 13.69 6.57783 13.3889 6.57783 13.0175C6.57783 12.6461 6.87888 12.345 7.25031 12.345ZM11.4115 16.1792C11.4115 16.5506 11.1104 16.8517 10.739 16.8517H7.51109C7.13971 16.8517 6.83862 16.5506 6.83862 16.1792C6.83862 15.8078 7.13971 15.5067 7.51109 15.5067H10.739C11.1104 15.5067 11.4115 15.8078 11.4115 16.1792ZM16.0486 19.5416H7.41843C7.04704 19.5416 6.74595 19.2405 6.74595 18.8691C6.74595 18.4977 7.04704 18.1966 7.41843 18.1966H16.0486C16.4199 18.1966 16.721 18.4977 16.721 18.8691C16.721 19.2405 16.4199 19.5416 16.0486 19.5416Z" fill="#E65C00"/>
<path d="M14.6534 12.3446C14.3474 11.0155 13.1545 10.0215 11.7339 10.0215C10.3134 10.0215 9.12052 11.0156 8.81445 12.3446H14.6534Z" fill="#E65C00"/>
</svg>
