<svg width="81" height="81" viewBox="0 0 81 81" fill="none" xmlns="http://www.w3.org/2000/svg">
<path d="M67.5574 65.8774H12.7988C11.7915 65.8774 10.9749 66.6941 10.973 67.7014L10.9658 73.0253C10.9641 75.0168 11.7378 76.889 13.1446 78.2975C14.5531 79.7079 16.4234 80.4835 18.4151 80.4835H61.9338C66.0417 80.4835 69.383 77.1421 69.383 73.0342V67.7031C69.383 66.6941 68.5666 65.8774 67.5574 65.8774Z" fill="#FFF3E8"/>
<path d="M60.2549 7.45299C59.137 7.45299 57.9887 7.56528 56.7727 7.79173C52.5953 2.92055 46.6081 0.149902 40.1716 0.149902C28.0903 0.149902 18.2625 9.97768 18.2625 22.059C18.2625 23.0663 17.4442 23.8848 16.4367 23.8848C15.4294 23.8848 14.6109 23.0665 14.6109 22.059C14.6109 18.1061 15.5203 14.2816 17.3139 10.6926C17.6332 10.0544 17.551 9.28942 17.1053 8.73314C16.6596 8.18045 15.9302 7.93431 15.2386 8.10376C6.26849 10.3414 0.00488281 18.3326 0.00488281 27.5363C0.00488281 35.1245 4.28401 42.0228 11.0022 45.4336L10.9825 60.3981C10.9825 60.8813 11.1734 61.3467 11.5157 61.6907C11.8598 62.033 12.3234 62.2256 12.8084 62.2256H67.558C68.5672 62.2256 69.3838 61.409 69.3838 60.3998V45.4068C76.0771 41.987 80.3384 35.0994 80.3384 27.5361C80.3382 16.4623 71.3289 7.45299 60.2549 7.45299ZM26.7244 50.8575C26.3838 51.1356 25.9738 51.2712 25.5673 51.2712C25.0396 51.2712 24.5154 51.043 24.1535 50.6043C23.5508 49.868 18.2625 43.2853 18.2625 38.4908C18.2625 37.4816 19.0792 36.665 20.0883 36.665C21.0975 36.665 21.9142 37.4816 21.9142 38.4908C21.9142 41.1333 25.0201 45.9009 26.9777 48.2864C27.6158 49.0675 27.5035 50.2173 26.7244 50.8575ZM41.9973 49.4454C41.9973 50.4546 41.1806 51.2712 40.1715 51.2712C39.1623 51.2712 38.3458 50.4546 38.3458 49.4454V38.4908C38.3458 37.4816 39.1624 36.665 40.1716 36.665C41.1808 36.665 41.9974 37.4816 41.9974 38.4908V49.4454H41.9973ZM56.1898 50.6043C55.8277 51.043 55.3053 51.2712 54.7776 51.2712C54.3694 51.2712 53.9593 51.1356 53.6206 50.8575C52.8414 50.2173 52.7273 49.0675 53.3655 48.2883C55.3233 45.8973 58.4291 41.1244 58.4291 38.4908C58.4291 37.4816 59.2457 36.665 60.2549 36.665C61.2641 36.665 62.0807 37.4816 62.0807 38.4908C62.0807 43.2852 56.7924 49.868 56.1898 50.6043Z" fill="#FFF3E8"/>
</svg>
