<svg width="20" height="20" viewBox="0 0 20 20" fill="none" xmlns="http://www.w3.org/2000/svg">
<g id="Group 1000003941">
<path id="Path 4382" opacity="0.4" d="M20 10C20 11.9778 19.4135 13.9112 18.3147 15.5557C17.2159 17.2002 15.6541 18.4819 13.8268 19.2388C11.9996 19.9957 9.98889 20.1937 8.04908 19.8079C6.10927 19.422 4.32748 18.4696 2.92896 17.0711C1.53043 15.6726 0.577995 13.8907 0.192143 11.9509C-0.193709 10.0111 0.00435829 8.00042 0.761235 6.17316C1.51811 4.3459 2.79979 2.78412 4.44428 1.6853C6.08877 0.586489 8.02219 0 10 0C12.6522 0 15.1957 1.05356 17.071 2.92892C18.9464 4.80429 20 7.34784 20 10Z" fill="#979999"/>
<path id="Path 4383" fill-rule="evenodd" clip-rule="evenodd" d="M10.8701 10.631C10.8701 10.863 10.7779 11.0856 10.6138 11.2497C10.4497 11.4138 10.2272 11.506 9.99512 11.506C9.76305 11.506 9.5405 11.4138 9.3764 11.2497C9.21231 11.0856 9.12012 10.863 9.12012 10.631V6.21094C9.12012 5.97887 9.21231 5.75632 9.3764 5.59222C9.5405 5.42813 9.76305 5.33594 9.99512 5.33594C10.2272 5.33594 10.4497 5.42813 10.6138 5.59222C10.7779 5.75632 10.8701 5.97887 10.8701 6.21094V10.631ZM9.12512 13.8039C9.12535 13.6018 9.19563 13.4059 9.32404 13.2498C9.45244 13.0936 9.63104 12.9868 9.82935 12.9476C10.0277 12.9083 10.2335 12.939 10.4117 13.0344C10.5899 13.1298 10.7295 13.2841 10.8068 13.4709C10.884 13.6577 10.8942 13.8655 10.8354 14.059C10.7766 14.2524 10.6526 14.4195 10.4845 14.5317C10.3164 14.644 10.1145 14.6945 9.91333 14.6747C9.71214 14.6548 9.52406 14.5659 9.3811 14.4229C9.29983 14.3417 9.2354 14.2452 9.19147 14.1389C9.14754 14.0327 9.12499 13.9189 9.12512 13.8039Z" fill="#979999"/>
</g>
</svg>
