<svg width="24" height="24" viewBox="0 0 24 24" fill="none" xmlns="http://www.w3.org/2000/svg">
<path d="M4.84237 4.41411C4.51577 4.51797 4.59057 5 4.93328 5H17V2.53893C17 2 17 1 15.7312 1C15.5996 1 15.4651 1.02507 15.3311 1.07858L4.84237 4.41411Z" fill="#C0C2C2"/>
<path d="M18.5703 4.26025H4.89664C4.40142 4.26025 4 4.66168 4 5.15689V17.0521V22.1033C4 22.5985 4.40142 23 4.89664 23H18.5703C19.0656 23 19.467 22.5985 19.467 22.1033V5.15689C19.467 4.66172 19.0655 4.26025 18.5703 4.26025ZM7.25031 12.3445H7.4451C7.73498 10.4886 9.20506 9.01848 11.061 8.7286V8.39164C11.061 8.02025 11.3621 7.71916 11.7335 7.71916C12.1049 7.71916 12.406 8.02025 12.406 8.39164V8.7286C14.2619 9.01848 15.732 10.4886 16.0219 12.3445H16.2167C16.5881 12.3445 16.8891 12.6456 16.8891 13.017C16.8891 13.3884 16.5881 13.6895 16.2167 13.6895H7.25031C6.87892 13.6895 6.57783 13.3884 6.57783 13.017C6.57783 12.6456 6.87888 12.3445 7.25031 12.3445ZM11.4115 16.1787C11.4115 16.5501 11.1104 16.8512 10.739 16.8512H7.51109C7.13971 16.8512 6.83862 16.5501 6.83862 16.1787C6.83862 15.8073 7.13971 15.5062 7.51109 15.5062H10.739C11.1104 15.5062 11.4115 15.8073 11.4115 16.1787ZM16.0486 19.5411H7.41843C7.04704 19.5411 6.74595 19.24 6.74595 18.8686C6.74595 18.4972 7.04704 18.1961 7.41843 18.1961H16.0486C16.4199 18.1961 16.721 18.4972 16.721 18.8686C16.721 19.24 16.4199 19.5411 16.0486 19.5411Z" fill="#E5E5E5"/>
<path d="M14.6534 12.3446C14.3474 11.0155 13.1545 10.0215 11.7339 10.0215C10.3134 10.0215 9.12052 11.0156 8.81445 12.3446H14.6534Z" fill="#E5E5E5"/>
</svg>
