<svg width="23" height="23" viewBox="0 0 23 23" fill="none" xmlns="http://www.w3.org/2000/svg">
<path d="M11.649 2.25122e-05C10.169 -0.00293742 8.70294 0.286013 7.33478 0.850321C5.96662 1.41463 4.72317 2.24321 3.67563 3.28866C2.62809 4.33411 1.79705 5.57589 1.23001 6.94291C0.662973 8.30994 0.371091 9.77539 0.371094 11.2554C0.404456 13.2245 0.926562 15.1544 1.89054 16.8718C1.97855 17.024 2.03133 17.194 2.04497 17.3693C2.0586 17.5446 2.03275 17.7208 1.96933 17.8848L1.21524 20.406C1.17247 20.5328 1.16682 20.6692 1.19896 20.7991C1.23111 20.929 1.2997 21.0471 1.39667 21.1393C1.49365 21.2315 1.61497 21.2941 1.74634 21.3198C1.87771 21.3454 2.01366 21.3329 2.13819 21.2839L4.41179 20.6085C4.7037 20.5398 5.00765 20.5407 5.29915 20.6111C5.59066 20.6815 5.86152 20.8194 6.08992 21.0137C7.58595 21.8639 9.25718 22.3592 10.9748 22.4615C12.6925 22.5639 14.4107 22.2705 15.9971 21.6041C17.5835 20.9376 18.9957 19.9159 20.125 18.6175C21.2542 17.3192 22.0703 15.779 22.5103 14.1155C22.9504 12.452 23.0027 10.7097 22.6632 9.02282C22.3237 7.33595 21.6014 5.74953 20.5521 4.38582C19.5028 3.02211 18.1543 1.91749 16.6108 1.15711C15.0672 0.396721 13.3697 0.000861227 11.649 2.25122e-05Z" fill="white"/>
<path fill-rule="evenodd" clip-rule="evenodd" d="M11.603 12.707C11.3179 12.707 11.0392 12.6225 10.8022 12.464C10.5653 12.3056 10.3806 12.0804 10.2717 11.8169C10.1628 11.5535 10.1344 11.2636 10.1902 10.9841C10.2461 10.7045 10.3837 10.4478 10.5855 10.2465C10.7873 10.0451 11.0443 9.90816 11.324 9.85296C11.6037 9.79775 11.8935 9.82676 12.1567 9.93632C12.4199 10.0459 12.6446 10.2311 12.8025 10.4684C12.9604 10.7058 13.0444 10.9847 13.0437 11.2697C13.0428 11.6513 12.8906 12.0168 12.6205 12.2863C12.3504 12.5557 11.9845 12.707 11.603 12.707ZM6.41429 12.707C6.12935 12.707 5.85081 12.6226 5.6139 12.4643C5.37698 12.3059 5.19232 12.0809 5.08328 11.8177C4.97424 11.5544 4.94573 11.2648 5.00132 10.9853C5.05691 10.7058 5.19409 10.4491 5.39558 10.2477C5.59706 10.0462 5.85378 9.90896 6.13325 9.85337C6.41271 9.79778 6.7024 9.82632 6.96565 9.93536C7.2289 10.0444 7.45385 10.2291 7.61216 10.466C7.77046 10.7029 7.855 10.9814 7.855 11.2664C7.855 11.6485 7.70318 12.0149 7.433 12.2851C7.16281 12.5553 6.79638 12.707 6.41429 12.707ZM15.351 11.2664C15.351 11.5513 15.4355 11.8299 15.5938 12.0668C15.7521 12.3037 15.9771 12.4883 16.2404 12.5974C16.5036 12.7064 16.7933 12.735 17.0728 12.6794C17.3522 12.6238 17.609 12.4866 17.8105 12.2851C18.0119 12.0836 18.1491 11.8269 18.2047 11.5474C18.2603 11.268 18.2318 10.9783 18.1227 10.7151C18.0137 10.4518 17.8291 10.2268 17.5921 10.0685C17.3552 9.91019 17.0767 9.82568 16.7917 9.82568C16.4096 9.82568 16.0431 9.97748 15.773 10.2477C15.5028 10.5178 15.351 10.8843 15.351 11.2664Z" fill="#E65C00"/>
</svg>
