<svg width="20" height="20" viewBox="0 0 20 20" fill="none" xmlns="http://www.w3.org/2000/svg">
<path d="M14.34 0H5.67001C2.28001 0 0 2.38001 0 5.92001V14.09C0 17.62 2.28001 20 5.67001 20H14.34C17.73 20 20 17.62 20 14.09V5.92001C20 2.38001 17.73 0 14.34 0Z" fill="#BCBDBD"/>
<path d="M13.5734 13.8137C13.4388 13.8151 13.3062 13.7806 13.1894 13.7137L9.26343 11.3717C9.1522 11.3047 9.06016 11.2101 8.99622 11.0971C8.93227 10.9841 8.89859 10.8565 8.89844 10.7267V5.67969C8.89844 5.48078 8.97745 5.29001 9.1181 5.14935C9.25876 5.0087 9.44953 4.92969 9.64844 4.92969C9.84735 4.92969 10.0381 5.0087 10.1788 5.14935C10.3194 5.29001 10.3984 5.48078 10.3984 5.67969V10.2997L13.9584 12.4227C14.1024 12.5056 14.2149 12.6339 14.278 12.7875C14.3412 12.9412 14.3516 13.1114 14.3076 13.2716C14.2635 13.4318 14.1675 13.5729 14.0346 13.6726C13.9018 13.7723 13.7395 13.8251 13.5734 13.8227V13.8137Z" fill="#E4E5E5"/>
</svg>
