<svg width="16" height="16" viewBox="0 0 16 16" fill="none" xmlns="http://www.w3.org/2000/svg">
<g id="Group 11697">
<path id="Path 4418" d="M11.472 0H4.53601C1.82401 0 0 1.90401 0 4.73601V11.272C0 14.096 1.82401 16 4.53601 16H11.472C14.184 16 16 14.096 16 11.272V4.73601C16 1.90401 14.184 0 11.472 0Z" fill="#BCBDBD"/>
<path id="Path 4419" d="M10.8591 11.0506C10.7514 11.0517 10.6454 11.0241 10.5519 10.9706L7.41113 9.09697C7.32215 9.04338 7.24852 8.96772 7.19736 8.87732C7.14621 8.78692 7.11927 8.68483 7.11914 8.58096V4.54336C7.11914 4.38423 7.18235 4.23161 7.29487 4.11909C7.40739 4.00657 7.56001 3.94336 7.71914 3.94336C7.87827 3.94336 8.03089 4.00657 8.14341 4.11909C8.25593 4.23161 8.31914 4.38423 8.31914 4.54336V8.23936L11.1671 9.93777C11.2823 10.0041 11.3723 10.1067 11.4228 10.2296C11.4734 10.3525 11.4817 10.4888 11.4464 10.6169C11.4112 10.7451 11.3344 10.8579 11.2281 10.9377C11.1218 11.0175 10.992 11.0597 10.8591 11.0578V11.0506Z" fill="#E4E5E5"/>
</g>
</svg>
