<svg width="52" height="52" viewBox="0 0 52 52" fill="none" xmlns="http://www.w3.org/2000/svg">
<path opacity="0.4" d="M32.2628 9.13194C31.977 9.07747 31.6832 9.07984 31.3983 9.1389C31.1134 9.19796 30.843 9.3126 30.6024 9.47621C30.3618 9.63981 30.1558 9.84923 29.9961 10.0925C29.8364 10.3357 29.7263 10.608 29.6719 10.8938C29.5606 11.4735 29.6826 12.0737 30.0116 12.5638C30.3406 13.0539 30.8498 13.3941 31.4285 13.5106C33.1898 13.8514 34.8083 14.7125 36.0752 15.9826C37.3421 17.2527 38.1991 18.8735 38.5354 20.6357C38.6311 21.1441 38.901 21.6034 39.2987 21.9344C39.6964 22.2653 40.197 22.4474 40.7143 22.4493C40.8577 22.4492 41.0007 22.4361 41.1418 22.4104C41.7205 22.2934 42.2297 21.9524 42.5582 21.4618C42.8868 20.9712 43.008 20.3707 42.8959 19.791C42.3944 17.154 41.1129 14.7282 39.2171 12.8278C37.3213 10.9274 34.8987 9.63982 32.2628 9.13194Z" fill="#FA6D26"/>
<path opacity="0.4" d="M32.1017 0.109966C31.815 0.0711073 31.5233 0.0915418 31.2448 0.169979C30.9662 0.248416 30.7067 0.383173 30.4824 0.565955C30.2481 0.748761 30.0533 0.977072 29.9095 1.23709C29.7656 1.49711 29.6759 1.78351 29.6455 2.07909C29.58 2.66544 29.7496 3.25384 30.1172 3.71526C30.4849 4.17669 31.0206 4.47341 31.6067 4.54042C35.67 4.98314 39.4597 6.80211 42.3468 9.69531C45.2339 12.5885 47.0447 16.382 47.4788 20.4461C47.5376 20.9894 47.7948 21.492 48.2012 21.8573C48.6076 22.2226 49.1346 22.4249 49.6811 22.4256C49.7677 22.4258 49.8543 22.4206 49.9403 22.41C50.2306 22.3788 50.5116 22.2899 50.767 22.1484C51.0224 22.0069 51.247 21.8157 51.4274 21.5861C51.6099 21.3577 51.7456 21.0954 51.8265 20.8144C51.9074 20.5334 51.932 20.2392 51.8989 19.9487C51.3601 14.8785 49.1021 10.1455 45.5005 6.53636C41.899 2.92724 37.1708 0.65944 32.1017 0.109966Z" fill="#FA6D26"/>
<path fill-rule="evenodd" clip-rule="evenodd" d="M23.4903 28.5171C33.8254 38.8497 36.1703 26.8979 42.7512 33.4736C49.0938 39.8162 52.7418 41.0857 44.7022 49.1228C43.6969 49.9311 37.2999 59.6653 14.8185 37.2046C-7.66297 14.7439 2.06329 8.32093 2.87166 7.31565C10.9294 -0.742121 12.1784 2.91106 18.5209 9.26659C25.1019 15.832 13.1551 18.1845 23.4903 28.5171Z" fill="#FA6D26"/>
</svg>
