<svg width="27" height="30" viewBox="0 0 27 30" fill="none" xmlns="http://www.w3.org/2000/svg">
<path d="M24.9591 11.2342C24.9591 11.3362 24.1596 21.4466 23.7037 25.7016C23.668 26.8601 23.1742 27.9572 22.3307 28.7521C21.4872 29.547 20.3628 29.9748 19.2042 29.9417C17.2649 29.9852 15.3661 30.0002 13.4973 30.0002C11.513 30.0002 9.57374 29.9852 7.68995 29.9417C6.54901 29.9477 5.45085 29.5078 4.62963 28.7157C3.80842 27.9236 3.32912 26.8421 3.29393 25.7016C2.82449 21.4316 2.03858 11.3362 2.02508 11.2342C2.00901 10.929 2.11106 10.6293 2.31006 10.3973C2.40954 10.2875 2.53076 10.1996 2.66607 10.1392C2.80137 10.0787 2.94777 10.0472 3.09595 10.0464H23.8987C24.0463 10.049 24.1919 10.0814 24.3267 10.1417C24.4616 10.202 24.5828 10.2889 24.6831 10.3973C24.7836 10.5107 24.8599 10.6434 24.9073 10.7873C24.9548 10.9312 24.9724 11.0833 24.9591 11.2342Z" fill="#FA6D26"/>
<path opacity="0.4" d="M26.9941 5.96785C26.9963 5.82539 26.9704 5.68392 26.9178 5.55151C26.8652 5.4191 26.7869 5.29836 26.6876 5.19624C26.5883 5.09411 26.4697 5.01259 26.3388 4.95635C26.2079 4.90011 26.0672 4.87023 25.9248 4.86847H21.5512C21.1137 4.86392 20.6909 4.71032 20.3525 4.433C20.0141 4.15568 19.7804 3.77122 19.6899 3.34314L19.4455 2.24975C19.2851 1.61298 18.9186 1.04714 18.4032 0.640249C17.8878 0.233354 17.2524 0.00822956 16.5958 0H10.403C9.7339 0.00850804 9.08715 0.241827 8.56673 0.662403C8.04632 1.08298 7.68248 1.66639 7.53377 2.31878L7.3058 3.34167C7.21458 3.76922 6.98061 4.15299 6.64235 4.42993C6.30408 4.70687 5.88165 4.86047 5.44451 4.86549H1.07099C0.92846 4.86725 0.78766 4.8971 0.656672 4.95333C0.525683 5.00955 0.407082 5.09101 0.307619 5.19312C0.208157 5.29523 0.129788 5.41598 0.0770236 5.5484C0.0242593 5.68082 -0.00187756 5.82234 0.000104889 5.96487V6.53482C-0.00153149 6.82198 0.109877 7.09825 0.310251 7.30396C0.510626 7.50967 0.783887 7.62829 1.07099 7.6342H25.9277C26.2146 7.62791 26.4875 7.50912 26.6875 7.30345C26.8876 7.09779 26.9988 6.82173 26.9971 6.53482L26.9941 5.96785Z" fill="#FA6D26"/>
</svg>
