<svg width="31" height="31" viewBox="0 0 31 31" fill="none" xmlns="http://www.w3.org/2000/svg">
<path opacity="0.2" d="M22.227 0H8.7885C3.534 0 0 3.689 0 9.176V21.8395C0 27.311 3.534 31 8.7885 31H22.227C27.4815 31 31 27.311 31 21.8395V9.176C31 3.689 27.4815 0 22.227 0Z" fill="#E01515" fill-opacity="0.2"/>
<path d="M21.9431 13.826C21.9431 13.8788 21.5286 19.1218 21.2921 21.3284C21.2736 21.9291 21.0176 22.498 20.5801 22.9102C20.1427 23.3224 19.5596 23.5443 18.9588 23.5271C17.9531 23.5497 16.9685 23.5575 15.9994 23.5575C14.9704 23.5575 13.9647 23.5497 12.9878 23.5271C12.3962 23.5302 11.8267 23.3021 11.4008 22.8914C10.975 22.4806 10.7264 21.9197 10.7082 21.3284C10.4647 19.114 10.0572 13.8788 10.0502 13.826C10.0418 13.6677 10.0948 13.5122 10.1979 13.3919C10.2495 13.335 10.3124 13.2894 10.3826 13.2581C10.4527 13.2267 10.5287 13.2104 10.6055 13.21H21.3932C21.4698 13.2113 21.5453 13.2281 21.6152 13.2594C21.6851 13.2907 21.748 13.3357 21.8 13.3919C21.8521 13.4508 21.8917 13.5196 21.9163 13.5942C21.9409 13.6688 21.95 13.7477 21.9431 13.826Z" fill="#E01515"/>
<path opacity="0.4" d="M22.9984 11.0948C22.9996 11.0209 22.9861 10.9475 22.9588 10.8789C22.9316 10.8102 22.891 10.7476 22.8395 10.6946C22.788 10.6417 22.7265 10.5994 22.6586 10.5702C22.5907 10.5411 22.5178 10.5256 22.4439 10.5247H20.1759C19.949 10.5223 19.7297 10.4426 19.5542 10.2988C19.3788 10.155 19.2576 9.95565 19.2107 9.73366L19.0839 9.16666C19.0007 8.83645 18.8107 8.54302 18.5434 8.33202C18.2762 8.12101 17.9466 8.00427 17.6061 8H14.3947C14.0477 8.00441 13.7124 8.1254 13.4425 8.3435C13.1726 8.5616 12.9839 8.86415 12.9068 9.20245L12.7886 9.7329C12.7413 9.95462 12.62 10.1536 12.4445 10.2972C12.2691 10.4409 12.0501 10.5205 11.8234 10.5231H9.55539C9.48147 10.524 9.40846 10.5395 9.34053 10.5687C9.27261 10.5978 9.2111 10.6401 9.15952 10.693C9.10794 10.746 9.0673 10.8086 9.03994 10.8773C9.01258 10.9459 8.99903 11.0193 9.00005 11.0932V11.3888C8.99921 11.5377 9.05698 11.681 9.16089 11.7876C9.2648 11.8943 9.4065 11.9558 9.55539 11.9589H22.4454C22.5942 11.9556 22.7357 11.894 22.8394 11.7874C22.9432 11.6807 23.0008 11.5376 23 11.3888L22.9984 11.0948Z" fill="#E01515"/>
</svg>
