<svg width="166" height="176" viewBox="0 0 166 176" fill="none" xmlns="http://www.w3.org/2000/svg">
<path d="M113.263 152.26C106.089 145.271 105.97 134.465 107.839 125.074C108.148 123.506 108.25 121.815 109.225 120.557C110.199 119.298 112.106 118.637 113.407 119.531C114.488 120.273 114.776 121.718 115.247 122.951C115.874 124.591 116.967 126.045 118.366 127.087C119.285 127.774 120.476 128.295 121.557 127.909C123.04 127.379 123.506 125.528 123.756 123.96C124.218 121.035 124.676 118.107 125.138 115.183C125.384 113.615 125.642 112.013 126.375 110.602C127.108 109.191 128.409 107.987 129.969 107.814C131.528 107.64 133.232 108.801 133.295 110.39C133.321 111.051 133.084 111.691 133.02 112.348C132.956 113.005 133.143 113.776 133.732 114.06C134.33 114.348 135.029 114.005 135.571 113.624C137.449 112.306 138.881 110.445 140.241 108.585C141.602 106.724 142.936 104.813 144.687 103.326C146.437 101.838 148.691 100.804 150.959 101.046C153.226 101.287 155.391 103.063 155.599 105.36C155.807 107.665 154.15 109.695 152.455 111.255C149.937 113.568 147.09 115.514 144.03 117.01C143.479 117.281 142.881 117.569 142.597 118.12C142.085 119.112 142.907 120.311 143.882 120.824C144.988 121.404 146.276 121.489 147.475 121.836C148.674 122.18 149.912 122.938 150.183 124.167C150.565 125.875 148.946 127.337 147.45 128.219C144.449 129.99 141.148 131.236 137.737 131.888C136.516 132.122 135.241 132.291 134.177 132.952C133.113 133.609 132.321 134.927 132.702 136.122C133.084 137.321 134.469 137.91 135.711 137.885C136.957 137.86 138.144 137.381 139.368 137.135C141.657 136.673 144.415 137.279 145.492 139.368C146.2 140.741 146 142.458 145.301 143.843C144.602 145.229 143.466 146.331 142.288 147.331C138.169 150.819 133.215 153.357 127.935 154.273C122.654 155.188 117.942 154.9 113.272 152.268" fill="#E65C00"/>
<path d="M111.992 159.239C112.946 155.552 114.492 151.268 116.671 146.738C118.84 142.199 121.633 137.423 124.723 132.524C125.498 131.304 126.269 130.096 127.024 128.905C127.782 127.718 128.532 126.544 129.342 125.438C130.948 123.222 132.656 121.213 134.342 119.357C136.025 117.501 137.69 115.797 139.258 114.221C140.83 112.645 142.326 111.204 143.742 109.945C146.568 107.424 149.086 105.661 150.866 104.521C151.755 103.949 152.455 103.525 152.938 103.249C153.167 103.118 153.349 103.012 153.484 102.936C153.607 102.868 153.675 102.834 153.675 102.838C153.675 102.842 153.62 102.885 153.497 102.961C153.366 103.046 153.188 103.156 152.963 103.3C152.493 103.597 151.798 104.033 150.921 104.618C149.166 105.784 146.674 107.568 143.873 110.102C142.47 111.365 140.987 112.81 139.423 114.395C137.864 115.98 136.207 117.683 134.533 119.544C132.859 121.4 131.16 123.404 129.566 125.612C128.765 126.71 128.02 127.879 127.261 129.066C126.507 130.257 125.74 131.46 124.96 132.681C121.87 137.575 119.078 142.335 116.9 146.856C114.713 151.37 113.158 155.629 112.179 159.294" fill="#263238"/>
<path d="M129.426 125.443C129.426 125.443 129.393 125.197 129.384 124.748C129.371 124.303 129.376 123.654 129.397 122.853C129.431 121.256 129.554 119.052 129.698 116.62C129.842 114.187 129.931 111.988 129.943 110.394C129.952 109.598 129.948 108.953 129.943 108.508C129.943 108.063 129.943 107.813 129.969 107.813C129.99 107.813 130.02 108.059 130.058 108.504C130.1 108.949 130.13 109.598 130.151 110.394C130.194 111.992 130.138 114.204 129.994 116.637C129.846 119.035 129.71 121.205 129.609 122.862C129.566 123.612 129.532 124.243 129.503 124.748C129.477 125.193 129.452 125.438 129.431 125.438L129.426 125.443Z" fill="#263238"/>
<path d="M150.205 124.977C150.205 124.977 149.908 124.981 149.387 124.943C148.861 124.904 148.103 124.845 147.162 124.799C145.285 124.697 142.683 124.646 139.809 124.714C136.936 124.786 134.338 124.964 132.465 125.146C131.529 125.231 130.77 125.32 130.245 125.379C129.719 125.438 129.431 125.464 129.427 125.443C129.427 125.421 129.711 125.362 130.228 125.265C130.749 125.171 131.503 125.053 132.44 124.938C134.313 124.701 136.919 124.489 139.801 124.417C142.683 124.349 145.289 124.434 147.17 124.591C148.111 124.663 148.87 124.752 149.391 124.828C149.912 124.904 150.2 124.955 150.196 124.977H150.205Z" fill="#263238"/>
<path d="M116.98 146.407C116.98 146.407 116.938 146.318 116.883 146.14C116.823 145.928 116.747 145.67 116.658 145.356C116.467 144.674 116.213 143.678 115.916 142.441C115.323 139.97 114.607 136.537 113.87 132.732C113.132 128.926 112.45 125.489 111.907 123.015C111.64 121.811 111.42 120.819 111.255 120.082C111.187 119.764 111.128 119.497 111.081 119.281C111.043 119.099 111.03 119.001 111.039 118.997C111.047 118.997 111.081 119.086 111.136 119.264C111.195 119.476 111.272 119.734 111.361 120.048C111.551 120.73 111.806 121.726 112.102 122.964C112.696 125.434 113.412 128.867 114.149 132.672C114.887 136.474 115.569 139.911 116.107 142.39C116.374 143.593 116.594 144.585 116.76 145.322C116.827 145.64 116.887 145.907 116.933 146.123C116.972 146.305 116.984 146.403 116.976 146.407H116.98Z" fill="#263238"/>
<path d="M145.182 142.161C145.182 142.161 145.085 142.195 144.898 142.228C144.678 142.262 144.407 142.309 144.076 142.36C143.318 142.474 142.296 142.631 141.055 142.822C138.504 143.212 134.986 143.788 131.1 144.432C127.214 145.076 123.688 145.623 121.129 145.958C119.849 146.127 118.811 146.25 118.094 146.326C117.764 146.356 117.488 146.382 117.268 146.407C117.077 146.42 116.98 146.424 116.976 146.415C116.976 146.407 117.073 146.382 117.26 146.348C117.48 146.314 117.751 146.267 118.082 146.216C118.84 146.102 119.857 145.945 121.103 145.754C123.654 145.364 127.172 144.788 131.058 144.144C134.944 143.5 138.47 142.953 141.029 142.618C142.309 142.449 143.347 142.326 144.064 142.25C144.394 142.22 144.67 142.19 144.89 142.169C145.081 142.156 145.178 142.152 145.182 142.161Z" fill="#263238"/>
<path d="M28.4722 61.5618C27.1628 60.5447 26.5779 58.7479 26.8492 57.1121C27.1246 55.4763 28.1798 54.0312 29.5444 53.0947C30.1758 52.6624 30.9598 52.3191 31.6972 52.5353C32.3837 52.7387 32.8626 53.404 33.0024 54.1075C33.1423 54.811 32.9897 55.5399 32.7567 56.2179C31.9515 58.5402 30.7479 60.6422 28.4722 61.566" fill="#2E3333"/>
<path d="M26.3203 65.5287C23.7395 63.1725 19.9721 62.1893 16.5691 62.9776C15.7004 63.1768 14.7257 63.6344 14.5816 64.5159C14.4375 65.3974 15.2258 66.1432 15.997 66.5882C19.2051 68.4486 23.553 68.0968 26.422 65.7491" fill="#2E3333"/>
<path d="M13.882 47.162C15.3143 46.7679 16.8823 47.1238 18.1494 47.8951C19.4165 48.6664 20.4082 49.8276 21.2006 51.0819C22.7347 53.506 23.2772 56.7691 23.345 59.6381C20.1581 59.5109 17.4375 57.0064 16.1365 55.6461C14.0811 53.5017 11.6656 48.374 13.882 47.1577" fill="#2E3333"/>
<path d="M31.1423 69.8638C30.9558 69.5248 30.6507 69.2875 30.3456 68.6645C29.7481 67.4228 28.9429 65.6514 28.553 63.5495C28.1631 61.4433 28.4259 59.4515 28.9513 58.1548C29.2056 57.5021 29.4938 57.0063 29.7226 56.6927C29.9515 56.3749 30.0998 56.2223 30.1167 56.2308C30.1718 56.2647 29.6082 56.9343 29.1675 58.231C28.714 59.5151 28.4937 61.4391 28.8708 63.4944C29.2522 65.5497 30.0108 67.3084 30.5575 68.5713" fill="#263238"/>
<path d="M31.1721 69.9025C30.7441 69.3516 30.1889 68.6311 29.5109 67.7624C28.1166 65.9528 26.18 63.4568 24.006 60.7276C21.832 58.0027 19.8318 55.5575 18.3782 53.7946C17.6832 52.9428 17.1026 52.2393 16.6619 51.7011C16.2593 51.2053 16.0474 50.9214 16.0601 50.9087C16.0771 50.8959 16.3229 51.1502 16.7551 51.6206C17.1874 52.091 17.8018 52.786 18.5477 53.6505C20.0479 55.3795 22.0778 57.8036 24.2518 60.5327C26.4258 63.2661 28.337 65.7833 29.6846 67.631C30.3584 68.5548 30.9009 69.3049 31.2611 69.8347" fill="#263238"/>
<path d="M18.5606 64.8595C18.5564 64.8383 18.7513 64.779 19.1115 64.69C19.2938 64.6434 19.5141 64.5925 19.7769 64.5629C20.0396 64.529 20.3363 64.4739 20.671 64.4654C21.3364 64.4145 22.1331 64.44 23.0103 64.5544C23.8833 64.6858 24.8326 64.9146 25.7903 65.2791C26.7396 65.6562 27.5956 66.1309 28.3287 66.6224C29.0534 67.131 29.6594 67.6522 30.1129 68.1396C30.3544 68.3684 30.5366 68.6142 30.7061 68.8134C30.8799 69.0126 31.0113 69.199 31.113 69.3558C31.3206 69.6652 31.291 69.8093 31.274 69.822C31.2232 69.8601 30.8968 69.2075 29.9561 68.2964C29.4899 67.8387 28.8797 67.3471 28.1635 66.864C27.4388 66.3978 26.5997 65.9402 25.6759 65.5757C24.7436 65.2197 23.8197 64.9909 22.9722 64.8468C22.1204 64.7197 21.3406 64.6688 20.6837 64.69C19.3743 64.7239 18.5733 64.9146 18.5606 64.8553V64.8595Z" fill="#263238"/>
<g clip-path="url(#clip0_1_53027)">
<path fill-rule="evenodd" clip-rule="evenodd" d="M121.847 75.4324H43C43 75.4324 50.3533 143.365 51.7999 156.732C51.9395 158.023 53.0221 159 54.3105 159C63.8494 159 100.69 158.997 110.211 158.997C111.496 158.997 112.576 158.026 112.721 156.739C114.218 143.397 121.846 75.4316 121.846 75.4316L121.847 75.4324Z" fill="#2E3333"/>
<path fill-rule="evenodd" clip-rule="evenodd" d="M62.2651 85.8807C62.0788 84.4099 60.7413 83.3684 59.2806 83.556C57.8199 83.7436 56.7856 85.0904 56.9719 86.5611L64.6182 146.843C64.8045 148.313 66.1421 149.355 67.6027 149.167C69.0634 148.98 70.0977 147.633 69.9115 146.162L62.2651 85.8807Z" fill="white" fill-opacity="0.2"/>
<path fill-rule="evenodd" clip-rule="evenodd" d="M102.249 85.8807C102.435 84.4099 103.773 83.3684 105.234 83.556C106.694 83.7436 107.729 85.0904 107.542 86.5611L99.896 146.843C99.7097 148.313 98.3721 149.355 96.9115 149.167C95.4508 148.98 94.4165 147.633 94.6027 146.162L102.249 85.8807Z" fill="white" fill-opacity="0.2"/>
<path fill-rule="evenodd" clip-rule="evenodd" d="M79.9257 86.187C79.9288 84.7045 81.1268 83.5029 82.6 83.5068C84.0723 83.51 85.2657 84.7163 85.2625 86.1996L85.13 146.971C85.1269 148.453 83.9289 149.655 82.4558 149.651C80.9834 149.648 79.7901 148.442 79.794 146.958L79.9265 86.187H79.9257Z" fill="white" fill-opacity="0.2"/>
<path fill-rule="evenodd" clip-rule="evenodd" d="M71.8621 57.7275C71.8621 57.7275 73.276 53.265 74.3556 49.8588C75.0267 47.7406 77.2504 46.5453 79.3713 47.1622C84.2483 48.5804 92.6577 51.0251 97.6048 52.4637C98.6509 52.7682 99.5324 53.4808 100.054 54.443C100.575 55.4052 100.692 56.5377 100.379 57.5878C99.3711 60.9712 98.085 65.2877 98.085 65.2877L94.2758 64.2313C94.2758 64.2313 95.8979 59.1535 96.5495 57.1145C96.6196 56.8956 96.5993 56.657 96.4926 56.4529C96.3866 56.2489 96.2034 56.0966 95.9836 56.0299C92.865 55.0818 81.8842 51.7416 78.7999 50.8038C78.351 50.6672 77.8771 50.9207 77.7383 51.372C77.0782 53.52 75.3392 59.1731 75.3392 59.1731L71.8613 57.7283L71.8621 57.7275Z" fill="#BF4D00"/>
<path fill-rule="evenodd" clip-rule="evenodd" d="M126.958 72.9426C127.123 72.3619 126.789 71.7544 126.212 71.5872L47.4496 48.8336C46.8728 48.6672 46.2695 49.0031 46.1035 49.5847L43.8392 57.5295C43.6739 58.1102 44.0075 58.7177 44.5851 58.8848L123.348 81.6393C123.925 81.8057 124.528 81.4698 124.694 80.8882L126.958 72.9426H126.958Z" fill="#E65C00"/>
</g>
<path d="M101.11 31.0098C101.17 31.0098 101.22 33.6499 101.22 36.9088C101.22 40.1676 101.17 42.8078 101.11 42.8078C101.051 42.8078 101 40.1676 101 36.9088C101 33.6499 101.051 31.0098 101.11 31.0098Z" fill="#263238"/>
<path d="M122.011 44.5822C122.036 44.6373 119.638 45.7476 116.658 47.0656C113.679 48.3793 111.242 49.4006 111.217 49.3455C111.192 49.2904 113.586 48.1801 116.569 46.8621C119.549 45.5484 121.985 44.5271 122.011 44.5822Z" fill="#263238"/>
<path d="M121.482 24.0002C121.482 24.0002 121.448 24.0807 121.367 24.2248C121.274 24.3901 121.151 24.5935 121.007 24.8477C120.689 25.3902 120.219 26.1657 119.625 27.115C118.439 29.0177 116.731 31.607 114.799 34.4294C112.862 37.2518 111.137 39.8241 109.917 41.7015C109.319 42.6253 108.832 43.3796 108.476 43.9305C108.315 44.1763 108.183 44.3755 108.077 44.5323C107.984 44.6679 107.933 44.74 107.925 44.7357C107.916 44.7357 107.959 44.6552 108.039 44.5111C108.133 44.3458 108.255 44.1424 108.4 43.8882C108.717 43.3457 109.188 42.5744 109.781 41.6209C110.968 39.7182 112.675 37.1289 114.612 34.3065C116.545 31.4841 118.274 28.916 119.49 27.0344C120.087 26.1106 120.575 25.3563 120.931 24.8054C121.092 24.5596 121.223 24.3604 121.329 24.2036C121.422 24.068 121.473 23.9959 121.482 24.0002Z" fill="#263238"/>
<defs>
<clipPath id="clip0_1_53027">
<rect width="84" height="112" fill="white" transform="translate(43 47)"/>
</clipPath>
</defs>
</svg>
