<svg width="114" height="114" viewBox="0 0 114 114" fill="none" xmlns="http://www.w3.org/2000/svg">
<rect opacity="0.1" width="114" height="114" rx="57" fill="#FA6D26"/>
<path d="M77.6561 50.4956C77.6561 50.6718 76.2753 68.1351 75.4877 75.4847C75.4261 77.4858 74.5732 79.3807 73.1162 80.7537C71.6592 82.1267 69.7171 82.8656 67.7159 82.8084C64.3662 82.8835 61.0865 82.9095 57.8586 82.9095C54.4312 82.9095 51.0815 82.8835 47.8277 82.8084C45.8569 82.8188 43.9601 82.0589 42.5416 80.6908C41.1232 79.3227 40.2953 77.4545 40.2345 75.4847C39.4237 68.1092 38.0662 50.6718 38.0429 50.4956C38.0151 49.9684 38.1914 49.4507 38.5351 49.05C38.7069 48.8603 38.9163 48.7085 39.15 48.6041C39.3837 48.4997 39.6366 48.4452 39.8926 48.4438H75.8245C76.0796 48.4483 76.3311 48.5043 76.5639 48.6084C76.7968 48.7126 77.0061 48.8628 77.1794 49.05C77.353 49.2459 77.4848 49.4751 77.5667 49.7237C77.6487 49.9722 77.6791 50.2349 77.6561 50.4956Z" fill="#FA6D26"/>
<path opacity="0.4" d="M81.1721 41.3989C81.1759 41.1529 81.1311 40.9085 81.0402 40.6798C80.9494 40.4511 80.8143 40.2425 80.6427 40.0661C80.4711 39.8897 80.2664 39.7489 80.0403 39.6518C79.8142 39.5546 79.5711 39.503 79.325 39.5H71.7708C71.0151 39.4921 70.2847 39.2268 69.7001 38.7478C69.1156 38.2688 68.712 37.6047 68.5558 36.8653L68.1335 34.9768C67.8565 33.8769 67.2236 32.8995 66.3333 32.1967C65.4431 31.4939 64.3455 31.105 63.2113 31.0908H52.5147C51.359 31.1055 50.2419 31.5085 49.343 32.235C48.4441 32.9614 47.8156 33.9691 47.5588 35.096L47.165 36.8628C47.0075 37.6013 46.6033 38.2642 46.019 38.7425C45.4348 39.2209 44.7051 39.4862 43.9501 39.4949H36.3958C36.1496 39.4979 35.9064 39.5495 35.6801 39.6466C35.4539 39.7437 35.249 39.8844 35.0772 40.0608C34.9054 40.2371 34.7701 40.4457 34.6789 40.6744C34.5878 40.9031 34.5427 41.1476 34.5461 41.3938V42.3782C34.5433 42.8742 34.7357 43.3514 35.0818 43.7067C35.4279 44.0621 35.8999 44.267 36.3958 44.2772H79.3302C79.8257 44.2663 80.297 44.0611 80.6425 43.7059C80.9881 43.3506 81.1801 42.8738 81.1773 42.3782L81.1721 41.3989Z" fill="#FA6D26"/>
</svg>
