<svg width="50" height="50" viewBox="0 0 50 50" fill="none" xmlns="http://www.w3.org/2000/svg">
<circle cx="25" cy="25" r="24" fill="#E65C00" stroke="#FCF3FD" stroke-width="2"/>
<path d="M27.6683 17.0236L28.6776 16.013C29.8703 14.8186 31.946 14.8186 33.1387 16.013L33.953 16.8284C34.5493 17.4256 34.8819 18.218 34.8819 19.0563C34.8819 19.8947 34.5493 20.6986 33.953 21.2843L32.9438 22.295L27.6683 17.0121V17.0236ZM26.4527 18.241L16.0051 28.7033C15.6725 29.0363 15.4661 29.4727 15.4317 29.9436L15.1221 33.3085C15.0876 33.7334 15.2367 34.1469 15.5349 34.457C15.8102 34.7326 16.1657 34.8819 16.5441 34.8819H16.6703L20.0305 34.5718C20.5007 34.5259 20.9365 34.3192 21.2691 33.9861L31.7166 23.5238L26.4412 18.241H26.4527Z" fill="white"/>
</svg>
