<svg width="14" height="16" viewBox="0 0 14 16" fill="none" xmlns="http://www.w3.org/2000/svg">
<path d="M12.9426 5.82595C12.9426 5.87884 12.5281 11.1218 12.2916 13.3284C12.2731 13.9291 12.0171 14.498 11.5796 14.9102C11.1422 15.3224 10.5591 15.5443 9.9583 15.5271C8.95264 15.5497 7.96799 15.5575 6.99888 15.5575C5.96988 15.5575 4.96421 15.5497 3.98733 15.5271C3.39567 15.5302 2.82619 15.3021 2.40033 14.8914C1.97447 14.4806 1.72592 13.9197 1.70767 13.3284C1.46423 11.114 1.05668 5.87884 1.04968 5.82595C1.04135 5.66767 1.09427 5.51225 1.19746 5.39194C1.24905 5.33499 1.31191 5.28941 1.38208 5.25807C1.45224 5.22674 1.52816 5.21036 1.605 5.20996H12.3927C12.4693 5.2113 12.5448 5.2281 12.6147 5.25938C12.6846 5.29066 12.7475 5.33574 12.7995 5.39194C12.8516 5.45075 12.8912 5.51957 12.9158 5.5942C12.9404 5.66882 12.9495 5.74768 12.9426 5.82595Z" fill="#E01515"/>
<path opacity="0.4" d="M13.9984 3.09477C13.9996 3.02089 13.9861 2.94753 13.9588 2.87887C13.9316 2.8102 13.891 2.74759 13.8395 2.69463C13.788 2.64167 13.7265 2.5994 13.6586 2.57023C13.5907 2.54106 13.5178 2.52557 13.4439 2.52466H11.1759C10.949 2.5223 10.7297 2.44265 10.5542 2.29883C10.3788 2.15502 10.2576 1.95565 10.2107 1.73366L10.0839 1.16666C10.0007 0.836449 9.8107 0.543021 9.54343 0.332016C9.27616 0.121011 8.94663 0.00426763 8.60613 0H5.3947C5.04774 0.00441204 4.71235 0.125405 4.44248 0.343504C4.17261 0.561604 3.98393 0.864148 3.90681 1.20245L3.78859 1.7329C3.74129 1.95462 3.61996 2.15363 3.44454 2.29724C3.26913 2.44086 3.05007 2.52051 2.82338 2.52311H0.555389C0.481474 2.52403 0.40846 2.53951 0.340532 2.56866C0.272605 2.59782 0.211102 2.64006 0.159523 2.69301C0.107945 2.74597 0.0673045 2.80858 0.0399424 2.87725C0.0125802 2.94592 -0.000973652 3.01931 5.43928e-05 3.09322V3.38878C-0.000794191 3.5377 0.0569791 3.68096 0.160888 3.78764C0.264797 3.89431 0.406503 3.95583 0.555389 3.95889H13.4454C13.5942 3.95563 13.7357 3.89403 13.8394 3.78738C13.9432 3.68072 14.0008 3.53757 14 3.38878L13.9984 3.09477Z" fill="#E01515"/>
</svg>
