<svg width="17" height="18" viewBox="0 0 17 18" fill="none" xmlns="http://www.w3.org/2000/svg">
<path opacity="0.4" d="M16.0602 16.0703H10.6807C10.4294 16.0782 10.191 16.1835 10.016 16.3641C9.84102 16.5446 9.74316 16.7862 9.74316 17.0376C9.74316 17.2891 9.84102 17.5306 10.016 17.7112C10.191 17.8917 10.4294 17.9971 10.6807 18.0049H16.0621C16.3134 17.9971 16.5518 17.8917 16.7268 17.7112C16.9018 17.5306 16.9996 17.2891 16.9996 17.0376C16.9996 16.7862 16.9018 16.5446 16.7268 16.3641C16.5518 16.1835 16.3134 16.0782 16.0621 16.0703H16.0602Z" fill="#969898"/>
<path d="M6.90968 4.68017L12.0132 8.80081C12.0722 8.84897 12.1102 8.91816 12.1192 8.99379C12.1282 9.06942 12.1075 9.14558 12.0614 9.20624L6.01278 17.0836C5.83055 17.3198 5.59743 17.5119 5.33072 17.6456C5.06401 17.7793 4.7706 17.8511 4.4723 17.8558L1.17201 17.8964C1.08591 17.8968 1.00224 17.8678 0.934875 17.8142C0.867507 17.7605 0.82048 17.6855 0.801538 17.6015L0.0520773 14.341C-0.0159764 14.0472 -0.0173512 13.7419 0.0480682 13.4475C0.113488 13.1531 0.244033 12.8771 0.43011 12.6398L6.50612 4.72366C6.52948 4.69392 6.55856 4.66912 6.59164 4.65078C6.62472 4.63244 6.66115 4.62091 6.69876 4.61686C6.73636 4.61281 6.77438 4.61634 6.81061 4.62722C6.84683 4.63809 6.88052 4.65608 6.90968 4.68017Z" fill="#969898"/>
<path opacity="0.4" d="M14.2925 6.3482L13.3086 7.57681C13.2854 7.60615 13.2567 7.6306 13.224 7.64878C13.1913 7.66695 13.1553 7.67848 13.1182 7.68269C13.081 7.68691 13.0434 7.68373 13.0075 7.67335C12.9715 7.66296 12.938 7.64558 12.9088 7.62218C11.7133 6.65535 8.65589 4.17351 7.8053 3.48548C7.74607 3.43657 7.70851 3.36632 7.70072 3.2899C7.69294 3.21348 7.71558 3.13707 7.76374 3.07722L8.70884 1.89963C8.91911 1.63705 9.18158 1.42097 9.47967 1.26508C9.77776 1.10918 10.105 1.01685 10.4406 0.993931C10.7762 0.971012 11.1129 1.01798 11.4295 1.13191C11.746 1.24584 12.0354 1.42424 12.2794 1.6558L13.6687 2.76345C14.2122 3.17123 14.5947 3.75748 14.7489 4.41924C14.8238 4.75435 14.8216 5.10207 14.7426 5.43621C14.6635 5.77035 14.5096 6.0822 14.2925 6.3482Z" fill="#969898"/>
</svg>
