<svg width="20" height="20" viewBox="0 0 20 20" fill="none" xmlns="http://www.w3.org/2000/svg">
<mask id="mask0_1_52985" style="mask-type:luminance" maskUnits="userSpaceOnUse" x="0" y="0" width="20" height="20">
<path d="M0 0H20V20H0V0Z" fill="white"/>
</mask>
<g mask="url(#mask0_1_52985)">
<path d="M12.6612 20C11.3435 20 10.0296 19.5719 8.96152 18.7945L8.88445 18.7346C8.23332 18.1954 7.37937 17.9489 6.54152 18.0582C6.35148 18.0831 6.16023 18.1274 5.97273 18.1899C5.90457 18.2183 5.83559 18.2456 5.76723 18.2715L5.67578 18.306C5.30391 18.475 4.96559 18.7192 4.69172 19.0172L4.0316 19.7355L1.7334 17.6231L2.39352 16.9049C3.06309 16.1765 3.90984 15.6142 4.84414 15.2773C6.14238 14.7038 7.01262 13.3717 7.01262 11.953C7.01262 11.8745 7.01012 11.7961 7.00512 11.7181H2.9057V8.59664H5.62359C5.29914 7.8359 5.12996 7.01098 5.12996 6.17324C5.12996 2.7693 7.8993 0 11.3032 0C12.6388 0 13.9102 0.419844 14.9801 1.2141C16.0277 1.99176 16.7902 3.05719 17.1852 4.29523L14.2115 5.24406C13.8063 3.97445 12.6377 3.12144 11.3032 3.12144C9.62047 3.12144 8.25141 4.49047 8.25141 6.17324C8.25141 6.84094 8.46551 7.57953 9.25641 8.59664H14.2218V11.7181H10.13C10.1327 11.7964 10.1341 11.8747 10.1341 11.953C10.1341 13.1578 9.81922 14.3209 9.21898 15.3493C9.7991 15.5796 10.3425 15.8972 10.8312 16.2943C11.4741 16.7497 12.2766 16.9538 13.0374 16.8543C13.8885 16.7432 14.658 16.2748 15.1485 15.5693L15.7054 14.7684L18.2681 16.5504L17.7113 17.3513C16.7196 18.7775 15.1635 19.7245 13.4418 19.9495C13.1852 19.983 12.9226 20 12.6612 20Z" fill="#BCBDBD"/>
</g>
</svg>
