<svg width="19" height="21" viewBox="0 0 19 21" fill="none" xmlns="http://www.w3.org/2000/svg">
<path d="M11.9002 0H3.50005C1.56732 0 0 1.56732 0 3.50005V15.4002C0 17.3329 1.56732 18.9003 3.50005 18.9003H11.2001V16.7225C10.3356 15.8384 9.80013 14.6309 9.80013 13.3002C9.80013 10.5981 11.9989 8.40011 14.7002 8.40011C14.9382 8.40011 15.1706 8.42321 15.4002 8.45611V3.50005C15.4002 1.56732 13.8329 0 11.9002 0ZM7.12609 15.4002H3.50005C3.11294 15.4002 2.80004 15.0866 2.80004 14.7002C2.80004 14.3138 3.11294 14.0002 3.50005 14.0002H7.12609C7.5132 14.0002 7.8261 14.3138 7.8261 14.7002C7.8261 15.0866 7.5132 15.4002 7.12609 15.4002ZM7.2941 11.9002H3.50005C3.11294 11.9002 2.80004 11.5866 2.80004 11.2001C2.80004 10.8137 3.11294 10.5001 3.50005 10.5001H7.2941C7.6812 10.5001 7.99411 10.8137 7.99411 11.2001C7.99411 11.5866 7.6812 11.9002 7.2941 11.9002ZM9.41513 8.40011H3.50005C3.11294 8.40011 2.80004 8.08651 2.80004 7.7001C2.80004 7.3137 3.11294 7.00009 3.50005 7.00009H9.41513C9.80223 7.00009 10.1151 7.3137 10.1151 7.7001C10.1151 8.08651 9.80223 8.40011 9.41513 8.40011ZM11.9002 4.90006H3.50005C3.11294 4.90006 2.80004 4.58646 2.80004 4.20006C2.80004 3.81365 3.11294 3.50005 3.50005 3.50005H11.9002C12.2873 3.50005 12.6002 3.81365 12.6002 4.20006C12.6002 4.58646 12.2873 4.90006 11.9002 4.90006Z" fill="#BCBDBD"/>
<path opacity="0.4" d="M14.7006 18.1998C13.9481 18.1998 13.2376 18.0248 12.6006 17.7217V20.2984C12.6006 20.8577 13.2236 21.1909 13.6891 20.8808L14.7006 20.206L15.7121 20.8808C16.1776 21.1909 16.8006 20.8577 16.8006 20.2984V17.7217C16.1636 18.0248 15.4531 18.1998 14.7006 18.1998Z" fill="#BCBDBD"/>
<path opacity="0.4" d="M14.7002 16.7999C16.6333 16.7999 18.2003 15.2329 18.2003 13.2999C18.2003 11.3668 16.6333 9.7998 14.7002 9.7998C12.7672 9.7998 11.2002 11.3668 11.2002 13.2999C11.2002 15.2329 12.7672 16.7999 14.7002 16.7999Z" fill="#BCBDBD"/>
</svg>
