<svg width="108" height="123" viewBox="0 0 108 123" fill="none" xmlns="http://www.w3.org/2000/svg">
<g id="Group 1000003944">
<g id="Group 314" filter="url(#filter0_d_342_117)">
<g id="Group">
<g id="Group_2">
<g id="Group_3">
<path id="Vector" d="M64.193 69.8232C64.193 71.0506 63.198 72.0455 61.9707 72.0455C60.7434 72.0455 59.7484 71.0506 59.7484 69.8232C59.7484 68.5959 60.7434 67.601 61.9707 67.601C63.198 67.601 64.193 68.5959 64.193 69.8232Z" fill="#2E3333" stroke="white" stroke-width="1.2"/>
<path id="Vector_2" d="M78.6517 52.7688L78.4918 53.3269L78.6517 52.7687C78.1715 52.6312 77.6004 52.5724 76.9276 52.5724H36.2886C32.845 52.5724 30.0443 55.3731 30.0443 58.8167V81.9584C30.0443 85.402 32.845 88.2027 36.2886 88.2027H71.4244C72.6517 88.2028 73.6466 89.1977 73.6466 90.425C73.6466 91.6523 72.6517 92.6471 71.4244 92.6471H36.2886C30.3954 92.6471 25.6 87.8517 25.6 81.9585V58.8169C25.6 52.9237 30.3954 48.1282 36.2886 48.1282H39.67H40.27V47.5282V37.5754C40.27 28.779 47.5853 21.6 56.6029 21.6C65.6205 21.6 72.9358 28.779 72.9358 37.5754V47.5282V48.1282H73.5358H76.9276C78.06 48.1282 79.0212 48.2515 79.8758 48.4963C81.0555 48.8345 81.7379 50.0649 81.4 51.2445C81.0618 52.4243 79.8314 53.1067 78.6517 52.7688ZM67.8915 48.1282H68.4915V47.5282V37.5754C68.4915 31.1985 63.1405 26.0443 56.6029 26.0443C50.0653 26.0443 44.7143 31.1985 44.7143 37.5754V47.5282V48.1282H45.3143H67.8915Z" fill="#2E3333" stroke="white" stroke-width="1.2"/>
<path id="Vector_3" d="M53.61 69.8232C53.61 71.0506 52.615 72.0455 51.3877 72.0455C50.1604 72.0455 49.1654 71.0506 49.1654 69.8232C49.1654 68.5959 50.1604 67.601 51.3877 67.601C52.615 67.601 53.61 68.5959 53.61 69.8232Z" fill="#2E3333" stroke="white" stroke-width="1.2"/>
<path id="Vector_4" d="M43.026 69.8232C43.026 71.0506 42.031 72.0455 40.8037 72.0455C39.5764 72.0455 38.5814 71.0506 38.5814 69.8232C38.5814 68.5959 39.5764 67.601 40.8037 67.601C42.031 67.601 43.026 68.5959 43.026 69.8232Z" fill="#2E3333" stroke="white" stroke-width="1.2"/>
</g>
</g>
</g>
</g>
<g id="Group_4">
<path id="Vector_5" fill-rule="evenodd" clip-rule="evenodd" d="M84.4424 81.6681V77.4624C84.4424 77.1762 84.6302 76.9248 84.9034 76.842C87.692 76 92 73.6764 92 67.5006C92 62.2575 87.7439 58 82.4994 58C77.2561 58 73 62.2575 73 67.5006C73 68.573 73.8704 69.4434 74.9428 69.4434C76.0152 69.4434 76.8857 68.573 76.8857 67.5006C76.8857 64.4011 79.401 61.8857 82.4992 61.8857C85.5987 61.8857 88.1142 64.401 88.1142 67.5006C88.1142 71.2375 85.4667 72.613 83.7803 73.122C81.8671 73.6997 80.5576 75.4613 80.5564 77.4612V81.6681C80.5564 82.7406 81.428 83.611 82.4992 83.611C83.572 83.611 84.4424 82.7406 84.4424 81.6681Z" fill="#E65C00"/>
<path id="Vector_6" fill-rule="evenodd" clip-rule="evenodd" d="M84.4423 91.1014V89.0913C84.4423 88.0189 83.5719 87.1484 82.4995 87.1484C81.4283 87.1484 80.5566 88.0189 80.5566 89.0913V91.1014C80.5566 92.1738 81.4283 93.0443 82.4995 93.0443C83.5719 93.0443 84.4423 92.1738 84.4423 91.1014Z" fill="#E65C00"/>
</g>
</g>
<defs>
<filter id="filter0_d_342_117" x="0" y="0" width="107.087" height="122.247" filterUnits="userSpaceOnUse" color-interpolation-filters="sRGB">
<feFlood flood-opacity="0" result="BackgroundImageFix"/>
<feColorMatrix in="SourceAlpha" type="matrix" values="0 0 0 0 0 0 0 0 0 0 0 0 0 0 0 0 0 0 127 0" result="hardAlpha"/>
<feOffset dy="4"/>
<feGaussianBlur stdDeviation="12.5"/>
<feComposite in2="hardAlpha" operator="out"/>
<feColorMatrix type="matrix" values="0 0 0 0 0 0 0 0 0 0 0 0 0 0 0 0 0 0 0.08 0"/>
<feBlend mode="normal" in2="BackgroundImageFix" result="effect1_dropShadow_342_117"/>
<feBlend mode="normal" in="SourceGraphic" in2="effect1_dropShadow_342_117" result="shape"/>
</filter>
</defs>
</svg>
