<svg width="15" height="17" viewBox="0 0 15 17" fill="none" xmlns="http://www.w3.org/2000/svg">
<path d="M7.5 0C9.48912 0 11.3968 0.799332 12.8033 2.22215C14.2098 3.64497 15 5.57473 15 7.5869C15 10.1782 13.6033 12.2992 12.1317 13.8208C11.3963 14.5727 10.594 15.2544 9.735 15.8575L9.38 16.1019L9.21333 16.2141L8.89917 16.4164L8.61917 16.5892L8.2725 16.7932C8.03709 16.9287 7.77087 17 7.5 17C7.22913 17 6.96291 16.9287 6.7275 16.7932L6.38083 16.5892L5.9475 16.3194L5.7875 16.2141L5.44583 15.9839C4.51915 15.3494 3.65589 14.6249 2.86833 13.8208C1.39667 12.2975 0 10.1782 0 7.5869C0 5.57473 0.790176 3.64497 2.1967 2.22215C3.60322 0.799332 5.51088 0 7.5 0ZM7.5 5.05793C7.1717 5.05793 6.84661 5.12335 6.54329 5.25044C6.23998 5.37753 5.96438 5.56381 5.73223 5.79865C5.50009 6.03349 5.31594 6.31228 5.1903 6.61911C5.06466 6.92594 5 7.25479 5 7.5869C5 7.91901 5.06466 8.24787 5.1903 8.5547C5.31594 8.86152 5.50009 9.14032 5.73223 9.37515C5.96438 9.60999 6.23998 9.79627 6.54329 9.92336C6.84661 10.0505 7.1717 10.1159 7.5 10.1159C8.16304 10.1159 8.79893 9.84942 9.26777 9.37515C9.73661 8.90088 10 8.25762 10 7.5869C10 6.91618 9.73661 6.27292 9.26777 5.79865C8.79893 5.32438 8.16304 5.05793 7.5 5.05793Z" fill="#E65C00"/>
</svg>
