<svg width="11" height="11" viewBox="0 0 11 11" fill="none" xmlns="http://www.w3.org/2000/svg">
<path d="M0.469395 9.46974C0.176497 9.76263 0.17649 10.2375 0.469378 10.5304C0.762267 10.8233 1.23714 10.8233 1.53004 10.5304L0.469395 9.46974ZM10.2497 1.50037C10.2497 1.08616 9.91393 0.750364 9.49972 0.750357L2.74972 0.750252C2.3355 0.750246 1.99971 1.08603 1.9997 1.50024C1.9997 1.91445 2.33548 2.25025 2.74969 2.25025L8.74969 2.25035L8.7496 8.25035C8.74959 8.66456 9.08537 9.00035 9.49959 9.00036C9.9138 9.00036 10.2496 8.66458 10.2496 8.25037L10.2497 1.50037ZM1.53004 10.5304L10.03 2.0307L8.96938 0.970019L0.469395 9.46974L1.53004 10.5304Z" fill="#E65C00"/>
</svg>
