<svg width="24" height="24" viewBox="0 0 24 24" fill="none" xmlns="http://www.w3.org/2000/svg">
<path d="M8.69307 21.6601V18.2862C8.69459 17.8742 8.8676 17.4796 9.17435 17.1883C9.48109 16.8971 9.89668 16.733 10.3303 16.7319H13.6593C13.8749 16.7311 14.0885 16.7708 14.288 16.8485C14.4875 16.9262 14.6689 17.0405 14.8219 17.1848C14.9749 17.3292 15.0965 17.5007 15.1798 17.6897C15.263 17.8787 15.3062 18.0814 15.3069 18.2862V21.6502C15.3085 22.0077 15.4586 22.3502 15.7247 22.603C15.9909 22.8558 16.3514 22.9985 16.7277 23H18.9983C20.0572 23.0028 21.0742 22.6073 21.8271 21.8999C22.1984 21.5514 22.4933 21.1364 22.6946 20.6789C22.896 20.2213 22.9998 19.7304 23 19.2345V9.65082C22.9994 9.25151 22.9062 8.85724 22.7271 8.49601C22.548 8.13478 22.2874 7.81544 21.9637 7.56071L14.2498 1.74143C13.5946 1.24818 12.7795 0.986307 11.9436 1.00055C11.1078 1.0148 10.303 1.30427 9.66683 1.81953L2.1197 7.56071C1.78098 7.80786 1.50464 8.12379 1.31092 8.4854C1.1172 8.84702 1.01098 9.2452 1 9.65082V19.2213C1.00121 19.7191 1.10573 20.2119 1.30757 20.6713C1.5094 21.1307 1.80457 21.5479 2.17623 21.8988C2.5479 22.2498 2.98875 22.5277 3.47357 22.7166C3.95838 22.9056 4.47766 23.0018 5.00168 23H7.22022C7.59819 23.0026 7.96178 22.8625 8.23105 22.6105C8.36406 22.4866 8.46973 22.3387 8.5419 22.1755C8.61407 22.0123 8.65129 21.8371 8.65137 21.6601H8.69307Z" fill="#E6E6E6"/>
</svg>
