<svg width="70" height="69" viewBox="0 0 70 69" fill="none" xmlns="http://www.w3.org/2000/svg">
<path d="M53.652 44.574C52.2889 38.3046 44.7738 35.8239 39.9156 39.817C36.797 37.2365 32.2362 37.2366 29.0907 39.8184C24.2354 35.8234 16.716 38.3045 15.3516 44.5713C11.7864 45.3459 8.97949 48.4214 8.68848 52.2235H60.3167C60.0325 48.5123 57.3222 45.3722 53.652 44.574Z" fill="#FFF3E8"/>
<path d="M4.19543 31.1177H64.8071C65.9279 31.1177 66.8365 30.209 66.8365 29.0883C66.8365 15.4361 55.7297 4.32948 42.0778 4.32948H36.5307V2.02942C36.5307 0.908688 35.622 0 34.5013 0C33.3806 0 32.4719 0.908688 32.4719 2.02942V4.32935H26.9248C13.2727 4.32935 2.16602 15.4361 2.16602 29.0881C2.16602 30.2093 3.0747 31.1177 4.19543 31.1177Z" fill="#FFF3E8"/>
<path d="M66.9723 56.2822C64.1484 56.2822 4.90614 56.2822 2.03116 56.2822C0.59838 56.2822 -0.385451 57.7313 0.14629 59.0639L3.60165 67.7227C3.90947 68.4941 4.65612 68.9999 5.48652 68.9999H63.4939C64.3225 68.9999 65.0682 68.4959 65.377 67.727L68.8554 59.0681C69.3903 57.7367 68.4085 56.2822 66.9723 56.2822Z" fill="#FFF3E8"/>
</svg>
