<svg width="23" height="23" viewBox="0 0 23 23" fill="none" xmlns="http://www.w3.org/2000/svg">
<path d="M11.649 2.25122e-05C10.169 -0.00293742 8.70294 0.286013 7.33478 0.850321C5.96662 1.41463 4.72317 2.24321 3.67563 3.28866C2.62809 4.33411 1.79705 5.57589 1.23001 6.94291C0.662973 8.30994 0.371091 9.77539 0.371094 11.2554C0.404456 13.2245 0.926562 15.1544 1.89054 16.8718C1.97855 17.024 2.03133 17.194 2.04497 17.3693C2.0586 17.5446 2.03275 17.7208 1.96933 17.8848L1.21524 20.406C1.17247 20.5328 1.16682 20.6692 1.19896 20.7991C1.23111 20.929 1.2997 21.0471 1.39667 21.1393C1.49365 21.2315 1.61497 21.2941 1.74634 21.3198C1.87771 21.3454 2.01366 21.3329 2.13819 21.2839L4.41179 20.6085C4.7037 20.5398 5.00765 20.5407 5.29915 20.6111C5.59066 20.6815 5.86152 20.8194 6.08992 21.0137C7.58595 21.8639 9.25718 22.3592 10.9748 22.4615C12.6925 22.5639 14.4107 22.2705 15.9971 21.6041C17.5835 20.9376 18.9957 19.9159 20.125 18.6175C21.2542 17.3192 22.0703 15.779 22.5103 14.1155C22.9504 12.452 23.0027 10.7097 22.6632 9.02282C22.3237 7.33595 21.6014 5.74953 20.5521 4.38582C19.5028 3.02211 18.1543 1.91749 16.6108 1.15711C15.0672 0.396721 13.3697 0.000861227 11.649 2.25122e-05Z" fill="white"/>
</svg>
