<svg width="27" height="27" viewBox="0 0 27 27" fill="none" xmlns="http://www.w3.org/2000/svg">
<path d="M26.9325 10.5508C26.7614 9.99857 26.292 9.60631 25.7366 9.55408L18.1926 8.83929L15.2096 1.55343C14.9896 1.01947 14.4887 0.673828 13.9321 0.673828C13.3755 0.673828 12.8746 1.01947 12.6546 1.55467L9.67154 8.83929L2.12639 9.55408C1.57201 9.60756 1.10378 9.99857 0.931678 10.5508C0.759581 11.1031 0.918517 11.7089 1.33789 12.0907L7.04023 17.3092L5.35874 25.0383C5.2357 25.6066 5.44708 26.194 5.89896 26.5349C6.14185 26.718 6.42602 26.8112 6.71258 26.8112C6.95966 26.8112 7.20475 26.7417 7.4247 26.6044L13.9321 22.546L20.4371 26.6044C20.9131 26.9032 21.5131 26.8759 21.964 26.5349C22.4161 26.193 22.6273 25.6053 22.5042 25.0383L20.8227 17.3092L26.5251 12.0917C26.9445 11.7089 27.1046 11.1041 26.9325 10.5508Z" fill="#FFE69C"/>
</svg>
