<svg width="17" height="17" viewBox="0 0 17 17" fill="none" xmlns="http://www.w3.org/2000/svg">
<path d="M14.3385 13.9771H3.49104C3.2915 13.9771 3.12973 14.1388 3.12935 14.3384L3.12793 15.393C3.12759 15.7875 3.28085 16.1584 3.55954 16.4374C3.83856 16.7168 4.20906 16.8705 4.60361 16.8705H13.2245C14.0383 16.8705 14.7002 16.2086 14.7002 15.3948V14.3387C14.7002 14.1388 14.5385 13.9771 14.3385 13.9771Z" fill="white"/>
<path d="M12.8924 2.40375C12.6709 2.40375 12.4435 2.426 12.2026 2.47085C11.375 1.50589 10.189 0.957031 8.91394 0.957031C6.52067 0.957031 4.57382 2.90388 4.57382 5.29716C4.57382 5.4967 4.41171 5.65885 4.21213 5.65885C4.01258 5.65885 3.85044 5.49674 3.85044 5.29716C3.85044 4.51411 4.03059 3.75648 4.3859 3.04551C4.44914 2.91907 4.43286 2.76754 4.34457 2.65734C4.25627 2.54786 4.1118 2.4991 3.97478 2.53267C2.19783 2.97594 0.957031 4.55897 0.957031 6.38219C0.957031 7.8854 1.80471 9.25193 3.13557 9.9276L3.13167 12.892C3.13167 12.9877 3.16948 13.0799 3.23729 13.1481C3.30545 13.2159 3.3973 13.254 3.49336 13.254H14.3391C14.539 13.254 14.7008 13.0923 14.7008 12.8924V9.92228C16.0267 9.24485 16.8709 7.88042 16.8709 6.38216C16.8708 4.18846 15.0861 2.40375 12.8924 2.40375ZM6.25009 11.0021C6.18261 11.0572 6.10141 11.084 6.02088 11.084C5.91634 11.084 5.81248 11.0388 5.7408 10.9519C5.62141 10.806 4.57382 9.50203 4.57382 8.55226C4.57382 8.35234 4.73559 8.19057 4.9355 8.19057C5.13542 8.19057 5.29719 8.35234 5.29719 8.55226C5.29719 9.07572 5.91247 10.0202 6.30027 10.4927C6.42668 10.6475 6.40444 10.8752 6.25009 11.0021ZM9.2756 10.7223C9.2756 10.9222 9.11383 11.084 8.91391 11.084C8.71399 11.084 8.55226 10.9222 8.55226 10.7223V8.55226C8.55226 8.35234 8.71403 8.19057 8.91394 8.19057C9.11386 8.19057 9.27563 8.35234 9.27563 8.55226V10.7223H9.2756ZM12.0871 10.9519C12.0154 11.0388 11.9119 11.084 11.8074 11.084C11.7265 11.084 11.6452 11.0572 11.5781 11.0021C11.4238 10.8752 11.4012 10.6475 11.5276 10.4931C11.9154 10.0195 12.5307 9.07395 12.5307 8.55226C12.5307 8.35234 12.6925 8.19057 12.8924 8.19057C13.0923 8.19057 13.2541 8.35234 13.2541 8.55226C13.2541 9.502 12.2065 10.806 12.0871 10.9519Z" fill="white"/>
</svg>
