<svg width="15" height="21" viewBox="0 0 15 21" fill="none" xmlns="http://www.w3.org/2000/svg">
<path fill-rule="evenodd" clip-rule="evenodd" d="M3.70861 0.984032C4.83148 0.329396 6.11005 -0.0104712 7.40977 0.000245837C8.7095 0.0109629 9.98229 0.37185 11.0942 1.04491C12.2065 1.74294 13.1218 2.71392 13.7529 3.8655C14.384 5.01709 14.71 6.31098 14.6999 7.62412C14.4892 10.3254 13.2966 12.856 11.3473 14.7378C10.2922 15.8597 9.10876 16.8535 7.82142 17.6988C7.68932 17.7755 7.54401 17.8268 7.39302 17.85C7.24817 17.8435 7.10732 17.8005 6.98352 17.725C5.0157 16.4532 3.29432 14.8357 1.90263 12.9507C0.731041 11.365 0.0676845 9.46126 5.60093e-05 7.49079C-0.00501837 6.17658 0.33479 4.88402 0.985557 3.74224C1.63632 2.60045 2.57527 1.6494 3.70861 0.984032ZM5.0337 8.60483C5.21765 9.06787 5.53592 9.46528 5.94757 9.74595C6.35922 10.0266 6.84544 10.1777 7.34367 10.1798C7.67241 10.1818 7.9982 10.1177 8.30174 9.99147C8.60528 9.86522 8.8804 9.67932 9.1108 9.44481C9.40041 9.14682 9.61366 8.78322 9.73235 8.38499C9.85105 7.98676 9.87168 7.56572 9.79247 7.1578C9.71325 6.74988 9.53656 6.36715 9.27745 6.04229C9.01834 5.71742 8.68449 5.46007 8.3044 5.29213C7.8483 5.09831 7.34433 5.04664 6.85839 5.14386C6.37245 5.24109 5.92716 5.48267 5.58074 5.83705C5.22974 6.19598 4.99103 6.6495 4.89387 7.14204C4.7967 7.63457 4.8453 8.14475 5.0337 8.61009V8.60483Z" fill="#BCBDBD"/>
<path opacity="0.4" d="M7.34955 21.0004C10.249 21.0004 12.5995 20.5303 12.5995 19.9504C12.5995 19.3705 10.249 18.9004 7.34955 18.9004C4.45009 18.9004 2.09961 19.3705 2.09961 19.9504C2.09961 20.5303 4.45009 21.0004 7.34955 21.0004Z" fill="#BCBDBD"/>
</svg>
