<svg width="24" height="25" viewBox="0 0 24 25" fill="none" xmlns="http://www.w3.org/2000/svg">
<path d="M19.938 13.5C19.7154 15.2624 18.9129 16.9007 17.6568 18.1568C16.4007 19.4129 14.7624 20.2154 13 20.438V22.5H11V20.438C9.23761 20.2154 7.59934 19.4129 6.34324 18.1568C5.08713 16.9007 4.28459 15.2624 4.062 13.5H2V11.5H4.062C4.28459 9.73761 5.08713 8.09934 6.34324 6.84324C7.59934 5.58713 9.23761 4.78459 11 4.562V2.5H13V4.562C14.7624 4.78459 16.4007 5.58713 17.6568 6.84324C18.9129 8.09934 19.7154 9.73761 19.938 11.5H22V13.5H19.938ZM12 18.5C13.5913 18.5 15.1174 17.8679 16.2426 16.7426C17.3679 15.6174 18 14.0913 18 12.5C18 10.9087 17.3679 9.38258 16.2426 8.25736C15.1174 7.13214 13.5913 6.5 12 6.5C10.4087 6.5 8.88258 7.13214 7.75736 8.25736C6.63214 9.38258 6 10.9087 6 12.5C6 14.0913 6.63214 15.6174 7.75736 16.7426C8.88258 17.8679 10.4087 18.5 12 18.5ZM12 15.5C12.7956 15.5 13.5587 15.1839 14.1213 14.6213C14.6839 14.0587 15 13.2956 15 12.5C15 11.7044 14.6839 10.9413 14.1213 10.3787C13.5587 9.81607 12.7956 9.5 12 9.5C11.2044 9.5 10.4413 9.81607 9.87868 10.3787C9.31607 10.9413 9 11.7044 9 12.5C9 13.2956 9.31607 14.0587 9.87868 14.6213C10.4413 15.1839 11.2044 15.5 12 15.5Z" fill="#E65C00"/>
</svg>
