<svg width="53" height="59" viewBox="0 0 53 59" fill="none" xmlns="http://www.w3.org/2000/svg">
<path d="M26.4414 0C33.3999 0 40.0735 2.75423 44.9939 7.65679C49.9144 12.5593 52.6787 19.2086 52.6787 26.1419C52.6787 35.0708 47.7927 42.3789 42.6444 47.6218C40.0717 50.2125 37.2651 52.5616 34.2601 54.6395L33.0182 55.4818L32.4352 55.8682L31.3361 56.5653L30.3566 57.1607L29.1438 57.8637C28.3203 58.3307 27.389 58.5763 26.4414 58.5763C25.4938 58.5763 24.5625 58.3307 23.7389 57.8637L22.5262 57.1607L21.0103 56.2312L20.4505 55.8682L19.2553 55.0752C16.0135 52.8889 12.9935 50.3926 10.2384 47.6218C5.09007 42.3731 0.204102 35.0708 0.204102 26.1419C0.204102 19.2086 2.96838 12.5593 7.88882 7.65679C12.8093 2.75423 19.4828 0 26.4414 0ZM26.4414 17.4279C25.2929 17.4279 24.1556 17.6533 23.0945 18.0912C22.0334 18.5292 21.0693 19.171 20.2572 19.9802C19.4451 20.7894 18.8009 21.75 18.3614 22.8072C17.9218 23.8644 17.6956 24.9976 17.6956 26.1419C17.6956 27.2862 17.9218 28.4194 18.3614 29.4766C18.8009 30.5338 19.4451 31.4944 20.2572 32.3036C21.0693 33.1128 22.0334 33.7546 23.0945 34.1926C24.1556 34.6305 25.2929 34.8559 26.4414 34.8559C28.7609 34.8559 30.9854 33.9378 32.6256 32.3036C34.2657 30.6694 35.1871 28.453 35.1871 26.1419C35.1871 23.8308 34.2657 21.6144 32.6256 19.9802C30.9854 18.346 28.7609 17.4279 26.4414 17.4279Z" fill="#E65C00"/>
</svg>
