<svg width="75" height="75" viewBox="0 0 75 75" fill="none" xmlns="http://www.w3.org/2000/svg">
<rect width="75" height="75" rx="37.5" fill="#E65C00"/>
<path d="M17.0658 34.4298C16.8398 34.3049 16.4024 34.1679 15.7311 34.0111C15.5702 33.9725 15.089 33.8695 14.3014 33.7033C13.866 33.6129 13.4273 33.5225 12.984 33.4321C12.7015 33.3623 12.5705 33.3151 12.5134 33.2905C12.5094 33.2593 12.506 33.2134 12.506 33.1463C12.506 32.8844 12.5439 32.5647 12.6197 32.1978C12.6775 31.916 12.7227 31.7923 12.7453 31.7412C12.7998 31.7325 12.9175 31.7212 13.1568 31.7212C13.9863 31.7212 15.1395 31.8754 16.5839 32.1799L16.8132 32.2284L17.1781 30.7209L16.9215 30.679C15.662 30.4723 14.4383 30.3679 13.2837 30.3679C12.2382 30.3679 11.5575 30.4583 11.2092 30.6418C10.8935 30.7953 10.6556 31.1556 10.4847 31.7378C10.3345 32.2124 10.2587 32.7289 10.2587 33.2726C10.2587 33.6741 10.3019 33.9931 10.391 34.2477C10.5027 34.5681 10.9686 34.8266 11.9457 35.1124C12.399 35.2514 13.1634 35.4415 14.2854 35.6954C15.0751 35.8662 15.3555 35.9513 15.4546 35.9885C15.4792 36.0782 15.5098 36.2703 15.5098 36.6725C15.5098 37.7054 15.3429 38.0603 15.2412 38.178C15.1954 38.2046 14.9494 38.3016 13.7929 38.3016C12.7885 38.3016 11.4997 38.2072 9.96296 38.0204L9.64258 37.9819L9.92042 39.6336L10.1132 39.6443C10.8098 39.6822 11.4725 39.7014 12.084 39.7014C14.5686 39.7014 16.1472 39.4628 16.9176 38.967C17.1861 38.7815 17.3875 38.4412 17.5337 37.9261C17.652 37.4987 17.7125 37.0121 17.7125 36.479C17.7119 35.3138 17.5065 34.6631 17.0658 34.4298Z" fill="white"/>
<path d="M22.1552 38.3007C21.317 38.3007 21.1063 38.2369 21.0611 38.2169C21.0378 38.1877 20.962 38.0687 20.8863 37.6626C20.8291 37.3562 20.8005 37.0391 20.8005 36.7241C20.8005 36.5021 20.8152 36.3997 20.8245 36.3578C20.9886 36.2814 21.7185 36.0886 24.8757 35.721L25.0705 35.6991L25.0878 35.5044C25.0964 35.4126 25.1004 35.3222 25.1004 35.2332C25.1004 34.7666 25.0133 34.3245 24.8438 33.9204C24.6211 33.39 24.2875 33.0444 23.8521 32.8941C23.3523 32.7207 22.7128 32.6316 21.9511 32.6316C20.8311 32.6316 20.0807 32.7838 19.6559 33.0982C19.3369 33.3362 19.0936 33.7742 18.9102 34.4389C18.7626 35.0052 18.6875 35.6459 18.6875 36.3412C18.6875 36.978 18.7553 37.5429 18.8889 38.0209C19.0444 38.5805 19.2658 38.9355 19.5715 39.107C20.2402 39.4685 21.5549 39.644 23.5909 39.644C24.1193 39.644 24.7049 39.6327 25.331 39.6095L25.5291 39.6028L25.781 38.0421L25.4666 38.0767C24.1034 38.2256 22.9887 38.3007 22.1552 38.3007ZM21.3329 34.068C21.3708 34.0381 21.5463 33.9397 22.2236 33.9397C22.4509 33.9397 22.5639 33.963 22.6165 33.9809C22.6165 33.9809 22.6869 34.0188 22.7966 34.2567C22.869 34.4143 22.9049 34.5306 22.9209 34.6143C22.6404 34.6509 22.0767 34.6928 20.9647 34.726C21.0518 34.4083 21.1748 34.1876 21.3329 34.068Z" fill="white"/>
<path d="M30.7605 34.3949L31.0057 34.464L31.368 32.8335L31.1028 32.8023C30.6421 32.7484 30.1602 32.7212 29.6717 32.7212C28.5378 32.7212 27.5952 32.8634 26.8687 33.1446L26.7092 33.2064L26.7145 33.3772C26.7524 34.5484 26.7903 35.5395 26.8275 36.3165C26.8568 37.7595 26.7537 38.7486 26.5211 39.2557L26.3496 39.6299L28.9472 39.4199L28.9392 39.1899C28.9166 38.5325 28.9053 37.8878 28.9053 37.2743C28.9053 35.9875 28.9499 34.9246 29.0389 34.1097C29.4889 34.1044 30.0665 34.1995 30.7605 34.3949Z" fill="white"/>
<path d="M47.0811 38.0415L46.7667 38.076C45.4028 38.2256 44.2875 38.3007 43.454 38.3007C42.6158 38.3007 42.4064 38.2369 42.3612 38.2169C42.3373 38.1877 42.2608 38.0687 42.1864 37.6626C42.1286 37.3562 42.0993 37.0391 42.0993 36.7241C42.0993 36.5021 42.1146 36.3997 42.1246 36.3578C42.2888 36.2814 43.0179 36.0886 46.1752 35.721L46.3699 35.6991L46.3885 35.5044C46.3965 35.4126 46.3998 35.3222 46.3998 35.2332C46.3998 34.7666 46.3141 34.3245 46.1433 33.9204C45.9206 33.39 45.5869 33.0444 45.1516 32.8941C44.653 32.7207 44.0136 32.6316 43.2506 32.6316C42.1306 32.6316 41.3808 32.7838 40.9554 33.0982C40.637 33.3362 40.3931 33.7742 40.211 34.4389C40.0621 35.0052 39.9883 35.6459 39.9883 36.3412C39.9883 36.978 40.0561 37.543 40.189 38.0209C40.3446 38.5805 40.5672 38.9355 40.873 39.107C41.5403 39.4685 42.8551 39.644 44.8917 39.644C45.4214 39.644 46.007 39.6327 46.6318 39.6095L46.8299 39.6028L47.0811 38.0415ZM42.6311 34.0686C42.669 34.0387 42.8444 33.9404 43.5224 33.9404C43.7491 33.9404 43.8621 33.9636 43.9139 33.9816C43.9146 33.9816 43.985 34.0195 44.0954 34.2574C44.1678 34.4149 44.2037 34.5313 44.2197 34.615C43.9378 34.6516 43.3749 34.6934 42.2635 34.7267C42.3506 34.409 42.4729 34.1883 42.6311 34.0686Z" fill="white"/>
<path d="M53.9584 30.5312L51.6034 30.373L51.6107 30.6383C51.6593 32.4116 51.7005 33.8793 51.735 35.0391C51.7796 37.1901 51.6879 38.6417 51.4632 39.3523L51.3535 39.6999L53.9578 39.4513L53.9484 39.2233C53.9032 38.1226 53.8806 36.6404 53.8806 34.8198C53.8806 33.2312 53.9032 31.8679 53.9484 30.7665L53.9584 30.5312Z" fill="white"/>
<path d="M55.723 33.9847C56.0134 33.9847 56.0134 34.0645 56.0134 34.0944C56.0134 34.5916 56.0061 35.2981 55.9908 36.1995V37.5853C56.0075 38.3584 56.1225 38.8163 56.3578 39.0304C56.6635 39.2936 57.4319 39.6432 60.5552 39.6432H60.7533L61.091 37.9389L60.7267 38.024C60.1019 38.1702 59.4446 38.244 58.7739 38.244C58.3771 38.244 58.1949 38.2228 58.1152 38.2068C58.0733 37.9775 58.0221 37.1274 58.1298 34.0286C58.7905 33.9674 59.4898 33.9934 60.2109 34.1057L60.4309 34.1403L60.7826 32.676H58.1471C58.1717 32.2034 58.2315 31.7348 58.3252 31.2795L58.393 30.9504L56.3531 31.2037L56.391 31.449C56.4342 31.7295 56.4561 31.9495 56.4561 32.103C56.4561 32.4832 56.3119 32.553 56.2647 32.5756C56.1863 32.6135 55.9463 32.6766 55.2258 32.6766H55.033L54.708 34.1197L55.0616 34.0612C55.3634 34.0106 55.5867 33.9847 55.723 33.9847Z" fill="white"/>
<path d="M32.9049 46.6606C32.7646 46.6606 32.6802 46.6526 32.6323 46.6453C32.5393 46.2511 32.4409 45.2661 32.4502 42.8539C32.4901 40.5269 32.5266 39.0931 32.5586 38.592L32.5745 38.342L30.0321 38.1121L30.0407 38.4019C30.0972 40.2909 30.1451 41.8549 30.1856 43.0899C30.2328 45.3804 30.1318 46.9125 29.8852 47.6443L29.7695 47.988L30.1325 47.9833C33.6699 47.9394 35.878 47.8989 36.6962 47.8623L36.8996 47.853L37.1954 46.301L36.8524 46.3349C34.6889 46.5509 33.3608 46.6606 32.9049 46.6606Z" fill="white"/>
<path d="M44.3733 41.1608C43.8469 40.7507 42.8432 40.5513 41.3058 40.5513C39.775 40.5513 38.7747 40.7553 38.2496 41.1734C37.6554 41.6394 37.3662 42.5433 37.3662 43.9352C37.3662 44.6703 37.4892 45.3875 37.7311 46.0675C37.989 46.7927 38.3047 47.2473 38.7002 47.4593C39.4021 47.8229 40.2702 48.007 41.2812 48.007C42.3726 48.007 43.2812 47.8229 43.9818 47.4593C44.3773 47.2566 44.691 46.798 44.9403 46.0595C45.1743 45.3908 45.2926 44.6763 45.2926 43.9345C45.2932 42.5327 44.9908 41.6247 44.3733 41.1608ZM42.4544 46.4444L42.4464 46.4523C42.4437 46.4543 42.3839 46.4975 42.12 46.5607C41.8455 46.6351 41.5637 46.6724 41.2819 46.6724C40.6318 46.6724 40.3513 46.5487 40.2303 46.445C39.9957 46.2436 39.7165 45.6487 39.7165 43.9598C39.7165 42.768 39.8854 42.3805 39.9857 42.2562C40.0788 42.1412 40.3739 41.9478 41.3065 41.9478C42.2736 41.9478 42.578 42.1365 42.6737 42.2489C42.7748 42.3685 42.9449 42.75 42.9449 43.9604C42.9436 45.7577 42.6372 46.2882 42.4544 46.4444Z" fill="white"/>
<path d="M50.3251 46.5641C49.5721 46.5641 49.4046 46.495 49.3873 46.487C49.2583 46.3687 48.9772 45.8868 48.9772 43.9479C48.9772 43.7087 48.9811 43.4554 48.9891 43.1968C49.0097 42.6458 49.1387 42.2683 49.3733 42.0722C49.4152 42.0582 49.5853 42.0204 50.1809 42.0204C50.9699 42.0204 51.701 42.0995 52.3551 42.255L52.6083 42.3155L52.9706 40.7023L52.6801 40.6744C52.0061 40.6092 51.283 40.5767 50.5305 40.5767C48.3969 40.5767 47.8213 40.8272 47.574 41.0154C46.9937 41.4574 46.7119 42.4205 46.7119 43.9606C46.7119 44.7376 46.8003 45.4435 46.9751 46.059C47.1818 46.7875 47.4597 47.2375 47.8279 47.4362C48.5644 47.8217 49.804 48.0085 51.6173 48.0085C52.1085 48.0085 52.6495 47.9919 53.2252 47.96L53.4359 47.948L53.6692 46.2969L53.3368 46.3368C52.0739 46.4877 51.0609 46.5641 50.3251 46.5641Z" fill="white"/>
<path d="M60.8671 41.1736C60.5813 40.917 59.8728 40.5767 57.0252 40.5767C56.5168 40.5767 55.9066 40.5973 55.216 40.6371L54.6284 40.6604L54.9009 42.5348L55.1628 42.487C56.8697 42.1772 58.0203 42.0204 58.5819 42.0204C58.8551 42.0204 58.9515 42.0602 58.9761 42.0735C58.9987 42.1207 59.0731 42.3328 59.0731 43.1158C59.0731 43.6289 59.024 43.805 59.0027 43.8582C58.8465 43.9446 58.0814 44.2271 54.5121 45.1118L54.3306 45.157L54.3173 45.3431C54.3087 45.4628 54.3047 45.5552 54.3047 45.6269C54.3047 46.0517 54.4157 46.489 54.6317 46.9217C54.8836 47.4449 55.1987 47.7519 55.5643 47.833C55.9259 47.9188 56.4071 47.9606 57.0365 47.9606C58.1685 47.9606 59.4181 47.8124 60.7495 47.52L60.913 47.4841L60.9462 47.3206C61.0845 46.6466 61.2114 45.6748 61.3244 44.4338C61.3656 44.0324 61.3862 43.6502 61.3862 43.2972C61.3869 42.1533 61.2207 41.478 60.8671 41.1736ZM58.7056 46.263C58.4517 46.5435 57.9678 46.6858 57.2665 46.6858C57.1097 46.6858 56.9714 46.6718 56.8551 46.6446L56.8418 46.6419C56.8405 46.6412 56.7275 46.5588 56.7275 46.0258C56.7275 46.0085 56.7281 45.9938 56.7288 45.9812C56.8046 45.9599 56.9528 45.924 57.2419 45.8682C57.7218 45.7791 58.2862 45.71 58.9242 45.6628C58.891 45.934 58.8179 46.1361 58.7056 46.263Z" fill="white"/>
<path d="M65.4675 47.5511C65.3877 46.5075 65.3472 44.9808 65.3472 43.0133C65.3472 41.2858 65.3877 39.7989 65.4675 38.5938L65.4834 38.3472L63.0247 38.084L63.0334 38.3784C63.0899 40.2781 63.1384 41.8647 63.1783 43.0904C63.2255 45.3875 63.1244 46.9369 62.8772 47.6953L62.7549 48.0695L65.4861 47.801L65.4675 47.5511Z" fill="white"/>
<path d="M36.8642 33.7809C36.8496 33.9086 36.8363 34.0315 36.821 34.1525C36.821 34.1565 36.8203 34.1591 36.8203 34.1625C36.8197 34.1724 36.8184 34.1771 36.8184 34.1771C36.4787 36.9801 36.0267 38.017 35.6851 38.3799C35.6698 38.3879 35.5933 38.4224 35.3554 38.4337C34.8702 36.9721 34.4122 35.0771 33.9954 32.7952L33.9482 32.5393L31.4902 33.1834L31.7109 33.4719C31.8645 33.6726 31.9881 33.9378 32.0758 34.2562C32.1523 34.5533 32.2234 34.8484 32.2912 35.1389C32.6381 36.4902 33.0522 37.8382 33.5202 39.1443L33.5561 39.2446L33.6544 39.2859C34.3151 39.561 35.0397 39.7 35.8067 39.7C36.4142 39.7 36.7971 39.6182 37.0144 39.4407C37.5063 39.03 37.9064 38.3413 38.2375 37.3357C38.4708 36.6258 38.6954 35.672 38.9108 34.4882C38.9533 34.2961 38.9859 34.1073 39.0092 33.9219C39.0563 33.5642 39.0716 33.2206 39.0583 32.8896C38.8995 28.6788 34.2739 26.6515 34.127 26.5884C37.0749 28.5804 36.9779 32.5234 36.8642 33.7809Z" fill="white"/>
<path d="M33.3029 26.7218C33.6935 26.7218 34.0102 26.4052 34.0102 26.0146C34.0102 25.624 33.6935 25.3074 33.3029 25.3074C32.9123 25.3074 32.5957 25.624 32.5957 26.0146C32.5957 26.4052 32.9123 26.7218 33.3029 26.7218Z" fill="white"/>
<path d="M30.9328 25.5646C31.3234 25.5646 31.64 25.248 31.64 24.8574C31.64 24.4668 31.3234 24.1501 30.9328 24.1501C30.5422 24.1501 30.2256 24.4668 30.2256 24.8574C30.2256 25.248 30.5422 25.5646 30.9328 25.5646Z" fill="white"/>
<path d="M28.1516 24.9862C28.5422 24.9862 28.8588 24.6696 28.8588 24.279C28.8588 23.8884 28.5422 23.5718 28.1516 23.5718C27.761 23.5718 27.4443 23.8884 27.4443 24.279C27.4443 24.6696 27.761 24.9862 28.1516 24.9862Z" fill="white"/>
</svg>
