<svg width="30" height="30" viewBox="0 0 30 30" fill="none" xmlns="http://www.w3.org/2000/svg">
<path d="M0 6.67055C0.0174289 4.88784 0.740911 3.18476 2.01175 1.93444C3.2826 0.684125 4.99719 -0.0114546 6.77994 0.000142726H14.2348C16.0133 -0.0106625 17.7238 0.683583 18.9916 1.93092C20.2595 3.17826 20.9815 4.8771 20.9997 6.65558V23.3294C20.9815 25.1144 20.2559 26.8193 18.9819 28.0699C17.708 29.3205 15.9899 30.0146 14.2048 29.9998H6.77994C4.99905 30.0138 3.28525 29.321 2.01432 28.0734C0.743385 26.8258 0.0190053 25.1252 0 23.3443V6.67055Z" fill="#FA6D26"/>
<path d="M29.6687 14.1825L25.3938 9.81907C25.2909 9.712 25.1673 9.62682 25.0307 9.56863C24.8941 9.51044 24.7472 9.48047 24.5988 9.48047C24.4503 9.48047 24.3032 9.51044 24.1666 9.56863C24.03 9.62682 23.9066 9.712 23.8037 9.81907C23.5942 10.0394 23.4773 10.3318 23.4773 10.6358C23.4773 10.9399 23.5942 11.2323 23.8037 11.4526L26.1438 13.842H11.324C11.0176 13.842 10.7237 13.9637 10.5071 14.1803C10.2905 14.3969 10.1689 14.6907 10.1689 14.997C10.1689 15.3033 10.2905 15.5971 10.5071 15.8137C10.7237 16.0303 11.0176 16.152 11.324 16.152H26.1438L23.8037 18.5415C23.5942 18.7618 23.4773 19.0542 23.4773 19.3582C23.4773 19.6622 23.5942 19.9547 23.8037 20.175C23.907 20.2817 24.0305 20.3668 24.167 20.4252C24.3035 20.4837 24.4503 20.5144 24.5988 20.5155C24.7474 20.5171 24.8948 20.488 25.0316 20.4299C25.1684 20.3718 25.2917 20.286 25.3938 20.178L29.6687 15.816C29.8805 15.5963 29.9988 15.303 29.9988 14.9978C29.9988 14.6926 29.8805 14.3993 29.6687 14.1795V14.1825Z" fill="#FFB38C"/>
</svg>
