<svg width="48" height="48" viewBox="0 0 48 48" fill="none" xmlns="http://www.w3.org/2000/svg">
<path opacity="0.1" d="M0 20C0 10.5719 0 5.85786 2.92893 2.92893C5.85786 0 10.5719 0 20 0H28C37.4281 0 42.1421 0 45.0711 2.92893C48 5.85786 48 10.5719 48 20V28C48 37.4281 48 42.1421 45.0711 45.0711C42.1421 48 37.4281 48 28 48H20C10.5719 48 5.85786 48 2.92893 45.0711C0 42.1421 0 37.4281 0 28V20Z" fill="#FA6D26"/>
<path d="M13.0889 17.9421C13.1015 16.6456 13.6277 15.407 14.552 14.4977C15.4762 13.5884 16.7232 13.0825 18.0197 13.0909H23.4415C24.7349 13.0831 25.9789 13.588 26.901 14.4951C27.8231 15.4023 28.3482 16.6378 28.3614 17.9312V30.0576C28.3482 31.3559 27.8204 32.5958 26.8939 33.5053C25.9674 34.4148 24.7179 34.9196 23.4196 34.9088H18.0197C16.7245 34.919 15.4781 34.4152 14.5538 33.5079C13.6295 32.6005 13.1027 31.3637 13.0889 30.0685V17.9421Z" fill="#FA6D26"/>
<path d="M34.666 23.4055L31.557 20.2321C31.4822 20.1542 31.3923 20.0923 31.2929 20.05C31.1936 20.0076 31.0868 19.9858 30.9788 19.9858C30.8708 19.9858 30.7639 20.0076 30.6645 20.05C30.5652 20.0923 30.4754 20.1542 30.4006 20.2321C30.2482 20.3923 30.1631 20.605 30.1631 20.8261C30.1631 21.0472 30.2482 21.2599 30.4006 21.4201L32.1024 23.1579H21.3244C21.1016 23.1579 20.8879 23.2464 20.7303 23.4039C20.5728 23.5614 20.4844 23.7751 20.4844 23.9979C20.4844 24.2206 20.5728 24.4343 20.7303 24.5919C20.8879 24.7494 21.1016 24.8379 21.3244 24.8379H32.1024L30.4006 26.5757C30.2482 26.7359 30.1631 26.9485 30.1631 27.1696C30.1631 27.3908 30.2482 27.6035 30.4006 27.7637C30.4757 27.8413 30.5655 27.9031 30.6648 27.9457C30.7641 27.9882 30.8708 28.0105 30.9788 28.0113C31.0869 28.0125 31.1941 27.9913 31.2936 27.9491C31.3931 27.9068 31.4828 27.8444 31.557 27.7658L34.666 24.5935C34.8201 24.4337 34.9061 24.2204 34.9061 23.9984C34.9061 23.7765 34.8201 23.5631 34.666 23.4033V23.4055Z" fill="#FFB38C"/>
</svg>
