<svg width="19" height="20" viewBox="0 0 19 20" fill="none" xmlns="http://www.w3.org/2000/svg">
<path d="M6.64401 18.7819V15.7148C6.64533 15.3402 6.79474 14.9814 7.05966 14.7167C7.32458 14.4519 7.6835 14.3027 8.05801 14.3017H10.933C11.1192 14.301 11.3037 14.3371 11.476 14.4077C11.6483 14.4784 11.805 14.5823 11.9371 14.7135C12.0693 14.8447 12.1743 15.0007 12.2462 15.1725C12.318 15.3443 12.3553 15.5285 12.356 15.7148V18.7729C12.3573 19.0979 12.487 19.4093 12.7168 19.6391C12.9466 19.8689 13.258 19.9986 13.583 20H15.544C16.4585 20.0026 17.3368 19.643 17.987 18.9999C18.3077 18.6831 18.5624 18.3058 18.7363 17.8899C18.9102 17.4739 18.9998 17.0276 19 16.5768V7.86438C18.9995 7.50138 18.919 7.14295 18.7643 6.81455C18.6096 6.48616 18.3845 6.19585 18.105 5.96428L11.443 0.674027C10.8771 0.225616 10.1732 -0.012448 9.45129 0.000501758C8.72943 0.0134515 8.03441 0.276611 7.48499 0.74503L0.96701 5.96428C0.674483 6.18896 0.435828 6.47617 0.268524 6.80491C0.10122 7.13365 0.00948362 7.49563 0 7.86438V16.5648C0.00104833 17.0174 0.0913152 17.4653 0.265625 17.883C0.439935 18.3007 0.694853 18.6799 1.01584 18.9989C1.33682 19.318 1.71756 19.5706 2.13626 19.7424C2.55497 19.9141 3.00343 20.0017 3.45599 20H5.37201C5.69844 20.0024 6.01244 19.875 6.245 19.6459C6.35987 19.5333 6.45113 19.3988 6.51346 19.2505C6.57578 19.1021 6.60793 18.9428 6.608 18.7819H6.64401Z" fill="#2E3333"/>
</svg>
