<svg width="21" height="19" viewBox="0 0 21 19" fill="none" xmlns="http://www.w3.org/2000/svg">
<path d="M14.2501 0.95V2.375H12.8251V1.425H8.07515V2.375H6.65015V0.95C6.6509 0.698276 6.75123 0.457076 6.92923 0.279079C7.10722 0.101082 7.34842 0.000751795 7.60015 0H13.3001C13.5519 0.000751795 13.7931 0.101082 13.9711 0.279079C14.1491 0.457076 14.2494 0.698276 14.2501 0.95Z" fill="#2E3333"/>
<path d="M19.9496 10.165V16.625C19.9496 17.2549 19.6994 17.859 19.254 18.3044C18.8086 18.7498 18.2045 19 17.5746 19H3.32459C2.6947 19 2.09061 18.7498 1.64521 18.3044C1.19981 17.859 0.949585 17.2549 0.949585 16.625V10.165L8.49259 12.3215L8.54959 12.3358V12.825C8.55071 13.2026 8.70121 13.5644 8.9682 13.8314C9.2352 14.0984 9.597 14.2489 9.97459 14.25H10.9246C11.3022 14.2489 11.664 14.0984 11.931 13.8314C12.198 13.5644 12.3485 13.2026 12.3496 12.825V12.3358L12.4066 12.3215L19.9496 10.165Z" fill="#2E3333"/>
<path opacity="0.4" d="M20.9 5.7002V7.83295C20.8994 8.1425 20.798 8.44344 20.6112 8.69025C20.4244 8.93707 20.1623 9.11634 19.8645 9.20095L12.35 11.3527V10.9252C12.3489 10.5476 12.1984 10.1858 11.9314 9.91881C11.6644 9.65182 11.3026 9.50132 10.925 9.5002H9.975C9.59741 9.50132 9.23561 9.65182 8.96862 9.91881C8.70162 10.1858 8.55113 10.5476 8.55 10.9252V11.3527L1.03075 9.20095C0.733871 9.11547 0.47281 8.93584 0.286899 8.6891C0.100988 8.44236 0.00029846 8.14188 0 7.83295V5.7002C0 5.07031 0.250223 4.46622 0.695621 4.02082C1.14102 3.57542 1.74511 3.3252 2.375 3.3252H18.525C19.1549 3.3252 19.759 3.57542 20.2044 4.02082C20.6498 4.46622 20.9 5.07031 20.9 5.7002Z" fill="#2E3333"/>
<path d="M10.9248 10.45H9.97476C9.84878 10.45 9.72796 10.5 9.63888 10.5891C9.5498 10.6782 9.49976 10.799 9.49976 10.925V12.825C9.49976 12.9509 9.5498 13.0717 9.63888 13.1608C9.72796 13.2499 9.84878 13.3 9.97476 13.3H10.9248C11.0507 13.3 11.1716 13.2499 11.2606 13.1608C11.3497 13.0717 11.3998 12.9509 11.3998 12.825V10.925C11.3998 10.799 11.3497 10.6782 11.2606 10.5891C11.1716 10.5 11.0507 10.45 10.9248 10.45Z" fill="#2E3333"/>
</svg>
