<svg width="23" height="15" viewBox="0 0 23 15" fill="none" xmlns="http://www.w3.org/2000/svg">
<path opacity="0.4" d="M22.0312 11.25H0.468764C0.209663 11.25 0 11.4597 0 11.7188V12.1884C0 12.8939 0.206894 13.5773 0.598754 14.1651C0.947108 14.6878 1.5303 15 2.15881 15H20.3411C20.9692 15 21.5529 14.6878 21.9016 14.1646C22.2931 13.5768 22.5 12.8939 22.5 12.1884V11.7188C22.5 11.4597 22.2903 11.25 22.0312 11.25Z" fill="#BCBDBD"/>
<path d="M2.0636 10.3125H20.4373C20.5778 10.3125 20.711 10.2493 20.8003 10.1404C20.8891 10.0314 20.9248 9.88812 20.8969 9.75035C20.0565 5.61339 16.6416 2.51411 12.5372 1.96923C12.6131 1.79652 12.6566 1.60664 12.6566 1.40625C12.6566 0.63079 12.0259 0 11.2504 0C10.4749 0 9.84415 0.63079 9.84415 1.40625C9.84415 1.60664 9.8877 1.79657 9.96355 1.96923C5.85924 2.51411 2.44435 5.61339 1.60402 9.75035C1.57612 9.88812 1.6118 10.0314 1.70062 10.1404C1.78987 10.2493 1.92307 10.3125 2.0636 10.3125ZM4.34832 7.73392C5.14759 6.35193 6.3277 5.25194 7.76049 4.55338C7.99485 4.43895 8.27456 4.53647 8.38715 4.76898C8.50066 5.00154 8.40407 5.28213 8.17155 5.39564C6.9072 6.01272 5.86535 6.9836 5.15946 8.20356C5.07293 8.35372 4.91547 8.43748 4.7534 8.43748C4.67373 8.43748 4.59318 8.41736 4.51904 8.37429C4.29519 8.24478 4.21828 7.95822 4.34832 7.73392Z" fill="#BCBDBD"/>
</svg>
