<svg width="5" height="19" viewBox="0 0 5 19" fill="none" xmlns="http://www.w3.org/2000/svg">
<path d="M2.41666 3.58332C3.33713 3.58332 4.08332 2.83713 4.08332 1.91666C4.08332 0.996189 3.33713 0.25 2.41666 0.25C1.49619 0.25 0.75 0.996189 0.75 1.91666C0.75 2.83713 1.49619 3.58332 2.41666 3.58332Z" fill="#979999"/>
<path d="M2.41666 11.0833C3.33713 11.0833 4.08332 10.3371 4.08332 9.41666C4.08332 8.49619 3.33713 7.75 2.41666 7.75C1.49619 7.75 0.75 8.49619 0.75 9.41666C0.75 10.3371 1.49619 11.0833 2.41666 11.0833Z" fill="#979999"/>
<path d="M2.41666 18.5833C3.33713 18.5833 4.08332 17.8371 4.08332 16.9167C4.08332 15.9962 3.33713 15.25 2.41666 15.25C1.49619 15.25 0.75 15.9962 0.75 16.9167C0.75 17.8371 1.49619 18.5833 2.41666 18.5833Z" fill="#979999"/>
</svg>
