<svg width="24" height="24" viewBox="0 0 24 24" fill="none" xmlns="http://www.w3.org/2000/svg">
<path d="M16.6567 0.888672H7.34444C3.96666 0.888672 2 2.86643 2 6.25532V17.7331C2 21.1776 3.96666 23.1109 7.34444 23.1109H16.6567C20.0889 23.1109 22 21.1776 22 17.7331V6.25532C22 2.86643 20.0889 0.888672 16.6567 0.888672Z" fill="#E65C00"/>
<path fill-rule="evenodd" clip-rule="evenodd" d="M7.64441 6.05566V6.06679C7.41455 6.06679 7.19411 6.15809 7.03158 6.32062C6.86905 6.48316 6.77774 6.7036 6.77774 6.93345C6.77774 7.16331 6.86905 7.38375 7.03158 7.54628C7.19411 7.70881 7.41455 7.80012 7.64441 7.80012H10.9655C11.1968 7.80012 11.4187 7.70822 11.5823 7.54465C11.7458 7.38108 11.8377 7.15922 11.8377 6.92789C11.8377 6.69656 11.7458 6.4747 11.5823 6.31113C11.4187 6.14756 11.1968 6.05566 10.9655 6.05566H7.64441ZM16.3555 12.8223H7.64441C7.41978 12.8143 7.20703 12.7194 7.05096 12.5576C6.89489 12.3959 6.80766 12.1799 6.80766 11.9551C6.80766 11.7303 6.89489 11.5143 7.05096 11.3526C7.20703 11.1908 7.41978 11.0959 7.64441 11.0879H16.3555C16.5801 11.0959 16.7929 11.1908 16.949 11.3526C17.105 11.5143 17.1923 11.7303 17.1923 11.9551C17.1923 12.1799 17.105 12.3959 16.949 12.5576C16.7929 12.7194 16.5801 12.8143 16.3555 12.8223ZM16.3555 17.9001H7.64441C7.48187 17.9193 7.31723 17.8919 7.16969 17.821C7.02214 17.7502 6.89778 17.6389 6.81107 17.5001C6.72454 17.3599 6.67871 17.1983 6.67871 17.0334C6.67871 16.8686 6.72454 16.707 6.81107 16.5668C6.89701 16.4266 7.02088 16.3136 7.16835 16.2408C7.31582 16.1681 7.48086 16.1385 7.64441 16.1557H16.3555C16.5699 16.1799 16.7678 16.2822 16.9115 16.4431C17.0552 16.604 17.1347 16.8122 17.1347 17.0279C17.1347 17.2436 17.0552 17.4518 16.9115 17.6127C16.7678 17.7736 16.5699 17.8759 16.3555 17.9001Z" fill="#FDF4ED"/>
</svg>
