<svg width="24" height="24" viewBox="0 0 24 24" fill="none" xmlns="http://www.w3.org/2000/svg">
<path d="M16.6567 0.888916H7.34444C3.96666 0.888916 2 2.86668 2 6.25557V17.7334C2 21.1778 3.96666 23.1111 7.34444 23.1111H16.6567C20.0889 23.1111 22 21.1778 22 17.7334V6.25557C22 2.86668 20.0889 0.888916 16.6567 0.888916Z" fill="#E6E7E7"/>
<path fill-rule="evenodd" clip-rule="evenodd" d="M7.64441 6.05542V6.06654C7.41455 6.06654 7.19411 6.15785 7.03158 6.32038C6.86905 6.48291 6.77774 6.70335 6.77774 6.93321C6.77774 7.16306 6.86905 7.3835 7.03158 7.54603C7.19411 7.70857 7.41455 7.79987 7.64441 7.79987H10.9655C11.1968 7.79987 11.4187 7.70798 11.5823 7.54441C11.7458 7.38083 11.8377 7.15897 11.8377 6.92765C11.8377 6.69632 11.7458 6.47446 11.5823 6.31089C11.4187 6.14731 11.1968 6.05542 10.9655 6.05542H7.64441ZM16.3555 12.8221H7.64441C7.41978 12.814 7.20703 12.7192 7.05096 12.5574C6.89489 12.3956 6.80766 12.1796 6.80766 11.9549C6.80766 11.7301 6.89489 11.5141 7.05096 11.3523C7.20703 11.1906 7.41978 11.0957 7.64441 11.0876H16.3555C16.5801 11.0957 16.7929 11.1906 16.949 11.3523C17.105 11.5141 17.1923 11.7301 17.1923 11.9549C17.1923 12.1796 17.105 12.3956 16.949 12.5574C16.7929 12.7192 16.5801 12.814 16.3555 12.8221ZM16.3555 17.8999H7.64441C7.48187 17.919 7.31723 17.8916 7.16969 17.8208C7.02214 17.75 6.89778 17.6387 6.81107 17.4999C6.72454 17.3596 6.67871 17.198 6.67871 17.0332C6.67871 16.8684 6.72454 16.7068 6.81107 16.5665C6.89701 16.4263 7.02088 16.3133 7.16835 16.2406C7.31582 16.1678 7.48086 16.1383 7.64441 16.1554H16.3555C16.5699 16.1796 16.7678 16.282 16.9115 16.4429C17.0552 16.6037 17.1347 16.8119 17.1347 17.0276C17.1347 17.2434 17.0552 17.4515 16.9115 17.6124C16.7678 17.7733 16.5699 17.8756 16.3555 17.8999Z" fill="#C0C2C2"/>
</svg>
