<svg width="7" height="12" viewBox="0 0 7 12" fill="none" xmlns="http://www.w3.org/2000/svg">
<path d="M0.871702 12C0.986907 12.0006 1.10111 11.9789 1.20776 11.9361C1.31442 11.8933 1.41142 11.8301 1.49322 11.7504L6.74545 6.58554C6.90849 6.42425 7 6.20608 7 5.97867C7 5.75126 6.90849 5.53309 6.74545 5.3718L1.49322 0.206986C1.32576 0.0659639 1.11035 -0.00772603 0.890038 0.000641971C0.669728 0.00900997 0.460742 0.0988192 0.304843 0.252124C0.148944 0.405428 0.0576143 0.610935 0.0491047 0.827579C0.0405951 1.04422 0.115532 1.25605 0.258942 1.42072L4.88966 5.97437L0.258942 10.528C0.136021 10.6479 0.0520101 10.8009 0.0175333 10.9678C-0.0169435 11.1346 -0.000337601 11.3077 0.0652499 11.4653C0.130838 11.6229 0.242462 11.7577 0.386009 11.8529C0.529555 11.9481 0.698577 11.9993 0.871702 12Z" fill="#ABADAD"/>
</svg>
