<svg width="15" height="15" viewBox="0 0 15 15" fill="none" xmlns="http://www.w3.org/2000/svg">
<path d="M10.755 0H4.25251C1.71001 0 0 1.78501 0 4.44001V10.5675C0 13.215 1.71001 15 4.25251 15H10.755C13.2975 15 15 13.215 15 10.5675V4.44001C15 1.78501 13.2975 0 10.755 0Z" fill="#E65C00"/>
<path d="M10.1801 10.3608C10.0791 10.3618 9.97968 10.3359 9.89207 10.2858L6.94757 8.52927C6.86415 8.47903 6.79512 8.40809 6.74716 8.32334C6.6992 8.23859 6.67395 8.14288 6.67383 8.0455V4.26025C6.67383 4.11107 6.73309 3.96799 6.83858 3.8625C6.94407 3.75701 7.08714 3.69775 7.23633 3.69775C7.38551 3.69775 7.52859 3.75701 7.63408 3.8625C7.73957 3.96799 7.79883 4.11107 7.79883 4.26025V7.72525L10.4688 9.31751C10.5768 9.37965 10.6611 9.47588 10.7085 9.59112C10.7559 9.70636 10.7637 9.83407 10.7307 9.95422C10.6976 10.0744 10.6256 10.1801 10.526 10.2549C10.4263 10.3297 10.3047 10.3693 10.1801 10.3675V10.3608Z" fill="#E4E5E5"/>
</svg>
