<svg width="19" height="18" viewBox="0 0 19 18" fill="none" xmlns="http://www.w3.org/2000/svg">
<path d="M9.01802 1.80012e-05C7.83461 -0.00234882 6.66232 0.228702 5.56831 0.679934C4.4743 1.13117 3.48001 1.79372 2.64238 2.62968C1.80474 3.46564 1.14023 4.45859 0.68681 5.5517C0.233393 6.6448 -2.36681e-06 7.81661 0 9.00002C0.0266769 10.5746 0.444164 12.1178 1.21498 13.491C1.28536 13.6127 1.32756 13.7487 1.33846 13.8889C1.34937 14.029 1.3287 14.1699 1.27798 14.301L0.675 16.317C0.640796 16.4184 0.636278 16.5275 0.661981 16.6314C0.687685 16.7353 0.742531 16.8297 0.820074 16.9034C0.897618 16.9772 0.994633 17.0272 1.09968 17.0477C1.20472 17.0682 1.31343 17.0582 1.41301 17.019L3.23102 16.479C3.46444 16.4241 3.70748 16.4248 3.94058 16.4811C4.17367 16.5374 4.39026 16.6476 4.57289 16.803C5.76915 17.4828 7.1055 17.8789 8.47897 17.9607C9.85245 18.0425 11.2264 17.808 12.4949 17.2751C13.7634 16.7422 14.8926 15.9251 15.7956 14.887C16.6985 13.8488 17.3511 12.6172 17.703 11.287C18.0549 9.95687 18.0967 8.5637 17.8252 7.21484C17.5537 5.86597 16.9762 4.59744 16.1372 3.50699C15.2981 2.41654 14.2198 1.53326 12.9856 0.925245C11.7513 0.317227 10.3939 0.000688655 9.01802 1.80012e-05Z" fill="white"/>
<path fill-rule="evenodd" clip-rule="evenodd" d="M8.98163 10.1614C8.75367 10.1614 8.53085 10.0938 8.34134 9.96709C8.15184 9.84038 8.00422 9.66031 7.91711 9.44966C7.82999 9.239 7.80729 9.00723 7.85196 8.78369C7.89663 8.56015 8.00665 8.35488 8.16803 8.19388C8.32941 8.03288 8.53491 7.92337 8.75855 7.87923C8.98219 7.83508 9.21392 7.85828 9.42438 7.94589C9.63483 8.0335 9.81453 8.18158 9.94079 8.37138C10.067 8.56118 10.1342 8.78417 10.1337 9.01213C10.1329 9.31719 10.0112 9.60951 9.79527 9.82496C9.57931 10.0404 9.28669 10.1614 8.98163 10.1614ZM4.83264 10.1614C4.6048 10.1614 4.38208 10.0939 4.19263 9.96728C4.00319 9.84069 3.85553 9.66078 3.76834 9.45027C3.68115 9.23977 3.65836 9.00815 3.70281 8.78468C3.74726 8.56122 3.85695 8.35595 4.01806 8.19484C4.17917 8.03373 4.38445 7.92401 4.60791 7.87956C4.83138 7.83511 5.06302 7.85793 5.27352 7.94512C5.48402 8.03231 5.6639 8.17997 5.79048 8.36941C5.91707 8.55886 5.98467 8.78158 5.98467 9.00942C5.98467 9.31495 5.86326 9.60797 5.64722 9.82402C5.43118 10.0401 5.13817 10.1614 4.83264 10.1614ZM11.9786 9.00942C11.9786 9.23726 12.0462 9.46 12.1728 9.64944C12.2994 9.83889 12.4793 9.98654 12.6898 10.0737C12.9003 10.1609 13.1319 10.1837 13.3554 10.1393C13.5789 10.0948 13.7841 9.98513 13.9453 9.82402C14.1064 9.66291 14.2161 9.45764 14.2605 9.23417C14.305 9.01071 14.2822 8.77908 14.195 8.56858C14.1078 8.35808 13.9601 8.17816 13.7707 8.05158C13.5812 7.92499 13.3585 7.85742 13.1307 7.85742C12.8251 7.85742 12.5321 7.9788 12.316 8.19484C12.1 8.41088 11.9786 8.70389 11.9786 9.00942Z" fill="#F5BB94"/>
</svg>
