<svg width="20" height="20" viewBox="0 0 20 20" fill="none" xmlns="http://www.w3.org/2000/svg">
<g clip-path="url(#clip0_2410_62)">
<path d="M10 0C7.41531 0 5.3125 2.10281 5.3125 4.6875C5.3125 5.57388 5.56137 6.43738 6.03241 7.1846L10 13.5156L13.9676 7.1846C14.4386 6.43738 14.6875 5.57388 14.6875 4.6875C14.6875 2.10281 12.5847 0 10 0ZM10 7.61719C8.3847 7.61719 7.07031 6.3028 7.07031 4.6875C7.07031 3.0722 8.3847 1.75781 10 1.75781C11.6153 1.75781 12.9297 3.0722 12.9297 4.6875C12.9297 6.3028 11.6153 7.61719 10 7.61719Z" fill="#2E3333"/>
<path d="M7.14819 20H12.8496L12.399 16.4453H7.58749L7.14819 20Z" fill="#2E3333" fill-opacity="0.4"/>
<g opacity="0.4">
<path d="M6.53429 15.2735H9.72281L6.98032 11.7442L6.53429 15.2735Z" fill="#2E3333"/>
<path d="M13.4307 15.2735H18.0469L16.5821 11.7579H12.9798L13.4307 15.2735Z" fill="#2E3333"/>
<path d="M1.95288 15.2735H6.5531L6.99255 11.7579H3.41772L1.95288 15.2735Z" fill="#2E3333"/>
<path d="M10.277 15.2732H13.4454L13.0193 11.7397L11.5657 13.6944L10.277 15.2732Z" fill="#2E3333"/>
</g>
<path d="M6.40671 16.4453H1.46469L0 20H5.96741L6.40671 16.4453Z" fill="#2E3333" fill-opacity="0.4"/>
<path d="M18.5354 16.4453H13.5811L14.0318 20H20.0001L18.5354 16.4453Z" fill="#2E3333" fill-opacity="0.4"/>
</g>
<defs>
<clipPath id="clip0_2410_62">
<rect width="20" height="20" fill="white"/>
</clipPath>
</defs>
</svg>
