<svg width="28" height="33" viewBox="0 0 28 33" fill="none" xmlns="http://www.w3.org/2000/svg">
<path fill-rule="evenodd" clip-rule="evenodd" d="M7.2818 11.3557H20.7182C21.5988 11.3456 22.4728 11.5091 23.2902 11.8368C24.1076 12.1645 24.8524 12.65 25.4821 13.2656C26.1119 13.8812 26.6142 14.6148 26.9604 15.4246C27.3067 16.2343 27.49 17.1044 27.5 17.985V25.8261C27.4903 26.7068 27.3071 27.577 26.961 28.3869C26.6149 29.1969 26.1125 29.9307 25.4827 30.5464C24.8529 31.1622 24.1081 31.6479 23.2906 31.9757C22.473 32.3035 21.5989 32.467 20.7182 32.457H7.2818C6.40107 32.467 5.52696 32.3035 4.70944 31.9757C3.89193 31.6479 3.14706 31.1622 2.51728 30.5464C1.88751 29.9307 1.3851 29.1969 1.03898 28.3869C0.692855 27.577 0.509748 26.7068 0.5 25.8261V17.985C0.509955 17.1044 0.693344 16.2343 1.03956 15.4246C1.38577 14.6148 1.88811 13.8812 2.51787 13.2656C3.14762 12.65 3.89242 12.1645 4.70983 11.8368C5.52724 11.5091 6.4012 11.3456 7.2818 11.3557ZM13.9841 25.0383C14.1693 25.0419 14.3535 25.0088 14.5258 24.9408C14.6981 24.8728 14.8553 24.7713 14.9882 24.6423C15.1211 24.5132 15.2271 24.3591 15.3001 24.1888C15.3731 24.0185 15.4117 23.8354 15.4136 23.6502V20.1466C15.4136 19.7717 15.2645 19.4122 14.9994 19.1471C14.7343 18.882 14.3749 18.733 14 18.733C13.6251 18.733 13.2657 18.882 13.0006 19.1471C12.7355 19.4122 12.5864 19.7717 12.5864 20.1466V23.6502C12.5881 24.0195 12.7362 24.3731 12.9982 24.6333C13.2603 24.8935 13.6148 25.0392 13.9841 25.0383Z" fill="#FA6D26"/>
<path opacity="0.4" d="M22.7676 9.26864V11.6049C22.1936 11.4452 21.6004 11.3656 21.0047 11.3683H19.9405V9.26864C19.909 7.71678 19.2716 6.23889 18.1644 5.15105C17.0572 4.0632 15.5682 3.4518 14.016 3.44765C12.4638 3.4435 10.9717 4.04694 9.85871 5.12885C8.74572 6.21075 8.1003 7.68523 8.0605 9.23689V11.3683H7.02811C6.42052 11.3607 5.81531 11.4459 5.2334 11.6208V9.26864C5.2334 6.94305 6.15724 4.71272 7.80168 3.06828C9.44612 1.42384 11.6764 0.5 14.002 0.5C16.3276 0.5 18.558 1.42384 20.2024 3.06828C21.8468 4.71272 22.7707 6.94305 22.7707 9.26864H22.7676Z" fill="#FA6D26"/>
</svg>
