<svg width="15" height="15" viewBox="0 0 15 15" fill="none" xmlns="http://www.w3.org/2000/svg">
<path d="M7.5 0C7.83152 0 8.14946 0.131696 8.38388 0.366117C8.6183 0.600537 8.75 0.918479 8.75 1.25V6.25H13.75C14.0815 6.25 14.3995 6.3817 14.6339 6.61612C14.8683 6.85054 15 7.16848 15 7.5C15 7.83152 14.8683 8.14946 14.6339 8.38388C14.3995 8.6183 14.0815 8.75 13.75 8.75H8.75V13.75C8.75 14.0815 8.6183 14.3995 8.38388 14.6339C8.14946 14.8683 7.83152 15 7.5 15C7.16848 15 6.85054 14.8683 6.61612 14.6339C6.3817 14.3995 6.25 14.0815 6.25 13.75V8.75H1.25C0.918478 8.75 0.600534 8.6183 0.366115 8.38388C0.131694 8.14946 0 7.83152 0 7.5C0 7.16848 0.131694 6.85054 0.366115 6.61612C0.600534 6.3817 0.918478 6.25 1.25 6.25H6.25V1.25C6.25 0.918479 6.3817 0.600537 6.61612 0.366117C6.85054 0.131696 7.16848 0 7.5 0Z" fill="white"/>
</svg>
