<svg width="13" height="18" viewBox="0 0 13 18" fill="none" xmlns="http://www.w3.org/2000/svg">
<path d="M7.66603 0C9.27863 0 10.8912 0.33176 12.5038 0.99528L11.3502 3.78692C10.0518 3.26905 8.92716 3.01011 7.97615 3.01011C7.33111 3.01011 6.83492 3.19218 6.4876 3.5563C6.14027 3.91234 5.9666 4.42616 5.9666 5.09777V7.44032H10.6183V10.0984H5.9666V11.8341C5.9666 13.2097 5.34224 14.2131 4.09351 14.8442H13V18H0V14.9899C0.851781 14.6339 1.4348 14.2252 1.74905 13.764C2.07156 13.3028 2.23282 12.6676 2.23282 11.8584V10.0984H0.0248092V7.44032H2.23282V5.0735C2.23282 3.44707 2.7042 2.1969 3.64695 1.32299C4.59796 0.440998 5.93766 0 7.66603 0Z" fill="#BCBDBD"/>
</svg>
