<svg width="193" height="68" viewBox="0 0 193 68" fill="none" xmlns="http://www.w3.org/2000/svg">
<path d="M10.5133 3.81287C10.4473 3.59968 10.2661 3.44826 10.0517 3.42809L7.13945 3.15216L5.98787 0.339556C5.90296 0.133429 5.70958 0 5.49473 0C5.27987 0 5.08649 0.133429 5.00158 0.340038L3.85 3.15216L0.93731 3.42809C0.7233 3.44874 0.542546 3.59968 0.476111 3.81287C0.409675 4.02607 0.47103 4.25991 0.632923 4.40732L2.83423 6.42184L2.18511 9.40555C2.13761 9.62493 2.21922 9.8517 2.39366 9.98328C2.48742 10.054 2.59712 10.09 2.70774 10.09C2.80312 10.09 2.89774 10.0631 2.98265 10.0101L5.49473 8.44343L8.00588 10.0101C8.18964 10.1255 8.42128 10.1149 8.59533 9.98328C8.76985 9.8513 8.85138 9.62444 8.80388 9.40555L8.15477 6.42184L10.3561 4.40772C10.518 4.25991 10.5798 4.02647 10.5133 3.81287Z" fill="#FFC107"/>
<path d="M24.8073 3.81287C24.7412 3.59968 24.56 3.44826 24.3456 3.42809L21.4334 3.15216L20.2818 0.339556C20.1969 0.133429 20.0035 0 19.7887 0C19.5738 0 19.3804 0.133429 19.2955 0.340038L18.1439 3.15216L15.2313 3.42809C15.0172 3.44874 14.8365 3.59968 14.7701 3.81287C14.7036 4.02607 14.765 4.25991 14.9269 4.40732L17.1282 6.42184L16.4791 9.40555C16.4316 9.62493 16.5132 9.8517 16.6876 9.98328C16.7814 10.054 16.8911 10.09 17.0017 10.09C17.0971 10.09 17.1917 10.0631 17.2766 10.0101L19.7887 8.44343L22.2998 10.0101C22.4836 10.1255 22.7152 10.1149 22.8893 9.98328C23.0638 9.8513 23.1453 9.62444 23.0978 9.40555L22.4487 6.42184L24.65 4.40772C24.8119 4.25991 24.8737 4.02647 24.8073 3.81287Z" fill="#FFC107"/>
<path d="M53.3952 3.81287C53.3291 3.59968 53.1479 3.44826 52.9335 3.42809L50.0213 3.15216L48.8697 0.339556C48.7848 0.133429 48.5914 0 48.3766 0C48.1617 0 47.9683 0.133429 47.8834 0.340038L46.7318 3.15216L43.8191 3.42809C43.6051 3.44874 43.4244 3.59968 43.3579 3.81287C43.2915 4.02607 43.3529 4.25991 43.5148 4.40732L45.7161 6.42184L45.0669 9.40555C45.0195 9.62493 45.1011 9.8517 45.2755 9.98328C45.3693 10.054 45.479 10.09 45.5896 10.09C45.685 10.09 45.7796 10.0631 45.8645 10.0101L48.3766 8.44343L50.8877 10.0101C51.0715 10.1255 51.3031 10.1149 51.4772 9.98328C51.6517 9.8513 51.7332 9.62444 51.6857 9.40555L51.0366 6.42184L53.2379 4.40772C53.3998 4.25991 53.4616 4.02647 53.3952 3.81287Z" fill="#FFC107"/>
<path d="M39.1017 3.81287C39.0357 3.59968 38.8545 3.44826 38.6401 3.42809L35.7278 3.15216L34.5763 0.339556C34.4913 0.133429 34.298 0 34.0831 0C33.8682 0 33.6749 0.133429 33.59 0.340038L32.4384 3.15216L29.5257 3.42809C29.3117 3.44874 29.1309 3.59968 29.0645 3.81287C28.9981 4.02607 29.0594 4.25991 29.2213 4.40732L31.4226 6.42184L30.7735 9.40555C30.726 9.62493 30.8076 9.8517 30.982 9.98328C31.0758 10.054 31.1855 10.09 31.2961 10.09C31.3915 10.09 31.4861 10.0631 31.571 10.0101L34.0831 8.44343L36.5943 10.0101C36.778 10.1255 37.0097 10.1149 37.1837 9.98328C37.3582 9.8513 37.4398 9.62444 37.3923 9.40555L36.7431 6.42184L38.9444 4.40772C39.1063 4.25991 39.1682 4.02647 39.1017 3.81287Z" fill="#FFC107"/>
<path d="M67.6901 3.81287C67.6241 3.59968 67.4428 3.44826 67.2284 3.42809L64.3162 3.15216L63.1646 0.339556C63.0797 0.133429 62.8863 0 62.6715 0C62.4566 0 62.2632 0.133429 62.1783 0.340038L61.0268 3.15216L58.1141 3.42809C57.9001 3.44874 57.7193 3.59968 57.6529 3.81287C57.5864 4.02607 57.6478 4.25991 57.8097 4.40732L60.011 6.42184L59.3619 9.40555C59.3144 9.62493 59.396 9.8517 59.5704 9.98328C59.6642 10.054 59.7739 10.09 59.8845 10.09C59.9799 10.09 60.0745 10.0631 60.1594 10.0101L62.6715 8.44343L65.1826 10.0101C65.3664 10.1255 65.598 10.1149 65.7721 9.98328C65.9466 9.8513 66.0281 9.62444 65.9806 9.40555L65.3315 6.42184L67.5328 4.40772C67.6947 4.25991 67.7565 4.02647 67.6901 3.81287Z" fill="#FFC107"/>
<path d="M24.8073 18.1068C24.7412 17.8936 24.56 17.7422 24.3456 17.722L21.4334 17.4461L20.2818 14.6335C20.1969 14.4274 20.0035 14.2939 19.7887 14.2939C19.5738 14.2939 19.3804 14.4274 19.2955 14.634L18.1439 17.4461L15.2313 17.722C15.0172 17.7427 14.8365 17.8936 14.7701 18.1068C14.7036 18.32 14.765 18.5539 14.9269 18.7013L17.1282 20.7158L16.4791 23.6995C16.4316 23.9189 16.5132 24.1456 16.6876 24.2772C16.7814 24.3479 16.8911 24.3839 17.0017 24.3839C17.0971 24.3839 17.1917 24.3571 17.2766 24.3041L19.7887 22.7374L22.2998 24.3041C22.4836 24.4194 22.7152 24.4089 22.8893 24.2772C23.0638 24.1452 23.1453 23.9184 23.0978 23.6995L22.4487 20.7158L24.65 18.7017C24.8119 18.5539 24.8737 18.3204 24.8073 18.1068Z" fill="#FFC107"/>
<path d="M53.3952 18.1068C53.3291 17.8936 53.1479 17.7422 52.9335 17.722L50.0213 17.4461L48.8697 14.6335C48.7848 14.4274 48.5914 14.2939 48.3766 14.2939C48.1617 14.2939 47.9683 14.4274 47.8834 14.634L46.7318 17.4461L43.8191 17.722C43.6051 17.7427 43.4244 17.8936 43.3579 18.1068C43.2915 18.32 43.3529 18.5539 43.5148 18.7013L45.7161 20.7158L45.0669 23.6995C45.0195 23.9189 45.1011 24.1456 45.2755 24.2772C45.3693 24.3479 45.479 24.3839 45.5896 24.3839C45.685 24.3839 45.7796 24.3571 45.8645 24.3041L48.3766 22.7374L50.8877 24.3041C51.0715 24.4194 51.3031 24.4089 51.4772 24.2772C51.6517 24.1452 51.7332 23.9184 51.6857 23.6995L51.0366 20.7158L53.2379 18.7017C53.3998 18.5539 53.4616 18.3204 53.3952 18.1068Z" fill="#FFC107"/>
<path d="M39.1017 18.1068C39.0357 17.8936 38.8545 17.7422 38.6401 17.722L35.7278 17.4461L34.5763 14.6335C34.4913 14.4274 34.298 14.2939 34.0831 14.2939C33.8682 14.2939 33.6749 14.4274 33.59 14.634L32.4384 17.4461L29.5257 17.722C29.3117 17.7427 29.1309 17.8936 29.0645 18.1068C28.9981 18.32 29.0594 18.5539 29.2213 18.7013L31.4226 20.7158L30.7735 23.6995C30.726 23.9189 30.8076 24.1456 30.982 24.2772C31.0758 24.3479 31.1855 24.3839 31.2961 24.3839C31.3915 24.3839 31.4861 24.3571 31.571 24.3041L34.0831 22.7374L36.5943 24.3041C36.778 24.4194 37.0097 24.4089 37.1837 24.2772C37.3582 24.1452 37.4398 23.9184 37.3923 23.6995L36.7431 20.7158L38.9444 18.7017C39.1063 18.5539 39.1682 18.3204 39.1017 18.1068Z" fill="#FFC107"/>
<path d="M67.6901 18.1068C67.6241 17.8936 67.4428 17.7422 67.2284 17.722L64.3162 17.4461L63.1646 14.6335C63.0797 14.4274 62.8863 14.2939 62.6715 14.2939C62.4566 14.2939 62.2632 14.4274 62.1783 14.634L61.0268 17.4461L58.1141 17.722C57.9001 17.7427 57.7193 17.8936 57.6529 18.1068C57.5864 18.32 57.6478 18.5539 57.8097 18.7013L60.011 20.7158L59.3619 23.6995C59.3144 23.9189 59.396 24.1456 59.5704 24.2772C59.6642 24.3479 59.7739 24.3839 59.8845 24.3839C59.9799 24.3839 60.0745 24.3571 60.1594 24.3041L62.6715 22.7374L65.1826 24.3041C65.3664 24.4194 65.598 24.4089 65.7721 24.2772C65.9466 24.1452 66.0281 23.9184 65.9806 23.6995L65.3315 20.7158L67.5328 18.7017C67.6947 18.5539 67.7565 18.3204 67.6901 18.1068Z" fill="#FFC107"/>
<path d="M53.3952 32.4008C53.3291 32.1876 53.1479 32.0361 52.9335 32.016L50.0213 31.74L48.8697 28.9274C48.7848 28.7213 48.5914 28.5879 48.3766 28.5879C48.1617 28.5879 47.9683 28.7213 47.8834 28.9279L46.7318 31.74L43.8191 32.016C43.6051 32.0366 43.4244 32.1876 43.3579 32.4008C43.2915 32.614 43.3529 32.8478 43.5148 32.9952L45.7161 35.0097L45.0669 37.9934C45.0195 38.2128 45.1011 38.4396 45.2755 38.5712C45.3693 38.6419 45.479 38.6778 45.5896 38.6778C45.685 38.6778 45.7796 38.651 45.8645 38.598L48.3766 37.0313L50.8877 38.598C51.0715 38.7134 51.3031 38.7028 51.4772 38.5712C51.6517 38.4392 51.7332 38.2123 51.6857 37.9934L51.0366 35.0097L53.2379 32.9956C53.3998 32.8478 53.4616 32.6144 53.3952 32.4008Z" fill="#FFC107"/>
<path d="M39.1017 32.4008C39.0357 32.1876 38.8545 32.0361 38.6401 32.016L35.7278 31.74L34.5763 28.9274C34.4913 28.7213 34.298 28.5879 34.0831 28.5879C33.8682 28.5879 33.6749 28.7213 33.59 28.9279L32.4384 31.74L29.5257 32.016C29.3117 32.0366 29.1309 32.1876 29.0645 32.4008C28.9981 32.614 29.0594 32.8478 29.2213 32.9952L31.4226 35.0097L30.7735 37.9934C30.726 38.2128 30.8076 38.4396 30.982 38.5712C31.0758 38.6419 31.1855 38.6778 31.2961 38.6778C31.3915 38.6778 31.4861 38.651 31.571 38.598L34.0831 37.0313L36.5943 38.598C36.778 38.7134 37.0097 38.7028 37.1837 38.5712C37.3582 38.4392 37.4398 38.2123 37.3923 37.9934L36.7431 35.0097L38.9444 32.9956C39.1063 32.8478 39.1682 32.6144 39.1017 32.4008Z" fill="#FFC107"/>
<path d="M67.6901 32.4008C67.6241 32.1876 67.4428 32.0361 67.2284 32.016L64.3162 31.74L63.1646 28.9274C63.0797 28.7213 62.8863 28.5879 62.6715 28.5879C62.4566 28.5879 62.2632 28.7213 62.1783 28.9279L61.0268 31.74L58.1141 32.016C57.9001 32.0366 57.7193 32.1876 57.6529 32.4008C57.5864 32.614 57.6478 32.8478 57.8097 32.9952L60.011 35.0097L59.3619 37.9934C59.3144 38.2128 59.396 38.4396 59.5704 38.5712C59.6642 38.6419 59.7739 38.6778 59.8845 38.6778C59.9799 38.6778 60.0745 38.651 60.1594 38.598L62.6715 37.0313L65.1826 38.598C65.3664 38.7134 65.598 38.7028 65.7721 38.5712C65.9466 38.4392 66.0281 38.2123 65.9806 37.9934L65.3315 35.0097L67.5328 32.9956C67.6947 32.8478 67.7565 32.6144 67.6901 32.4008Z" fill="#FFC107"/>
<path d="M53.3952 46.6957C53.3291 46.4825 53.1479 46.3311 52.9335 46.3109L50.0213 46.035L48.8697 43.2224C48.7848 43.0162 48.5914 42.8828 48.3766 42.8828C48.1617 42.8828 47.9683 43.0162 47.8834 43.2229L46.7318 46.035L43.8191 46.3109C43.6051 46.3315 43.4244 46.4825 43.3579 46.6957C43.2915 46.9089 43.3529 47.1427 43.5148 47.2901L45.7161 49.3047L45.0669 52.2884C45.0195 52.5077 45.1011 52.7345 45.2755 52.8661C45.3693 52.9368 45.479 52.9728 45.5896 52.9728C45.685 52.9728 45.7796 52.9459 45.8645 52.8929L48.3766 51.3262L50.8877 52.8929C51.0715 53.0083 51.3031 52.9978 51.4772 52.8661C51.6517 52.7341 51.7332 52.5073 51.6857 52.2884L51.0366 49.3047L53.2379 47.2905C53.3998 47.1427 53.4616 46.9093 53.3952 46.6957Z" fill="#FFC107"/>
<path d="M67.6901 46.6957C67.6241 46.4825 67.4428 46.3311 67.2284 46.3109L64.3162 46.035L63.1646 43.2224C63.0797 43.0162 62.8863 42.8828 62.6715 42.8828C62.4566 42.8828 62.2632 43.0162 62.1783 43.2229L61.0268 46.035L58.1141 46.3109C57.9001 46.3315 57.7193 46.4825 57.6529 46.6957C57.5864 46.9089 57.6478 47.1427 57.8097 47.2901L60.011 49.3047L59.3619 52.2884C59.3144 52.5077 59.396 52.7345 59.5704 52.8661C59.6642 52.9368 59.7739 52.9728 59.8845 52.9728C59.9799 52.9728 60.0745 52.9459 60.1594 52.8929L62.6715 51.3262L65.1826 52.8929C65.3664 53.0083 65.598 52.9978 65.7721 52.8661C65.9466 52.7341 66.0281 52.5073 65.9806 52.2884L65.3315 49.3047L67.5328 47.2905C67.6947 47.1427 67.7565 46.9093 67.6901 46.6957Z" fill="#FFC107"/>
<path d="M67.6901 60.9896C67.6241 60.7764 67.4428 60.625 67.2284 60.6049L64.3162 60.3289L63.1646 57.5163C63.0797 57.3102 62.8863 57.1768 62.6715 57.1768C62.4566 57.1768 62.2632 57.3102 62.1783 57.5168L61.0268 60.3289L58.1141 60.6049C57.9001 60.6255 57.7193 60.7764 57.6529 60.9896C57.5864 61.2028 57.6478 61.4367 57.8097 61.5841L60.011 63.5986L59.3619 66.5823C59.3144 66.8017 59.396 67.0285 59.5704 67.16C59.6642 67.2307 59.7739 67.2667 59.8845 67.2667C59.9799 67.2667 60.0745 67.2399 60.1594 67.1869L62.6715 65.6202L65.1826 67.1869C65.3664 67.3022 65.598 67.2917 65.7721 67.16C65.9466 67.0281 66.0281 66.8012 65.9806 66.5823L65.3315 63.5986L67.5328 61.5845C67.6947 61.4367 67.7565 61.2032 67.6901 60.9896Z" fill="#FFC107"/>
<rect x="80.3286" y="2.52246" width="112.671" height="5.04498" rx="2.52249" fill="#FFF3CD"/>
<rect x="80.3286" y="2.52246" width="88.2871" height="5.04498" rx="2.52249" fill="#FFC107"/>
<rect x="80.3286" y="16.8164" width="112.671" height="5.04498" rx="2.52249" fill="#FFF3CD"/>
<rect x="80.3286" y="16.8164" width="67.2664" height="5.04498" rx="2.52249" fill="#FFC107"/>
<rect x="80.3286" y="31.1104" width="112.671" height="5.04498" rx="2.52249" fill="#FFF3CD"/>
<rect x="80.3286" y="31.1104" width="73.1522" height="5.04498" rx="2.52249" fill="#FFC107"/>
<rect x="80.3286" y="45.4043" width="112.671" height="5.04498" rx="2.52249" fill="#FFF3CD"/>
<rect x="80.3286" y="45.4043" width="40.3598" height="5.04498" rx="2.52249" fill="#FFC107"/>
<rect x="80.3286" y="59.6992" width="112.671" height="5.04498" rx="2.52249" fill="#FFF3CD"/>
<rect x="80.3286" y="59.6992" width="21.0207" height="5.04498" rx="2.52249" fill="#FFC107"/>
</svg>
