<svg width="18" height="18" viewBox="0 0 18 18" fill="none" xmlns="http://www.w3.org/2000/svg">
<path d="M5.40165 12.0006C7.55566 12.0006 9.30183 10.2544 9.30183 8.10038C9.30183 5.94637 7.55566 4.2002 5.40165 4.2002C3.24764 4.2002 1.50146 5.94637 1.50146 8.10038C1.50146 10.2544 3.24764 12.0006 5.40165 12.0006Z" fill="#969898"/>
<path d="M10.8005 15.0007V15.6007C10.8005 16.2372 10.5476 16.8477 10.0975 17.2978C9.64742 17.7479 9.03695 18.0008 8.4004 18.0008H2.40011C1.76356 18.0008 1.15309 17.7479 0.702977 17.2978C0.252869 16.8477 1.78505e-07 16.2372 1.78505e-07 15.6007V15.0007C-0.000222281 14.238 0.207488 13.4898 0.600785 12.8364C0.994082 12.183 1.55808 11.6492 2.23211 11.2925C3.07367 12.1302 4.21279 12.6006 5.40026 12.6006C6.58772 12.6006 7.72684 12.1302 8.56841 11.2925C9.24243 11.6492 9.80643 12.183 10.1997 12.8364C10.593 13.4898 10.8007 14.238 10.8005 15.0007Z" fill="#969898"/>
<path d="M13.1989 1.34966e-06C11.9335 0.0013618 10.7197 0.501784 9.82095 1.39264C8.92223 2.28349 8.41116 3.49286 8.39868 4.75823C8.87208 5.17654 9.25077 5.69105 9.50946 6.26739C9.76814 6.84374 9.90086 7.46865 9.89875 8.10038C9.89975 8.15645 9.89775 8.21254 9.89275 8.26839C10.4603 8.80945 11.1518 9.20311 11.9068 9.41493C12.6617 9.62675 13.4571 9.65025 14.2233 9.48338C14.9894 9.31651 15.703 8.96436 16.3015 8.45776C16.9 7.95116 17.3652 7.30556 17.6563 6.57749C17.9474 5.84942 18.0556 5.06108 17.9714 4.2815C17.8872 3.50192 17.6131 2.75487 17.1733 2.10576C16.7334 1.45665 16.1411 0.925282 15.4482 0.558173C14.7553 0.191064 13.983 -0.000586805 13.1989 1.34966e-06ZM13.1989 7.50036C13.0802 7.50036 12.9642 7.46517 12.8656 7.39923C12.7669 7.3333 12.69 7.23959 12.6446 7.12995C12.5991 7.02031 12.5873 6.89966 12.6104 6.78327C12.6336 6.66687 12.6907 6.55996 12.7746 6.47604C12.8585 6.39213 12.9655 6.33498 13.0818 6.31183C13.1982 6.28868 13.3189 6.30056 13.4285 6.34597C13.5382 6.39139 13.6319 6.4683 13.6978 6.56697C13.7637 6.66564 13.7989 6.78165 13.7989 6.90033C13.7989 7.05946 13.7357 7.21208 13.6232 7.32461C13.5107 7.43714 13.358 7.50036 13.1989 7.50036ZM13.7989 5.10024C13.7989 5.25938 13.7357 5.412 13.6232 5.52453C13.5107 5.63705 13.358 5.70027 13.1989 5.70027C13.0398 5.70027 12.8872 5.63705 12.7746 5.52453C12.6621 5.412 12.5989 5.25938 12.5989 5.10024V2.70013C12.5989 2.54099 12.6621 2.38837 12.7746 2.27585C12.8872 2.16332 13.0398 2.1001 13.1989 2.1001C13.358 2.1001 13.5107 2.16332 13.6232 2.27585C13.7357 2.38837 13.7989 2.54099 13.7989 2.70013V5.10024Z" fill="#D5D6D6"/>
</svg>
