<svg width="166" height="176" viewBox="0 0 166 176" fill="none" xmlns="http://www.w3.org/2000/svg">
<g clip-path="url(#clip0_36_56056)">
<path d="M0 79.446V99.6348C0 103.288 2.96222 106.25 6.6152 106.25H78.9968C82.6498 106.25 85.612 103.288 85.612 99.6348V82.5777L94.6216 73.1105L6.63215 72.835C2.9707 72.8223 0 75.7887 0 79.4502L0 79.446Z" fill="#F5F5F5"/>
<path d="M74.9412 85.0655L9.25534 84.7604L9.26382 82.7432L74.9497 83.0441L74.9412 85.0655Z" fill="#E0E0E0"/>
<path d="M74.9412 91.7061L9.25534 91.401L9.26382 89.3838L74.9497 89.6889L74.9412 91.7061Z" fill="#E0E0E0"/>
<path d="M48.9608 96.0292L48.951 98.0464L74.9411 98.1734L74.951 96.1562L48.9608 96.0292Z" fill="#E0E0E0"/>
<path d="M67.0716 149.2V169.389C67.0716 173.042 70.0338 176.004 73.6868 176.004H146.073C149.726 176.004 152.688 173.042 152.688 169.389V152.332L161.697 142.865L73.708 142.589C70.0466 142.577 67.0759 145.543 67.0759 149.205L67.0716 149.2Z" fill="#F5F5F5"/>
<path d="M142.326 154.294L76.6448 153.989L76.649 151.972L142.335 152.273L142.326 154.294Z" fill="#E0E0E0"/>
<path d="M142.326 160.935L76.6448 160.634L76.649 158.612L142.335 158.917L142.326 160.935Z" fill="#E0E0E0"/>
<path d="M116.344 165.258L116.334 167.275L142.324 167.402L142.334 165.385L116.344 165.258Z" fill="#E0E0E0"/>
<path d="M38.6911 3.40316H81.3827C83.4973 3.40316 85.2094 5.11523 85.2094 7.2299V28.1138C85.2094 30.2284 83.4973 31.9405 81.3827 31.9405H45.1537C43.0391 31.9405 41.327 30.2284 41.327 28.1138V6.03907L38.6869 3.39893L38.6911 3.40316Z" fill="#F5F5F5"/>
<path d="M63.4398 23.7021V37.0893C63.4398 39.5133 61.4777 41.4754 59.0537 41.4754H11.0437C8.61968 41.4754 6.65758 39.5133 6.65758 37.0893V25.7743L0.682281 19.4982L59.041 19.3159C61.4693 19.3075 63.4398 21.2738 63.4398 23.7021Z" fill="#E0E0E0"/>
<path d="M13.7347 27.427L57.2993 27.2278L57.295 25.8887L13.7305 26.0878L13.7347 27.427Z" fill="#F5F5F5"/>
<path d="M13.7347 31.8346L57.2993 31.6311L57.295 30.292L13.7305 30.4954L13.7347 31.8346Z" fill="#F5F5F5"/>
<path d="M30.9697 34.7043L13.7306 34.7886L13.7371 36.1277L30.9763 36.0435L30.9697 34.7043Z" fill="#F5F5F5"/>
<path d="M154.387 85.7903V99.1775C154.387 101.602 152.425 103.564 150.001 103.564H101.991C99.5671 103.564 97.605 101.602 97.605 99.1775V87.8626L91.6297 81.5822L149.988 81.3999C152.417 81.3915 154.387 83.3578 154.387 85.786V85.7903Z" fill="#E0E0E0"/>
<path d="M104.682 89.5154L148.247 89.3162L148.242 87.9771L104.678 88.1762L104.682 89.5154Z" fill="#F5F5F5"/>
<path d="M104.682 93.9224L148.247 93.719L148.242 92.3799L104.678 92.5833L104.682 93.9224Z" fill="#F5F5F5"/>
<path d="M121.914 96.7966L104.675 96.8809L104.682 98.22L121.921 98.1357L121.914 96.7966Z" fill="#F5F5F5"/>
<path d="M113.264 152.26C106.089 145.272 105.97 134.466 107.839 125.075C108.149 123.507 108.25 121.816 109.225 120.557C110.2 119.298 112.107 118.637 113.408 119.532C114.488 120.273 114.777 121.718 115.247 122.951C115.874 124.591 116.967 126.045 118.366 127.088C119.286 127.774 120.476 128.295 121.557 127.91C123.04 127.38 123.506 125.528 123.756 123.96C124.218 121.036 124.676 118.108 125.138 115.184C125.384 113.616 125.642 112.014 126.375 110.602C127.109 109.191 128.41 107.988 129.969 107.814C131.529 107.64 133.232 108.801 133.296 110.391C133.321 111.052 133.084 111.692 133.02 112.348C132.957 113.005 133.143 113.777 133.732 114.061C134.33 114.349 135.029 114.005 135.571 113.624C137.449 112.306 138.881 110.446 140.241 108.585C141.602 106.725 142.937 104.814 144.687 103.326C146.437 101.839 148.692 100.805 150.959 101.046C153.226 101.288 155.392 103.063 155.599 105.36C155.807 107.666 154.15 109.696 152.455 111.255C149.938 113.569 147.09 115.514 144.03 117.01C143.479 117.281 142.882 117.569 142.598 118.12C142.085 119.112 142.907 120.311 143.882 120.824C144.988 121.405 146.276 121.489 147.475 121.837C148.675 122.18 149.912 122.939 150.183 124.168C150.565 125.876 148.946 127.338 147.45 128.219C144.45 129.99 141.148 131.236 137.737 131.889C136.516 132.122 135.241 132.292 134.177 132.953C133.113 133.61 132.321 134.927 132.702 136.123C133.084 137.322 134.47 137.911 135.711 137.885C136.957 137.86 138.144 137.381 139.368 137.135C141.657 136.673 144.416 137.279 145.492 139.369C146.2 140.742 146.001 142.458 145.301 143.844C144.602 145.23 143.466 146.331 142.288 147.332C138.169 150.819 133.215 153.358 127.935 154.273C122.655 155.188 117.942 154.9 113.272 152.269" fill="#E65C00"/>
<path d="M111.992 159.24C112.946 155.553 114.493 151.268 116.671 146.738C118.841 142.199 121.633 137.423 124.723 132.525C125.498 131.304 126.269 130.096 127.024 128.905C127.782 127.719 128.532 126.545 129.342 125.439C130.948 123.223 132.656 121.214 134.342 119.358C136.025 117.502 137.69 115.798 139.258 114.221C140.83 112.645 142.326 111.204 143.742 109.946C146.568 107.424 149.086 105.661 150.866 104.521C151.756 103.949 152.455 103.525 152.938 103.25C153.167 103.118 153.349 103.012 153.485 102.936C153.607 102.868 153.675 102.834 153.675 102.839C153.675 102.843 153.62 102.885 153.497 102.962C153.366 103.046 153.188 103.157 152.963 103.301C152.493 103.597 151.798 104.034 150.921 104.619C149.166 105.784 146.674 107.568 143.873 110.102C142.471 111.365 140.987 112.81 139.424 114.395C137.864 115.98 136.207 117.684 134.533 119.544C132.859 121.4 131.16 123.405 129.566 125.613C128.765 126.71 128.02 127.88 127.261 129.066C126.507 130.257 125.74 131.461 124.96 132.681C121.871 137.576 119.078 142.335 116.9 146.857C114.713 151.37 113.158 155.629 112.179 159.295" fill="#263238"/>
<path d="M129.427 125.443C129.427 125.443 129.393 125.197 129.384 124.748C129.371 124.303 129.376 123.655 129.397 122.854C129.431 121.256 129.554 119.053 129.698 116.62C129.842 114.188 129.931 111.988 129.944 110.395C129.952 109.598 129.948 108.954 129.944 108.509C129.944 108.064 129.944 107.814 129.969 107.814C129.99 107.814 130.02 108.06 130.058 108.505C130.1 108.95 130.13 109.598 130.151 110.395C130.194 111.992 130.139 114.205 129.994 116.637C129.846 119.036 129.711 121.205 129.609 122.862C129.566 123.612 129.533 124.244 129.503 124.748C129.477 125.193 129.452 125.439 129.431 125.439L129.427 125.443Z" fill="#263238"/>
<path d="M150.205 124.977C150.205 124.977 149.908 124.981 149.387 124.943C148.861 124.905 148.103 124.846 147.162 124.799C145.284 124.697 142.682 124.646 139.809 124.714C136.936 124.786 134.338 124.964 132.465 125.147C131.529 125.231 130.77 125.32 130.244 125.38C129.719 125.439 129.431 125.464 129.427 125.443C129.427 125.422 129.711 125.363 130.228 125.265C130.749 125.172 131.503 125.053 132.44 124.939C134.313 124.702 136.919 124.49 139.801 124.418C142.682 124.35 145.289 124.435 147.17 124.591C148.111 124.663 148.87 124.752 149.391 124.829C149.912 124.905 150.2 124.956 150.196 124.977H150.205Z" fill="#263238"/>
<path d="M116.98 146.408C116.98 146.408 116.938 146.319 116.883 146.141C116.823 145.929 116.747 145.67 116.658 145.357C116.467 144.674 116.213 143.678 115.916 142.441C115.323 139.97 114.607 136.538 113.87 132.732C113.132 128.927 112.45 125.49 111.908 123.015C111.641 121.811 111.42 120.82 111.255 120.082C111.187 119.765 111.128 119.498 111.081 119.281C111.043 119.099 111.03 119.002 111.039 118.998C111.047 118.998 111.081 119.087 111.136 119.265C111.196 119.476 111.272 119.735 111.361 120.049C111.552 120.731 111.806 121.727 112.102 122.964C112.696 125.435 113.412 128.867 114.149 132.673C114.887 136.474 115.569 139.911 116.107 142.39C116.374 143.594 116.595 144.585 116.76 145.323C116.828 145.641 116.887 145.908 116.934 146.124C116.972 146.306 116.984 146.403 116.976 146.408H116.98Z" fill="#263238"/>
<path d="M145.183 142.161C145.183 142.161 145.085 142.195 144.899 142.229C144.678 142.263 144.407 142.309 144.077 142.36C143.318 142.475 142.297 142.632 141.055 142.822C138.504 143.212 134.987 143.788 131.101 144.433C127.214 145.077 123.689 145.623 121.129 145.958C119.849 146.128 118.811 146.251 118.095 146.327C117.764 146.357 117.489 146.382 117.268 146.407C117.078 146.42 116.98 146.424 116.976 146.416C116.976 146.407 117.073 146.382 117.26 146.348C117.48 146.314 117.751 146.268 118.082 146.217C118.841 146.102 119.858 145.946 121.104 145.755C123.655 145.365 127.172 144.789 131.058 144.144C134.944 143.5 138.47 142.954 141.03 142.619C142.309 142.449 143.348 142.326 144.064 142.25C144.394 142.22 144.67 142.191 144.89 142.17C145.081 142.157 145.178 142.153 145.183 142.161Z" fill="#263238"/>
<path d="M41.9754 56.969C40.6659 55.9519 40.0811 54.1551 40.3523 52.5193C40.6278 50.8835 41.683 49.4384 43.0475 48.5019C43.679 48.0696 44.463 47.7264 45.2003 47.9425C45.8869 48.1459 46.3657 48.8112 46.5056 49.5147C46.6454 50.2182 46.4929 50.9471 46.2598 51.6251C45.4546 53.9475 44.2511 56.0494 41.9754 56.9732" fill="#2E3333"/>
<path d="M39.8226 60.9355C37.2418 58.5793 33.4744 57.5961 30.0714 58.3843C29.2027 58.5835 28.228 59.0412 28.0839 59.9226C27.9398 60.8041 28.728 61.5499 29.4993 61.9949C32.7073 63.8553 37.0553 63.5036 39.9243 61.1558" fill="#2E3333"/>
<path d="M27.3846 42.5687C28.817 42.1746 30.385 42.5306 31.6521 43.3019C32.9192 44.0731 33.9108 45.2343 34.7033 46.4887C36.2374 48.9127 36.7798 52.1758 36.8476 55.0448C33.6608 54.9177 30.9402 52.4131 29.6391 51.0528C27.5838 48.9085 25.1683 43.7807 27.3846 42.5645" fill="#2E3333"/>
<path d="M44.6452 65.2705C44.4587 64.9315 44.1536 64.6942 43.8485 64.0712C43.251 62.8296 42.4458 61.0582 42.0559 58.9562C41.666 56.85 41.9288 54.8583 42.4542 53.5615C42.7085 52.9089 42.9967 52.4131 43.2255 52.0995C43.4544 51.7816 43.6027 51.6291 43.6196 51.6375C43.6747 51.6714 43.1111 52.341 42.6704 53.6378C42.2169 54.9218 41.9966 56.8458 42.3737 58.9011C42.7551 60.9565 43.5137 62.7151 44.0604 63.978" fill="#263238"/>
<path d="M44.6748 65.3087C44.2468 64.7578 43.6917 64.0374 43.0136 63.1686C41.6194 61.3591 39.6827 58.863 37.5087 56.1339C35.3347 53.409 33.3345 50.9638 31.8809 49.2008C31.1859 48.3491 30.6054 47.6456 30.1646 47.1074C29.762 46.6116 29.5501 46.3276 29.5629 46.3149C29.5798 46.3022 29.8256 46.5565 30.2579 47.0269C30.6901 47.4973 31.3046 48.1923 32.0504 49.0568C33.5506 50.7858 35.5805 53.2098 37.7545 55.9389C39.9285 58.6723 41.8398 61.1896 43.1874 63.0373C43.8612 63.9611 44.4036 64.7112 44.7638 65.2409" fill="#263238"/>
<path d="M32.0632 60.2658C32.0589 60.2446 32.2539 60.1853 32.6141 60.0963C32.7963 60.0496 33.0167 59.9988 33.2794 59.9691C33.5422 59.9352 33.8388 59.8801 34.1736 59.8717C34.8389 59.8208 35.6356 59.8462 36.5129 59.9607C37.3859 60.092 38.3351 60.3209 39.2929 60.6853C40.2421 61.0625 41.0982 61.5371 41.8313 62.0287C42.556 62.5372 43.162 63.0585 43.6154 63.5458C43.857 63.7747 44.0392 64.0205 44.2087 64.2196C44.3825 64.4188 44.5138 64.6053 44.6155 64.7621C44.8232 65.0714 44.7935 65.2155 44.7766 65.2282C44.7257 65.2664 44.3994 64.6138 43.4586 63.7026C42.9925 63.2449 42.3822 62.7534 41.666 62.2702C40.9414 61.8041 40.1023 61.3464 39.1784 60.982C38.2461 60.626 37.3223 60.3971 36.4747 60.2531C35.6229 60.1259 34.8432 60.0751 34.1863 60.0963C32.8768 60.1302 32.0759 60.3209 32.0632 60.2615V60.2658Z" fill="#263238"/>
<path d="M103.152 168.398L54.2057 168.173C48.3194 168.148 43.5688 163.355 43.5942 157.464L44.1112 34.7545C44.1367 28.864 48.9338 24.1091 54.8244 24.1388L103.771 24.3634C109.657 24.3888 114.408 29.1818 114.382 35.0723L113.865 157.782C113.84 163.673 109.043 168.427 103.152 168.398Z" fill="#263238"/>
<path d="M103.699 28.5967L94.2105 28.5544C92.9391 28.5501 91.9009 29.6223 91.8966 30.953L91.8882 32.6735C91.8839 34.0042 90.8457 35.0763 89.5743 35.0721L71.0763 34.9873C69.805 34.9831 68.7752 33.8982 68.7837 32.5676L68.7922 30.847C68.7964 29.5163 67.7709 28.4315 66.4995 28.4272L63.1601 28.4103L54.8541 28.3721C50.7307 28.3552 47.3701 31.6819 47.3531 35.8095L46.8488 155.582C46.8319 159.706 50.1586 163.062 54.2819 163.083L103.131 163.308C107.254 163.329 110.615 159.998 110.632 155.871L111.136 36.0976C111.153 31.9743 107.827 28.6179 103.703 28.601L103.699 28.5967Z" fill="#FAFAFA"/>
<path d="M76.0557 151.84C76.0557 152.319 75.6023 152.705 75.0429 152.701C74.4878 152.701 74.0386 152.307 74.0386 151.832C74.0386 151.353 74.492 150.967 75.0514 150.972C75.6065 150.972 76.0557 151.366 76.0557 151.84Z" fill="#2E3333"/>
<path d="M79.179 151.853C79.179 152.332 78.7256 152.718 78.1662 152.713C77.611 152.713 77.1618 152.319 77.1618 151.845C77.1618 151.366 77.6153 150.98 78.1747 150.984C78.734 150.989 79.179 151.379 79.179 151.853Z" fill="#2E3333"/>
<path d="M82.3023 151.87C82.3023 152.349 81.8488 152.735 81.2894 152.731C80.7343 152.731 80.2851 152.336 80.2851 151.862C80.2851 151.383 80.7385 150.997 81.2979 151.001C81.853 151.001 82.3023 151.396 82.3023 151.87Z" fill="#2E3333"/>
<path d="M61.9524 86.3413C62.7491 86.4557 110.763 95.8721 110.763 95.8721V86.3413H61.9524Z" fill="#EBEBEB"/>
<path d="M46.8446 146.853C46.8446 146.853 99.0797 139.462 98.622 139.691C98.1686 139.92 46.8446 139.691 46.8446 139.691V146.853Z" fill="#EBEBEB"/>
<path d="M107.504 7.00928C107.564 7.00928 107.615 9.64943 107.615 12.9083C107.615 16.1672 107.564 18.8073 107.504 18.8073C107.445 18.8073 107.394 16.1672 107.394 12.9083C107.394 9.64943 107.445 7.00928 107.504 7.00928Z" fill="#263238"/>
<path d="M128.405 20.5832C128.431 20.6383 126.032 21.7486 123.053 23.0665C120.074 24.3802 117.637 25.4016 117.612 25.3465C117.586 25.2914 119.981 24.1811 122.964 22.8631C125.943 21.5494 128.38 20.5281 128.405 20.5832Z" fill="#263238"/>
<path d="M127.876 0.000176848C127.876 0.000176848 127.842 0.080695 127.761 0.22478C127.668 0.390054 127.545 0.593469 127.401 0.847736C127.083 1.39017 126.613 2.16569 126.019 3.11496C124.833 5.01773 123.125 7.60703 121.193 10.4294C119.256 13.2518 117.531 15.8241 116.311 17.7015C115.713 18.6253 115.226 19.3796 114.87 19.9305C114.709 20.1763 114.577 20.3755 114.471 20.5323C114.378 20.6679 114.327 20.74 114.319 20.7357C114.31 20.7357 114.353 20.6552 114.433 20.5111C114.526 20.3458 114.649 20.1424 114.793 19.8882C115.111 19.3457 115.582 18.5744 116.175 17.6209C117.362 15.7182 119.069 13.1289 121.006 10.3065C122.938 7.48413 124.668 4.91602 125.884 3.03444C126.481 2.1106 126.969 1.35627 127.325 0.805359C127.486 0.559566 127.617 0.36039 127.723 0.203591C127.816 0.0679816 127.867 -0.00406095 127.876 0.000176848Z" fill="#263238"/>
<path d="M157.176 49.8916H61.6388C59.575 49.8916 57.901 51.5655 57.901 53.6293V83.2643C57.901 85.3281 59.575 87.002 61.6388 87.002H68.7583C69.3304 90.0956 70.0042 94.0028 70.0042 94.0028L76.4456 87.002H157.18C159.244 87.002 160.918 85.3281 160.918 83.2643V53.6293C160.918 51.5655 159.244 49.8916 157.18 49.8916H157.176Z" fill="#E65C00"/>
<path d="M117.76 65.9657C117.76 66.025 106.39 66.0758 92.367 66.0758C78.3442 66.0758 66.9699 66.025 66.9699 65.9657C66.9699 65.9063 78.3399 65.8555 92.367 65.8555C106.394 65.8555 117.76 65.9063 117.76 65.9657Z" fill="#F5F5F5"/>
<path d="M117.76 61.41C117.76 61.4693 106.39 61.5202 92.367 61.5202C78.3442 61.5202 66.9699 61.4693 66.9699 61.41C66.9699 61.3507 78.3399 61.2998 92.367 61.2998C106.394 61.2998 117.76 61.3507 117.76 61.41Z" fill="#F5F5F5"/>
<path d="M117.76 70.4705C117.76 70.5299 106.39 70.5807 92.367 70.5807C78.3442 70.5807 66.9699 70.5299 66.9699 70.4705C66.9699 70.4112 78.3399 70.3604 92.367 70.3604C106.394 70.3604 117.76 70.4112 117.76 70.4705Z" fill="#F5F5F5"/>
<path d="M100.237 75.1405C100.237 75.1998 92.7866 75.2506 83.6033 75.2506C74.42 75.2506 66.9699 75.1998 66.9699 75.1405C66.9699 75.0811 74.4157 75.0303 83.6033 75.0303C92.7908 75.0303 100.237 75.0811 100.237 75.1405Z" fill="#F5F5F5"/>
<path d="M114.009 103.169H17.6886C16.2435 103.169 15.0739 104.339 15.0739 105.784V137.14C15.0739 138.585 16.2435 139.754 17.6886 139.754H87.6461L94.0156 146.675C94.0156 146.675 94.6851 142.784 95.2445 139.754H114.009C115.455 139.754 116.624 138.585 116.624 137.14V105.784C116.624 104.339 115.455 103.169 114.009 103.169Z" fill="#2E3333"/>
<path d="M110.234 119.341C110.234 119.4 98.8636 119.451 84.8407 119.451C70.8179 119.451 59.4436 119.4 59.4436 119.341C59.4436 119.282 70.8136 119.231 84.8407 119.231C98.8678 119.231 110.234 119.282 110.234 119.341Z" fill="#F5F5F5"/>
<path d="M110.234 114.785C110.234 114.845 98.8636 114.896 84.8407 114.896C70.8179 114.896 59.4436 114.845 59.4436 114.785C59.4436 114.726 70.8136 114.675 84.8407 114.675C98.8678 114.675 110.234 114.726 110.234 114.785Z" fill="#F5F5F5"/>
<path d="M110.234 123.846C110.234 123.905 98.8636 123.956 84.8407 123.956C70.8179 123.956 59.4436 123.905 59.4436 123.846C59.4436 123.787 70.8136 123.736 84.8407 123.736C98.8678 123.736 110.234 123.787 110.234 123.846Z" fill="#F5F5F5"/>
<path d="M92.7103 128.512C92.7103 128.571 85.2603 128.622 76.077 128.622C66.8937 128.622 59.4436 128.571 59.4436 128.512C59.4436 128.452 66.8894 128.401 76.077 128.401C85.2645 128.401 92.7103 128.452 92.7103 128.512Z" fill="#F5F5F5"/>
<path d="M133.16 37.3221C133.215 36.5424 132.52 35.4702 131.88 34.8515C131.236 34.2328 130.838 33.3979 131.173 32.152C131.431 31.19 132.041 31.2621 132.283 30.6942C132.461 30.2747 132.385 29.7958 132.423 29.3423C132.55 27.7828 134.262 26.5624 135.779 26.9522C136.207 25.469 137.589 24.3121 139.123 24.1553C140.657 23.9942 142.246 24.8418 142.971 26.2064C143.848 25.7529 144.95 25.7656 145.81 26.2488C146.67 26.7319 147.268 27.6557 147.34 28.6431C148.192 28.0286 149.501 28.2659 150.179 29.0711C150.857 29.8763 150.895 31.1137 150.382 32.0333C149.87 32.953 148.878 33.5505 147.836 33.7115C146.793 33.8726 145.721 33.6268 144.776 33.1564C143.835 32.686 143.013 32.0037 142.267 31.2621" fill="#263238"/>
<path d="M140.089 86.0228C150.221 86.0228 158.434 78.0009 158.434 68.1054C158.434 58.2099 150.221 50.188 140.089 50.188C129.957 50.188 121.743 58.2099 121.743 68.1054C121.743 78.0009 129.957 86.0228 140.089 86.0228Z" fill="#E0E0E0"/>
<path d="M158.511 68.1179L156.481 62.9097L149.204 67.4823L155.688 77.4835C155.688 77.4835 158.324 74.0551 158.511 68.1179Z" fill="#EB996E"/>
<path d="M138.419 56.8456C141.034 56.8456 143.191 54.82 143.322 52.2307C143.428 50.0736 143.522 47.9971 143.522 47.9971C143.522 47.9971 147.526 47.7089 147.895 43.7932C148.264 39.8775 148.314 30.8298 148.314 30.8298C143.899 28.5117 138.563 28.7448 134.368 31.4358L133.986 31.6816L133.525 51.934C133.495 54.6335 135.694 56.8414 138.419 56.8456Z" fill="#FFBE9D"/>
<path d="M140.716 36.8474C141.017 36.9448 141.182 37.2712 141.081 37.5678C140.979 37.8687 140.653 38.0297 140.352 37.928C140.051 37.8306 139.885 37.5042 139.987 37.2076C140.089 36.9067 140.415 36.7457 140.716 36.8474Z" fill="#263238"/>
<path d="M141.814 37.0508C141.746 37.1144 141.377 36.7965 140.831 36.7626C140.284 36.7202 139.873 36.983 139.818 36.9109C139.788 36.877 139.86 36.7584 140.038 36.6397C140.216 36.5211 140.513 36.4151 140.852 36.4363C141.191 36.4617 141.47 36.6101 141.627 36.7541C141.788 36.8982 141.839 37.0254 141.809 37.055L141.814 37.0508Z" fill="#263238"/>
<path d="M146.691 36.8474C146.992 36.9448 147.158 37.2712 147.056 37.5678C146.954 37.8687 146.628 38.0297 146.327 37.928C146.026 37.8306 145.861 37.5042 145.962 37.2076C146.064 36.9067 146.39 36.7457 146.691 36.8474Z" fill="#263238"/>
<path d="M147.861 37.0635C147.793 37.1271 147.424 36.8092 146.878 36.7753C146.331 36.7329 145.92 36.9957 145.865 36.9236C145.835 36.8897 145.907 36.7711 146.085 36.6524C146.263 36.5338 146.56 36.4278 146.899 36.449C147.238 36.4744 147.518 36.6228 147.675 36.7668C147.836 36.9109 147.886 37.0381 147.857 37.0677L147.861 37.0635Z" fill="#263238"/>
<path d="M143.75 41.2971C143.75 41.2547 144.094 41.2124 144.645 41.1827C144.789 41.1827 144.903 41.1573 144.92 41.081C144.954 40.9962 144.911 40.8437 144.852 40.6699C144.742 40.3012 144.628 39.9283 144.513 39.5384C144.047 37.9281 143.733 36.6059 143.818 36.5804C143.899 36.555 144.348 37.8433 144.814 39.4537C144.924 39.8478 145.03 40.2207 145.132 40.5894C145.17 40.7589 145.255 40.9539 145.162 41.1827C145.111 41.2971 144.992 41.3734 144.899 41.3861C144.801 41.4073 144.721 41.3988 144.653 41.3988C144.098 41.3734 143.755 41.3395 143.755 41.2929L143.75 41.2971Z" fill="#263238"/>
<path d="M143.53 47.9421C143.53 47.9421 141.017 47.9421 138.495 46.0732C138.495 46.0732 139.483 48.9931 143.458 48.9549L143.53 47.9379V47.9421Z" fill="#EB996E"/>
<path d="M133.889 37.428C133.889 37.1102 133.647 36.8389 133.33 36.822C132.592 36.7881 131.376 37.0551 131.223 39.0723C131.007 41.954 133.821 41.2886 133.83 41.2081C133.838 41.1445 133.872 38.551 133.885 37.428H133.889Z" fill="#FFBE9D"/>
<path d="M133.215 40.0594C133.215 40.0594 133.16 40.0891 133.075 40.123C132.991 40.1527 132.842 40.1696 132.698 40.1018C132.402 39.9662 132.177 39.4662 132.202 38.9449C132.215 38.6822 132.287 38.4364 132.397 38.2372C132.503 38.0338 132.652 37.8939 132.808 37.8812C132.965 37.8558 133.067 37.9575 133.097 38.0423C133.13 38.127 133.105 38.1821 133.122 38.1863C133.13 38.1948 133.19 38.144 133.173 38.0211C133.164 37.9617 133.135 37.8939 133.071 37.8304C133.008 37.771 132.906 37.7329 132.796 37.7371C132.571 37.7371 132.355 37.9236 132.232 38.144C132.101 38.3643 132.012 38.6398 131.995 38.9322C131.969 39.5128 132.228 40.0806 132.639 40.2332C132.838 40.301 133.016 40.2544 133.109 40.1908C133.207 40.1273 133.224 40.0637 133.215 40.0552V40.0594Z" fill="#EB996E"/>
<path d="M139.233 35.5167C139.377 35.7031 139.877 35.6141 140.53 35.5887C141.178 35.5378 141.687 35.5633 141.805 35.3599C141.941 35.1522 141.309 34.6691 140.475 34.7411C139.635 34.775 139.072 35.3302 139.233 35.5209V35.5167Z" fill="#263238"/>
<path d="M145.581 35.3261C145.662 35.5761 146.136 35.6524 146.666 35.6482C147.196 35.6354 147.67 35.5507 147.742 35.2964C147.819 35.0506 147.336 34.6946 146.653 34.7074C145.971 34.7158 145.501 35.0803 145.581 35.3261Z" fill="#263238"/>
<path d="M148.87 32.0671C148.87 32.0671 146.496 33.2155 143.403 31.673C141.373 30.6601 139.012 30.1643 138.491 30.5754C137.97 30.9822 137.86 33.0714 135.851 33.6817C135.851 33.6817 135.991 37.6694 134.398 37.5254C132.808 37.3813 133.8 31.2068 133.8 31.2068L137.69 29.3083L141.932 28.5073L145.933 29.071L149.026 29.9185L148.87 32.0671Z" fill="#263238"/>
<path d="M122.252 55.1377C126.409 50.8618 133.724 51.3322 133.724 51.3322L139.788 55.6717L143.225 51.667C143.225 51.667 146.84 52.0653 150.226 53.8325L150.459 53.9045V53.9512C153.116 55.3962 156.883 58.8585 160.468 62.2191L156.176 66.2026L151.425 70.4192C151.425 70.4192 151.442 70.4489 151.433 70.504C151.383 70.7583 152.095 76.564 152.823 80.9714C148.497 85.1032 142.979 86.8704 136.855 85.794C134.91 85.4549 133.97 84.9803 132.173 84.5057C129.511 83.8064 127.583 81.5011 127.346 78.7592C127.024 75.0639 126.774 70.487 126.774 70.487" fill="#2E3333"/>
<path d="M147.026 52.4172C147.026 52.4172 147.132 52.6545 147.289 53.0995C147.446 53.5444 147.658 54.1886 147.908 54.9895C148.408 56.5914 149.048 58.8247 149.649 61.3165C150.251 63.8084 150.7 66.0883 150.989 67.741C151.133 68.5674 151.239 69.2412 151.302 69.7031C151.366 70.1693 151.395 70.4278 151.383 70.4278C151.37 70.4278 151.311 70.1778 151.217 69.7159C151.12 69.22 150.993 68.5632 150.836 67.7665C150.51 66.1222 150.035 63.8507 149.437 61.3632C148.836 58.8756 148.225 56.6423 147.764 55.0277C147.539 54.2479 147.352 53.6037 147.213 53.1164C147.085 52.6672 147.018 52.4129 147.035 52.4087L147.026 52.4172Z" fill="#263238"/>
<path d="M150.929 67.6942C150.891 67.6476 152.705 66.105 154.976 64.2531C157.252 62.4012 159.125 60.9349 159.163 60.9816C159.201 61.0282 157.388 62.5707 155.116 64.4226C152.84 66.2746 150.967 67.7408 150.929 67.6942Z" fill="#263238"/>
<path opacity="0.2" d="M127.736 61.0072L124.015 73.2417L125.401 73.9621L126.765 70.4998C126.765 70.4998 128.168 63.232 127.736 61.0029V61.0072Z" fill="black"/>
<g opacity="0.2">
<path d="M146.624 52.4211C148.628 53.4763 143.602 56.0232 141.335 55.9554L142.983 51.6074C142.983 51.6074 145.954 52.0693 146.624 52.4253V52.4211Z" fill="black"/>
</g>
<path d="M133.126 51.6076V48.3657C133.126 48.3657 139.453 49.993 139.686 53.7816C139.686 53.7816 140.491 49.5947 143.75 49.3955L144.212 55.2818L140.419 58.5831H136.572L133.525 55.9556L133.126 51.8661" fill="#2E3333"/>
<path d="M141.106 71.9448C141.106 71.9448 141.089 71.6947 141.093 71.2498C141.102 70.8006 141.11 70.1522 141.114 69.3555C141.119 67.7536 141.068 65.5457 140.869 63.1132C140.665 60.6807 140.352 58.4898 140.08 56.9133C139.945 56.1547 139.835 55.5233 139.75 55.0487C139.669 54.6079 139.631 54.3621 139.644 54.3579C139.657 54.3579 139.724 54.5952 139.83 55.0275C139.941 55.464 140.076 56.0954 140.233 56.8836C140.542 58.4559 140.886 60.651 141.089 63.092C141.292 65.533 141.318 67.7536 141.271 69.3555C141.25 70.1564 141.216 70.8048 141.182 71.254C141.148 71.7032 141.123 71.949 141.106 71.949V71.9448Z" fill="#263238"/>
<path d="M139.394 52.6926C139.394 52.6926 139.25 52.6375 139.017 52.7265C138.775 52.8028 138.559 53.1037 138.381 53.5359C137.991 54.3792 137.512 55.5912 137.178 57.0363L137.144 57.1804L137.016 57.1041C136.639 56.8753 136.249 56.6295 135.86 56.3625C135.105 55.8498 134.41 55.3243 133.808 54.803C133.503 54.5403 133.253 54.2267 133.109 53.8877C132.965 53.5486 132.91 53.2138 132.897 52.9087C132.872 52.2985 132.974 51.8196 133.037 51.4933C133.109 51.167 133.16 50.989 133.177 50.9932C133.194 50.9932 133.169 51.1797 133.122 51.5102C133.084 51.8408 133.008 52.3197 133.054 52.9045C133.08 53.1927 133.139 53.5105 133.279 53.8156C133.419 54.1207 133.647 54.4047 133.944 54.6505C134.542 55.1505 135.237 55.6718 135.987 56.1803C136.372 56.443 136.758 56.6888 137.131 56.9177L136.97 56.9855C137.317 55.5234 137.83 54.3072 138.258 53.4723C138.364 53.2647 138.466 53.074 138.593 52.9257C138.716 52.7774 138.868 52.6884 138.996 52.6502C139.263 52.5739 139.407 52.6841 139.394 52.6884V52.6926Z" fill="#263238"/>
<path d="M143.75 49.3957C143.75 49.3957 143.784 49.5737 143.81 49.9C143.835 50.2729 143.869 50.7348 143.911 51.2773C143.958 51.8578 144.03 52.5486 144.149 53.3072C144.195 53.6843 144.327 54.0912 144.225 54.5488C144.094 55.0023 143.755 55.3413 143.394 55.6125C142.886 55.9897 142.356 56.2694 142 56.672L141.831 56.8627L141.814 56.6084C141.725 55.2693 141.28 54.1674 140.877 53.4513C140.475 52.7308 140.144 52.3579 140.169 52.3367C140.178 52.3282 140.267 52.413 140.419 52.5867C140.568 52.7605 140.775 53.0232 140.992 53.3835C141.432 54.0954 141.92 55.2142 142.021 56.5915L141.835 56.5279C142.22 56.0872 142.771 55.7948 143.255 55.4345C143.598 55.176 143.903 54.8582 144.009 54.4938C144.098 54.1208 143.988 53.7182 143.941 53.3326C143.831 52.5656 143.776 51.8663 143.75 51.2815C143.721 50.6967 143.716 50.2221 143.721 49.8957C143.721 49.5694 143.733 49.3872 143.746 49.3872L143.75 49.3957Z" fill="#263238"/>
<path d="M164.121 50.209C163.863 50.5141 154.548 62.969 154.548 62.969L155.862 63.7106L165.422 51.4125L164.126 50.209H164.121Z" fill="#263238"/>
<path d="M126.689 60.0574C126.689 60.0574 136.491 74.165 137.08 74.4447C138.245 74.9914 151.654 63.401 152.934 62.295C153.112 62.0576 153.472 61.5618 154.188 60.5744C154.188 60.5744 155.247 55.7349 156.375 56.1035C157.502 56.4765 155.756 58.5657 156.493 60.4049C157.231 62.2441 160.596 57.858 160.731 57.4639L161.6 56.3281C161.6 56.3281 162.511 58.909 162.448 59.9896C162.248 63.4434 158.981 67.5498 158.981 67.5498C158.981 67.5498 144.305 85.73 134.253 86.2936C131.359 86.4547 126.214 78.2418 122.773 72.08C120.697 68.3593 121.731 63.6722 125.176 61.1635L126.689 60.0574Z" fill="#FFBE9D"/>
<path d="M160.799 60.6C160.765 60.5788 161.079 60.0237 161.426 59.3202C161.774 58.6167 162.024 58.0319 162.062 58.0446C162.096 58.0574 161.897 58.6676 161.545 59.3795C161.193 60.0915 160.829 60.617 160.799 60.6Z" fill="#EB996E"/>
<path d="M125.032 53.1714C125.032 53.1714 114.51 56.9134 122.333 74.6019L134.478 67.2705L132.749 63.1344L125.032 53.1714Z" fill="#2E3333"/>
<path d="M124.223 53.4763C124.223 53.4763 124.68 53.4 125.49 53.5822C125.888 53.6839 126.367 53.8619 126.871 54.1628C127.375 54.4637 127.897 54.8875 128.405 55.4214C129.427 56.4851 130.38 57.9726 131.262 59.6889C132.151 61.4094 132.982 63.3673 133.834 65.4269C134.088 66.0414 134.342 66.6516 134.58 67.2279L134.618 67.3212L134.533 67.3678C131.02 69.2833 127.96 71.0759 125.795 72.4192C124.714 73.0888 123.85 73.6397 123.261 74.0211C122.977 74.2034 122.752 74.3474 122.578 74.4576C122.422 74.5551 122.337 74.6059 122.333 74.5975C122.333 74.5932 122.405 74.5297 122.553 74.4237C122.701 74.3135 122.922 74.1525 123.214 73.9533C123.79 73.5507 124.642 72.9786 125.714 72.2921C127.859 70.9148 130.91 69.0968 134.423 67.1729L134.376 67.3127C134.139 66.7364 133.885 66.1304 133.63 65.5116C132.779 63.4521 131.957 61.4984 131.079 59.7821C130.211 58.0658 129.278 56.5868 128.291 55.5274C127.799 54.9977 127.295 54.5739 126.808 54.2688C126.32 53.9636 125.858 53.7772 125.473 53.6628C124.689 53.4593 124.227 53.506 124.227 53.4721L124.223 53.4763Z" fill="#263238"/>
<path d="M146.857 27.249C146.857 27.249 146.882 27.3126 146.908 27.4355C146.929 27.5584 146.954 27.7448 146.937 27.9864C146.912 28.4568 146.742 29.1857 146.136 29.8214C145.547 30.457 144.433 30.8596 143.305 30.5376C142.754 30.3765 142.195 30.0417 141.856 29.4866C141.691 29.2111 141.593 28.8721 141.64 28.5288C141.687 28.1941 141.856 27.855 142.161 27.6559C142.466 27.4482 142.869 27.4524 143.178 27.5923C143.492 27.7237 143.75 27.9822 143.873 28.2915C144.123 28.9145 143.937 29.584 143.594 30.0544C142.865 31.0207 141.547 31.0969 140.814 30.6604C140.428 30.4825 140.089 30.3172 139.767 30.2579C139.449 30.1943 139.165 30.2494 138.957 30.3426C138.542 30.5418 138.373 30.7622 138.356 30.741C138.351 30.7367 138.394 30.6859 138.479 30.5969C138.521 30.5503 138.576 30.4952 138.652 30.4401C138.724 30.385 138.809 30.3172 138.924 30.2663C139.135 30.1519 139.445 30.0799 139.792 30.1392C140.14 30.1901 140.496 30.3553 140.881 30.5206C141.076 30.5969 141.275 30.6859 141.492 30.724C141.704 30.7622 141.941 30.7579 142.174 30.7113C142.64 30.6265 143.119 30.3723 143.433 29.94C143.738 29.5205 143.89 28.906 143.674 28.3805C143.483 27.8677 142.771 27.5245 142.28 27.8466C142.043 28.0033 141.894 28.283 141.856 28.567C141.814 28.8509 141.894 29.1391 142.043 29.3849C142.339 29.8765 142.852 30.1985 143.365 30.3511C144.411 30.6647 145.462 30.3045 146.03 29.7197C146.619 29.1348 146.81 28.4441 146.857 27.9864C146.908 27.5202 146.835 27.2617 146.857 27.2575V27.249Z" fill="#2E3333"/>
<path d="M144.564 43.2296C144.568 43.255 144.433 43.3101 144.2 43.3228C143.966 43.3355 143.64 43.2804 143.318 43.1194C143 42.9584 142.763 42.7253 142.632 42.5303C142.5 42.3354 142.466 42.1956 142.492 42.1828C142.547 42.1489 142.831 42.6321 143.42 42.9202C144 43.2211 144.556 43.1618 144.564 43.2253V43.2296Z" fill="#263238"/>
<path d="M133.452 41.3565C133.452 41.3565 133.592 41.543 133.436 41.8354C133.359 41.971 133.219 42.1194 133.003 42.1787C132.787 42.238 132.529 42.1702 132.346 42.0049C132.16 41.8439 132.058 41.6066 132.067 41.3905C132.075 41.1743 132.164 41.0006 132.262 40.8819C132.465 40.6446 132.673 40.6192 132.677 40.6446C132.694 40.6785 132.529 40.7505 132.389 40.9751C132.245 41.1828 132.19 41.5896 132.491 41.8397C132.63 41.9583 132.808 42.0134 132.957 41.9795C133.109 41.9498 133.228 41.8524 133.304 41.7507C133.457 41.543 133.419 41.3608 133.452 41.3565Z" fill="#263238"/>
<path d="M147.556 28.6772C147.556 28.6772 147.734 28.9485 147.759 29.457C147.789 29.9528 147.645 30.6944 147.132 31.292C146.611 31.8895 145.903 32.1353 145.403 32.1734C144.899 32.22 144.598 32.1014 144.602 32.0802C144.606 32.0421 144.912 32.0972 145.382 32.0166C145.844 31.9404 146.488 31.6861 146.963 31.1436C147.433 30.597 147.594 29.9232 147.603 29.457C147.615 28.9781 147.518 28.6857 147.556 28.6772Z" fill="#2E3333"/>
<path d="M133.224 64.1347C133.249 64.1898 130.456 65.6264 126.981 67.3427C123.506 69.059 120.671 70.4066 120.642 70.3558C120.616 70.3007 123.409 68.8641 126.884 67.1478C130.359 65.4315 133.194 64.0838 133.224 64.1347Z" fill="#E0E0E0"/>
<path d="M130.677 59.3249C130.706 59.38 128.219 60.77 125.121 62.4312C122.023 64.0924 119.489 65.3977 119.459 65.3426C119.43 65.2875 121.917 63.8975 125.015 62.2363C128.113 60.5751 130.647 59.2698 130.673 59.3249H130.677Z" fill="#E0E0E0"/>
<path d="M128.215 55.4385C128.227 55.4681 127.748 55.7394 126.969 56.1758C126.134 56.642 125.087 57.2268 123.926 57.8752C122.773 58.5321 121.727 59.1296 120.9 59.6C120.125 60.0407 119.642 60.3119 119.625 60.2823C119.608 60.2568 120.061 59.9433 120.82 59.4644C121.574 58.9855 122.633 58.3498 123.82 57.6803C125.007 57.0107 126.1 56.4344 126.897 56.036C127.698 55.6376 128.202 55.413 128.215 55.4385Z" fill="#E0E0E0"/>
<path d="M137.521 54.5189C137.517 54.5443 137.19 54.5019 136.703 54.2985C136.216 54.0993 135.584 53.7179 134.991 53.184C134.393 52.65 133.931 52.0949 133.609 51.688C133.287 51.277 133.109 51.0142 133.13 50.993C133.156 50.9718 133.376 51.2049 133.728 51.5863C134.08 51.9677 134.554 52.4974 135.139 53.0187C135.72 53.5399 136.317 53.9298 136.771 54.1587C137.224 54.3917 137.534 54.485 137.525 54.5189H137.521Z" fill="#E0E0E0"/>
<path d="M143.704 52.2266C143.759 52.2435 143.5 52.93 142.822 53.4979C142.148 54.07 141.428 54.2056 141.42 54.1505C141.398 54.087 142.051 53.8666 142.678 53.3326C143.314 52.8029 143.64 52.2011 143.699 52.2308L143.704 52.2266Z" fill="#E0E0E0"/>
<path d="M154.722 58.6045C154.722 58.6045 154.641 58.6257 154.485 58.6469C154.302 58.6681 154.078 58.6977 153.802 58.7316C153.209 58.7952 152.349 58.88 151.289 58.9605C149.162 59.13 146.221 59.2953 142.971 59.4139C139.72 59.5283 136.775 59.5707 134.639 59.5538C133.571 59.5453 132.711 59.5241 132.113 59.5029C131.834 59.4902 131.609 59.4775 131.427 59.469C131.27 59.4605 131.19 59.4478 131.19 59.4436C131.19 59.4351 131.274 59.4309 131.431 59.4266C131.613 59.4266 131.838 59.4266 132.118 59.4224C132.745 59.4182 133.597 59.4097 134.639 59.4012C136.771 59.38 139.712 59.3122 142.962 59.1978C146.208 59.0791 149.149 58.9393 151.277 58.8079C152.315 58.7401 153.171 58.6893 153.794 58.6469C154.069 58.6299 154.298 58.6172 154.48 58.6045C154.637 58.596 154.722 58.596 154.722 58.6045Z" fill="#E0E0E0"/>
<path d="M151.378 63.6263C151.378 63.6263 151.133 63.6814 150.683 63.7365C150.234 63.7916 149.582 63.8636 148.772 63.9357C147.158 64.084 144.924 64.2366 142.454 64.3383C139.983 64.4357 137.741 64.4654 136.122 64.4485C135.313 64.44 134.656 64.423 134.203 64.4061C133.749 64.3849 133.499 64.3679 133.499 64.351C133.499 64.334 133.749 64.3256 134.203 64.3171C134.694 64.3086 135.338 64.3001 136.122 64.2917C137.741 64.2705 139.979 64.2196 142.445 64.1179C144.912 64.0162 147.145 63.8891 148.764 63.7789C149.543 63.728 150.188 63.6814 150.679 63.6518C151.133 63.6221 151.383 63.6136 151.383 63.6263H151.378Z" fill="#E0E0E0"/>
<path d="M143.78 69.8262C143.78 69.8559 143.246 69.9364 142.377 70.0254C141.504 70.1144 140.301 70.2119 138.966 70.2797C137.631 70.3475 136.423 70.3687 135.546 70.3687C134.669 70.3687 134.131 70.339 134.131 70.3093C134.131 70.2797 134.673 70.25 135.546 70.2119C136.483 70.1695 137.656 70.1186 138.957 70.0593C140.258 69.9873 141.432 69.9237 142.369 69.8728C143.242 69.822 143.784 69.8008 143.784 69.8305L143.78 69.8262Z" fill="#E0E0E0"/>
<path d="M134.071 55.1165C134.071 55.1801 132.77 55.1928 131.168 55.2606C129.566 55.3241 128.27 55.4174 128.265 55.3538C128.257 55.2945 129.55 55.1038 131.16 55.0402C132.766 54.9724 134.071 55.0572 134.071 55.1165Z" fill="#E0E0E0"/>
<path d="M151.946 54.8876C151.946 54.9469 150.26 54.9935 148.179 54.985C146.098 54.9766 144.411 54.9215 144.416 54.8621C144.416 54.8028 146.102 54.7562 148.183 54.7647C150.264 54.7731 151.946 54.8282 151.946 54.8876Z" fill="#E0E0E0"/>
<path d="M152.599 80.6749C152.599 80.6749 152.467 80.7681 152.213 80.8953C151.959 81.0266 151.582 81.2004 151.111 81.3953C150.166 81.7937 148.827 82.2598 147.306 82.6116C145.78 82.9633 144.373 83.1286 143.348 83.1837C142.835 83.2133 142.424 83.2218 142.136 83.2133C141.852 83.2091 141.691 83.1964 141.691 83.1837C141.691 83.1498 142.322 83.1243 143.335 83.0269C144.348 82.9294 145.742 82.7429 147.255 82.3954C148.768 82.0437 150.103 81.6072 151.052 81.247C152.006 80.891 152.582 80.6367 152.599 80.6664V80.6749Z" fill="#E0E0E0"/>
<path d="M38.1232 138.36C48.2551 138.36 56.4687 130.524 56.4687 120.858C56.4687 111.192 48.2551 103.356 38.1232 103.356C27.9913 103.356 19.7778 111.192 19.7778 120.858C19.7778 130.524 27.9913 138.36 38.1232 138.36Z" fill="#E0E0E0"/>
<path d="M34.3855 78.6621C31.4741 78.8147 30.3342 81.8489 29.9824 82.527C29.6349 83.205 29.5798 83.989 29.5163 84.7476C29.4527 85.5062 29.3637 86.2944 28.9569 86.9385C28.317 87.9598 26.9693 88.4896 26.6049 89.638C26.1896 90.939 27.2533 92.329 26.9693 93.6639C26.8168 94.3801 26.2955 94.9692 26.1091 95.6769C25.9141 96.4185 26.1175 97.2152 26.5032 97.8763C27.4609 99.5163 29.44 100.343 31.3385 100.41C33.237 100.478 35.0932 99.9104 36.9112 99.3468" fill="#263238"/>
<path d="M47.1921 82.4336C46.9082 83.0481 47.1752 83.7982 47.6244 84.3109C48.0693 84.8237 48.6711 85.167 49.2008 85.595C49.7306 86.0188 50.2137 86.5824 50.2772 87.2562C50.3323 87.8749 50.023 88.4936 50.1077 89.1081C50.3239 90.6931 52.8538 91.1719 52.9894 92.7653C53.0784 93.829 51.9893 94.8037 52.2902 95.825C52.4046 96.2149 52.7097 96.52 52.9216 96.8718C53.6378 98.0626 53.1547 99.7069 52.1122 100.631C51.0739 101.555 49.6246 101.881 48.2346 101.944C47.065 101.995 45.7386 101.805 45.0478 100.86C44.4164 99.995 44.5477 98.8127 44.6749 97.749C45.2639 92.7823 45.1622 87.7647 45.0605 82.7641" fill="#263238"/>
<path d="M35.1525 105.415C35.1737 102.805 35.1525 100.059 35.1525 100.059C35.1525 100.059 31.7962 99.4612 31.1521 95.0666C30.5376 90.8754 31.5801 81.8658 31.5801 81.8658C36.4408 79.9503 41.9118 80.692 45.3148 84.6035L44.785 105.792C44.7257 108.25 42.5602 110.157 39.9285 110.073C37.2672 109.988 35.1313 107.903 35.1525 105.415Z" fill="#FFBE9D"/>
<path d="M32.4912 88.7861C32.4785 89.0828 32.7158 89.3413 33.0252 89.3582C33.3345 89.3794 33.5973 89.1548 33.61 88.8582C33.6227 88.5615 33.3854 88.303 33.076 88.2861C32.7667 88.2649 32.5039 88.4895 32.4912 88.7861Z" fill="#263238"/>
<path d="M31.5843 88.354C31.6521 88.4303 32.0844 88.1167 32.6861 88.1252C33.8261 88.2904 33.8049 88.4642 33.7964 88.3667C33.8304 88.3328 33.7583 88.2015 33.5676 88.0574C33.3769 87.9133 33.0548 87.7734 32.6777 87.7734C32.3005 87.7734 31.9827 87.9048 31.7962 88.0447C31.6097 88.1845 31.5419 88.3159 31.5758 88.3498L31.5843 88.354Z" fill="#263238"/>
<path d="M38.6826 88.9643C38.6699 89.261 38.9072 89.5195 39.2166 89.5364C39.5259 89.5576 39.7887 89.333 39.8014 89.0364C39.8141 88.7397 39.5768 88.4812 39.2674 88.4643C38.9581 88.4431 38.6953 88.6677 38.6826 88.9643Z" fill="#263238"/>
<path d="M37.8986 88.5615C37.9664 88.6378 38.3987 88.3242 39.0004 88.3327C39.6064 88.3327 40.0472 88.6505 40.1107 88.5742C40.1447 88.5403 40.0726 88.409 39.8819 88.2649C39.6912 88.1208 39.3691 87.981 38.992 87.981C38.6148 87.981 38.297 88.1123 38.1105 88.2522C37.924 88.392 37.8605 88.5234 37.8901 88.5573L37.8986 88.5615Z" fill="#263238"/>
<path d="M35.6483 92.9009C35.6483 92.867 35.2754 92.7992 34.6694 92.7102C34.5169 92.6933 34.3685 92.6594 34.3431 92.5534C34.3092 92.4432 34.3728 92.2737 34.4533 92.0957C34.6016 91.7228 34.7584 91.3329 34.9237 90.9261C35.5763 89.2564 36.0509 87.8876 35.9874 87.8622C35.9196 87.8367 35.3347 89.1674 34.6821 90.8371C34.5253 91.2482 34.3728 91.6423 34.2287 92.0152C34.1694 92.189 34.0634 92.3881 34.1397 92.6212C34.1778 92.7356 34.2923 92.8204 34.3897 92.8501C34.4872 92.8797 34.5762 92.884 34.6525 92.8882C35.2669 92.9263 35.6441 92.9348 35.6483 92.9009Z" fill="#263238"/>
<path d="M35.1483 100.059C35.1483 100.059 38.0978 100.283 41.0388 98.5586C41.0388 98.5586 39.581 101.555 35.1949 101.093L35.1483 100.059Z" fill="#EB996E"/>
<path d="M35.8899 94.3632C36.1103 94.0792 36.4959 93.9225 36.8731 93.9691C37.1358 93.9987 37.3986 94.1301 37.5554 94.3462C37.7121 94.5624 37.7418 94.8675 37.5935 95.0667C37.4282 95.2955 37.085 95.3421 36.7968 95.2574C36.5086 95.1726 36.2628 94.9777 36.0297 94.787C35.9662 94.7319 35.8984 94.6768 35.8602 94.6047C35.8221 94.5327 35.8136 94.4395 35.8602 94.3801" fill="#EB996E"/>
<path d="M37.424 93.3416C37.3265 93.3332 37.318 93.99 36.7502 94.4519C36.1823 94.9139 35.4831 94.8333 35.4788 94.9223C35.4704 94.9647 35.6314 95.0537 35.928 95.0622C36.2162 95.0749 36.6442 94.9859 36.9875 94.7062C37.335 94.4223 37.4875 94.0451 37.513 93.7739C37.5426 93.4984 37.4706 93.3374 37.424 93.3374V93.3416Z" fill="#263238"/>
<path d="M43.4078 81.4758C41.8016 83.7642 37.5554 86.1162 34.5126 86.6629C34.8686 86.1967 36.7375 85.044 37.0934 84.5779C35.7162 85.6077 33.7413 86.9849 31.9106 87.0782C31.6945 87.0909 31.4614 87.0867 31.2834 86.9807C31.0419 86.8324 30.991 86.5442 30.9656 86.2899C30.8469 85.2178 30.9232 83.3786 31.0927 82.3149C31.2622 81.2512 31.7538 80.1918 32.6734 79.4798C33.8473 78.5729 35.5212 78.3526 37.1019 78.3144C38.4284 78.2805 39.7929 78.361 41.0049 78.8399C42.2169 79.3188 43.251 80.2638 43.429 81.3995" fill="#263238"/>
<path d="M48.01 91.7269C48.2304 90.5912 48.4084 89.5148 48.4465 88.7944C48.5779 86.5314 47.921 78.1787 40.1192 78.8525L39.8056 81.2299C39.8056 81.2299 38.5979 89.3623 43.6451 89.4258C43.6451 89.4258 43.9248 91.8498 46.209 94.2061C46.209 94.2061 47.5312 94.1679 48.0058 91.7312" fill="#263238"/>
<path d="M43.6493 89.4216C44.1197 89.3369 44.6155 89.3538 45.0605 89.5276C45.5055 89.7013 45.8954 90.0361 46.0818 90.4768C46.2683 90.9176 46.2471 91.4303 46.0818 91.8795C45.9123 92.3287 45.6157 92.7186 45.2682 93.0492C45.0224 93.2865 44.7384 93.5069 44.4121 93.6043C44.0816 93.7018 43.6959 93.6679 43.4374 93.4433" fill="#FFBE9D"/>
<path d="M43.8739 92.2693C43.8188 92.2863 44.0223 92.5702 44.4503 92.46C44.6579 92.4092 44.8613 92.227 44.9842 92.0024C45.1114 91.7735 45.1919 91.5235 45.2258 91.2268C45.2597 90.9344 45.1961 90.6208 45.0351 90.4005C44.8825 90.1716 44.6325 90.036 44.4248 90.0275C43.9841 90.0106 43.8443 90.3157 43.8951 90.3242C43.929 90.3623 44.1028 90.2055 44.3909 90.2776C44.6664 90.3327 44.9334 90.7141 44.8698 91.1887C44.8105 91.6718 44.6198 92.1083 44.3613 92.2185C44.0943 92.3498 43.8994 92.227 43.8697 92.2651L43.8739 92.2693Z" fill="#EB996E"/>
<path d="M44.4969 80.6159C45.0944 80.9549 45.8276 81.0523 46.4887 80.8786C47.154 80.7048 47.743 80.2599 48.0948 79.6708C48.3236 79.2894 48.4508 78.8275 48.3406 78.3995C48.188 77.8104 47.6159 77.4163 47.0311 77.2638C46.1793 77.0434 45.2131 77.2553 44.5689 77.8528C43.9248 78.4546 43.6493 79.4335 43.9333 80.2684C44.2172 81.099 45.0775 81.7134 45.9589 81.6668" fill="#263238"/>
<path d="M45.2088 93.2656C44.7766 93.5792 44.3358 93.8971 43.9968 94.3124C43.6578 94.7277 43.4247 95.2532 43.4756 95.7871C43.501 96.0838 43.6154 96.3804 43.573 96.6771C43.5137 97.0839 43.1789 97.3848 42.9585 97.7365C42.3864 98.6349 42.6322 99.8978 43.3569 100.682C44.0773 101.466 45.1749 101.818 46.2386 101.856C46.8573 101.877 47.5057 101.788 48.01 101.436C48.7389 100.923 49.0186 99.9698 49.0398 99.0756" fill="#263238"/>
<path d="M45.7386 82.3658C45.7598 82.3785 45.6072 82.6964 45.2766 83.1668C44.9503 83.6329 44.4376 84.2432 43.7722 84.811C43.1069 85.3789 42.4331 85.7985 41.9203 86.0485C41.4075 86.3027 41.0685 86.4087 41.06 86.3833C41.0261 86.3197 42.3314 85.7688 43.6281 84.6415C44.9376 83.527 45.675 82.3235 45.7343 82.3658H45.7386Z" fill="#2E3333"/>
<path d="M46.548 82.3234C46.5734 82.3234 46.5564 82.743 46.4039 83.3914C46.2513 84.044 45.9377 84.9255 45.4122 85.8027C44.8825 86.6799 44.2511 87.3707 43.7468 87.8072C43.2425 88.2479 42.8823 88.4555 42.8696 88.4343C42.8187 88.3793 44.196 87.4215 45.2258 85.6883C46.2768 83.9677 46.4759 82.3023 46.548 82.3234Z" fill="#2E3333"/>
<path d="M29.6095 85.8579C29.6731 85.8537 29.7578 86.5868 30.0121 87.4556C30.2579 88.3243 30.58 88.9897 30.5249 89.0193C30.4782 89.049 30.0587 88.4133 29.8002 87.5149C29.5375 86.6207 29.5544 85.8579 29.6095 85.8579Z" fill="#2E3333"/>
<path d="M48.2982 100.847C48.3109 100.822 48.4931 101.046 48.9423 101.055C49.1585 101.055 49.4339 100.995 49.6882 100.817C49.9424 100.648 50.1501 100.338 50.2518 99.9612C50.3535 99.5841 50.3577 99.1391 50.2603 98.6856C50.167 98.2237 49.9891 97.7491 49.8323 97.2321C49.6797 96.7151 49.5441 96.1345 49.6458 95.5243C49.7433 94.9013 50.1459 94.4012 50.3408 93.8418C50.54 93.2867 50.4595 92.668 50.2137 92.1679C49.9636 91.6636 49.5399 91.2949 49.0525 91.1042C48.811 91.0025 48.5567 90.9135 48.3236 90.7864C48.0905 90.6635 47.8744 90.4897 47.743 90.2651C47.4718 89.8202 47.4803 89.3328 47.4803 88.9302C47.4888 88.5192 47.5099 88.159 47.4379 87.8538C47.3701 87.5445 47.2557 87.2944 47.1201 87.1249C46.8361 86.7774 46.5353 86.7986 46.548 86.7732C46.548 86.7732 46.6115 86.7605 46.7344 86.7859C46.8531 86.8113 47.0268 86.8919 47.1879 87.0698C47.3447 87.2436 47.4803 87.5063 47.5608 87.8284C47.6498 88.1505 47.6371 88.5361 47.6413 88.9345C47.6498 89.3328 47.6583 89.7905 47.8998 90.1677C48.1371 90.5576 48.6287 90.7186 49.133 90.9178C49.65 91.1085 50.1416 91.5238 50.4086 92.0704C50.6798 92.6129 50.7731 93.2909 50.5484 93.9139C50.3281 94.5199 49.9424 95.0072 49.8577 95.5582C49.7645 96.1091 49.8831 96.6642 50.0272 97.1728C50.1755 97.6813 50.3493 98.1686 50.4383 98.6475C50.5315 99.1264 50.523 99.5968 50.4001 100.004C50.2815 100.406 50.0442 100.737 49.7517 100.919C49.4636 101.101 49.1669 101.152 48.9338 101.139C48.6965 101.127 48.527 101.042 48.4253 100.974C48.3236 100.906 48.2897 100.847 48.2897 100.847H48.2982Z" fill="#2E3333"/>
<path d="M45.2385 100.55C45.2385 100.55 45.2936 100.686 45.5012 100.779C45.6877 100.868 46.0988 100.873 46.3234 100.555C46.5522 100.233 46.5183 99.6944 46.2556 99.2283C46.014 98.7494 45.5351 98.279 45.4122 97.5798C45.3487 97.2408 45.4292 96.8551 45.6496 96.6008C45.8572 96.3466 46.0988 96.1728 46.2598 95.9652C46.5776 95.5414 46.6073 95.0117 46.5565 94.6133C46.5014 94.2023 46.3827 93.8759 46.3149 93.6513C46.2386 93.4267 46.2005 93.2996 46.2174 93.2911C46.2301 93.2869 46.2937 93.4013 46.3954 93.6174C46.4929 93.8336 46.6327 94.1556 46.7133 94.5879C46.7853 95.0074 46.7853 95.588 46.4251 96.0881C46.2429 96.3296 45.9971 96.5119 45.8233 96.7322C45.6411 96.9483 45.5818 97.2408 45.6368 97.5416C45.7386 98.1519 46.1878 98.6138 46.442 99.1308C46.7175 99.6394 46.7514 100.262 46.4547 100.644C46.3107 100.839 46.0945 100.919 45.9165 100.936C45.7343 100.953 45.5775 100.915 45.4673 100.851C45.2385 100.712 45.2385 100.538 45.247 100.546L45.2385 100.55Z" fill="#2E3333"/>
<path d="M28.6305 99.4441C28.6305 99.4441 28.4949 99.3339 28.2873 99.1009C28.0839 98.8635 27.7745 98.516 27.5499 97.9863C27.4355 97.7236 27.3634 97.4057 27.3719 97.0625C27.3804 96.7234 27.4821 96.3378 27.7448 96.0369C28.0076 95.7318 28.389 95.575 28.6178 95.2911C28.8552 95.0071 28.8848 94.5961 28.7916 94.2019C28.6984 93.7994 28.5161 93.4391 28.3254 93.0832C28.1432 92.723 27.9737 92.3585 27.9144 91.9729C27.8466 91.5915 27.9313 91.1889 28.1347 90.9049C28.3297 90.6168 28.5755 90.4176 28.7789 90.2311C29.2069 89.8794 29.4484 89.498 29.5035 89.1971C29.5629 88.9005 29.4612 88.7352 29.4866 88.731C29.4908 88.731 29.5205 88.7649 29.5502 88.8411C29.5798 88.9174 29.6095 89.0488 29.5883 89.2098C29.5586 89.5361 29.3086 89.9726 28.8848 90.3456C28.6856 90.5405 28.4526 90.7397 28.2873 91.0024C28.1178 91.2609 28.0542 91.5957 28.1178 91.939C28.1771 92.2865 28.3381 92.634 28.5204 92.9857C28.7068 93.3332 28.9102 93.7231 29.0077 94.1553C29.1094 94.5791 29.0798 95.0834 28.7831 95.4309C28.4949 95.7699 28.1178 95.9183 27.8932 96.1768C27.6643 96.431 27.5626 96.7658 27.5499 97.0752C27.533 97.3888 27.5923 97.6812 27.6898 97.9355C27.8847 98.444 28.1686 98.8042 28.3509 99.0542C28.5373 99.3043 28.6433 99.4441 28.6305 99.4526V99.4441Z" fill="#2E3333"/>
<path d="M46.3022 81.1707C46.2429 81.2004 45.9462 80.552 45.2682 80.0477C44.5986 79.5307 43.8951 79.4247 43.9078 79.3569C43.8993 79.3018 44.6749 79.3146 45.4038 79.8697C46.1369 80.4164 46.3615 81.1622 46.3022 81.1665V81.1707Z" fill="#E65C00"/>
<path d="M46.9124 77.111C46.9336 77.0983 47.0777 77.2636 47.1921 77.5899C47.3065 77.9162 47.3743 78.412 47.2302 78.9333C47.0862 79.4545 46.7726 79.8486 46.5098 80.069C46.2428 80.2936 46.0352 80.3614 46.0225 80.3402C46.0055 80.3106 46.1793 80.1961 46.3996 79.9588C46.6242 79.7257 46.887 79.3486 47.0184 78.8782C47.1497 78.4078 47.1158 77.9501 47.0438 77.6365C46.976 77.3187 46.887 77.128 46.9167 77.1153L46.9124 77.111Z" fill="#2E3333"/>
<path opacity="0.3" d="M25.3929 129.244C25.3929 129.244 35.9196 139.241 42.1788 137.432C48.438 135.622 50.2899 130.927 50.2899 130.927L50.4425 129.244L49.8153 128.833L25.7192 126.884L25.3929 129.244Z" fill="black"/>
<path d="M19.1633 119.879L21.1932 114.67L28.4695 119.243L21.9857 129.244C21.9857 129.244 19.3498 125.816 19.1633 119.879Z" fill="#EB996E"/>
<path d="M27.3762 105.491C30.7622 103.724 35.1483 103.211 35.1483 103.211C36.4196 105.758 40.4328 106.08 42.8611 104.343L44.9079 102.957C44.9079 102.957 45.2258 102.944 45.764 102.991C50.5527 103.415 54.4769 106.992 55.4516 111.704C55.8076 113.42 56.0703 115.387 55.9644 117.209C55.6974 121.837 50.9044 122.256 50.9044 122.256C50.9044 122.256 50.6586 126.833 50.3323 130.528C50.0908 133.291 48.6584 135.355 46.1411 136.508C44.2638 137.368 43.2298 137.766 40.7973 138.156C34.6567 139.139 28.7577 136.809 24.8716 132.643C25.6005 128.231 26.2955 122.523 26.2447 122.269C26.2362 122.214 26.2532 122.184 26.2532 122.184L21.5026 117.967L18.8073 115.704C18.8073 115.704 24.7191 106.932 27.3762 105.487" fill="#E65C00"/>
<path d="M33.2667 108.348C33.2498 108.39 32.8599 108.021 32.0928 108.021C31.7199 108.021 31.258 108.132 30.8808 108.441C30.6944 108.594 30.5333 108.805 30.3426 109.022C30.1562 109.229 29.9146 109.471 29.5756 109.53C29.2323 109.594 28.9187 109.445 28.6814 109.289C28.4356 109.132 28.228 108.962 28.0161 108.839C27.5965 108.581 27.1219 108.606 26.7744 108.729C26.4184 108.852 26.1854 109.064 26.054 109.229C25.9226 109.394 25.8718 109.505 25.8548 109.5C25.8463 109.5 25.8675 109.373 25.9862 109.178C26.1048 108.992 26.3422 108.742 26.7236 108.585C27.0922 108.428 27.6389 108.382 28.122 108.661C28.3593 108.793 28.5712 108.962 28.8043 109.106C29.0332 109.25 29.2874 109.361 29.5459 109.314C29.8044 109.267 30.0121 109.077 30.1943 108.877C30.3808 108.674 30.5503 108.454 30.7664 108.284C31.1987 107.945 31.7072 107.848 32.1098 107.865C32.5166 107.882 32.826 108.009 33.0167 108.123C33.2074 108.242 33.2879 108.339 33.2794 108.344L33.2667 108.348Z" fill="#FAFAFA"/>
<path d="M38.0936 114.67C38.0639 114.704 37.8139 114.234 37.085 113.988C36.7332 113.87 36.2628 113.827 35.8009 114.001C35.5721 114.086 35.3517 114.234 35.1059 114.378C34.8643 114.518 34.5592 114.666 34.216 114.615C33.8727 114.569 33.6184 114.323 33.4447 114.103C33.2625 113.878 33.1184 113.649 32.9573 113.463C32.6437 113.086 32.1818 112.954 31.8131 112.963C31.436 112.967 31.1478 113.094 30.9698 113.204C30.7918 113.319 30.7071 113.408 30.6944 113.395C30.6859 113.391 30.7452 113.276 30.919 113.132C31.0927 112.992 31.3978 112.831 31.8047 112.806C32.203 112.776 32.737 112.903 33.1057 113.327C33.2879 113.526 33.4362 113.755 33.61 113.967C33.7795 114.175 33.9871 114.365 34.2456 114.399C34.5041 114.437 34.7626 114.323 35 114.192C35.2415 114.06 35.4704 113.903 35.7331 113.814C36.2543 113.632 36.7629 113.7 37.1358 113.848C37.513 113.997 37.7715 114.213 37.9113 114.382C38.0554 114.556 38.102 114.67 38.0893 114.679L38.0936 114.67Z" fill="#FAFAFA"/>
<path d="M48.8194 105.406C48.811 105.453 48.3533 105.173 47.6032 105.339C47.2387 105.419 46.8107 105.623 46.5098 106.004C46.3573 106.19 46.2471 106.436 46.1072 106.686C45.9716 106.928 45.7852 107.216 45.4631 107.347C45.141 107.483 44.802 107.402 44.5393 107.301C44.268 107.199 44.0265 107.076 43.7934 107.004C43.3315 106.843 42.8696 106.966 42.556 107.161C42.2381 107.356 42.0517 107.614 41.9542 107.801C41.861 107.992 41.8355 108.11 41.8144 108.106C41.8059 108.106 41.7974 107.979 41.8737 107.767C41.95 107.559 42.1279 107.263 42.467 107.03C42.7933 106.801 43.3188 106.635 43.8485 106.809C44.107 106.885 44.3528 107.008 44.6071 107.097C44.8613 107.191 45.1325 107.246 45.3741 107.14C45.6157 107.042 45.7809 106.809 45.9123 106.576C46.0521 106.339 46.1708 106.089 46.3446 105.877C46.6963 105.453 47.1709 105.25 47.565 105.186C47.9634 105.118 48.2982 105.173 48.5058 105.245C48.7177 105.322 48.8152 105.398 48.811 105.406H48.8194Z" fill="#FAFAFA"/>
<path d="M43.8697 112.361C43.84 112.391 43.6578 112.022 43.1069 111.814C42.8399 111.712 42.4839 111.666 42.1322 111.785C41.9584 111.84 41.7847 111.95 41.5855 112.052C41.3906 112.149 41.149 112.259 40.8736 112.208C40.5981 112.157 40.4116 111.954 40.2803 111.776C40.1489 111.594 40.0472 111.412 39.9285 111.268C39.7039 110.971 39.3649 110.856 39.081 110.844C38.4962 110.827 38.2249 111.157 38.2038 111.119C38.1953 111.111 38.2419 111.026 38.3817 110.916C38.5216 110.81 38.7631 110.691 39.081 110.687C39.3946 110.674 39.8099 110.793 40.0811 111.136C40.2167 111.297 40.3226 111.479 40.4498 111.645C40.5727 111.81 40.721 111.954 40.9117 111.988C41.3016 112.056 41.6576 111.704 42.0644 111.59C42.4797 111.467 42.8738 111.543 43.1577 111.67C43.7468 111.941 43.8824 112.365 43.8612 112.361H43.8697Z" fill="#FAFAFA"/>
<path d="M32.9574 118.217C32.9277 118.247 32.7455 117.878 32.1946 117.671C31.9276 117.569 31.5716 117.522 31.2199 117.641C31.0461 117.696 30.8724 117.806 30.6732 117.908C30.4783 118.005 30.2367 118.116 29.9612 118.065C29.6858 118.014 29.4993 117.81 29.3679 117.632C29.2366 117.45 29.1349 117.268 29.0162 117.124C28.7916 116.827 28.4526 116.713 28.1687 116.7C27.5838 116.683 27.3084 117.014 27.2914 116.976C27.283 116.967 27.3296 116.882 27.4694 116.772C27.6093 116.666 27.8508 116.548 28.1687 116.543C28.4822 116.531 28.8976 116.649 29.1688 116.993C29.3044 117.154 29.4103 117.336 29.5375 117.501C29.6604 117.666 29.8087 117.81 29.9994 117.844C30.3893 117.912 30.7452 117.56 31.1521 117.446C31.5674 117.323 31.9615 117.399 32.2454 117.527C32.8345 117.798 32.9701 118.222 32.9489 118.217H32.9574Z" fill="#FAFAFA"/>
<path d="M43.1577 118.349C43.1365 118.387 42.8484 118.099 42.2593 118.078C41.9754 118.069 41.6236 118.141 41.327 118.366C41.1787 118.476 41.0515 118.633 40.8947 118.794C40.7422 118.951 40.5472 119.133 40.2718 119.171C39.9963 119.209 39.7505 119.082 39.5725 118.955C39.3861 118.823 39.2335 118.688 39.0725 118.586C38.7631 118.378 38.4029 118.378 38.1359 118.459C37.5765 118.633 37.424 119.035 37.3943 119.006C37.3816 119.006 37.3986 118.904 37.496 118.756C37.5935 118.612 37.7842 118.421 38.0851 118.311C38.3775 118.196 38.8097 118.175 39.1784 118.412C39.3607 118.523 39.5217 118.658 39.6912 118.777C39.8607 118.895 40.0472 118.984 40.2379 118.955C40.6278 118.891 40.8524 118.446 41.1999 118.205C41.5516 117.955 41.9499 117.895 42.2635 117.925C42.9077 117.993 43.1747 118.349 43.1492 118.349H43.1577Z" fill="#FAFAFA"/>
<path d="M39.7887 123.006C39.7675 123.044 39.4793 122.756 38.8903 122.735C38.6063 122.726 38.2546 122.798 37.9579 123.023C37.8096 123.133 37.6825 123.29 37.5257 123.451C37.3731 123.608 37.1782 123.79 36.9027 123.828C36.6273 123.866 36.3815 123.739 36.2035 123.612C36.017 123.481 35.8645 123.345 35.7034 123.243C35.3941 123.036 35.0339 123.036 34.7669 123.116C34.2075 123.29 34.0549 123.692 34.0253 123.663C34.0126 123.663 34.0295 123.561 34.127 123.413C34.2244 123.269 34.4151 123.078 34.716 122.968C35.0084 122.853 35.4407 122.832 35.8094 123.07C35.9916 123.18 36.1526 123.315 36.3221 123.434C36.4917 123.553 36.6781 123.642 36.8688 123.612C37.2587 123.553 37.4833 123.103 37.8308 122.862C38.1825 122.612 38.5809 122.553 38.8945 122.582C39.5386 122.65 39.8056 123.006 39.7802 123.006H39.7887Z" fill="#FAFAFA"/>
<path d="M32.6692 134.558C32.6395 134.588 32.4531 134.224 31.9021 134.024C31.6352 133.927 31.2792 133.885 30.9274 134.008C30.7537 134.067 30.5799 134.177 30.385 134.283C30.1943 134.385 29.9485 134.495 29.6773 134.448C29.4018 134.402 29.2111 134.198 29.0798 134.024C28.9442 133.842 28.8382 133.664 28.7196 133.52C28.4907 133.228 28.1474 133.118 27.8678 133.109C27.2787 133.101 27.016 133.435 26.9948 133.397C26.9863 133.389 27.0329 133.304 27.1685 133.194C27.3041 133.088 27.5457 132.965 27.8678 132.952C28.1771 132.935 28.5967 133.05 28.8763 133.389C29.0162 133.55 29.1264 133.728 29.2535 133.893C29.3806 134.058 29.529 134.198 29.7197 134.232C30.1095 134.296 30.4613 133.94 30.8681 133.817C31.2792 133.685 31.6775 133.757 31.9657 133.88C32.559 134.143 32.6988 134.563 32.6777 134.558H32.6692Z" fill="#FAFAFA"/>
<path d="M41.0007 137.017C40.9795 137.055 40.6956 136.762 40.1065 136.733C39.8226 136.72 39.4666 136.783 39.17 137.008C39.0216 137.114 38.8903 137.271 38.7335 137.432C38.5809 137.584 38.3817 137.762 38.1063 137.801C37.8308 137.839 37.585 137.703 37.4113 137.572C37.229 137.44 37.0765 137.3 36.9197 137.195C36.6146 136.983 36.2544 136.978 35.9831 137.055C35.4195 137.22 35.2669 137.623 35.233 137.589C35.2203 137.589 35.2415 137.487 35.339 137.343C35.4365 137.199 35.6314 137.012 35.9323 136.906C36.2247 136.796 36.6569 136.783 37.0256 137.021C37.2036 137.131 37.3647 137.271 37.5342 137.389C37.7037 137.508 37.8901 137.601 38.0808 137.576C38.4707 137.521 38.7038 137.076 39.0555 136.839C39.4115 136.593 39.8099 136.542 40.1192 136.576C40.7634 136.652 41.0219 137.012 41.0007 137.012V137.017Z" fill="#FAFAFA"/>
<path d="M13.5567 101.97C13.8152 102.275 23.1299 114.73 23.1299 114.73L21.8162 115.471L12.2557 103.173L13.5525 101.97H13.5567Z" fill="#263238"/>
<path d="M49.9213 110.856C49.9213 110.856 41.1829 125.926 40.5896 126.205C39.4242 126.752 26.0158 115.162 24.736 114.056C24.558 113.818 24.1978 113.323 23.4816 112.335C23.4816 112.335 22.4222 107.496 21.2949 107.864C20.1677 108.237 21.9137 110.326 21.1763 112.166C20.4389 114.005 17.0741 109.619 16.9385 109.225L16.0697 108.089C16.0697 108.089 15.1586 110.67 15.2222 111.75C15.4213 115.204 18.6887 119.311 18.6887 119.311C18.6887 119.311 31.9657 135.948 42.0178 136.516C44.9122 136.677 50.4425 128.341 53.8836 122.184C55.9601 118.463 54.9981 114.683 51.5528 112.174L49.9128 110.86L49.9213 110.856Z" fill="#FFBE9D"/>
<path d="M16.8791 112.361C16.8495 112.378 16.4808 111.852 16.1333 111.14C15.7816 110.433 15.5824 109.818 15.6163 109.805C15.6502 109.793 15.9044 110.377 16.2519 111.081C16.5994 111.784 16.913 112.34 16.8791 112.361Z" fill="#EB996E"/>
<path d="M49.5102 106.665C49.1669 106.873 41.0388 121.959 41.0388 121.959L51.4977 130.155C51.4977 130.155 54.2184 123.451 55.655 118.001C56.0449 116.522 55.8457 112.568 55.2948 111.043C54.515 108.877 53.3369 109.415 51.5697 108.148L49.5102 106.665Z" fill="#E65C00"/>
<g opacity="0.7">
<path d="M52.9471 106.665C52.9471 106.665 52.8453 106.606 52.6504 106.508C52.4597 106.411 52.1419 106.288 51.7308 106.313C51.3197 106.326 50.8324 106.529 50.3662 106.881C49.8958 107.237 49.4382 107.741 49.0059 108.347C48.5652 108.949 48.2007 109.687 47.7515 110.449C47.315 111.221 46.8446 112.039 46.353 112.903C45.3656 114.632 44.2765 116.526 43.1366 118.518C42.4416 119.726 41.7677 120.9 41.1321 122.006L41.1066 121.87C43.9417 124.108 46.4081 126.057 48.1838 127.464C49.044 128.155 49.739 128.714 50.2391 129.113C50.4637 129.299 50.6459 129.447 50.7815 129.562C50.9044 129.668 50.968 129.723 50.9638 129.727C50.9638 129.731 50.8917 129.685 50.7603 129.591C50.6163 129.486 50.4298 129.346 50.1925 129.172C49.6839 128.786 48.9762 128.244 48.099 127.574C46.3107 126.184 43.8273 124.256 40.9753 122.044L40.9032 121.989L40.9498 121.908C41.5813 120.802 42.2551 119.628 42.9501 118.421C44.0943 116.433 45.1834 114.539 46.1793 112.814C46.6751 111.954 47.1497 111.136 47.5947 110.369C48.0439 109.61 48.4253 108.869 48.883 108.263C49.3322 107.652 49.8068 107.144 50.2984 106.788C50.7858 106.432 51.2985 106.233 51.735 106.233C52.1673 106.22 52.4894 106.36 52.6801 106.474C52.7818 106.525 52.8453 106.584 52.892 106.614C52.9386 106.648 52.9598 106.665 52.9598 106.669L52.9471 106.665Z" fill="black"/>
</g>
<path d="M49.8238 120.811C49.7941 120.841 49.6119 120.472 49.061 120.264C48.794 120.163 48.438 120.116 48.0863 120.235C47.9125 120.29 47.7388 120.4 47.5396 120.502C47.3447 120.599 47.1031 120.709 46.8277 120.659C46.5522 120.608 46.3657 120.404 46.2344 120.226C46.103 120.044 46.0013 119.862 45.8826 119.718C45.658 119.421 45.319 119.307 45.0351 119.294C44.4503 119.277 44.179 119.608 44.1579 119.569C44.1494 119.561 44.196 119.476 44.3358 119.366C44.4757 119.26 44.7172 119.141 45.0351 119.137C45.3487 119.124 45.764 119.243 46.0352 119.586C46.1708 119.747 46.2768 119.93 46.4039 120.095C46.5268 120.26 46.6751 120.404 46.8658 120.438C47.2557 120.506 47.6117 120.154 48.0185 120.04C48.4338 119.917 48.8279 119.993 49.1118 120.12C49.7009 120.392 49.8365 120.815 49.8153 120.811H49.8238Z" fill="#FAFAFA"/>
<path d="M54.604 118.857C54.5659 118.879 54.4896 118.476 54.0192 118.129C53.7904 117.959 53.4598 117.819 53.0869 117.836C52.9047 117.845 52.7055 117.9 52.4894 117.946C52.2775 117.989 52.0105 118.027 51.7605 117.904C51.5104 117.781 51.3833 117.535 51.307 117.328C51.2265 117.116 51.1799 116.912 51.1036 116.743C50.968 116.395 50.6714 116.192 50.4044 116.107C49.845 115.933 49.4932 116.179 49.4848 116.137C49.4763 116.128 49.5483 116.056 49.7094 115.989C49.8704 115.925 50.1332 115.878 50.4468 115.955C50.7519 116.027 51.1206 116.255 51.2901 116.658C51.3791 116.849 51.4299 117.056 51.5062 117.247C51.5782 117.442 51.6842 117.62 51.8579 117.705C52.2139 117.874 52.6546 117.633 53.0784 117.633C53.5107 117.624 53.8709 117.807 54.1124 118.006C54.6083 118.425 54.621 118.87 54.604 118.857Z" fill="#FAFAFA"/>
<path d="M54.8498 112.624C54.8117 112.645 54.7354 112.242 54.265 111.895C54.0362 111.725 53.7056 111.585 53.3327 111.602C53.1505 111.611 52.9513 111.666 52.7352 111.712C52.5233 111.755 52.2563 111.793 52.0063 111.67C51.7562 111.547 51.6291 111.301 51.5528 111.094C51.4723 110.882 51.4257 110.678 51.3494 110.509C51.2138 110.161 50.9171 109.958 50.6502 109.873C50.0908 109.7 49.739 109.945 49.7306 109.903C49.7221 109.894 49.7941 109.822 49.9552 109.755C50.1162 109.691 50.3789 109.644 50.6925 109.721C50.9977 109.793 51.3663 110.022 51.5359 110.424C51.6249 110.615 51.6757 110.823 51.752 111.013C51.824 111.208 51.93 111.386 52.1037 111.471C52.4597 111.64 52.9004 111.399 53.3242 111.399C53.7565 111.39 54.1167 111.573 54.3582 111.772C54.8541 112.191 54.8668 112.636 54.8498 112.624Z" fill="#FAFAFA"/>
<path d="M52.536 126.96C52.4978 126.981 52.4216 126.579 51.9512 126.231C51.7223 126.062 51.3918 125.922 51.0188 125.939C50.8366 125.947 50.6374 126.002 50.4213 126.049C50.2094 126.091 49.9424 126.129 49.6924 126.007C49.4424 125.884 49.3152 125.638 49.239 125.43C49.1585 125.218 49.1118 125.015 49.0356 124.845C48.8999 124.498 48.6033 124.294 48.3363 124.21C47.7769 124.036 47.4252 124.282 47.4167 124.239C47.4082 124.231 47.4803 124.159 47.6413 124.091C47.8024 124.027 48.0651 123.981 48.3787 124.057C48.6838 124.129 49.0525 124.358 49.222 124.761C49.311 124.951 49.3619 125.159 49.4381 125.35C49.5102 125.545 49.6161 125.723 49.7899 125.807C50.1459 125.977 50.5866 125.735 51.0104 125.735C51.4426 125.727 51.8028 125.909 52.0444 126.108C52.5402 126.528 52.5529 126.973 52.536 126.96Z" fill="#FAFAFA"/>
</g>
<defs>
<clipPath id="clip0_36_56056">
<rect width="165.418" height="176" fill="white"/>
</clipPath>
</defs>
</svg>
