<svg width="95" height="95" viewBox="0 0 95 95" fill="none" xmlns="http://www.w3.org/2000/svg">
<g id="man 1">
<path id="Vector" d="M55.2983 63.7579L55.2983 63.7579C55.9849 63.341 56.8806 63.558 57.2988 64.242C58.5075 66.219 60.6183 67.3993 62.9441 67.3993C71.7631 67.3989 78.9 74.5092 78.9 83.2954V92.4502C78.9 93.2505 78.2486 93.9 77.4444 93.9C76.6403 93.9 75.9889 93.2505 75.9889 92.4502V83.2954C75.9889 76.1117 70.1542 70.2987 62.9441 70.2989C59.5933 70.2989 56.554 68.5986 54.8124 65.7501C54.3945 65.0665 54.6116 64.1744 55.2983 63.7579ZM39.1493 67.2662L39.0786 67.2181L39.0201 67.2806C37.3962 69.0143 35.5116 69.769 34.1039 70.0904C33.4 70.2511 32.8163 70.3031 32.4459 70.3151C32.2602 70.3212 32.1296 70.3171 32.065 70.3119C32.0618 70.3116 32.0587 70.3114 32.0559 70.3111V70.2989C24.8464 70.2987 19.0111 76.1111 19.0111 83.2954V92.4502C19.0111 93.2505 18.3597 93.9 17.5556 93.9C16.7514 93.9 16.1 93.2505 16.1 92.4502V83.2954C16.1 74.5101 23.2355 67.3993 32.0555 67.3993C35.6999 67.3993 38.6556 64.4736 38.6556 60.8402V60.432V60.3689L38.5986 60.3417C31.841 57.1224 27.0985 50.3577 26.8094 42.4811L26.8066 42.4052L26.7327 42.3875C23.9817 41.7285 21.9334 39.2756 21.9334 36.3592L21.9334 28.3248L21.9333 28.3227C21.8485 24.3969 22.4352 14.5845 29.612 7.69226C38.4709 -0.815937 52.6945 -0.285137 63.1697 4.73893C64.1264 5.19819 64.2721 6.48641 63.4775 7.15338L63.3261 7.28046L63.5182 7.32714C68.8104 8.61323 73.3734 11.8542 76.305 16.4927L76.3051 16.4928C76.316 16.51 76.3274 16.5277 76.3392 16.5461C76.494 16.7865 76.7111 17.1238 76.6481 17.6452C76.6048 18.0039 76.4996 18.2974 76.23 18.57C74.3157 20.5043 73.2613 23.0679 73.2613 25.788V36.3596C73.2613 37.1599 72.6099 37.8094 71.8057 37.8094C71.0015 37.8094 70.3502 37.1599 70.3502 36.3596V25.788C70.3502 22.7045 71.4075 19.7781 73.3493 17.4272L73.3979 17.3684L73.3541 17.3061C70.3549 13.0326 65.6757 10.2845 60.3849 9.72005L57.6508 9.4283C56.1549 9.26879 55.8622 7.21591 57.2515 6.6462L57.2136 6.55368L57.2516 6.6462L58.495 6.13612L58.7395 6.03584L58.4899 5.94914C50.3735 3.13012 41.9641 3.28258 35.5788 6.86449C29.1879 10.4495 24.8443 17.4589 24.8443 28.308V36.3592C24.8443 37.6287 25.5782 38.7305 26.6484 39.2834L26.7943 39.3587V39.1945V29.1474C26.7943 23.2211 31.634 18.3988 37.5832 18.3988H57.4166C63.3658 18.3988 68.2055 23.2208 68.2055 29.1468V41.8364C68.2055 55.2483 55.0492 65.4372 41.6616 61.5106L41.5435 61.4759L41.5338 61.5986C41.4472 62.6929 41.1738 63.7486 40.7285 64.7299L40.6938 64.8063L40.7631 64.8538C43.4018 66.6591 46.7344 67.3876 50.0244 66.6733C50.8102 66.5028 51.5855 66.9993 51.7566 67.7814C51.9277 68.5634 51.4301 69.3359 50.6444 69.5065C46.5782 70.3892 42.4424 69.5056 39.1493 67.2662ZM32.0559 70.3989L32.0559 70.3185C32.0598 70.3208 32.0647 70.3242 32.0698 70.3287C32.0773 70.3353 32.0926 70.3509 32.0997 70.3768C32.1033 70.3898 32.104 70.4025 32.1026 70.4145C32.0847 70.4136 32.0691 70.4126 32.0559 70.4115V70.3989ZM47.4999 59.4475C57.3116 59.4475 65.2944 51.4949 65.2944 41.7186V29.1468C65.2944 24.8188 61.7602 21.2984 57.4166 21.2984H37.5832C33.2396 21.2984 29.7054 24.819 29.7054 29.1474V41.7186C29.7054 51.4949 37.6882 59.4475 47.4999 59.4475ZM58.5833 86.1573H63.25C64.0541 86.1573 64.7055 86.8068 64.7055 87.6071C64.7055 88.4074 64.0541 89.0569 63.25 89.0569H58.5833C57.7791 89.0569 57.1277 88.4074 57.1277 87.6071C57.1277 86.8068 57.7791 86.1573 58.5833 86.1573Z" fill="#2E3333" stroke="white" stroke-width="0.2"/>
<g id="Mask group">
<mask id="mask0_1_34446" style="mask-type:alpha" maskUnits="userSpaceOnUse" x="16" y="1" width="63" height="93">
<path id="Vector_2" d="M55.2983 63.7579L55.2983 63.7579C55.9849 63.341 56.8806 63.558 57.2988 64.242C58.5075 66.219 60.6183 67.3993 62.9441 67.3993C71.7631 67.3989 78.9 74.5092 78.9 83.2954V92.4502C78.9 93.2505 78.2486 93.9 77.4444 93.9C76.6403 93.9 75.9889 93.2505 75.9889 92.4502V83.2954C75.9889 76.1117 70.1542 70.2987 62.9441 70.2989C59.5933 70.2989 56.554 68.5986 54.8124 65.7501C54.3945 65.0665 54.6116 64.1744 55.2983 63.7579ZM39.1493 67.2662L39.0786 67.2181L39.0201 67.2806C37.3962 69.0143 35.5116 69.769 34.1039 70.0904C33.4 70.2511 32.8163 70.3031 32.4459 70.3151C32.2602 70.3212 32.1296 70.3171 32.065 70.3119C32.0618 70.3116 32.0587 70.3114 32.0559 70.3111V70.2989C24.8464 70.2987 19.0111 76.1111 19.0111 83.2954V92.4502C19.0111 93.2505 18.3597 93.9 17.5556 93.9C16.7514 93.9 16.1 93.2505 16.1 92.4502V83.2954C16.1 74.5101 23.2355 67.3993 32.0555 67.3993C35.6999 67.3993 38.6556 64.4736 38.6556 60.8402V60.432V60.3689L38.5986 60.3417C31.841 57.1224 27.0985 50.3577 26.8094 42.4811L26.8066 42.4052L26.7327 42.3875C23.9817 41.7285 21.9334 39.2756 21.9334 36.3592L21.9334 28.3248L21.9333 28.3227C21.8485 24.3969 22.4352 14.5845 29.612 7.69226C38.4709 -0.815937 52.6945 -0.285137 63.1697 4.73893C64.1264 5.19819 64.2721 6.48641 63.4775 7.15338L63.3261 7.28046L63.5182 7.32714C68.8104 8.61323 73.3734 11.8542 76.305 16.4927L76.3051 16.4928C76.316 16.51 76.3274 16.5277 76.3392 16.5461C76.494 16.7865 76.7111 17.1238 76.6481 17.6452C76.6048 18.0039 76.4996 18.2974 76.23 18.57C74.3157 20.5043 73.2613 23.0679 73.2613 25.788V36.3596C73.2613 37.1599 72.6099 37.8094 71.8057 37.8094C71.0015 37.8094 70.3502 37.1599 70.3502 36.3596V25.788C70.3502 22.7045 71.4075 19.7781 73.3493 17.4272L73.3979 17.3684L73.3541 17.3061C70.3549 13.0326 65.6757 10.2845 60.3849 9.72005L57.6508 9.4283C56.1549 9.26879 55.8622 7.21591 57.2515 6.6462L57.2136 6.55368L57.2516 6.6462L58.495 6.13612L58.7395 6.03584L58.4899 5.94914C50.3735 3.13012 41.9641 3.28258 35.5788 6.86449C29.1879 10.4495 24.8443 17.4589 24.8443 28.308V36.3592C24.8443 37.6287 25.5782 38.7305 26.6484 39.2834L26.7943 39.3587V39.1945V29.1474C26.7943 23.2211 31.634 18.3988 37.5832 18.3988H57.4166C63.3658 18.3988 68.2055 23.2208 68.2055 29.1468V41.8364C68.2055 55.2483 55.0492 65.4372 41.6616 61.5106L41.5435 61.4759L41.5338 61.5986C41.4472 62.6929 41.1738 63.7486 40.7285 64.7299L40.6938 64.8063L40.7631 64.8538C43.4018 66.6591 46.7344 67.3876 50.0244 66.6733C50.8102 66.5028 51.5855 66.9993 51.7566 67.7814C51.9277 68.5634 51.4301 69.3359 50.6444 69.5065C46.5782 70.3892 42.4424 69.5056 39.1493 67.2662ZM32.0559 70.3989L32.0559 70.3185C32.0598 70.3208 32.0647 70.3242 32.0698 70.3287C32.0773 70.3353 32.0926 70.3509 32.0997 70.3768C32.1033 70.3898 32.104 70.4025 32.1026 70.4145C32.0847 70.4136 32.0691 70.4126 32.0559 70.4115V70.3989ZM47.4999 59.4475C57.3116 59.4475 65.2944 51.4949 65.2944 41.7186V29.1468C65.2944 24.8188 61.7602 21.2984 57.4166 21.2984H37.5832C33.2396 21.2984 29.7054 24.819 29.7054 29.1474V41.7186C29.7054 51.4949 37.6882 59.4475 47.4999 59.4475ZM58.5833 86.1573H63.25C64.0541 86.1573 64.7055 86.8068 64.7055 87.6071C64.7055 88.4074 64.0541 89.0569 63.25 89.0569H58.5833C57.7791 89.0569 57.1277 88.4074 57.1277 87.6071C57.1277 86.8068 57.7791 86.1573 58.5833 86.1573Z" fill="#2E3333" stroke="white" stroke-width="0.2"/>
</mask>
<g mask="url(#mask0_1_34446)">
<path id="Union" fill-rule="evenodd" clip-rule="evenodd" d="M69.2728 45.3129L87.3933 44.4448L85.1205 -3L67 -2.13195L67.0506 -1.07563L21.5365 -2.84099L21.3875 0.999979H16V47H27V15.5259L67.9219 17.1131L69.2728 45.3129Z" fill="#E65C00"/>
</g>
</g>
</g>
</svg>
