<svg width="95" height="95" viewBox="0 0 95 95" fill="none" xmlns="http://www.w3.org/2000/svg">
<g id="chef 1" clip-path="url(#clip0_1_34415)">
<g id="Group">
<g id="Group_2">
<path id="Vector" d="M45.8524 81.5221C46.7395 81.5221 47.4587 80.803 47.4587 79.9159C47.4587 79.0287 46.7395 78.3096 45.8524 78.3096C44.9653 78.3096 44.2461 79.0287 44.2461 79.9159C44.2461 80.803 44.9653 81.5221 45.8524 81.5221Z" fill="#2E3333"/>
</g>
</g>
<g id="Group_3">
<g id="Group_4">
<path id="Vector_2" d="M45.8524 88.3678C46.7395 88.3678 47.4587 87.6487 47.4587 86.7616C47.4587 85.8744 46.7395 85.1553 45.8524 85.1553C44.9653 85.1553 44.2461 85.8744 44.2461 86.7616C44.2461 87.6487 44.9653 88.3678 45.8524 88.3678Z" fill="#2E3333"/>
</g>
</g>
<g id="Group_5">
<g id="Group_6">
<path id="Vector_3" d="M59.3238 22.0713C58.5547 22.0713 57.9316 22.6945 57.9316 23.4635V27.9578C57.9316 28.7269 58.5549 29.35 59.3238 29.35C60.0929 29.35 60.716 28.7269 60.716 27.9578V23.4635C60.716 22.6945 60.0927 22.0713 59.3238 22.0713Z" fill="#2E3333"/>
</g>
</g>
<g id="Group_7">
<g id="Group_8">
<path id="Vector_4" d="M51.4488 22.0713C50.6797 22.0713 50.0566 22.6945 50.0566 23.4635V27.9578C50.0566 28.7269 50.6799 29.35 51.4488 29.35C52.2179 29.35 52.841 28.7269 52.841 27.9578V23.4635C52.841 22.6945 52.2177 22.0713 51.4488 22.0713Z" fill="#2E3333"/>
</g>
</g>
<g id="Group_9">
<g id="Group_10">
<path id="Vector_5" d="M43.5738 22.0713C42.8047 22.0713 42.1816 22.6945 42.1816 23.4635V27.9578C42.1816 28.7269 42.8047 29.35 43.5738 29.35C44.3427 29.35 44.966 28.7269 44.966 27.9578V23.4635C44.9662 22.6945 44.3427 22.0713 43.5738 22.0713Z" fill="#2E3333"/>
</g>
</g>
<g id="Group_11">
<g id="Group_12">
<path id="Vector_6" d="M35.6978 22.0713C34.9287 22.0713 34.3057 22.6945 34.3057 23.4635V27.9578C34.3057 28.7269 34.9289 29.35 35.6978 29.35C36.4669 29.35 37.09 28.7269 37.09 27.9578V23.4635C37.0902 22.6945 36.4669 22.0713 35.6978 22.0713Z" fill="#2E3333"/>
</g>
</g>
<g id="Group_13">
<g id="Group_14">
<path id="Vector_7" d="M80.4442 88.9965L77.5153 74.2872C76.648 69.9415 73.5203 68.0904 71.7332 67.3739C71.02 67.0874 70.209 67.434 69.923 68.148C69.6367 68.8616 69.9833 69.6722 70.6971 69.9582C72.2418 70.5777 74.2047 71.9263 74.7849 74.8316L77.7136 89.5402C77.9899 90.9292 76.926 92.2158 75.5182 92.2158H68.9229V85.3119C68.9229 84.5428 68.2999 83.9197 67.5308 83.9197C66.7619 83.9197 66.1386 84.543 66.1386 85.3119V92.2158H41.3234V86.4137C41.3234 85.6446 40.7002 85.0215 39.9312 85.0215C39.1622 85.0215 38.5391 85.6448 38.5391 86.4137V92.2158H28.7793V85.3119C28.7793 84.5428 28.156 83.9197 27.3871 83.9197C26.618 83.9197 25.9949 84.543 25.9949 85.3119V92.2158H19.8641C18.2123 92.2158 16.9723 90.7056 17.295 89.0846L20.1327 74.8321C20.5832 72.5761 21.9667 70.8427 24.4148 69.8827L34.1668 66.0086C40.79 71.6923 40.7619 71.938 41.8708 72.4599L40.4361 73.5836C37.8244 75.6281 38.7139 78.5578 38.5395 79.9167C38.5395 80.6858 39.1627 81.3089 39.9316 81.3089C40.7007 81.3089 41.3238 80.6858 41.3238 79.9167V77.4771C41.3238 76.808 41.6259 76.1881 42.1524 75.7758C47.463 71.5964 47.3467 71.7602 47.5523 71.4869C49.3539 73.2561 52.2585 73.4676 54.2888 71.7006L60.8136 66.0218L64.5639 67.5164C65.278 67.801 66.0879 67.4529 66.3724 66.7385C66.6572 66.0242 66.3087 65.2144 65.5946 64.93L61.0555 63.1213L56.0372 61.1216V59.0424C61.9461 55.9654 65.9406 49.7876 65.9406 42.6891V42.434C68.966 41.8742 71.2432 39.5294 71.2432 36.7291C71.2432 34.6733 70.0149 32.864 68.1652 31.8249C68.886 30.4995 68.4733 29.6586 68.5921 24.1373C71.0853 22.0261 72.5003 18.8841 72.4068 15.5943C72.2034 8.45774 65.1999 3.48023 58.4074 5.62071C53.0901 -1.86708 41.9428 -1.88006 36.6164 5.62071C29.8341 3.48431 22.8193 8.44883 22.6168 15.5961C22.5239 18.8854 23.9389 22.0269 26.4317 24.1375C26.5299 30.2899 26.2005 30.7511 26.7512 31.8852C21.8156 34.7744 23.3431 41.3717 29.083 42.4342V42.447C29.083 49.1881 32.7598 55.6144 38.8811 58.9322V61.1404L23.4 67.2906C21.5358 67.9891 18.2936 69.8242 17.402 74.2883L14.5641 88.5415C13.8974 91.8872 16.4587 95.0003 19.8637 95.0003C21.9121 95.0003 65.0502 95.0003 67.53 95.0003H75.5175C78.6887 95.0003 81.0619 92.1007 80.4442 88.9965ZM47.4975 65.805L41.6652 61.3198V60.1772C45.3261 61.4 49.4471 61.4506 53.2525 60.2111V61.3794L47.4975 65.805ZM57.9038 64.8625L52.4604 69.6001C51.1105 70.7751 49.0956 69.8969 48.8934 68.2524C48.8936 68.2495 48.8936 68.2467 48.8938 68.2437L54.8653 63.6516L57.9038 64.8625ZM68.4583 36.7289C68.4583 38.0274 67.4109 39.1392 65.9402 39.5775V33.8808C67.4109 34.3189 68.4583 35.4305 68.4583 36.7289ZM29.0824 39.5775C25.7316 38.5789 25.7327 34.8788 29.0824 33.8808V39.5775ZM29.2157 30.5077V23.4643C29.2157 23.0223 29.0056 22.6065 28.6501 22.3442C26.5408 20.7872 25.3257 18.294 25.3999 15.6746C25.5444 10.5643 30.4058 6.91009 35.3415 8.15474C34.9981 8.99917 34.7365 9.88906 34.5715 10.8181C34.4372 11.5751 34.9421 12.298 35.6991 12.4322C36.4554 12.5647 37.1788 12.0616 37.3132 11.3046C38.2031 6.29035 42.5566 2.76643 47.5114 2.76643C52.517 2.76643 56.8276 6.33544 57.7097 11.3046C57.8296 11.9796 58.4167 12.4537 59.0789 12.4537C59.9489 12.4537 60.6022 11.6685 60.4512 10.8181C60.2862 9.88869 60.0242 8.99824 59.6806 8.15344C64.6407 6.90341 69.4783 10.5854 69.6228 15.6731C69.6974 18.2927 68.4823 20.7867 66.3724 22.3442C66.0169 22.6067 65.807 23.0223 65.807 23.4643V30.1424C65.807 30.5554 65.471 30.8912 65.0583 30.8912C64.4451 30.8912 32.1933 30.8912 29.5988 30.8912C29.3873 30.8912 29.2157 30.719 29.2157 30.5077ZM31.867 42.4466C31.867 40.4902 31.867 35.4908 31.867 33.6758H63.1559C63.1559 35.5149 63.1559 40.6286 63.1559 42.6891C63.1559 51.2468 56.2966 58.3325 47.4265 58.3325C38.7452 58.2818 31.867 51.0326 31.867 42.4466ZM40.111 63.659L46.0991 68.2639C45.8918 69.8841 43.891 70.7813 42.5341 69.6003L37.0907 64.8625L40.111 63.659Z" fill="#2E3333"/>
<g id="Mask group">
<mask id="mask0_1_34415" style="mask-type:alpha" maskUnits="userSpaceOnUse" x="14" y="0" width="67" height="95">
<path id="Vector_8" d="M80.4442 88.9965L77.5153 74.2872C76.648 69.9415 73.5203 68.0904 71.7332 67.3739C71.02 67.0874 70.209 67.434 69.923 68.148C69.6367 68.8616 69.9833 69.6722 70.6971 69.9582C72.2418 70.5777 74.2047 71.9263 74.7849 74.8316L77.7136 89.5402C77.9899 90.9292 76.926 92.2158 75.5182 92.2158H68.9229V85.3119C68.9229 84.5428 68.2999 83.9197 67.5308 83.9197C66.7619 83.9197 66.1386 84.543 66.1386 85.3119V92.2158H41.3234V86.4137C41.3234 85.6446 40.7002 85.0215 39.9312 85.0215C39.1622 85.0215 38.5391 85.6448 38.5391 86.4137V92.2158H28.7793V85.3119C28.7793 84.5428 28.156 83.9197 27.3871 83.9197C26.618 83.9197 25.9949 84.543 25.9949 85.3119V92.2158H19.8641C18.2123 92.2158 16.9723 90.7056 17.295 89.0846L20.1327 74.8321C20.5832 72.5761 21.9667 70.8427 24.4148 69.8827L34.1668 66.0086C40.79 71.6923 40.7619 71.938 41.8708 72.4599L40.4361 73.5836C37.8244 75.6281 38.7139 78.5578 38.5395 79.9167C38.5395 80.6858 39.1627 81.3089 39.9316 81.3089C40.7007 81.3089 41.3238 80.6858 41.3238 79.9167V77.4771C41.3238 76.808 41.6259 76.1881 42.1524 75.7758C47.463 71.5964 47.3467 71.7602 47.5523 71.4869C49.3539 73.2561 52.2585 73.4676 54.2888 71.7006L60.8136 66.0218L64.5639 67.5164C65.278 67.801 66.0879 67.4529 66.3724 66.7385C66.6572 66.0242 66.3087 65.2144 65.5946 64.93L61.0555 63.1213L56.0372 61.1216V59.0424C61.9461 55.9654 65.9406 49.7876 65.9406 42.6891V42.434C68.966 41.8742 71.2432 39.5294 71.2432 36.7291C71.2432 34.6733 70.0149 32.864 68.1652 31.8249C68.886 30.4995 68.4733 29.6586 68.5921 24.1373C71.0853 22.0261 72.5003 18.8841 72.4068 15.5943C72.2034 8.45774 65.1999 3.48023 58.4074 5.62071C53.0901 -1.86708 41.9428 -1.88006 36.6164 5.62071C29.8341 3.48431 22.8193 8.44883 22.6168 15.5961C22.5239 18.8854 23.9389 22.0269 26.4317 24.1375C26.5299 30.2899 26.2005 30.7511 26.7512 31.8852C21.8156 34.7744 23.3431 41.3717 29.083 42.4342V42.447C29.083 49.1881 32.7598 55.6144 38.8811 58.9322V61.1404L23.4 67.2906C21.5358 67.9891 18.2936 69.8242 17.402 74.2883L14.5641 88.5415C13.8974 91.8872 16.4587 95.0003 19.8637 95.0003C21.9121 95.0003 65.0502 95.0003 67.53 95.0003H75.5175C78.6887 95.0003 81.0619 92.1007 80.4442 88.9965ZM47.4975 65.805L41.6652 61.3198V60.1772C45.3261 61.4 49.4471 61.4506 53.2525 60.2111V61.3794L47.4975 65.805ZM57.9038 64.8625L52.4604 69.6001C51.1105 70.7751 49.0956 69.8969 48.8934 68.2524C48.8936 68.2495 48.8936 68.2467 48.8938 68.2437L54.8653 63.6516L57.9038 64.8625ZM68.4583 36.7289C68.4583 38.0274 67.4109 39.1392 65.9402 39.5775V33.8808C67.4109 34.3189 68.4583 35.4305 68.4583 36.7289ZM29.0824 39.5775C25.7316 38.5789 25.7327 34.8788 29.0824 33.8808V39.5775ZM29.2157 30.5077V23.4643C29.2157 23.0223 29.0056 22.6065 28.6501 22.3442C26.5408 20.7872 25.3257 18.294 25.3999 15.6746C25.5444 10.5643 30.4058 6.91009 35.3415 8.15474C34.9981 8.99917 34.7365 9.88906 34.5715 10.8181C34.4372 11.5751 34.9421 12.298 35.6991 12.4322C36.4554 12.5647 37.1788 12.0616 37.3132 11.3046C38.2031 6.29035 42.5566 2.76643 47.5114 2.76643C52.517 2.76643 56.8276 6.33544 57.7097 11.3046C57.8296 11.9796 58.4167 12.4537 59.0789 12.4537C59.9489 12.4537 60.6022 11.6685 60.4512 10.8181C60.2862 9.88869 60.0242 8.99824 59.6806 8.15344C64.6407 6.90341 69.4783 10.5854 69.6228 15.6731C69.6974 18.2927 68.4823 20.7867 66.3724 22.3442C66.0169 22.6067 65.807 23.0223 65.807 23.4643V30.1424C65.807 30.5554 65.471 30.8912 65.0583 30.8912C64.4451 30.8912 32.1933 30.8912 29.5988 30.8912C29.3873 30.8912 29.2157 30.719 29.2157 30.5077ZM31.867 42.4466C31.867 40.4902 31.867 35.4908 31.867 33.6758H63.1559C63.1559 35.5149 63.1559 40.6286 63.1559 42.6891C63.1559 51.2468 56.2966 58.3325 47.4265 58.3325C38.7452 58.2818 31.867 51.0326 31.867 42.4466ZM40.111 63.659L46.0991 68.2639C45.8918 69.8841 43.891 70.7813 42.5341 69.6003L37.0907 64.8625L40.111 63.659Z" fill="#2E3333"/>
</mask>
<g mask="url(#mask0_1_34415)">
<rect id="Rectangle 55" x="14" y="-2" width="67" height="33" fill="#E65C00"/>
</g>
</g>
</g>
</g>
</g>
<defs>
<clipPath id="clip0_1_34415">
<rect width="95" height="95" fill="white"/>
</clipPath>
</defs>
</svg>
