<svg width="32" height="32" viewBox="0 0 32 32" fill="none" xmlns="http://www.w3.org/2000/svg">
<circle cx="15.9138" cy="15.9138" r="15.9138" fill="#E65C00"/>
<path d="M21.3385 20.9771H10.491C10.2915 20.9771 10.1297 21.1388 10.1294 21.3384L10.1279 22.393C10.1276 22.7875 10.2809 23.1584 10.5595 23.4374C10.8386 23.7168 11.2091 23.8705 11.6036 23.8705H20.2245C21.0383 23.8705 21.7002 23.2086 21.7002 22.3948V21.3387C21.7002 21.1388 21.5385 20.9771 21.3385 20.9771Z" fill="white"/>
<path d="M19.8924 9.40375C19.6709 9.40375 19.4435 9.426 19.2026 9.47085C18.375 8.50589 17.189 7.95703 15.9139 7.95703C13.5207 7.95703 11.5738 9.90388 11.5738 12.2972C11.5738 12.4967 11.4117 12.6588 11.2121 12.6588C11.0126 12.6588 10.8504 12.4967 10.8504 12.2972C10.8504 11.5141 11.0306 10.7565 11.3859 10.0455C11.4491 9.91907 11.4329 9.76754 11.3446 9.65734C11.2563 9.54786 11.1118 9.4991 10.9748 9.53267C9.19783 9.97594 7.95703 11.559 7.95703 13.3822C7.95703 14.8854 8.80471 16.2519 10.1356 16.9276L10.1317 19.892C10.1317 19.9877 10.1695 20.0799 10.2373 20.1481C10.3054 20.2159 10.3973 20.254 10.4934 20.254H21.3391C21.539 20.254 21.7008 20.0923 21.7008 19.8924V16.9223C23.0267 16.2448 23.8709 14.8804 23.8709 13.3822C23.8708 11.1885 22.0861 9.40375 19.8924 9.40375ZM13.2501 18.0021C13.1826 18.0572 13.1014 18.084 13.0209 18.084C12.9163 18.084 12.8125 18.0388 12.7408 17.9519C12.6214 17.806 11.5738 16.502 11.5738 15.5523C11.5738 15.3523 11.7356 15.1906 11.9355 15.1906C12.1354 15.1906 12.2972 15.3523 12.2972 15.5523C12.2972 16.0757 12.9125 17.0202 13.3003 17.4927C13.4267 17.6475 13.4044 17.8752 13.2501 18.0021ZM16.2756 17.7223C16.2756 17.9222 16.1138 18.084 15.9139 18.084C15.714 18.084 15.5523 17.9222 15.5523 17.7223V15.5523C15.5523 15.3523 15.714 15.1906 15.9139 15.1906C16.1139 15.1906 16.2756 15.3523 16.2756 15.5523V17.7223H16.2756ZM19.0871 17.9519C19.0154 18.0388 18.9119 18.084 18.8074 18.084C18.7265 18.084 18.6452 18.0572 18.5781 18.0021C18.4238 17.8752 18.4012 17.6475 18.5276 17.4931C18.9154 17.0195 19.5307 16.074 19.5307 15.5523C19.5307 15.3523 19.6925 15.1906 19.8924 15.1906C20.0923 15.1906 20.2541 15.3523 20.2541 15.5523C20.2541 16.502 19.2065 17.806 19.0871 17.9519Z" fill="white"/>
</svg>
