<svg width="19" height="19" viewBox="0 0 19 19" fill="none" xmlns="http://www.w3.org/2000/svg">
<path d="M18.1903 16.6772L14.7118 13.1987C15.766 11.8186 16.3442 10.1447 16.3445 8.37834C16.3445 6.24969 15.5154 4.24831 14.01 2.74314C12.5048 1.23798 10.5037 0.408936 8.37479 0.408936C6.24614 0.408936 4.24475 1.23798 2.73959 2.74314C-0.367624 5.85062 -0.367624 10.9066 2.73959 14.0135C4.24475 15.519 6.24614 16.348 8.37479 16.348C10.1412 16.3478 11.8151 15.7696 13.1951 14.7154L16.6736 18.1939C16.8828 18.4033 17.1575 18.5081 17.432 18.5081C17.7064 18.5081 17.9811 18.4033 18.1903 18.1939C18.6093 17.7751 18.6093 17.0959 18.1903 16.6772ZM4.25628 12.4969C1.98544 10.226 1.9857 6.53093 4.25628 4.25983C5.35634 3.16002 6.81909 2.55408 8.37479 2.55408C9.93075 2.55408 11.3932 3.16002 12.4933 4.25983C13.5934 5.3599 14.1993 6.82264 14.1993 8.37834C14.1993 9.93431 13.5934 11.3968 12.4933 12.4969C11.3932 13.5969 9.93075 14.2029 8.37479 14.2029C6.81909 14.2029 5.35634 13.5969 4.25628 12.4969Z" fill="white"/>
</svg>
