<svg width="31" height="30" viewBox="0 0 31 30" fill="none" xmlns="http://www.w3.org/2000/svg">
<path opacity="0.4" d="M18.6258 5.23435C18.4604 5.20281 18.2902 5.20418 18.1253 5.23838C17.9604 5.27257 17.8038 5.33894 17.6645 5.43366C17.5252 5.52838 17.4059 5.64962 17.3135 5.79044C17.2211 5.93126 17.1573 6.08891 17.1258 6.25439C17.0614 6.58999 17.132 6.93745 17.3225 7.22119C17.5129 7.50493 17.8078 7.70193 18.1428 7.76936C19.1625 7.96665 20.0995 8.46519 20.833 9.20053C21.5665 9.93586 22.0626 10.8742 22.2573 11.8944C22.3127 12.1888 22.469 12.4546 22.6992 12.6463C22.9294 12.8379 23.2193 12.9433 23.5188 12.9444C23.6018 12.9443 23.6846 12.9368 23.7663 12.9219C24.1013 12.8541 24.3961 12.6567 24.5863 12.3727C24.7765 12.0887 24.8467 11.741 24.7818 11.4054C24.4915 9.87868 23.7495 8.47428 22.652 7.37404C21.5544 6.2738 20.1518 5.52838 18.6258 5.23435Z" fill="#FA6D26"/>
<path opacity="0.4" d="M18.5325 0.0110843C18.3665 -0.0114128 18.1977 0.000417712 18.0364 0.0458287C17.8752 0.0912397 17.7249 0.169257 17.595 0.275078C17.4594 0.380913 17.3466 0.513093 17.2633 0.66363C17.1801 0.814167 17.1281 0.979977 17.1105 1.15111C17.0726 1.49057 17.1708 1.83122 17.3836 2.09836C17.5965 2.3655 17.9066 2.53729 18.246 2.57609C20.5984 2.83239 22.7924 3.88548 24.4639 5.56049C26.1354 7.2355 27.1838 9.43172 27.4351 11.7846C27.4691 12.0992 27.618 12.3901 27.8533 12.6016C28.0886 12.8131 28.3937 12.9303 28.7101 12.9307C28.7602 12.9308 28.8103 12.9277 28.8601 12.9216C29.0282 12.9036 29.1909 12.8521 29.3388 12.7702C29.4866 12.6883 29.6166 12.5776 29.7211 12.4447C29.8268 12.3124 29.9053 12.1606 29.9522 11.9979C29.999 11.8352 30.0133 11.6649 29.9941 11.4967C29.6821 8.56131 28.3749 5.82111 26.2898 3.73163C24.2046 1.64214 21.4672 0.329201 18.5325 0.0110843Z" fill="#FA6D26"/>
<path fill-rule="evenodd" clip-rule="evenodd" d="M13.547 16.4573C19.5305 22.4393 20.888 15.5198 24.6981 19.3268C28.3701 22.9988 30.4821 23.7338 25.8276 28.3868C25.2456 28.8548 21.542 34.4904 8.52646 21.4868C-4.48911 8.48326 1.14189 4.76472 1.60989 4.18272C6.27492 -0.482306 6.99798 1.63269 10.67 5.31221C14.48 9.11323 7.56344 10.4752 13.547 16.4573Z" fill="#FA6D26"/>
</svg>
