<svg width="24" height="24" viewBox="0 0 24 24" fill="none" xmlns="http://www.w3.org/2000/svg">
<path d="M19.502 19H4.50589C4.23003 19 4.00639 19.2236 4.00588 19.4995L4.00391 20.9575C4.00344 21.5029 4.21531 22.0156 4.60058 22.4013C4.98631 22.7876 5.49851 23 6.04395 23H17.9619C19.0869 23 20.0019 22.0849 20.0019 20.9599V19.5C20.0019 19.2236 19.7784 19 19.502 19Z" fill="#E65C00"/>
<path d="M17.5 3.00001C17.1938 3.00001 16.8794 3.03076 16.5464 3.09278C15.4023 1.75876 13.7627 1 12 1C8.69143 1 6.00001 3.69142 6.00001 6.99999C6.00001 7.27585 5.7759 7.50001 5.49999 7.50001C5.22413 7.50001 4.99998 7.2759 4.99998 6.99999C4.99998 5.91746 5.24903 4.87009 5.74023 3.88721C5.82765 3.71242 5.80515 3.50293 5.68309 3.35059C5.56102 3.19923 5.36129 3.13182 5.17187 3.17823C2.71534 3.79103 1 5.97948 1 8.49999C1 10.5781 2.17187 12.4672 4.01171 13.4013L4.00632 17.4995C4.00632 17.6318 4.05859 17.7592 4.15234 17.8535C4.24656 17.9472 4.37354 17.9999 4.50634 17.9999H19.5C19.7764 17.9999 20 17.7763 20 17.4999V13.394C21.833 12.4575 23 10.5712 23 8.49994C23 5.46727 20.5327 3.00001 17.5 3.00001ZM8.31736 14.8867C8.22408 14.9629 8.11182 15 8.00049 15C7.85597 15 7.7124 14.9375 7.6133 14.8174C7.44826 14.6157 6.00001 12.813 6.00001 11.5C6.00001 11.2236 6.22365 11 6.50002 11C6.7764 11 7.00004 11.2236 7.00004 11.5C7.00004 12.2236 7.85063 13.5293 8.38674 14.1826C8.56149 14.3965 8.53074 14.7114 8.31736 14.8867ZM12.5 14.5C12.5 14.7764 12.2763 15 12 15C11.7236 15 11.5 14.7764 11.5 14.5V11.5C11.5 11.2236 11.7236 11 12 11C12.2764 11 12.5 11.2236 12.5 11.5L12.5 14.5ZM16.3867 14.8174C16.2876 14.9375 16.1445 15 16 15C15.8882 15 15.7759 14.9629 15.6831 14.8867C15.4697 14.7114 15.4385 14.3965 15.6133 14.1831C16.1494 13.5283 17 12.2212 17 11.5C17 11.2236 17.2236 11 17.5 11C17.7764 11 18 11.2236 18 11.5C18 12.813 16.5517 14.6157 16.3867 14.8174Z" fill="#E65C00"/>
</svg>
