<svg width="11" height="11" viewBox="0 0 11 11" fill="none" xmlns="http://www.w3.org/2000/svg">
<path d="M10.5133 3.81287C10.4473 3.59968 10.2661 3.44826 10.0517 3.42809L7.13945 3.15216L5.98787 0.339556C5.90296 0.133429 5.70958 0 5.49473 0C5.27987 0 5.08649 0.133429 5.00158 0.340038L3.85 3.15216L0.93731 3.42809C0.7233 3.44874 0.542546 3.59968 0.476111 3.81287C0.409675 4.02607 0.47103 4.25991 0.632923 4.40732L2.83423 6.42184L2.18511 9.40555C2.13761 9.62493 2.21922 9.8517 2.39366 9.98328C2.48742 10.054 2.59712 10.09 2.70774 10.09C2.80312 10.09 2.89774 10.0631 2.98265 10.0101L5.49473 8.44343L8.00588 10.0101C8.18964 10.1255 8.42128 10.1149 8.59533 9.98328C8.76985 9.8513 8.85138 9.62444 8.80388 9.40555L8.15477 6.42184L10.3561 4.40772C10.518 4.25991 10.5798 4.02647 10.5133 3.81287Z" fill="#FFC107"/>
</svg>
