<svg width="26" height="26" viewBox="0 0 26 26" fill="none" xmlns="http://www.w3.org/2000/svg">
<path d="M25.9322 9.82509C25.762 9.27572 25.295 8.88553 24.7426 8.83358L17.2383 8.12254L14.2709 0.874974C14.0521 0.343821 13.5538 0 13.0001 0C12.4465 0 11.9482 0.343821 11.7294 0.876216L8.76195 8.12254L1.25647 8.83358C0.705 8.88677 0.23923 9.27572 0.0680373 9.82509C-0.103155 10.3745 0.0549449 10.977 0.472115 11.3569L6.14447 16.5479L4.47183 24.2364C4.34943 24.8017 4.5597 25.386 5.00921 25.7251C5.25082 25.9073 5.5335 26 5.81855 26C6.06433 26 6.30813 25.9309 6.52693 25.7942L13.0001 21.7572L19.4709 25.7942C19.9444 26.0915 20.5413 26.0644 20.9898 25.7251C21.4395 25.385 21.6496 24.8005 21.5272 24.2364L19.8545 16.5479L25.5269 11.3579C25.9441 10.977 26.1034 10.3755 25.9322 9.82509Z" fill="#FFC107"/>
</svg>
