<svg width="18" height="18" viewBox="0 0 18 18" fill="none" xmlns="http://www.w3.org/2000/svg">
<path d="M15.615 9.83317C15.4295 11.3018 14.7607 12.6671 13.7139 13.7138C12.6672 14.7606 11.302 15.4293 9.83329 15.6148V17.3332H8.16663V15.6148C6.69796 15.4293 5.33274 14.7606 4.28599 13.7138C3.23924 12.6671 2.57045 11.3018 2.38496 9.83317H0.666626V8.1665H2.38496C2.57045 6.69784 3.23924 5.33262 4.28599 4.28587C5.33274 3.23912 6.69796 2.57033 8.16663 2.38484V0.666504H9.83329V2.38484C11.302 2.57033 12.6672 3.23912 13.7139 4.28587C14.7607 5.33262 15.4295 6.69784 15.615 8.1665H17.3333V9.83317H15.615ZM8.99996 13.9998C10.326 13.9998 11.5978 13.4731 12.5355 12.5354C13.4732 11.5977 14 10.3259 14 8.99984C14 7.67375 13.4732 6.40199 12.5355 5.4643C11.5978 4.52662 10.326 3.99984 8.99996 3.99984C7.67388 3.99984 6.40211 4.52662 5.46443 5.4643C4.52674 6.40199 3.99996 7.67375 3.99996 8.99984C3.99996 10.3259 4.52674 11.5977 5.46443 12.5354C6.40211 13.4731 7.67388 13.9998 8.99996 13.9998ZM8.99996 11.4998C9.663 11.4998 10.2989 11.2364 10.7677 10.7676C11.2366 10.2988 11.5 9.66288 11.5 8.99984C11.5 8.3368 11.2366 7.70091 10.7677 7.23207C10.2989 6.76323 9.663 6.49984 8.99996 6.49984C8.33692 6.49984 7.70103 6.76323 7.23219 7.23207C6.76335 7.70091 6.49996 8.3368 6.49996 8.99984C6.49996 9.66288 6.76335 10.2988 7.23219 10.7676C7.70103 11.2364 8.33692 11.4998 8.99996 11.4998Z" fill="#E65C00"/>
</svg>
