<svg width="4" height="6" viewBox="0 0 4 6" fill="none" xmlns="http://www.w3.org/2000/svg">
<path d="M0.935851 5.99999C0.993453 6.00032 1.05055 5.98946 1.10388 5.96805C1.15721 5.94663 1.20571 5.91507 1.24661 5.87518L3.87272 3.29277C3.95424 3.21213 4 3.10304 4 2.98933C4 2.87563 3.95424 2.76654 3.87272 2.6859L1.24661 0.103493C1.16288 0.032982 1.05517 -0.00386301 0.945019 0.000320986C0.834864 0.00450498 0.730371 0.0494096 0.652422 0.126062C0.574472 0.202714 0.528807 0.305468 0.524552 0.413789C0.520298 0.522111 0.557766 0.628023 0.629471 0.710359L2.94483 2.98718L0.629471 5.26401C0.56801 5.32395 0.526005 5.40047 0.508767 5.48388C0.491528 5.5673 0.499831 5.65387 0.532625 5.73265C0.565419 5.81143 0.621231 5.87887 0.693004 5.92646C0.764777 5.97405 0.849288 5.99964 0.935851 5.99999Z" fill="white"/>
</svg>
