<svg width="26" height="30" viewBox="0 0 26 30" fill="none" xmlns="http://www.w3.org/2000/svg">
<path d="M22.9636 10.5315C22.2856 10.5315 21.3886 10.5165 20.2726 10.5165C18.9525 10.5058 17.6901 9.9739 16.7604 9.03662C15.8307 8.09934 15.309 6.83266 15.3091 5.5125V0.688499C15.3097 0.598675 15.2926 0.509621 15.2587 0.426407C15.2249 0.343193 15.1751 0.267455 15.112 0.203522C15.0489 0.139588 14.9738 0.0887067 14.8911 0.0537872C14.8083 0.0188677 14.7194 0.000589008 14.6296 0H6.69608C4.91154 0.00992071 3.20396 0.727842 1.94843 1.99603C0.692892 3.26422 -0.00788594 4.97896 9.24768e-05 6.7635V22.926C-0.00464658 23.8505 0.172801 24.7669 0.522309 25.6228C0.871817 26.4787 1.38653 27.2573 2.03705 27.9142C2.68756 28.5712 3.46117 29.0935 4.3136 29.4514C5.16603 29.8092 6.08057 29.9957 7.00507 30H18.8191C19.7011 29.9957 20.5735 29.8176 21.3866 29.476C22.1998 29.1344 22.9376 28.636 23.5581 28.0091C24.1785 27.3823 24.6693 26.6394 25.0025 25.8228C25.3357 25.0062 25.5048 24.132 25.5001 23.25V11.2035C25.5011 11.1136 25.4843 11.0245 25.4506 10.9412C25.4169 10.8579 25.3669 10.7821 25.3037 10.7182C25.2405 10.6543 25.1653 10.6036 25.0823 10.5689C24.9994 10.5343 24.9105 10.5165 24.8206 10.5165C24.1876 10.524 23.4271 10.5315 22.9636 10.5315Z" fill="#FA6D26"/>
<path opacity="0.4" d="M18.8741 0.850477C18.7749 0.747203 18.647 0.67606 18.5069 0.646268C18.3669 0.616476 18.2211 0.629409 18.0885 0.68337C17.9558 0.737331 17.8424 0.829855 17.7629 0.948965C17.6834 1.06807 17.6415 1.20828 17.6426 1.35148V5.30697C17.6465 6.10802 17.9666 6.87513 18.5332 7.44143C19.0998 8.00773 19.8671 8.32743 20.6681 8.33098C21.7181 8.34298 23.1656 8.34597 24.3986 8.34297C24.539 8.34283 24.6761 8.30144 24.793 8.22393C24.91 8.14642 25.0017 8.03623 25.0565 7.90706C25.1114 7.77789 25.127 7.63545 25.1015 7.49746C25.076 7.35947 25.0105 7.23201 24.9131 7.13097C23.3306 5.48547 20.4971 2.53648 18.8741 0.850477Z" fill="#FA6D26"/>
<path fill-rule="evenodd" clip-rule="evenodd" d="M8.21036 14.0819H13.2879C13.5841 14.0819 13.8681 13.9642 14.0775 13.7548C14.2869 13.5454 14.4046 13.2613 14.4046 12.9651C14.4046 12.6689 14.2869 12.3849 14.0775 12.1755C13.8681 11.9661 13.5841 11.8484 13.2879 11.8484H8.21036C7.92126 11.859 7.64749 11.9813 7.44672 12.1896C7.24594 12.3978 7.13379 12.6758 7.13379 12.9651C7.13379 13.2544 7.24594 13.5324 7.44672 13.7407C7.64749 13.949 7.92126 14.0713 8.21036 14.0819ZM8.21036 21.5729H16.3764C16.6726 21.5729 16.9566 21.4552 17.166 21.2458C17.3755 21.0364 17.4931 20.7523 17.4931 20.4561C17.4931 20.16 17.3755 19.8759 17.166 19.6665C16.9566 19.457 16.6726 19.3394 16.3764 19.3394H8.21036C7.92126 19.35 7.64749 19.4723 7.44672 19.6805C7.24594 19.8888 7.13379 20.1668 7.13379 20.4561C7.13379 20.7454 7.24594 21.0234 7.44672 21.2317C7.64749 21.44 7.92126 21.5623 8.21036 21.5729Z" fill="#FDBC9B"/>
</svg>
