<svg width="43" height="43" viewBox="0 0 43 43" fill="none" xmlns="http://www.w3.org/2000/svg">
<rect opacity="0.3" width="42.7166" height="42.7166" rx="12" fill="white"/>
<path fill-rule="evenodd" clip-rule="evenodd" d="M16.67 11H25.34C28.73 11 31 13.379 31 16.919V25.089C31 28.62 28.73 31 25.34 31H16.67C13.28 31 11 28.62 11 25.089V16.919C11 13.379 13.28 11 16.67 11ZM24.58 24.81C24.83 24.81 25.08 24.68 25.22 24.44C25.44 24.089 25.32 23.629 24.96 23.41L21.4 21.29V16.669C21.4 16.26 21.07 15.919 20.65 15.919C20.24 15.919 19.9 16.26 19.9 16.669V21.72C19.9 21.98 20.04 22.23 20.27 22.36L24.19 24.7C24.31 24.78 24.45 24.81 24.58 24.81Z" fill="white"/>
</svg>
