<svg width="22" height="25" viewBox="0 0 22 25" fill="none" xmlns="http://www.w3.org/2000/svg">
<path d="M4.69732 6.97691C5.09156 6.97691 5.46965 6.82378 5.74842 6.5512C6.02719 6.27862 6.1838 5.90892 6.1838 5.52343V0.651367C6.00438 0.784151 5.84083 0.936272 5.69624 1.10485L0.796778 6.61645C0.702881 6.73183 0.615542 6.85216 0.535156 6.97691H4.69732Z" fill="#E65C00"/>
<path d="M21.0368 0.93037C20.7356 0.632076 20.3762 0.396017 19.9798 0.236216C19.5835 0.076416 19.1584 -0.00386497 18.7297 0.000142999H8.15784H7.96757V5.52337C7.96757 6.37144 7.62302 7.18478 7.00973 7.78445C6.39643 8.38413 5.56463 8.72102 4.6973 8.72102H0V21.8023C0 22.6504 0.344545 23.4638 0.95784 24.0634C1.57113 24.6631 2.40294 25 3.27027 25H18.7297C19.1592 25 19.5844 24.9173 19.9812 24.7566C20.378 24.5959 20.7385 24.3604 21.0422 24.0634C21.3458 23.7665 21.5867 23.414 21.7511 23.026C21.9154 22.6381 22 22.2223 22 21.8023V3.1978C22.0008 2.77635 21.9161 2.35892 21.7507 1.96971C21.5854 1.5805 21.3427 1.22723 21.0368 0.93037ZM11.8324 18.0233H7.07567C6.83913 18.0233 6.61227 17.9314 6.44501 17.7679C6.27775 17.6043 6.18378 17.3825 6.18378 17.1512C6.18378 16.9199 6.27775 16.6981 6.44501 16.5345C6.61227 16.371 6.83913 16.2791 7.07567 16.2791H11.8324C12.069 16.2791 12.2958 16.371 12.4631 16.5345C12.6304 16.6981 12.7243 16.9199 12.7243 17.1512C12.7243 17.3825 12.6304 17.6043 12.4631 17.7679C12.2958 17.9314 12.069 18.0233 11.8324 18.0233ZM16.5892 13.3722H7.07567C6.83913 13.3722 6.61227 13.2803 6.44501 13.1167C6.27775 12.9532 6.18378 12.7314 6.18378 12.5001C6.18378 12.2688 6.27775 12.047 6.44501 11.8834C6.61227 11.7199 6.83913 11.628 7.07567 11.628H16.5892C16.8257 11.628 17.0526 11.7199 17.2198 11.8834C17.3871 12.047 17.4811 12.2688 17.4811 12.5001C17.4811 12.7314 17.3871 12.9532 17.2198 13.1167C17.0526 13.2803 16.8257 13.3722 16.5892 13.3722Z" fill="#E65C00"/>
</svg>
