<svg width="32" height="33" viewBox="0 0 32 33" fill="none" xmlns="http://www.w3.org/2000/svg">
<path d="M29.6391 13.4858H24.8804C20.9779 13.4858 17.7999 10.3078 17.7999 6.40534V1.64662C17.7999 0.740977 17.0589 0 16.1533 0H9.17165C4.10007 0 0 3.29323 0 9.17165V23.7607C0 29.6391 4.10007 32.9323 9.17165 32.9323H22.1141C27.1856 32.9323 31.2857 29.6391 31.2857 23.7607V15.1324C31.2857 14.2268 30.5447 13.4858 29.6391 13.4858ZM14.8689 18.9855C14.622 19.2325 14.3091 19.3477 13.9962 19.3477C13.6834 19.3477 13.3705 19.2325 13.1235 18.9855L11.938 17.7999V24.6992C11.938 25.3744 11.3781 25.9342 10.703 25.9342C10.0279 25.9342 9.46805 25.3744 9.46805 24.6992V17.7999L8.28248 18.9855C7.80496 19.463 7.01459 19.463 6.53707 18.9855C6.05955 18.508 6.05955 17.7176 6.53707 17.2401L9.8303 13.9468C9.94556 13.848 10.0608 13.7657 10.1926 13.6998C10.2255 13.6834 10.2749 13.6669 10.3078 13.6505C10.4066 13.6175 10.5054 13.6011 10.6207 13.5846H10.7524C10.8841 13.5846 11.0159 13.6175 11.1476 13.6669H11.1805C11.3123 13.7163 11.444 13.8151 11.5428 13.9139C11.5592 13.9304 11.5757 13.9304 11.5757 13.9468L14.8689 17.2401C15.3465 17.7176 15.3465 18.508 14.8689 18.9855Z" fill="#E65C00"/>
<path d="M24.5839 11.2139C26.1481 11.2304 28.3217 11.2304 30.1824 11.2304C31.1209 11.2304 31.6149 10.1271 30.9563 9.4685C28.5851 7.08091 24.3369 2.78324 21.8999 0.346244C21.2248 -0.328869 20.0557 0.132184 20.0557 1.07076V6.81745C20.0557 9.22151 22.0975 11.2139 24.5839 11.2139Z" fill="#E65C00"/>
</svg>
