<svg width="74" height="61" viewBox="0 0 74 61" fill="none" xmlns="http://www.w3.org/2000/svg">
<g id="Group 319">
<path id="Vector" d="M71.1514 4.36839C71.1514 2.94409 70.4512 1.60731 69.2895 0.795699C68.5574 0.278495 67.6901 0 66.783 0H4.35247C3.4772 0 2.61785 0.270538 1.88581 0.779785C0.708172 1.57548 0 2.92022 0 4.36839V44.8933C0 47.2884 1.94946 49.2458 4.35247 49.2458H42.2118C44.2647 55.874 50.4553 60.6959 57.7439 60.6959C66.7114 60.6959 74 53.3993 74 44.4398C74 41.0342 72.9417 37.8753 71.1514 35.2574V4.36839ZM65.6054 2.39505L35.5757 23.1787L5.54602 2.39505H65.6054ZM4.35247 46.8507C3.27032 46.8507 2.3871 45.9675 2.3871 44.8854V4.36839C2.3871 3.98645 2.50645 3.62839 2.69742 3.32602L34.8994 25.6135C35.1062 25.7568 35.3449 25.8284 35.5757 25.8284C35.8065 25.8284 36.0531 25.7568 36.252 25.6135L68.446 3.32602C68.637 3.63634 68.7564 3.98645 68.7564 4.36839V32.5123C65.8521 29.8308 61.9929 28.1757 57.7359 28.1757C48.7684 28.1757 41.4798 35.4723 41.4798 44.4318C41.4798 45.2593 41.5594 46.063 41.6787 46.8507H4.35247ZM57.7439 58.3088C50.0972 58.3088 43.8748 52.0864 43.8748 44.4398C43.8748 36.7931 50.0972 30.5708 57.7439 30.5708C65.3905 30.5708 71.6129 36.7852 71.6129 44.4318C71.6129 52.0785 65.3905 58.3088 57.7439 58.3088Z" fill="#2E3333"/>
<g id="Mask group">
<mask id="mask0_1_45643" style="mask-type:alpha" maskUnits="userSpaceOnUse" x="0" y="0" width="74" height="61">
<path id="Vector_2" d="M71.1514 4.36839C71.1514 2.94409 70.4512 1.60731 69.2895 0.795699C68.5574 0.278495 67.6901 0 66.783 0H4.35247C3.4772 0 2.61785 0.270538 1.88581 0.779785C0.708172 1.57548 0 2.92022 0 4.36839V44.8933C0 47.2884 1.94946 49.2458 4.35247 49.2458H42.2118C44.2647 55.874 50.4553 60.6959 57.7439 60.6959C66.7114 60.6959 74 53.3993 74 44.4398C74 41.0342 72.9417 37.8753 71.1514 35.2574V4.36839ZM65.6054 2.39505L35.5757 23.1787L5.54602 2.39505H65.6054ZM4.35247 46.8507C3.27032 46.8507 2.3871 45.9675 2.3871 44.8854V4.36839C2.3871 3.98645 2.50645 3.62839 2.69742 3.32602L34.8994 25.6135C35.1062 25.7568 35.3449 25.8284 35.5757 25.8284C35.8065 25.8284 36.0531 25.7568 36.252 25.6135L68.446 3.32602C68.637 3.63634 68.7564 3.98645 68.7564 4.36839V32.5123C65.8521 29.8308 61.9929 28.1757 57.7359 28.1757C48.7684 28.1757 41.4798 35.4723 41.4798 44.4318C41.4798 45.2593 41.5594 46.063 41.6787 46.8507H4.35247ZM57.7439 58.3088C50.0972 58.3088 43.8748 52.0864 43.8748 44.4398C43.8748 36.7931 50.0972 30.5708 57.7439 30.5708C65.3905 30.5708 71.6129 36.7852 71.6129 44.4318C71.6129 52.0785 65.3905 58.3088 57.7439 58.3088Z" fill="black"/>
</mask>
<g mask="url(#mask0_1_45643)">
<circle id="Ellipse 2" cx="57.5" cy="44.5" r="16.5" fill="#E65C00"/>
</g>
</g>
<path id="Vector_3" d="M63.5046 39.2124L55.5874 47.1296L51.975 43.5171C51.5055 43.0477 50.7496 43.0477 50.2881 43.5171C49.8266 43.9866 49.8186 44.7425 50.2881 45.204L54.744 49.6599C54.9748 49.8907 55.2851 50.01 55.5874 50.01C55.8898 50.01 56.2001 49.8907 56.4309 49.6599L65.1915 40.8993C65.661 40.4298 65.661 39.6739 65.1915 39.2124C64.7221 38.7509 63.9661 38.7429 63.5046 39.2124Z" fill="#E65C00"/>
<path id="Vector_4" d="M24.8418 41.3604H5.00507C4.34464 41.3604 3.81152 41.8935 3.81152 42.5539C3.81152 43.2143 4.34464 43.7474 5.00507 43.7474H24.8418C25.5023 43.7474 26.0354 43.2143 26.0354 42.5539C26.0354 41.8935 25.5023 41.3604 24.8418 41.3604Z" fill="#2E3333"/>
<path id="Vector_5" d="M33.324 41.3604H29.1227C28.4623 41.3604 27.9292 41.8935 27.9292 42.5539C27.9292 43.2143 28.4623 43.7474 29.1227 43.7474H33.324C33.9845 43.7474 34.5176 43.2143 34.5176 42.5539C34.5176 41.8935 33.9845 41.3604 33.324 41.3604Z" fill="#2E3333"/>
</g>
</svg>
