<svg width="163" height="176" viewBox="0 0 163 176" fill="none" xmlns="http://www.w3.org/2000/svg">
<path opacity="0.08" d="M81.0598 176.008C125.828 176.008 162.12 173.505 162.12 170.417C162.12 167.329 125.828 164.826 81.0598 164.826C36.2917 164.826 0 167.329 0 170.417C0 173.505 36.2917 176.008 81.0598 176.008Z" fill="black"/>
<g clip-path="url(#clip0_1104_682)">
<path d="M105.896 172L55.0674 171.972C48.9518 171.968 44 167.032 44 160.941L44.0244 34.0267C44.0244 27.9318 48.9885 23 55.104 23L105.933 23.0284C112.044 23.0284 117 27.9683 117 34.0591L116.976 160.977C116.976 167.068 112.016 172.008 105.896 172.004V172Z" fill="#E65C00"/>
<path d="M105.766 27.5549H95.9107C94.5883 27.5468 93.5182 28.6652 93.5182 30.039V31.818C93.5182 33.1959 92.444 34.3103 91.1257 34.3062L71.9164 34.2941C70.5941 34.2941 69.5239 33.1756 69.5239 31.8018V30.0228C69.5239 28.645 68.4538 27.5306 67.1314 27.5306H63.6647L55.0387 27.5225C50.7541 27.5225 47.2793 30.9792 47.2793 35.2424L47.2549 159.121C47.2549 163.384 50.7216 166.845 55.0061 166.845L105.733 166.874C110.018 166.874 113.492 163.417 113.492 159.154L113.517 35.2748C113.517 31.0116 110.05 27.5508 105.766 27.5508V27.5549Z" fill="white"/>
<path d="M114.086 47.2377C114.086 47.2944 99.1088 47.3431 80.6361 47.3431C62.1633 47.3431 47.1816 47.2944 47.1816 47.2377C47.1816 47.181 62.1552 47.1323 80.6361 47.1323C99.117 47.1323 114.086 47.181 114.086 47.2377Z" fill="#E65C00"/>
<path d="M54.1806 42.6502C54.1318 42.6502 54.087 42.634 54.0463 42.6015L52.1136 40.9117C52.0688 40.8711 52.0444 40.8144 52.0444 40.7577C52.0444 40.6969 52.0729 40.6442 52.1177 40.6037L54.0504 39.003C54.1358 38.93 54.266 38.9422 54.3352 39.0273C54.4085 39.1124 54.3963 39.2421 54.3108 39.311L52.5612 40.7577L54.3149 42.2895C54.4003 42.3624 54.4085 42.4921 54.3352 42.5772C54.2945 42.6218 54.2376 42.6461 54.1806 42.6461V42.6502Z" fill="#E65C00"/>
<path d="M96.3547 40.6483C96.3547 40.7051 90.0601 40.7537 82.2926 40.7537C74.525 40.7537 68.2305 40.7051 68.2305 40.6483C68.2305 40.5916 74.525 40.543 82.2926 40.543C90.0601 40.543 96.3547 40.5916 96.3547 40.6483Z" fill="#E65C00"/>
<path d="M104.5 40.6321C104.5 41.0333 104.175 41.3575 103.772 41.3575C103.369 41.3575 103.043 41.0333 103.043 40.6321C103.043 40.2309 103.369 39.9067 103.772 39.9067C104.175 39.9067 104.5 40.2309 104.5 40.6321Z" fill="#E65C00"/>
<path d="M106.608 40.6321C106.608 41.0333 106.283 41.3575 105.88 41.3575C105.477 41.3575 105.151 41.0333 105.151 40.6321C105.151 40.2309 105.477 39.9067 105.88 39.9067C106.283 39.9067 106.608 40.2309 106.608 40.6321Z" fill="#E65C00"/>
<path d="M108.72 40.6321C108.72 41.0333 108.394 41.3575 107.992 41.3575C107.589 41.3575 107.263 41.0333 107.263 40.6321C107.263 40.2309 107.589 39.9067 107.992 39.9067C108.394 39.9067 108.72 40.2309 108.72 40.6321Z" fill="#E65C00"/>
<path d="M74.2927 74.4577C74.2927 74.9278 74.0974 75.2115 73.7678 75.2115C73.5929 75.2115 73.4667 75.1304 73.422 74.9764C73.3162 75.1304 73.1494 75.2115 72.9297 75.2115C72.5553 75.2115 72.2746 74.9278 72.2746 74.5185C72.2746 74.1092 72.5512 73.8337 72.9297 73.8337C73.1209 73.8337 73.2796 73.8985 73.3854 74.0282V73.8499H73.6865V74.7738C73.6865 74.9116 73.7516 74.9602 73.8289 74.9602C73.9754 74.9602 74.0567 74.79 74.0567 74.4699C74.0567 73.8904 73.6336 73.4973 73.011 73.4973C72.3885 73.4973 71.9572 73.9188 71.9572 74.5104C71.9572 75.1021 72.3722 75.5276 72.9988 75.5276C73.1656 75.5276 73.361 75.4911 73.5278 75.4101L73.601 75.6289C73.4342 75.714 73.2023 75.7545 72.9988 75.7545C72.2257 75.7545 71.709 75.2317 71.709 74.5104C71.709 73.7891 72.2339 73.2744 73.011 73.2744C73.7882 73.2744 74.2887 73.7729 74.2887 74.4618L74.2927 74.4577ZM73.3935 74.5185C73.3935 74.2511 73.2185 74.093 72.9907 74.093C72.7628 74.093 72.5879 74.2551 72.5879 74.5185C72.5879 74.7819 72.7547 74.9481 72.9907 74.9481C73.2267 74.9481 73.3935 74.79 73.3935 74.5185Z" fill="#E65C00"/>
<path d="M89.6651 75.1913C89.6651 75.248 86.7233 75.2967 83.0939 75.2967C79.4644 75.2967 76.5186 75.248 76.5186 75.1913C76.5186 75.1346 79.4604 75.0859 83.0939 75.0859C86.7274 75.0859 89.6651 75.1346 89.6651 75.1913Z" fill="#E65C00"/>
<path d="M63.6691 93.7152C63.6691 93.772 63.2622 93.8206 62.7576 93.8206C62.2531 93.8206 61.8462 93.772 61.8462 93.7152C61.8462 93.6585 62.2531 93.6099 62.7576 93.6099C63.2622 93.6099 63.6691 93.6585 63.6691 93.7152Z" fill="#E65C00"/>
<path d="M67.9616 98.1083C67.9616 98.165 65.7644 98.2137 63.0545 98.2137C60.3447 98.2137 58.1475 98.165 58.1475 98.1083C58.1475 98.0516 60.3447 98.0029 63.0545 98.0029C65.7644 98.0029 67.9616 98.0516 67.9616 98.1083Z" fill="#E65C00"/>
<path d="M83.4194 93.7152C83.4194 93.772 82.1703 93.8206 80.6282 93.8206C79.0861 93.8206 77.8369 93.772 77.8369 93.7152C77.8369 93.6585 79.0861 93.6099 80.6282 93.6099C82.1703 93.6099 83.4194 93.6585 83.4194 93.7152Z" fill="#E65C00"/>
<path d="M85.0673 97.8729C85.0673 97.9297 82.8172 97.9783 80.0422 97.9783C77.2672 97.9783 75.0171 97.9297 75.0171 97.8729C75.0171 97.8162 77.2672 97.7676 80.0422 97.7676C82.8172 97.7676 85.0673 97.8162 85.0673 97.8729Z" fill="#E65C00"/>
<path d="M101.644 93.7719C101.644 93.8286 99.9591 93.8772 97.8799 93.8772C95.8007 93.8772 94.1162 93.8286 94.1162 93.7719C94.1162 93.7151 95.8007 93.6665 97.8799 93.6665C99.9591 93.6665 101.644 93.7151 101.644 93.7719Z" fill="#E65C00"/>
<path d="M103.056 98.0473C103.056 98.104 100.883 98.1526 98.2056 98.1526C95.5283 98.1526 93.3555 98.104 93.3555 98.0473C93.3555 97.9905 95.5283 97.9419 98.2056 97.9419C100.883 97.9419 103.056 97.9905 103.056 98.0473Z" fill="#E65C00"/>
<path d="M88.994 102.205H61.415C60.842 102.205 60.3774 102.668 60.3774 103.238V109.662C60.3774 110.232 60.842 110.695 61.415 110.695H88.994C89.567 110.695 90.0315 110.232 90.0315 109.662V103.238C90.0315 102.668 89.567 102.205 88.994 102.205Z" fill="#E65C00"/>
<path d="M84.4241 106.59C84.4241 106.646 80.6075 106.695 75.8998 106.695C71.1921 106.695 67.3755 106.646 67.3755 106.59C67.3755 106.533 71.1921 106.484 75.8998 106.484C80.6075 106.484 84.4241 106.533 84.4241 106.59Z" fill="white"/>
<path d="M99.992 102.047H93.4492C92.9166 102.047 92.4849 102.477 92.4849 103.007V109.787C92.4849 110.317 92.9166 110.747 93.4492 110.747H99.992C100.525 110.747 100.956 110.317 100.956 109.787V103.007C100.956 102.477 100.525 102.047 99.992 102.047Z" fill="#EBEBEB"/>
<path d="M95.8091 105.954H97.636L96.7978 107.23L95.8091 105.954Z" fill="#E65C00"/>
<path d="M90.0313 117.009C90.0313 117.065 85.3154 117.114 79.501 117.114C73.6866 117.114 68.9707 117.065 68.9707 117.009C68.9707 116.952 73.6825 116.903 79.501 116.903C85.3195 116.903 90.0313 116.952 90.0313 117.009Z" fill="#E0E0E0"/>
<path d="M96.163 120.96C96.163 121.017 89.2377 121.065 80.6931 121.065C72.1484 121.065 65.2231 121.017 65.2231 120.96C65.2231 120.903 72.1484 120.854 80.6931 120.854C89.2377 120.854 96.163 120.903 96.163 120.96Z" fill="#E0E0E0"/>
<path d="M77.3483 80.7266L75.4441 85.0748H74.6466L72.7383 80.7266H73.6172L75.0698 84.082L76.5346 80.7266H77.3443H77.3483Z" fill="#2E3333"/>
<path d="M80.6075 83.6646H77.9912C78.0848 84.1508 78.4917 84.4588 79.0694 84.4588C79.4438 84.4588 79.7367 84.3413 79.9727 84.0982L80.3918 84.5764C80.0907 84.9289 79.6228 85.1153 79.0491 85.1153C77.9342 85.1153 77.21 84.4021 77.21 83.4133C77.21 82.4245 77.9383 81.7153 78.9311 81.7153C79.9239 81.7153 80.6156 82.3921 80.6156 83.4295C80.6156 83.4903 80.6075 83.5835 80.6034 83.6605L80.6075 83.6646ZM77.9871 83.1499H79.8792C79.8181 82.6717 79.4479 82.3435 78.9352 82.3435C78.4225 82.3435 78.0604 82.6677 77.9871 83.1499Z" fill="#2E3333"/>
<path d="M83.2968 81.7194V82.4569C83.2277 82.4448 83.1707 82.4367 83.1178 82.4367C82.5237 82.4367 82.1494 82.7852 82.1494 83.4619V85.0707H81.3682V81.7518H82.1128V82.2381C82.3366 81.8896 82.7435 81.7153 83.2968 81.7153V81.7194Z" fill="#2E3333"/>
<path d="M83.8545 80.7429C83.8545 80.4835 84.0661 80.2769 84.355 80.2769C84.6439 80.2769 84.8554 80.4714 84.8554 80.7226C84.8554 80.9941 84.6479 81.2089 84.355 81.2089C84.062 81.2089 83.8545 81.0022 83.8545 80.7429ZM83.9603 81.756H84.7415V85.0749H83.9603V81.756Z" fill="#2E3333"/>
<path d="M87.0649 80.4226C87.3334 80.4226 87.5938 80.4793 87.7688 80.6009L87.5491 81.1845C87.4311 81.1034 87.2805 81.0467 87.1178 81.0467C86.7923 81.0467 86.6255 81.225 86.6255 81.5816V81.7802H87.541V82.4002H86.6499V85.0707H85.8686V82.4002H85.3193V81.7802H85.8686V81.5694C85.8686 80.8724 86.2877 80.4185 87.0608 80.4185L87.0649 80.4226ZM88.4605 80.7468C88.4605 80.4874 88.6721 80.2808 88.961 80.2808C89.2499 80.2808 89.4615 80.4753 89.4615 80.7265C89.4615 80.998 89.254 81.2128 88.961 81.2128C88.668 81.2128 88.4605 81.0061 88.4605 80.7468ZM88.5663 81.7599H89.3475V85.0788H88.5663V81.7599Z" fill="#2E3333"/>
<path d="M93.4937 83.6646H90.8774C90.971 84.1508 91.3779 84.4588 91.9557 84.4588C92.33 84.4588 92.623 84.3413 92.859 84.0982L93.2781 84.5764C92.977 84.9289 92.509 85.1153 91.9353 85.1153C90.8205 85.1153 90.0962 84.4021 90.0962 83.4133C90.0962 82.4245 90.8245 81.7153 91.8173 81.7153C92.8101 81.7153 93.5019 82.3921 93.5019 83.4295C93.5019 83.4903 93.4937 83.5835 93.4896 83.6605L93.4937 83.6646ZM90.8733 83.1499H92.7654C92.7044 82.6717 92.3341 82.3435 91.8214 82.3435C91.3087 82.3435 90.9466 82.6677 90.8733 83.1499Z" fill="#2E3333"/>
<path d="M97.5178 80.4634V85.075H96.7691V84.6455C96.5087 84.9616 96.1222 85.1196 95.6665 85.1196C94.6981 85.1196 93.9819 84.4469 93.9819 83.4176C93.9819 82.3883 94.6981 81.7196 95.6665 81.7196C96.0978 81.7196 96.4762 81.8615 96.7406 82.1654V80.4634H97.5219H97.5178ZM96.7488 83.4136C96.7488 82.7814 96.3175 82.3761 95.756 82.3761C95.1945 82.3761 94.7632 82.7814 94.7632 83.4136C94.7632 84.0457 95.1945 84.451 95.756 84.451C96.3175 84.451 96.7488 84.0457 96.7488 83.4136Z" fill="#2E3333"/>
<path d="M66.5782 86.1692C68.4681 86.1692 70.0001 84.6434 70.0001 82.7611C70.0001 80.8789 68.4681 79.353 66.5782 79.353C64.6883 79.353 63.1562 80.8789 63.1562 82.7611C63.1562 84.6434 64.6883 86.1692 66.5782 86.1692Z" fill="#E65C00"/>
<path d="M65.0322 82.8221L65.4717 82.3844L66.318 83.1341L67.9822 81.5415L68.3891 81.9792L66.257 83.9811L65.0322 82.8221Z" fill="white"/>
</g>
<path d="M138.801 118.465C138.892 118.856 138.975 119.248 139.052 119.643C139.569 122.312 139.771 125.054 139.681 127.804C139.665 128.254 139.643 128.704 139.612 129.153C139.434 131.793 138.991 134.431 138.302 137.012C138.179 137.475 138.048 137.934 137.91 138.392C137.03 141.294 135.842 144.107 134.374 146.752C134.13 147.194 133.876 147.63 133.616 148.062C131.644 151.332 129.235 154.311 126.449 156.832C125.952 157.282 125.445 157.718 124.923 158.136C124.325 158.619 123.712 159.082 123.083 159.523C122.287 160.08 121.031 161.031 119.843 161.321C119.457 161.414 119.078 161.438 118.724 161.357C118.649 161.339 118.576 161.318 118.503 161.29C116.527 160.547 116.363 156.067 116.243 154.263C116.2 153.616 116.174 152.972 116.166 152.328C116.154 151.548 116.167 150.769 116.204 149.993C116.313 147.597 116.636 145.221 117.118 142.872C117.23 142.316 117.353 141.762 117.484 141.208C117.488 141.189 117.493 141.17 117.497 141.149C118.074 138.72 118.806 136.321 119.632 133.958C119.785 133.514 119.944 133.07 120.106 132.627C120.645 131.146 121.218 129.678 121.807 128.227C122.018 127.709 122.23 127.193 122.441 126.678C122.6 126.291 122.761 125.903 122.92 125.518C123.836 123.3 124.748 121.09 125.573 118.838C125.719 118.442 125.862 118.045 126 117.647C126.217 117.029 126.426 116.406 126.626 115.779C127.096 114.303 127.523 112.812 127.883 111.306C127.992 110.851 128.095 110.396 128.191 109.938C128.254 109.639 128.313 109.342 128.37 109.042C128.493 108.389 129.117 105.767 129.275 103.935C129.287 103.803 129.33 103.687 129.395 103.591C129.634 103.234 130.169 103.14 130.516 103.481C130.52 103.485 130.523 103.489 130.527 103.493C132.484 105.421 134.105 107.543 135.413 109.804C135.612 110.149 135.804 110.497 135.988 110.847C137.262 113.262 138.191 115.823 138.801 118.465Z" fill="#FFB888"/>
<path d="M132.057 123.305C134.306 121.693 136.554 120.08 138.802 118.467C138.892 118.858 138.976 119.25 139.053 119.645C136.644 121.373 134.235 123.101 131.826 124.828C131.349 127.7 130.65 130.54 129.786 133.329C130.186 133.137 130.585 132.943 130.983 132.745C131.833 132.322 132.677 131.886 133.514 131.436C135.617 130.307 137.675 129.095 139.681 127.806C139.666 128.255 139.644 128.705 139.613 129.155C139.133 129.458 138.652 129.756 138.167 130.05C136.402 131.121 134.602 132.131 132.77 133.079C131.868 133.546 130.959 133.997 130.042 134.435C129.819 134.54 129.575 134.684 129.324 134.766C128.541 137.121 127.651 139.439 126.68 141.709C126.653 141.772 126.625 141.833 126.599 141.896C130.531 140.341 134.432 138.715 138.302 137.015C138.179 137.477 138.049 137.936 137.91 138.395C133.96 140.117 129.977 141.763 125.966 143.334C124.997 145.484 123.966 147.613 123.039 149.781C126.781 148.637 130.561 147.628 134.376 146.754C134.131 147.197 133.878 147.633 133.617 148.064C129.874 148.945 126.163 149.957 122.49 151.099C121.922 152.51 121.412 153.943 121.006 155.414C120.821 156.087 120.656 156.764 120.508 157.445C120.931 157.431 121.36 157.376 121.779 157.342C123.34 157.212 124.898 157.042 126.45 156.834C125.953 157.284 125.446 157.72 124.924 158.138C123.624 158.289 122.321 158.411 121.015 158.507C120.76 158.526 120.516 158.544 120.286 158.537C120.112 159.461 119.965 160.39 119.844 161.323C119.458 161.416 119.079 161.44 118.726 161.36C118.864 160.279 119.032 159.2 119.24 158.131C119.159 158.046 119.084 157.948 119.014 157.828C118.493 156.931 118.054 155.977 117.578 155.056C117.107 154.147 116.638 153.239 116.168 152.329C116.155 151.55 116.169 150.77 116.205 149.995C116.919 151.377 117.634 152.758 118.349 154.14C118.76 154.933 119.173 155.729 119.584 156.523C119.794 155.625 120.036 154.735 120.314 153.852C120.632 152.845 120.995 151.854 121.384 150.875C119.963 148.207 118.541 145.54 117.12 142.872C117.232 142.317 117.355 141.762 117.486 141.209C118.967 143.988 120.447 146.767 121.929 149.546C122.864 147.343 123.909 145.182 124.898 143.001C123.203 139.953 121.448 136.937 119.635 133.958C119.789 133.514 119.947 133.07 120.11 132.627C121.953 135.629 123.735 138.669 125.459 141.743C125.657 141.29 125.853 140.837 126.042 140.38C126.847 138.44 127.591 136.473 128.256 134.479C128.169 134.381 128.093 134.27 128.018 134.16C126.284 131.573 124.428 129.074 122.444 126.676C122.603 126.289 122.764 125.902 122.923 125.516C123.799 126.56 124.652 127.623 125.481 128.706C126.592 130.161 127.657 131.65 128.677 133.171C129.319 131.121 129.872 129.045 130.312 126.943C130.457 126.256 130.587 125.564 130.705 124.868C129.026 122.831 127.317 120.82 125.577 118.837C125.723 118.441 125.865 118.044 126.003 117.646C127.675 119.542 129.317 121.464 130.932 123.408C131.299 120.797 131.471 118.15 131.415 115.514C131.344 115.482 131.282 115.437 131.236 115.381C130.119 114.023 129.004 112.664 127.886 111.305C127.996 110.851 128.098 110.395 128.194 109.938C129.244 111.214 130.293 112.49 131.343 113.766C131.131 110.302 130.51 106.875 129.399 103.59C129.637 103.234 130.172 103.14 130.519 103.481C130.523 103.485 130.527 103.489 130.531 103.492C131.579 106.676 132.19 109.998 132.426 113.35C133.455 112.195 134.452 111.011 135.416 109.803C135.615 110.148 135.807 110.496 135.991 110.847C134.871 112.233 133.709 113.585 132.508 114.901C132.607 117.72 132.44 120.526 132.057 123.305Z" fill="#2E3333"/>
<path d="M149.397 131.356C149.345 131.648 149.287 131.94 149.225 132.232C148.8 134.2 148.14 136.125 147.278 137.971C147.136 138.272 146.99 138.572 146.839 138.87C145.949 140.616 144.879 142.283 143.659 143.84C143.44 144.118 143.217 144.394 142.99 144.665C141.546 146.384 139.918 147.954 138.15 149.329C137.855 149.558 137.555 149.782 137.253 150C134.959 151.653 132.45 152.98 129.82 153.887C129.351 154.049 128.878 154.197 128.402 154.331C127.854 154.486 127.302 154.622 126.746 154.739C126.042 154.887 124.91 155.169 124.016 155.021C123.726 154.973 123.46 154.878 123.244 154.72C123.198 154.685 123.155 154.65 123.114 154.609C121.984 153.528 123.177 150.43 123.62 149.167C123.778 148.715 123.949 148.268 124.13 147.827C124.348 147.292 124.585 146.766 124.835 146.249C125.606 144.649 126.518 143.126 127.53 141.665C127.769 141.319 128.014 140.978 128.263 140.638C128.272 140.626 128.282 140.614 128.29 140.603C129.39 139.117 130.586 137.697 131.836 136.327C132.07 136.07 132.307 135.813 132.548 135.56C133.346 134.707 134.163 133.875 134.987 133.058C135.281 132.767 135.575 132.477 135.869 132.187C136.09 131.97 136.312 131.753 136.533 131.537C137.801 130.293 139.066 129.054 140.284 127.76C140.498 127.533 140.71 127.305 140.921 127.073C141.249 126.715 141.572 126.351 141.89 125.983C142.64 125.115 143.365 124.224 144.048 123.303C144.254 123.025 144.457 122.745 144.656 122.461C144.786 122.276 144.914 122.09 145.039 121.903C145.312 121.494 146.501 119.891 147.141 118.689C147.187 118.603 147.251 118.537 147.323 118.49C147.589 118.316 147.981 118.409 148.118 118.742C148.12 118.746 148.12 118.75 148.122 118.753C148.893 120.635 149.38 122.552 149.613 124.472C149.647 124.765 149.678 125.057 149.701 125.349C149.863 127.366 149.75 129.379 149.397 131.356Z" fill="#FF8C40"/>
<path d="M143.396 132.688C145.396 132.244 147.397 131.801 149.397 131.356C149.345 131.648 149.288 131.94 149.225 132.231C147.082 132.707 144.939 133.183 142.796 133.657C141.635 135.474 140.333 137.204 138.933 138.852C139.261 138.838 139.589 138.822 139.919 138.802C140.62 138.762 141.322 138.71 142.022 138.648C143.783 138.491 145.538 138.265 147.279 137.97C147.138 138.272 146.992 138.572 146.84 138.87C146.425 138.937 146.011 138.999 145.594 139.058C144.082 139.273 142.562 139.437 141.038 139.549C140.289 139.605 139.538 139.648 138.787 139.678C138.603 139.685 138.397 139.712 138.201 139.694C136.983 141.07 135.701 142.389 134.38 143.653C134.343 143.687 134.307 143.721 134.27 143.755C137.4 143.841 140.53 143.869 143.66 143.838C143.442 144.117 143.219 144.393 142.991 144.664C139.801 144.687 136.609 144.648 133.421 144.551C132.136 145.733 130.813 146.882 129.551 148.088C132.432 148.399 135.299 148.812 138.151 149.327C137.856 149.557 137.556 149.781 137.253 149.999C134.448 149.509 131.626 149.119 128.792 148.827C127.995 149.622 127.231 150.449 126.526 151.333C126.204 151.737 125.895 152.151 125.596 152.571C125.888 152.685 126.196 152.772 126.491 152.87C127.592 153.237 128.702 153.575 129.82 153.884C129.351 154.047 128.878 154.195 128.401 154.328C127.472 154.052 126.549 153.756 125.632 153.441C125.453 153.38 125.281 153.321 125.127 153.249C124.739 153.827 124.37 154.418 124.015 155.017C123.725 154.969 123.46 154.875 123.244 154.716C123.652 154.021 124.081 153.336 124.533 152.668C124.504 152.587 124.48 152.498 124.468 152.396C124.375 151.634 124.353 150.856 124.297 150.09C124.241 149.335 124.185 148.579 124.13 147.823C124.348 147.289 124.584 146.762 124.834 146.245C124.919 147.394 125.002 148.542 125.088 149.691C125.137 150.352 125.186 151.014 125.235 151.674C125.639 151.124 126.062 150.588 126.509 150.068C127.018 149.474 127.554 148.906 128.103 148.352C127.912 146.121 127.72 143.892 127.529 141.661C127.767 141.315 128.012 140.974 128.262 140.635C128.461 142.958 128.661 145.281 128.861 147.605C130.139 146.377 131.479 145.21 132.787 144.013C132.52 141.443 132.203 138.88 131.835 136.324C132.068 136.066 132.306 135.81 132.546 135.556C132.928 138.137 133.256 140.725 133.535 143.32C133.802 143.069 134.067 142.817 134.329 142.562C135.442 141.475 136.521 140.352 137.554 139.188C137.523 139.096 137.503 138.998 137.485 138.901C137.057 136.635 136.521 134.394 135.867 132.184C136.088 131.967 136.31 131.75 136.531 131.533C136.824 132.499 137.095 133.471 137.344 134.45C137.678 135.764 137.97 137.088 138.222 138.42C139.256 137.211 140.236 135.958 141.148 134.655C141.446 134.229 141.737 133.796 142.019 133.356C141.468 131.481 140.89 129.614 140.282 127.758C140.496 127.531 140.709 127.302 140.919 127.071C141.505 128.848 142.065 130.635 142.598 132.428C143.608 130.757 144.495 129.004 145.224 127.194C145.186 127.15 145.157 127.101 145.142 127.05C144.777 125.801 144.412 124.551 144.046 123.301C144.253 123.023 144.456 122.742 144.655 122.459C144.998 123.633 145.341 124.807 145.684 125.982C146.548 123.561 147.122 121.047 147.321 118.487C147.588 118.313 147.98 118.405 148.116 118.739C148.118 118.743 148.119 118.746 148.121 118.749C147.908 121.222 147.358 123.662 146.543 126.014C147.58 125.526 148.603 125.01 149.611 124.468C149.646 124.761 149.677 125.053 149.7 125.346C148.534 125.964 147.349 126.546 146.148 127.093C145.396 129.045 144.465 130.907 143.396 132.688Z" fill="#2E3333"/>
<path d="M149.742 141.87C149.435 141.83 149.126 141.797 148.816 141.768C146.722 141.576 144.597 141.633 142.488 141.916C142.143 141.963 141.799 142.014 141.455 142.072C139.437 142.413 137.442 142.959 135.509 143.69C135.163 143.82 134.819 143.956 134.477 144.098C132.313 145 130.24 146.132 128.318 147.465C127.997 147.687 127.68 147.916 127.369 148.15C125.004 149.92 122.899 152.005 121.175 154.343C120.867 154.76 120.571 155.185 120.29 155.618C119.964 156.116 119.656 156.624 119.365 157.142C118.998 157.798 118.364 158.838 118.233 159.775C118.191 160.079 118.202 160.373 118.292 160.638C118.312 160.694 118.334 160.749 118.361 160.802C119.086 162.265 122.546 162.045 123.944 161.998C124.444 161.981 124.943 161.95 125.439 161.907C126.039 161.856 126.638 161.785 127.232 161.698C129.068 161.428 130.87 160.995 132.642 160.443C133.061 160.313 133.478 160.176 133.893 160.032C133.907 160.028 133.922 160.022 133.937 160.017C135.761 159.385 137.55 158.636 139.305 157.817C139.635 157.664 139.964 157.508 140.292 157.348C141.39 156.819 142.475 156.264 143.547 155.698C143.929 155.496 144.31 155.294 144.69 155.091C144.975 154.938 145.26 154.785 145.545 154.633C147.18 153.756 148.811 152.883 150.479 152.073C150.773 151.93 151.067 151.791 151.363 151.652C151.822 151.437 152.285 151.229 152.751 151.027C153.851 150.551 154.965 150.106 156.096 149.713C156.437 149.594 156.78 149.48 157.124 149.37C157.349 149.299 157.574 149.23 157.799 149.164C158.292 149.018 160.261 148.334 161.659 148.072C161.76 148.053 161.845 148.01 161.914 147.953C162.171 147.741 162.202 147.322 161.911 147.082C161.909 147.079 161.905 147.076 161.902 147.073C160.267 145.717 158.509 144.633 156.667 143.802C156.387 143.676 156.104 143.555 155.82 143.441C153.865 142.651 151.823 142.135 149.742 141.87Z" fill="#FFB888"/>
<path d="M146.541 147.436C147.608 145.58 148.675 143.725 149.742 141.87C149.435 141.831 149.126 141.797 148.816 141.769C147.672 143.756 146.53 145.743 145.387 147.731C143.214 148.32 141.084 149.078 139.003 149.959C139.121 149.636 139.239 149.314 139.361 148.992C139.62 148.305 139.891 147.623 140.172 146.944C140.878 145.238 141.651 143.56 142.488 141.917C142.143 141.964 141.799 142.015 141.455 142.073C141.259 142.465 141.067 142.859 140.878 143.255C140.191 144.696 139.554 146.159 138.966 147.642C138.677 148.373 138.399 149.107 138.134 149.846C138.069 150.026 137.978 150.224 137.934 150.425C136.182 151.209 134.467 152.074 132.796 152.997C132.75 153.022 132.705 153.049 132.659 153.074C133.551 149.928 134.5 146.8 135.508 143.691C135.162 143.821 134.818 143.957 134.476 144.099C133.457 147.271 132.498 150.464 131.6 153.672C130.02 154.583 128.462 155.542 126.866 156.424C127.456 153.456 127.94 150.468 128.317 147.466C127.996 147.688 127.679 147.917 127.368 148.151C126.98 151.099 126.488 154.034 125.894 156.947C124.853 157.493 123.79 157.997 122.689 158.424C122.186 158.619 121.678 158.797 121.165 158.964C121.143 158.637 121.152 158.303 121.146 157.978C121.125 156.766 121.135 155.554 121.175 154.343C120.867 154.76 120.571 155.185 120.29 155.618C120.274 156.63 120.281 157.643 120.309 158.655C120.315 158.852 120.32 159.042 120.343 159.218C119.646 159.425 118.942 159.608 118.233 159.775C118.191 160.079 118.202 160.372 118.292 160.638C119.114 160.447 119.93 160.234 120.737 159.992C120.808 160.048 120.89 160.098 120.987 160.142C121.717 160.472 122.486 160.738 123.231 161.033C123.967 161.325 124.702 161.616 125.438 161.907C126.039 161.856 126.637 161.785 127.231 161.698C126.113 161.255 124.994 160.813 123.875 160.369C123.232 160.113 122.589 159.858 121.946 159.603C122.62 159.371 123.287 159.116 123.945 158.834C124.695 158.511 125.429 158.155 126.152 157.781C128.315 158.668 130.477 159.556 132.641 160.443C133.06 160.313 133.477 160.175 133.892 160.032C131.639 159.109 129.386 158.184 127.132 157.26C128.755 156.37 130.337 155.398 131.938 154.468C134.416 155.537 136.871 156.653 139.304 157.818C139.634 157.665 139.963 157.509 140.291 157.349C137.839 156.163 135.361 155.027 132.863 153.94C133.196 153.751 133.529 153.566 133.866 153.385C135.297 152.615 136.753 151.89 138.235 151.225C138.318 151.283 138.408 151.334 138.5 151.383C140.624 152.517 142.691 153.751 144.69 155.093C144.975 154.94 145.26 154.787 145.545 154.634C144.674 154.041 143.79 153.468 142.892 152.913C141.687 152.171 140.458 151.466 139.21 150.799C140.738 150.147 142.292 149.56 143.876 149.059C144.393 148.894 144.915 148.74 145.442 148.596C147.139 149.73 148.819 150.889 150.479 152.075C150.773 151.932 151.067 151.793 151.363 151.654C149.774 150.516 148.168 149.4 146.547 148.308C148.528 147.824 150.552 147.486 152.584 147.325C152.615 147.377 152.654 147.421 152.7 147.452C153.831 148.205 154.964 148.96 156.096 149.714C156.437 149.595 156.78 149.481 157.124 149.371C156.061 148.663 154.998 147.954 153.933 147.245C156.615 147.141 159.3 147.352 161.913 147.954C162.17 147.742 162.201 147.323 161.911 147.083C161.908 147.08 161.904 147.077 161.901 147.074C159.37 146.514 156.766 146.301 154.169 146.379C154.978 145.498 155.812 144.64 156.666 143.804C156.386 143.678 156.103 143.557 155.819 143.443C154.839 144.411 153.889 145.411 152.968 146.436C150.796 146.578 148.65 146.925 146.541 147.436Z" fill="#2E3333"/>
<path d="M34.5545 49.9288L22.9102 43.9648L32.5662 51.0647L26.8867 54.7568L22.9102 43.9648L39.4008 47.3735L34.5545 49.9288Z" fill="#F4BD42"/>
<path d="M32.5662 51.0647L33.6848 54.7568L34.5545 49.9288L22.9102 43.9648L32.5662 51.0647Z" fill="#F6A731"/>
<path d="M32.566 51.0645L33.7018 54.7566L30.3374 52.5136L32.566 51.0645Z" fill="#E78800"/>
<path d="M35.4859 55.4797C35.4523 55.4797 35.4186 55.473 35.386 55.4576C35.2091 55.3759 35.0342 55.2952 34.8622 55.2155C34.7421 55.1597 34.6892 55.0165 34.7459 54.8964C34.8017 54.7763 34.9449 54.7234 35.065 54.7801C35.237 54.8599 35.4109 54.9406 35.5878 55.0213C35.7079 55.0771 35.7608 55.2193 35.706 55.3404C35.6637 55.4278 35.5762 55.4797 35.4859 55.4797Z" fill="#2E3333"/>
<path d="M135.813 74.2003C135.68 74.2003 135.573 74.0927 135.573 73.961C135.573 73.8284 135.679 73.7208 135.812 73.7198C136.191 73.7188 136.575 73.7112 136.953 73.6977C137.082 73.6919 137.197 73.7967 137.201 73.9283C137.206 74.061 137.102 74.1724 136.97 74.1772C136.587 74.1926 136.198 74.2003 135.813 74.2003ZM134.663 74.183C134.661 74.183 134.658 74.183 134.656 74.183C134.269 74.1705 133.88 74.1503 133.499 74.1244C133.366 74.1148 133.266 74.0004 133.276 73.8678C133.285 73.7352 133.4 73.6362 133.532 73.6448C133.908 73.6708 134.292 73.691 134.672 73.7035C134.805 73.7083 134.908 73.8188 134.905 73.9514C134.899 74.0802 134.792 74.183 134.663 74.183ZM138.11 74.1148C137.985 74.1148 137.88 74.0187 137.87 73.8918C137.861 73.7592 137.96 73.6448 138.092 73.6352C138.475 73.6074 138.856 73.5728 139.228 73.5314C139.359 73.517 139.479 73.6122 139.493 73.7438C139.508 73.8755 139.413 73.9946 139.281 74.0091C138.903 74.0504 138.515 74.0859 138.128 74.1138C138.121 74.1148 138.115 74.1148 138.11 74.1148ZM132.37 74.0235C132.362 74.0235 132.353 74.0235 132.345 74.0225C131.96 73.9812 131.574 73.9331 131.195 73.8774C131.064 73.8582 130.973 73.7361 130.992 73.6054C131.012 73.4738 131.134 73.3825 131.264 73.4027C131.637 73.4565 132.018 73.5045 132.395 73.5449C132.527 73.5593 132.623 73.6775 132.609 73.8092C132.595 73.9322 132.492 74.0235 132.37 74.0235ZM140.394 73.862C140.278 73.862 140.175 73.7765 140.156 73.6583C140.136 73.5276 140.227 73.4046 140.357 73.3844C140.931 73.297 141.266 73.2239 141.303 73.2162C141.359 73.2037 141.415 73.1913 141.471 73.1788C141.601 73.149 141.73 73.2307 141.758 73.3594C141.788 73.4892 141.707 73.6179 141.578 73.6468C141.521 73.6593 141.463 73.6727 141.407 73.6852C141.344 73.6987 141.006 73.7717 140.43 73.8591C140.418 73.8611 140.406 73.862 140.394 73.862ZM130.096 73.6919C130.081 73.6919 130.066 73.691 130.052 73.6881C129.671 73.617 129.29 73.5382 128.917 73.4517C128.787 73.4219 128.706 73.2931 128.736 73.1634C128.766 73.0337 128.895 72.9529 129.024 72.9827C129.39 73.0673 129.766 73.1451 130.14 73.2143C130.271 73.2383 130.356 73.3642 130.332 73.4949C130.31 73.6112 130.209 73.6919 130.096 73.6919ZM142.639 73.3719C142.533 73.3719 142.437 73.3018 142.407 73.1951C142.372 73.0673 142.447 72.9347 142.575 72.8991C142.94 72.7982 143.307 72.6887 143.665 72.5714C143.791 72.5301 143.926 72.5993 143.968 72.7252C144.009 72.8511 143.94 72.9866 143.813 73.0279C143.447 73.1471 143.073 73.2595 142.702 73.3614C142.682 73.369 142.66 73.3719 142.639 73.3719ZM127.856 73.1759C127.835 73.1759 127.813 73.173 127.791 73.1672C127.418 73.0644 127.044 72.952 126.68 72.8338C126.555 72.7924 126.485 72.6569 126.526 72.5311C126.567 72.4052 126.703 72.336 126.828 72.3763C127.185 72.4926 127.552 72.6022 127.919 72.7031C128.047 72.7386 128.122 72.8703 128.087 72.9981C128.058 73.1067 127.961 73.1759 127.856 73.1759ZM144.825 72.6627C144.728 72.6627 144.637 72.6031 144.6 72.507C144.553 72.3831 144.616 72.2447 144.74 72.1976C145.094 72.065 145.45 71.9227 145.797 71.7738C145.92 71.7219 146.061 71.7786 146.113 71.9006C146.165 72.0227 146.108 72.164 145.986 72.2158C145.631 72.3667 145.269 72.5118 144.91 72.6473C144.882 72.6569 144.853 72.6627 144.825 72.6627ZM125.67 72.4657C125.643 72.4657 125.614 72.4609 125.586 72.4503C125.225 72.3139 124.862 72.1678 124.51 72.015C124.388 71.9621 124.332 71.8209 124.385 71.6988C124.437 71.5768 124.579 71.521 124.701 71.5739C125.046 71.7238 125.401 71.867 125.755 72.0006C125.879 72.0477 125.941 72.1861 125.895 72.31C125.859 72.4071 125.767 72.4657 125.67 72.4657ZM146.938 71.7613C146.849 71.7613 146.762 71.7113 146.721 71.6248C146.663 71.5047 146.714 71.3615 146.833 71.3039C147.174 71.1415 147.515 70.9685 147.85 70.7897C147.967 70.7273 148.113 70.7715 148.175 70.8887C148.237 71.006 148.193 71.1511 148.076 71.2135C147.736 71.3952 147.387 71.571 147.041 71.7373C147.008 71.7536 146.974 71.7613 146.938 71.7613ZM123.562 71.5528C123.526 71.5528 123.49 71.5451 123.456 71.5278C123.109 71.3567 122.763 71.1751 122.428 70.9877C122.312 70.9233 122.27 70.7763 122.336 70.661C122.4 70.5447 122.547 70.5034 122.663 70.5687C122.99 70.7523 123.329 70.93 123.669 71.0972C123.788 71.1559 123.837 71.3 123.778 71.4192C123.735 71.5037 123.65 71.5528 123.562 71.5528ZM148.967 70.6802C148.884 70.6802 148.804 70.6379 148.759 70.562C148.692 70.4476 148.73 70.3006 148.845 70.2333C149.17 70.0421 149.496 69.8403 149.814 69.6346C149.926 69.5625 150.075 69.5943 150.147 69.7057C150.219 69.8172 150.187 69.9662 150.076 70.0382C149.752 70.2477 149.42 70.4524 149.089 70.6475C149.05 70.6696 149.008 70.6802 148.967 70.6802ZM121.556 70.4332C121.512 70.4332 121.468 70.4217 121.429 70.3967C121.102 70.192 120.777 69.9748 120.462 69.7528C120.353 69.6759 120.327 69.526 120.404 69.4184C120.481 69.3098 120.631 69.2839 120.739 69.3607C121.047 69.5779 121.365 69.7903 121.684 69.9902C121.797 70.0603 121.83 70.2093 121.76 70.3217C121.714 70.3928 121.636 70.4332 121.556 70.4332ZM150.897 69.4318C150.822 69.4318 150.747 69.3963 150.7 69.33C150.624 69.2214 150.65 69.0715 150.758 68.9956C151.067 68.7774 151.375 68.5497 151.675 68.319C151.781 68.2383 151.931 68.2575 152.012 68.3623C152.093 68.467 152.074 68.6179 151.969 68.6996C151.664 68.9341 151.351 69.1657 151.037 69.3886C150.993 69.4174 150.945 69.4318 150.897 69.4318ZM119.679 69.109C119.627 69.109 119.574 69.0926 119.531 69.0571C119.228 68.8187 118.927 68.5689 118.638 68.3142C118.538 68.2268 118.528 68.0749 118.616 67.975C118.703 67.875 118.855 67.8654 118.955 67.9529C119.239 68.2018 119.533 68.4459 119.829 68.6794C119.932 68.7611 119.951 68.9129 119.869 69.0167C119.82 69.0782 119.75 69.109 119.679 69.109ZM117.954 67.5944C117.893 67.5944 117.833 67.5714 117.785 67.5262C117.605 67.3494 117.425 67.1677 117.25 66.9852C117.158 66.8891 117.067 66.791 116.975 66.693C116.885 66.596 116.892 66.4432 116.989 66.3538C117.086 66.2635 117.238 66.2702 117.328 66.3672C117.417 66.4633 117.507 66.5594 117.597 66.6536C117.767 66.8324 117.943 67.0101 118.12 67.1822C118.215 67.2744 118.217 67.4272 118.124 67.5224C118.078 67.5694 118.015 67.5944 117.954 67.5944ZM86.5695 67.4733H86.5686C86.1842 67.4714 85.8008 67.4676 85.4183 67.4618C85.2857 67.4599 85.1799 67.3503 85.1819 67.2177C85.1838 67.0861 85.2914 66.9813 85.4221 66.9813C85.4231 66.9813 85.425 66.9813 85.4259 66.9813C85.8065 66.9871 86.189 66.9909 86.5715 66.9928C86.7041 66.9938 86.8117 67.1014 86.8108 67.2341C86.8088 67.3667 86.7022 67.4733 86.5695 67.4733ZM87.7179 67.4724C87.5863 67.4724 87.4786 67.3657 87.4777 67.2341C87.4767 67.1014 87.5834 66.9928 87.716 66.9919C88.0975 66.989 88.4829 66.9842 88.8615 66.9775C88.9903 66.9746 89.1037 67.0803 89.1056 67.2139C89.1075 67.3465 89.0018 67.456 88.8692 67.458C88.4886 67.4647 88.1023 67.4695 87.7179 67.4724ZM84.2728 67.4378C84.2708 67.4378 84.2689 67.4378 84.266 67.4378C83.8816 67.4282 83.4972 67.4157 83.1148 67.4013C82.9821 67.3965 82.8784 67.285 82.8832 67.1524C82.888 67.0198 82.9975 66.916 83.1321 66.9208C83.5126 66.9352 83.8951 66.9467 84.2785 66.9573C84.4111 66.9611 84.5159 67.0707 84.512 67.2033C84.5092 67.335 84.4025 67.4378 84.2728 67.4378ZM90.0137 67.4311C89.884 67.4311 89.7773 67.3282 89.7735 67.1975C89.7696 67.0649 89.8744 66.9544 90.007 66.9506C90.3876 66.94 90.7691 66.9265 91.1516 66.9112C91.2861 66.9064 91.3957 67.0092 91.4014 67.1418C91.4072 67.2744 91.3034 67.3859 91.1708 67.3917C90.7864 67.407 90.4029 67.4205 90.0205 67.4311C90.0185 67.4311 90.0157 67.4311 90.0137 67.4311ZM81.976 67.3532C81.9721 67.3532 81.9683 67.3532 81.9645 67.3532C81.5801 67.335 81.1966 67.3148 80.8141 67.2917C80.6815 67.284 80.5806 67.1706 80.5883 67.038C80.596 66.9054 80.7084 66.8045 80.842 66.8122C81.2226 66.8343 81.6041 66.8545 81.9875 66.8737C82.1201 66.8804 82.222 66.9928 82.2162 67.1255C82.2095 67.2533 82.1028 67.3532 81.976 67.3532ZM92.3076 67.3388C92.1808 67.3388 92.0741 67.2389 92.0674 67.1111C92.0607 66.9784 92.1625 66.866 92.2951 66.8583C92.6757 66.8391 93.0601 66.817 93.4387 66.793C93.5723 66.7843 93.6857 66.8852 93.6934 67.0178C93.702 67.1504 93.6011 67.2648 93.4685 67.2725C93.088 67.2965 92.7016 67.3186 92.3191 67.3378C92.3163 67.3388 92.3124 67.3388 92.3076 67.3388ZM79.6811 67.2187C79.6754 67.2187 79.6696 67.2187 79.6638 67.2177C79.2794 67.1908 78.897 67.1629 78.5154 67.1322C78.3828 67.1216 78.2848 67.0063 78.2954 66.8737C78.306 66.7411 78.4222 66.643 78.5539 66.6536C78.9335 66.6844 79.315 66.7122 79.6975 66.7391C79.8301 66.7488 79.93 66.8631 79.9204 66.9957C79.9118 67.1216 79.8061 67.2187 79.6811 67.2187ZM94.5996 67.1947C94.4747 67.1947 94.3699 67.0986 94.3603 66.9727C94.3507 66.8401 94.4497 66.7247 94.5823 66.7151C94.9619 66.6873 95.3453 66.6565 95.724 66.6238C95.8547 66.6123 95.9729 66.7103 95.9844 66.8429C95.9959 66.9755 95.8979 67.0918 95.7653 67.1034C95.3847 67.136 94.9994 67.1668 94.6179 67.1956C94.6121 67.1947 94.6054 67.1947 94.5996 67.1947ZM77.3901 67.0351C77.3824 67.0351 77.3757 67.0351 77.368 67.0342C76.9846 66.9996 76.6021 66.9631 76.2216 66.9246C76.0899 66.9112 75.9928 66.7939 76.0063 66.6613C76.0198 66.5297 76.138 66.4326 76.2696 66.446C76.6492 66.4845 77.0298 66.521 77.4113 66.5556C77.5439 66.5671 77.6409 66.6844 77.6285 66.816C77.6179 66.9419 77.5131 67.0351 77.3901 67.0351ZM96.8877 66.9977C96.7657 66.9977 96.6609 66.9044 96.6484 66.7805C96.6359 66.6488 96.732 66.5306 96.8647 66.5181C97.2442 66.4806 97.6277 66.4412 98.0044 66.3999C98.1351 66.3855 98.2552 66.4806 98.2696 66.6123C98.2841 66.744 98.1889 66.8631 98.0573 66.8775C97.6786 66.9189 97.2942 66.9592 96.9127 66.9957C96.9031 66.9977 96.8954 66.9977 96.8877 66.9977ZM75.103 66.8045C75.0943 66.8045 75.0847 66.8035 75.076 66.8026C74.6936 66.7603 74.3121 66.7151 73.9315 66.669C73.7998 66.6527 73.7057 66.5335 73.722 66.4018C73.7383 66.2702 73.8575 66.176 73.9892 66.1923C74.3678 66.2385 74.7474 66.2827 75.1279 66.325C75.2596 66.3394 75.3547 66.4585 75.3403 66.5902C75.3278 66.7142 75.224 66.8045 75.103 66.8045ZM99.1701 66.7478C99.05 66.7478 98.9462 66.6584 98.9318 66.5364C98.9154 66.4047 99.0096 66.2846 99.1412 66.2692C99.517 66.2241 99.8995 66.175 100.277 66.1251C100.409 66.1068 100.529 66.2 100.547 66.3317C100.564 66.4633 100.472 66.5844 100.341 66.6017C99.961 66.6527 99.5766 66.7007 99.1989 66.7468C99.1893 66.7478 99.1797 66.7478 99.1701 66.7478ZM72.8216 66.5277C72.811 66.5277 72.8004 66.5268 72.7898 66.5258C72.4083 66.4758 72.0278 66.423 71.6491 66.3692C71.5175 66.3509 71.4262 66.2289 71.4454 66.0972C71.4646 65.9655 71.5857 65.8742 71.7174 65.8935C72.0951 65.9473 72.4737 65.9992 72.8542 66.0492C72.9859 66.0665 73.0781 66.1875 73.0608 66.3192C73.0436 66.4393 72.9398 66.5277 72.8216 66.5277ZM101.446 66.4451C101.328 66.4451 101.226 66.3586 101.208 66.2394C101.189 66.1078 101.28 65.9867 101.412 65.9675C101.787 65.9127 102.167 65.856 102.544 65.7964C102.676 65.7762 102.798 65.8656 102.819 65.9963C102.839 66.127 102.75 66.25 102.619 66.2711C102.24 66.3307 101.858 66.3884 101.481 66.4432C101.469 66.4451 101.457 66.4451 101.446 66.4451ZM70.545 66.2039C70.5334 66.2039 70.5209 66.2029 70.5084 66.201C70.1279 66.1433 69.7483 66.0828 69.3706 66.0222C69.2399 66.0011 69.1506 65.8771 69.1717 65.7464C69.1929 65.6157 69.3159 65.5264 69.4475 65.5475C69.8233 65.609 70.2009 65.6676 70.5805 65.7263C70.7122 65.7464 70.8016 65.8685 70.7823 66.0001C70.765 66.1183 70.6622 66.2039 70.545 66.2039ZM103.715 66.0895C103.599 66.0895 103.497 66.0069 103.478 65.8896C103.456 65.7589 103.545 65.635 103.675 65.6129C104.051 65.5494 104.431 65.4831 104.803 65.4149C104.933 65.3909 105.059 65.4774 105.083 65.6081C105.107 65.7388 105.02 65.8637 104.89 65.8877C104.515 65.9559 104.134 66.0222 103.757 66.0866C103.741 66.0886 103.728 66.0895 103.715 66.0895ZM116.395 65.906C116.327 65.906 116.258 65.8771 116.21 65.8195C115.966 65.5283 115.723 65.2227 115.487 64.9123C115.406 64.8066 115.427 64.6557 115.532 64.576C115.638 64.4952 115.789 64.5164 115.868 64.6211C116.1 64.9257 116.339 65.2246 116.578 65.511C116.664 65.6129 116.651 65.7647 116.549 65.8493C116.504 65.8877 116.449 65.906 116.395 65.906ZM68.2761 65.8358C68.2626 65.8358 68.2492 65.8349 68.2347 65.832C67.8552 65.7666 67.4765 65.6994 67.1008 65.6311C66.9701 65.6071 66.8836 65.4822 66.9076 65.3515C66.9316 65.2208 67.0575 65.1352 67.1873 65.1583C67.562 65.2265 67.9388 65.2938 68.3164 65.3592C68.4471 65.3813 68.5346 65.5062 68.5125 65.6369C68.4933 65.7532 68.3914 65.8358 68.2761 65.8358ZM105.973 65.6801C105.861 65.6801 105.76 65.6004 105.738 65.485C105.713 65.3544 105.797 65.2285 105.928 65.2035C106.3 65.1314 106.677 65.0564 107.05 64.9796C107.18 64.9527 107.307 65.0363 107.334 65.166C107.361 65.2957 107.277 65.4226 107.146 65.4495C106.771 65.5264 106.391 65.6023 106.018 65.6744C106.004 65.6792 105.988 65.6801 105.973 65.6801ZM66.0148 65.4226C65.9995 65.4226 65.9841 65.4216 65.9687 65.4178C65.5901 65.3447 65.2134 65.2707 64.8386 65.1948C64.7088 65.1689 64.6243 65.042 64.6512 64.9113C64.6771 64.7816 64.804 64.697 64.9347 64.7239C65.3075 64.7999 65.6833 64.8739 66.06 64.9459C66.1907 64.9709 66.2753 65.0968 66.2503 65.2275C66.2291 65.3428 66.1282 65.4226 66.0148 65.4226ZM108.222 65.2179C108.111 65.2179 108.012 65.141 107.987 65.0286C107.959 64.8988 108.041 64.771 108.171 64.7422C108.543 64.6615 108.918 64.5769 109.288 64.4914C109.417 64.4616 109.547 64.5423 109.577 64.6711C109.606 64.8008 109.526 64.9296 109.397 64.9594C109.025 65.0449 108.647 65.1295 108.275 65.2112C108.256 65.216 108.239 65.2179 108.222 65.2179ZM63.7623 64.9671C63.7459 64.9671 63.7286 64.9652 63.7123 64.9613C63.3356 64.8815 62.9598 64.7999 62.587 64.7172C62.4572 64.6884 62.3756 64.5606 62.4044 64.4308C62.4332 64.3011 62.561 64.2194 62.6908 64.2482C63.0627 64.3309 63.4365 64.4116 63.8122 64.4914C63.942 64.5192 64.0246 64.6461 63.9977 64.7758C63.9727 64.8892 63.8728 64.9671 63.7623 64.9671ZM110.459 64.7018C110.35 64.7018 110.252 64.6278 110.225 64.5183C110.194 64.3895 110.273 64.2598 110.402 64.2281C110.773 64.1377 111.147 64.0445 111.513 63.9513C111.642 63.9186 111.773 63.9955 111.805 64.1243C111.838 64.2531 111.761 64.3837 111.632 64.4164C111.264 64.5106 110.888 64.6048 110.516 64.6951C110.497 64.6999 110.478 64.7018 110.459 64.7018ZM61.5184 64.4683C61.5001 64.4683 61.4818 64.4664 61.4636 64.4616C61.0878 64.3741 60.714 64.2857 60.3431 64.1964C60.2143 64.1656 60.1345 64.0349 60.1662 63.9061C60.197 63.7774 60.3267 63.6976 60.4565 63.7293C60.8264 63.8187 61.1983 63.9071 61.5731 63.9936C61.7029 64.0234 61.7826 64.1531 61.7528 64.2819C61.7259 64.3934 61.6269 64.4683 61.5184 64.4683ZM112.685 64.1339C112.577 64.1339 112.48 64.0618 112.452 63.9523C112.419 63.8235 112.497 63.6928 112.626 63.6601C112.972 63.5727 113.344 63.491 113.764 63.4122C113.894 63.3882 114.019 63.4737 114.044 63.6034C114.068 63.7341 113.983 63.859 113.853 63.884C113.444 63.9609 113.08 64.0397 112.744 64.1252C112.724 64.131 112.705 64.1339 112.685 64.1339ZM115.001 64.0791C114.925 64.0791 114.85 64.0436 114.804 63.9763C114.585 63.663 114.369 63.3391 114.16 63.0114C114.089 62.9 114.121 62.751 114.233 62.6799C114.345 62.6088 114.493 62.6415 114.564 62.7529C114.666 62.9125 114.769 63.0701 114.874 63.2267C114.884 63.2238 114.894 63.2219 114.904 63.22C115.303 63.1585 115.705 63.1018 116.046 63.0547C116.178 63.0364 116.299 63.1287 116.317 63.2594C116.335 63.391 116.243 63.5121 116.112 63.5304C115.829 63.5698 115.503 63.6159 115.173 63.6649C115.181 63.6765 115.189 63.689 115.198 63.7005C115.273 63.8091 115.247 63.959 115.138 64.0349C115.096 64.0647 115.048 64.0791 115.001 64.0791ZM59.284 63.9282C59.2648 63.9282 59.2446 63.9263 59.2254 63.9206C58.8516 63.8264 58.4797 63.7312 58.1097 63.6351C57.9809 63.6015 57.9041 63.4708 57.9377 63.342C57.9713 63.2133 58.102 63.1364 58.2308 63.17C58.5989 63.2661 58.9698 63.3613 59.3417 63.4545C59.4705 63.4871 59.5483 63.6169 59.5166 63.7456C59.4887 63.8552 59.3907 63.9282 59.284 63.9282ZM117.219 63.3757C117.1 63.3757 116.997 63.2892 116.981 63.1691C116.963 63.0374 117.054 62.9163 117.186 62.8981C117.629 62.8356 117.989 62.7837 118.32 62.7318C118.451 62.7116 118.574 62.801 118.594 62.9326C118.614 63.0633 118.524 63.1864 118.393 63.2065C118.06 63.2584 117.698 63.3113 117.252 63.3737C117.241 63.3747 117.23 63.3757 117.219 63.3757ZM57.0593 63.3478C57.0382 63.3478 57.0171 63.3449 56.9969 63.3392C56.624 63.2382 56.254 63.1364 55.8869 63.0336C55.7591 62.998 55.6842 62.8654 55.7207 62.7376C55.7562 62.6098 55.8889 62.5358 56.0167 62.5713C56.3828 62.6741 56.7518 62.776 57.1228 62.876C57.2506 62.9105 57.3265 63.0422 57.2919 63.171C57.2621 63.2776 57.1651 63.3478 57.0593 63.3478ZM119.49 63.0191C119.377 63.0191 119.275 62.9384 119.254 62.8221C119.23 62.6914 119.316 62.5665 119.447 62.5425C119.845 62.4694 120.21 62.3964 120.565 62.3167C120.693 62.2878 120.822 62.3695 120.852 62.4983C120.881 62.628 120.799 62.7558 120.67 62.7856C120.31 62.8663 119.938 62.9413 119.535 63.0153C119.519 63.0182 119.505 63.0191 119.49 63.0191ZM54.8462 62.727C54.8241 62.727 54.802 62.7241 54.7789 62.7174C54.408 62.6098 54.0399 62.5012 53.6747 62.3916C53.5479 62.3532 53.4758 62.2196 53.5133 62.0927C53.5517 61.9659 53.6853 61.8929 53.8121 61.9313C54.1764 62.0399 54.5435 62.1485 54.9125 62.2551C55.0403 62.2917 55.1133 62.4252 55.0768 62.5531C55.0461 62.6588 54.95 62.727 54.8462 62.727ZM121.732 62.5127C121.628 62.5127 121.53 62.4435 121.501 62.3368C121.465 62.209 121.539 62.0764 121.667 62.0408C122.043 61.9351 122.406 61.8208 122.748 61.6997C122.873 61.6555 123.01 61.7208 123.055 61.8458C123.099 61.9707 123.033 62.1081 122.909 62.1523C122.557 62.2773 122.183 62.3945 121.797 62.5031C121.776 62.5098 121.753 62.5127 121.732 62.5127ZM113.764 62.1408C113.681 62.1408 113.6 62.0985 113.556 62.0216C113.362 61.6891 113.172 61.3489 112.991 61.0097C112.929 60.8925 112.973 60.7474 113.09 60.6849C113.207 60.6224 113.352 60.6666 113.415 60.7839C113.593 61.1173 113.78 61.4527 113.97 61.7795C114.038 61.8938 113.998 62.0408 113.884 62.1081C113.846 62.1302 113.805 62.1408 113.764 62.1408ZM52.6436 62.0678C52.6196 62.0678 52.5965 62.0639 52.5725 62.0572C52.2035 61.9428 51.8373 61.8285 51.4741 61.7122C51.3472 61.6718 51.278 61.5363 51.3184 61.4104C51.3587 61.2836 51.4933 61.2144 51.6201 61.2548C51.9824 61.3701 52.3466 61.4844 52.7147 61.5978C52.8415 61.6372 52.9127 61.7718 52.8733 61.8986C52.8406 62.0014 52.7454 62.0678 52.6436 62.0678ZM123.895 61.7401C123.804 61.7401 123.716 61.6872 123.676 61.5988C123.622 61.4777 123.675 61.3355 123.797 61.2807C124.146 61.1231 124.484 60.952 124.799 60.7704C124.914 60.7041 125.061 60.7445 125.127 60.8588C125.193 60.9741 125.152 61.1212 125.038 61.1865C124.709 61.3749 124.358 61.5546 123.994 61.718C123.962 61.7333 123.928 61.7401 123.895 61.7401ZM50.4525 61.3701C50.4275 61.3701 50.4025 61.3662 50.3776 61.3585C50.0105 61.2384 49.6462 61.1164 49.2849 60.9953C49.159 60.953 49.0918 60.8165 49.134 60.6907C49.1763 60.5648 49.3128 60.4975 49.4387 60.5398C49.7981 60.6609 50.1613 60.7819 50.5275 60.9021C50.6534 60.9434 50.7226 61.0789 50.6812 61.2048C50.6476 61.3057 50.5544 61.3701 50.4525 61.3701ZM48.2749 60.6349C48.249 60.6349 48.2221 60.6311 48.1961 60.6215C47.8309 60.4946 47.4686 60.3668 47.1102 60.2399C46.9852 60.1957 46.9199 60.0583 46.9641 59.9334C47.0083 59.8085 47.1457 59.7431 47.2707 59.7873C47.6282 59.9142 47.9885 60.042 48.3527 60.1679C48.4777 60.2111 48.5449 60.3485 48.5007 60.4735C48.4671 60.5725 48.3739 60.6349 48.2749 60.6349ZM125.881 60.5936C125.807 60.5936 125.734 60.56 125.687 60.4956C125.608 60.3889 125.631 60.238 125.739 60.1602C126.041 59.9382 126.331 59.6979 126.599 59.4452C126.696 59.3539 126.848 59.3587 126.938 59.4558C127.029 59.5528 127.024 59.7047 126.927 59.795C126.645 60.0602 126.341 60.3139 126.022 60.5475C125.98 60.5792 125.93 60.5936 125.881 60.5936ZM112.682 60.1121C112.592 60.1121 112.507 60.0622 112.465 59.9766C112.297 59.6297 112.134 59.2761 111.98 58.9243C111.927 58.8033 111.982 58.661 112.104 58.6082C112.225 58.5553 112.367 58.6101 112.42 58.7321C112.572 59.0781 112.733 59.426 112.898 59.7671C112.956 59.8863 112.906 60.0304 112.786 60.0881C112.753 60.1044 112.717 60.1121 112.682 60.1121ZM46.1088 59.8632C46.081 59.8632 46.0531 59.8584 46.0262 59.8488C45.662 59.7152 45.3025 59.5826 44.946 59.449C44.822 59.4029 44.7586 59.2636 44.8057 59.1396C44.8528 59.0156 44.9912 58.9522 45.1152 58.9993C45.4698 59.1329 45.8282 59.2655 46.1915 59.3981C46.3164 59.4433 46.3798 59.5817 46.3347 59.7066C46.2991 59.8027 46.2069 59.8632 46.1088 59.8632ZM43.9562 59.056C43.9274 59.056 43.8985 59.0512 43.8697 59.0397C43.5074 58.9003 43.1499 58.761 42.7963 58.6216C42.6733 58.5726 42.6118 58.4333 42.6608 58.3103C42.7098 58.1873 42.8491 58.1258 42.9721 58.1748C43.3239 58.3132 43.6804 58.4525 44.0417 58.5909C44.1657 58.6389 44.2272 58.7773 44.1801 58.9013C44.1436 58.9974 44.0533 59.056 43.9562 59.056ZM127.547 59.0233C127.493 59.0233 127.44 59.0051 127.394 58.9685C127.292 58.884 127.277 58.7331 127.362 58.6303C127.446 58.5275 127.531 58.4208 127.612 58.3132C127.752 58.1258 127.891 57.9278 128.025 57.725C128.098 57.6135 128.247 57.5828 128.357 57.6558C128.469 57.7289 128.5 57.8778 128.427 57.9883C128.288 58.2007 128.143 58.4064 127.996 58.6024C127.911 58.7158 127.822 58.8282 127.733 58.9368C127.685 58.9935 127.616 59.0233 127.547 59.0233ZM41.817 58.2132C41.7872 58.2132 41.7565 58.2074 41.7277 58.1959C41.3673 58.0508 41.0117 57.9057 40.6619 57.7606C40.5389 57.7097 40.4812 57.5693 40.5312 57.4463C40.5822 57.3233 40.7225 57.2657 40.8445 57.3156C41.1933 57.4598 41.5479 57.6049 41.9074 57.749C42.0304 57.799 42.0899 57.9384 42.04 58.0614C42.0025 58.1555 41.9122 58.2132 41.817 58.2132ZM111.76 58.0076C111.664 58.0076 111.574 57.9499 111.536 57.8548C111.395 57.4944 111.26 57.1282 111.135 56.7669C111.092 56.641 111.158 56.5046 111.284 56.4613C111.41 56.4181 111.547 56.4844 111.59 56.6103C111.713 56.9658 111.845 57.3253 111.984 57.6799C112.032 57.8038 111.971 57.9432 111.848 57.9912C111.819 58.0018 111.789 58.0076 111.76 58.0076ZM39.6923 57.3349C39.6615 57.3349 39.6298 57.3291 39.5991 57.3156C39.2406 57.1638 38.887 57.0129 38.54 56.863C38.418 56.8102 38.3623 56.6689 38.4151 56.5469C38.468 56.4248 38.6092 56.3691 38.7313 56.4219C39.0772 56.5709 39.429 56.7217 39.7864 56.8726C39.9085 56.9245 39.9662 57.0648 39.9143 57.1878C39.8749 57.2801 39.7855 57.3349 39.6923 57.3349ZM128.81 57.1071C128.772 57.1071 128.733 57.0985 128.698 57.0792C128.58 57.0168 128.536 56.8717 128.599 56.7544C128.773 56.4277 128.937 56.0846 129.087 55.7358C129.14 55.6137 129.281 55.558 129.402 55.6099C129.524 55.6627 129.58 55.804 129.528 55.9251C129.372 56.2864 129.203 56.641 129.022 56.9793C128.979 57.061 128.896 57.1071 128.81 57.1071ZM37.581 56.4238C37.5483 56.4238 37.5156 56.4171 37.4839 56.4037C37.1264 56.2461 36.7757 56.0894 36.4326 55.9347C36.3115 55.8799 36.2577 55.7377 36.3125 55.6166C36.3672 55.4955 36.5095 55.4417 36.6305 55.4965C36.9727 55.6512 37.3225 55.8069 37.679 55.9635C37.8001 56.0173 37.8558 56.1586 37.802 56.2807C37.7616 56.37 37.6732 56.4238 37.581 56.4238ZM111.011 55.8338C110.908 55.8338 110.813 55.7665 110.781 55.6618C110.669 55.287 110.567 54.9103 110.475 54.5422C110.444 54.4134 110.521 54.2827 110.65 54.251C110.779 54.2184 110.91 54.2972 110.941 54.4259C111.031 54.7873 111.132 55.1573 111.241 55.5244C111.279 55.6512 111.207 55.7848 111.08 55.8232C111.057 55.8309 111.034 55.8338 111.011 55.8338ZM129.718 54.9987C129.692 54.9987 129.666 54.9948 129.641 54.9862C129.515 54.9439 129.448 54.8074 129.491 54.6816C129.611 54.326 129.72 53.9618 129.812 53.5976C129.845 53.4688 129.976 53.3909 130.104 53.4246C130.233 53.4573 130.311 53.5879 130.277 53.7167C130.181 54.0925 130.07 54.4692 129.945 54.8363C129.912 54.9353 129.818 54.9987 129.718 54.9987ZM110.459 53.6033C110.346 53.6033 110.246 53.5236 110.223 53.4092C110.148 53.0248 110.083 52.6394 110.03 52.2627C110.012 52.1311 110.103 52.01 110.235 51.9917C110.367 51.9735 110.488 52.0648 110.506 52.1964C110.558 52.5645 110.621 52.9412 110.695 53.3169C110.721 53.4467 110.636 53.5735 110.506 53.5985C110.49 53.6014 110.474 53.6033 110.459 53.6033ZM130.285 52.773C130.272 52.773 130.258 52.7721 130.244 52.7692C130.113 52.7471 130.026 52.6222 130.048 52.4915C130.112 52.1186 130.161 51.7419 130.194 51.3719C130.205 51.2393 130.324 51.1413 130.454 51.1538C130.587 51.1653 130.684 51.2816 130.672 51.4142C130.639 51.7976 130.588 52.1868 130.522 52.5731C130.501 52.6904 130.399 52.773 130.285 52.773ZM110.141 51.3277C110.017 51.3277 109.911 51.2326 109.902 51.1067C109.87 50.7127 109.852 50.3206 109.848 49.9419C109.846 49.8093 109.952 49.7007 110.085 49.6988C110.219 49.6959 110.326 49.8036 110.328 49.9362C110.332 50.3033 110.349 50.6838 110.38 51.0682C110.391 51.2008 110.292 51.3162 110.16 51.3267C110.154 51.3277 110.148 51.3277 110.141 51.3277ZM130.486 50.4782C130.353 50.4782 130.246 50.3773 130.246 50.2447V50.2254C130.246 49.8564 130.228 49.4826 130.195 49.1193C130.182 48.9877 130.279 48.8704 130.412 48.8579C130.545 48.8464 130.661 48.9425 130.673 49.0751C130.709 49.4528 130.726 49.842 130.726 50.2312C130.726 50.3638 130.619 50.4782 130.486 50.4782ZM110.12 49.0309C110.114 49.0309 110.109 49.0309 110.103 49.03C109.971 49.0213 109.871 48.907 109.879 48.7743C109.906 48.3765 109.95 47.9854 110.009 47.6106C110.029 47.4799 110.152 47.3905 110.284 47.4107C110.415 47.4318 110.504 47.5548 110.484 47.6855C110.427 48.0459 110.385 48.4226 110.359 48.806C110.35 48.9339 110.245 49.0309 110.12 49.0309ZM130.269 48.2006C130.156 48.2006 130.056 48.1218 130.033 48.0065C129.96 47.6365 129.867 47.2704 129.756 46.9196C129.715 46.7928 129.785 46.6582 129.912 46.6179C130.039 46.5785 130.174 46.6477 130.214 46.7745C130.33 47.1426 130.428 47.526 130.504 47.9133C130.53 48.043 130.446 48.1699 130.315 48.1958C130.301 48.1997 130.284 48.2006 130.269 48.2006ZM110.485 46.7659C110.465 46.7659 110.444 46.763 110.422 46.7572C110.295 46.7226 110.219 46.591 110.252 46.4631C110.356 46.0768 110.482 45.7001 110.626 45.3465C110.676 45.2235 110.815 45.1639 110.939 45.2138C111.062 45.2638 111.122 45.4041 111.072 45.5271C110.936 45.8635 110.816 46.22 110.717 46.5881C110.688 46.6947 110.591 46.7659 110.485 46.7659ZM129.576 46.0153C129.485 46.0153 129.397 45.9625 129.357 45.8741C129.203 45.5339 129.026 45.2014 128.833 44.8862C128.764 44.7728 128.799 44.6248 128.913 44.5556C129.026 44.4864 129.173 44.5219 129.243 44.6344C129.447 44.9659 129.633 45.3167 129.795 45.6751C129.85 45.7962 129.796 45.9384 129.675 45.9932C129.642 46.0086 129.609 46.0153 129.576 46.0153ZM111.353 44.6449C111.311 44.6449 111.27 44.6344 111.232 44.6123C111.118 44.546 111.079 44.3989 111.145 44.2836C111.346 43.9386 111.572 43.61 111.818 43.3082C111.901 43.2054 112.053 43.19 112.156 43.2736C112.259 43.3572 112.274 43.509 112.191 43.6119C111.961 43.8944 111.749 44.2019 111.561 44.5258C111.516 44.6017 111.435 44.6449 111.353 44.6449ZM128.378 44.0626C128.307 44.0626 128.237 44.0318 128.19 43.9732C128.016 43.757 127.828 43.5446 127.633 43.3447C127.568 43.2784 127.502 43.2131 127.436 43.1487C127.341 43.0564 127.338 42.9046 127.429 42.8085C127.521 42.7133 127.673 42.7105 127.768 42.8018C127.838 42.869 127.908 42.9382 127.976 43.0084C128.182 43.2198 128.38 43.4427 128.564 43.6715C128.648 43.7752 128.631 43.9261 128.527 44.0097C128.483 44.0453 128.429 44.0626 128.378 44.0626ZM112.798 42.871C112.732 42.871 112.665 42.844 112.618 42.7902C112.53 42.6912 112.539 42.5394 112.638 42.451C112.925 42.1963 113.241 41.9551 113.577 41.7322C113.688 41.6591 113.837 41.6889 113.91 41.8004C113.983 41.9109 113.952 42.0599 113.842 42.1329C113.523 42.3434 113.226 42.5711 112.956 42.8104C112.911 42.8508 112.855 42.871 112.798 42.871ZM126.727 42.4712C126.677 42.4712 126.626 42.4558 126.582 42.4231C126.287 42.2021 125.972 41.9945 125.647 41.8071C125.532 41.7408 125.493 41.5938 125.559 41.4785C125.625 41.3631 125.772 41.3238 125.887 41.3901C126.229 41.5871 126.559 41.8052 126.87 42.0378C126.975 42.1175 126.998 42.2674 126.918 42.3741C126.872 42.4385 126.8 42.4712 126.727 42.4712ZM114.706 41.6005C114.617 41.6005 114.533 41.5515 114.49 41.4669C114.431 41.3478 114.48 41.2036 114.598 41.145C114.941 40.974 115.304 40.8173 115.676 40.6799C115.8 40.6338 115.938 40.6972 115.985 40.8221C116.031 40.947 115.967 41.0845 115.842 41.1306C115.486 41.2622 115.139 41.4122 114.811 41.5755C114.778 41.5919 114.741 41.6005 114.706 41.6005ZM124.741 41.3238C124.709 41.3238 124.677 41.317 124.646 41.3036C124.308 41.1565 123.953 41.0249 123.593 40.9124C123.466 40.873 123.396 40.7385 123.435 40.6117C123.475 40.4848 123.61 40.4147 123.736 40.4541C124.113 40.5713 124.483 40.7087 124.837 40.8625C124.959 40.9153 125.015 41.0566 124.962 41.1786C124.922 41.2699 124.834 41.3238 124.741 41.3238ZM116.856 40.801C116.75 40.801 116.652 40.7299 116.624 40.6213C116.59 40.4925 116.667 40.3618 116.795 40.3282C117.169 40.2301 117.554 40.1485 117.94 40.0841C118.072 40.062 118.195 40.1513 118.217 40.282C118.238 40.4127 118.15 40.5367 118.019 40.5578C117.647 40.6193 117.276 40.6981 116.917 40.7923C116.897 40.7981 116.876 40.801 116.856 40.801ZM122.552 40.6376C122.536 40.6376 122.52 40.6357 122.504 40.6328C122.141 40.5588 121.766 40.5002 121.391 40.4598C121.259 40.4454 121.163 40.3272 121.178 40.1955C121.192 40.0639 121.31 39.9688 121.442 39.9822C121.832 40.0245 122.221 40.085 122.6 40.1619C122.73 40.1888 122.813 40.3157 122.787 40.4454C122.763 40.5588 122.663 40.6376 122.552 40.6376ZM119.12 40.4252C118.995 40.4252 118.891 40.3291 118.881 40.2023C118.871 40.0697 118.97 39.9543 119.103 39.9447C119.491 39.9159 119.885 39.9044 120.274 39.9101C120.406 39.9121 120.512 40.0216 120.51 40.1542C120.508 40.2859 120.4 40.3906 120.27 40.3906C120.269 40.3906 120.267 40.3906 120.266 40.3906C119.892 40.3849 119.512 40.3964 119.139 40.4243C119.133 40.4252 119.127 40.4252 119.12 40.4252Z" fill="#2E3333"/>
<path d="M152.738 68.0103C152.67 68.0103 152.601 67.9815 152.553 67.9248C152.468 67.8229 152.481 67.672 152.583 67.5865C152.737 67.4577 152.881 67.3337 153.018 67.2146C153.117 67.1271 153.269 67.1377 153.357 67.2376C153.444 67.3376 153.434 67.4894 153.334 67.5769C153.195 67.698 153.048 67.8238 152.893 67.9545C152.847 67.992 152.793 68.0103 152.738 68.0103Z" fill="#2E3333"/>
<path d="M14.2444 81.6739C14.0935 82.6859 13.1508 83.3826 12.1389 83.2317C11.1269 83.0808 10.4302 82.1381 10.5811 81.1262C10.732 80.1142 11.6747 79.4175 12.6866 79.5684C13.6985 79.7202 14.3953 80.662 14.2444 81.6739Z" fill="#2E3333"/>
<path d="M12.1061 82.3396C12.0859 82.3271 12.0676 82.3108 12.0532 82.2916L11.4363 81.4843C11.3699 81.3978 11.3863 81.2748 11.4728 81.2085C11.5593 81.1422 11.6823 81.1595 11.7486 81.245L12.2291 81.8735L13.2285 80.876C13.3054 80.7991 13.4284 80.7991 13.5062 80.876C13.5831 80.9529 13.5831 81.0778 13.5062 81.1547L12.3482 82.3108C12.3079 82.3511 12.2531 82.3713 12.1964 82.3675C12.1647 82.3665 12.133 82.356 12.1061 82.3396Z" fill="white"/>
<path d="M119.318 21.4516C119.103 22.8854 117.768 23.8733 116.334 23.659C114.9 23.4447 113.912 22.1089 114.126 20.6751C114.341 19.2413 115.676 18.2534 117.11 18.4677C118.544 18.682 119.532 20.0178 119.318 21.4516Z" fill="#2E3333"/>
<path d="M116.288 22.396C116.26 22.3787 116.235 22.3556 116.213 22.3278L115.34 21.1842C115.247 21.0621 115.27 20.8872 115.392 20.7931C115.514 20.6998 115.689 20.7239 115.783 20.8449L116.463 21.7358L117.879 20.3222C117.987 20.2136 118.162 20.2136 118.273 20.3222C118.381 20.4308 118.381 20.6076 118.272 20.7162L116.631 22.3547C116.575 22.4114 116.496 22.4412 116.416 22.4354C116.37 22.4344 116.327 22.42 116.288 22.396Z" fill="white"/>
<path d="M159.234 23.2008C159.083 24.2127 158.14 24.9094 157.128 24.7585C156.116 24.6077 155.419 23.6649 155.57 22.653C155.721 21.6411 156.664 20.9444 157.676 21.0952C158.687 21.2471 159.385 22.1898 159.234 23.2008Z" fill="#2E3333"/>
<path d="M157.097 23.8674C157.077 23.855 157.059 23.8386 157.044 23.8194L156.427 23.0122C156.361 22.9257 156.377 22.8027 156.464 22.7364C156.55 22.67 156.673 22.6873 156.74 22.7729L157.22 23.4014L158.22 22.4039C158.297 22.327 158.42 22.327 158.497 22.4039C158.574 22.4807 158.574 22.6057 158.497 22.6825L157.339 23.8386C157.299 23.879 157.244 23.8992 157.188 23.8953C157.155 23.8944 157.124 23.8847 157.097 23.8674Z" fill="white"/>
<path d="M145.882 100.426C145.683 101.928 144.442 102.964 143.11 102.739C141.778 102.515 140.86 101.115 141.059 99.6133C141.258 98.1113 142.499 97.0753 143.831 97.3002C145.163 97.5241 146.081 98.9243 145.882 100.426Z" fill="#2E3333"/>
<path d="M143.066 101.414C143.039 101.396 143.016 101.372 142.996 101.343L142.184 100.145C142.098 100.017 142.119 99.8332 142.232 99.7351C142.345 99.6371 142.508 99.6621 142.595 99.7899L143.228 100.723L144.542 99.2421C144.643 99.1278 144.806 99.1287 144.908 99.2421C145.009 99.3565 145.009 99.541 144.907 99.6554L143.383 101.372C143.33 101.431 143.257 101.462 143.183 101.456C143.143 101.453 143.102 101.438 143.066 101.414Z" fill="white"/>
<path d="M54.7166 15.006C54.5657 16.0179 53.6229 16.7146 52.611 16.5637C51.5991 16.4128 50.9024 15.4701 51.0532 14.4582C51.2041 13.4463 52.1469 12.7495 53.1588 12.9004C54.1698 13.0523 54.8674 13.995 54.7166 15.006Z" fill="#2E3333"/>
<path d="M52.5792 15.6712C52.559 15.6587 52.5408 15.6423 52.5263 15.6231L51.9094 14.8159C51.8431 14.7294 51.8594 14.6064 51.9459 14.5401C52.0324 14.4738 52.1554 14.4911 52.2217 14.5766L52.7022 15.2051L53.7017 14.2076C53.7785 14.1307 53.9015 14.1307 53.9794 14.2076C54.0563 14.2844 54.0563 14.4094 53.9794 14.4862L52.8214 15.6423C52.781 15.6827 52.7262 15.7029 52.6695 15.699C52.6369 15.6981 52.6061 15.6885 52.5792 15.6712Z" fill="white"/>
<path d="M33.1265 110.356C32.8276 110.356 32.5845 110.113 32.5845 109.814V105.989C32.5845 105.69 32.8276 105.447 33.1265 105.447C33.4253 105.447 33.6685 105.69 33.6685 105.989V109.814C33.6685 110.113 33.4263 110.356 33.1265 110.356Z" fill="#E65C00"/>
<path d="M35.0411 108.444H31.2163C30.9174 108.444 30.6743 108.201 30.6743 107.902C30.6743 107.603 30.9174 107.36 31.2163 107.36H35.0411C35.3399 107.36 35.5831 107.603 35.5831 107.902C35.5831 108.201 35.3399 108.444 35.0411 108.444Z" fill="#E65C00"/>
<path d="M18.0199 4.98083C17.7162 4.98083 17.4702 4.73385 17.4702 4.43018V0.549688C17.4702 0.246014 17.7172 0 18.0199 0C18.3236 0 18.5705 0.246975 18.5705 0.549688V4.43114C18.5705 4.73482 18.3236 4.98083 18.0199 4.98083Z" fill="#E65C00"/>
<path d="M19.9614 3.03979H16.0799C15.7763 3.03979 15.5293 2.79282 15.5293 2.48914C15.5293 2.18547 15.7763 1.93945 16.0799 1.93945H19.9614C20.2651 1.93945 20.512 2.18643 20.512 2.48914C20.512 2.79282 20.2651 3.03979 19.9614 3.03979Z" fill="#E65C00"/>
<path d="M94.3586 4.54345C94.1491 4.54345 93.979 4.37335 93.979 4.16385V1.48653C93.979 1.27703 94.1491 1.10693 94.3586 1.10693C94.5681 1.10693 94.7382 1.27703 94.7382 1.48653V4.16385C94.7382 4.37335 94.5681 4.54345 94.3586 4.54345Z" fill="#E65C00"/>
<path d="M95.6976 3.20547H93.0202C92.8107 3.20547 92.6406 3.03538 92.6406 2.82588C92.6406 2.61639 92.8107 2.44629 93.0202 2.44629H95.6976C95.907 2.44629 96.0771 2.61639 96.0771 2.82588C96.0771 3.03442 95.907 3.20547 95.6976 3.20547Z" fill="#E65C00"/>
<path d="M1.7253 41.6284C1.51581 41.6284 1.3457 41.4583 1.3457 41.2488V38.5715C1.3457 38.362 1.51581 38.1919 1.7253 38.1919C1.9348 38.1919 2.10489 38.362 2.10489 38.5715V41.2488C2.10489 41.4583 1.9348 41.6284 1.7253 41.6284Z" fill="#E65C00"/>
<path d="M3.06277 40.2899H0.385447C0.175951 40.2899 0.00585938 40.1199 0.00585938 39.9104C0.00585938 39.7009 0.175951 39.5308 0.385447 39.5308H3.06277C3.27227 39.5308 3.44237 39.7009 3.44237 39.9104C3.44237 40.1199 3.27227 40.2899 3.06277 40.2899Z" fill="#E65C00"/>
<path d="M141.619 50.2834C141.364 50.2834 141.158 50.0768 141.158 49.8221V46.5692C141.158 46.3145 141.364 46.1079 141.619 46.1079C141.874 46.1079 142.08 46.3145 142.08 46.5692V49.8221C142.08 50.0758 141.874 50.2834 141.619 50.2834Z" fill="#E65C00"/>
<path d="M143.246 48.6584H139.994C139.739 48.6584 139.532 48.4518 139.532 48.1971C139.532 47.9425 139.739 47.7358 139.994 47.7358H143.246C143.501 47.7358 143.708 47.9425 143.708 48.1971C143.708 48.4518 143.501 48.6584 143.246 48.6584Z" fill="#E65C00"/>
<defs>
<clipPath id="clip0_1104_682">
<rect width="73" height="149" fill="white" transform="translate(44 23)"/>
</clipPath>
</defs>
</svg>
