<svg width="21" height="16" viewBox="0 0 21 16" fill="none" xmlns="http://www.w3.org/2000/svg">
<path opacity="0.4" d="M0 13.6665C0 14.9165 1 15.9998 2.33333 15.9998H17.75C19 15.9998 20.0833 14.9998 20.0833 13.6665V12.9165H0.0833334V13.6665H0Z" fill="#BCBDBD"/>
<path d="M17.6667 0H2.33333C1.08333 0 0 1 0 2.33333V11.25H20V2.33333C20 1.08333 19 0 17.6667 0ZM18 4.5C18 4.83333 17.75 5.08333 17.4167 5.08333H2.5C2.16667 5.08333 1.91667 4.83333 1.91667 4.5V3.83333C1.91667 3.5 2.16667 3.25 2.5 3.25H17.4167C17.75 3.25 18 3.5 18 3.83333V4.5Z" fill="#BCBDBD"/>
</svg>
